<svg height="96" id="svg3001" viewBox="0 0 520 520" width="96" xmlns="http://www.w3.org/2000/svg"><path d="M437.1 441.49c-22.983 22.982-49.73 41.02-79.504 53.614-7.563 3.2-15.243 6.006-23.03 8.428v-44.63c0-23.456-8.045-40.71-24.135-51.758 10.083-.97 19.338-2.326 27.77-4.07 8.434-1.746 17.353-4.266 26.753-7.56 9.403-3.296 17.836-7.222 25.297-11.778 7.465-4.556 14.636-10.468 21.518-17.738 6.883-7.27 12.65-15.508 17.3-24.717 4.654-9.208 8.338-20.257 11.05-33.148 2.716-12.89 4.072-27.09 4.072-42.6 0-30.047-9.79-55.636-29.37-76.767 8.92-23.262 7.95-48.56-2.907-75.894l-7.27-.872c-5.038-.58-14.102 1.55-27.187 6.398s-27.77 12.795-44.054 23.845c-23.068-6.397-47.008-9.595-71.822-9.595-25.008 0-48.85 3.198-71.532 9.596-10.274-6.978-20.016-12.744-29.224-17.3-9.21-4.556-16.575-7.657-22.1-9.305-5.524-1.648-10.66-2.666-15.41-3.054-4.75-.386-7.803-.484-9.16-.29-1.357.195-2.326.388-2.908.582-10.855 27.527-11.825 52.826-2.908 75.894-19.578 21.13-29.37 46.72-29.37 76.767 0 15.508 1.36 29.71 4.072 42.6s6.397 23.94 11.05 33.15c4.653 9.208 10.42 17.446 17.3 24.716 6.884 7.27 14.055 13.18 21.52 17.737 7.463 4.556 15.896 8.482 25.296 11.777 9.402 3.295 18.32 5.816 26.752 7.56 8.433 1.745 17.688 3.103 27.77 4.07-15.897 10.856-23.845 28.11-23.845 51.76V504.4c-8.78-2.613-17.435-5.7-25.938-9.298-29.75-12.63-56.5-30.66-79.488-53.64-22.98-22.98-41.02-49.73-53.613-79.51-13.024-30.79-19.63-63.54-19.63-97.32 0-33.778 6.606-66.53 19.632-97.33 12.593-29.764 30.63-56.516 53.61-79.5 22.983-22.98 49.735-41.016 79.5-53.61 30.798-13.026 63.553-19.63 97.33-19.63 33.78 0 66.524 6.605 97.324 19.63 29.774 12.594 56.52 30.63 79.504 53.614 22.98 22.98 41.018 49.73 53.61 79.503 13.028 30.798 19.634 63.553 19.634 97.33 0 33.78-6.606 66.524-19.632 97.323-12.592 29.772-30.632 56.522-53.614 79.502z" fill="none" id="path3" stroke-width="16.632" stroke="#FFF"/></svg>