<?xml version="1.0" standalone="no"?>
<!DOCTYPE svg PUBLIC "-//W3C//DTD SVG 1.1//EN" "http://www.w3.org/Graphics/SVG/1.1/DTD/svg11.dtd" >
<svg xmlns="http://www.w3.org/2000/svg">
<metadata>
Created by FontPrep 20130207 at Wed Jul  1 21:05:48 2015
 By Guillermo Cura
(c) 2012, 2013, 2014, 2015 by Stawix Ruecha &#38; Foundry. All rights reserved.
</metadata>
<defs>
<font id="13d29914c1203a9b8d6ffe5b9fff3688" horiz-adv-x='1024' >
  <font-face 
    font-family="AmsiProCond-Thin"
    font-weight="400"
    font-stretch="condensed"
    units-per-em="2048"
    panose-1="2 11 10 6 2 2 1 1 1 4"
    ascent="1753"
    descent="-295"
    x-height="1069"
    cap-height="1434"
    bbox="-307.667 -555 2458 2140"
    underline-thickness="30"
    underline-position="-176"
    unicode-range="U+0020-FB4E"
  />
<missing-glyph horiz-adv-x="1007" 
d="M504 616l-342 -516h684zM504 797l344 516h-686zM100 1223v-1030l344 514zM907 193v1030l-344 -516zM0 1413h1008v-1413h-1008v1413z" />
    <glyph glyph-name="f_f" unicode="ff" horiz-adv-x="860" 
d="M618 1069h193q12 0 12 -12v-19q0 -12 -12 -12h-193v-1014q0 -12 -12 -12h-20q-12 0 -13 12v1014h-348v-1014q0 -12 -12 -12h-20q-12 0 -13 12v1014h-123q-12 0 -12 12v19q0 12 12 12h123v115q0 135 40 196t134 62q27 0 60 -4q14 -2 14 -21v-10q0 -14 -24 -11t-46 3
q-76 0 -104 -50t-29 -173v-107h348v94q0 152 40 215t147 64q33 0 61 -4q14 -2 15 -21v-10q0 -14 -22 -11t-50 3q-86 0 -116 -53t-30 -191v-86z" />
    <glyph glyph-name="fi" unicode="fi" horiz-adv-x="737" 
d="M614 1421v-145q0 -12 -12 -12h-29q-12 0 -12 12v145q0 12 12 13h29q12 -1 12 -13zM610 1057v-1045q0 -12 -12 -12h-20q-12 0 -13 12v1014h-340v-1014q0 -12 -12 -12h-20q-12 0 -13 12v1014h-123q-12 0 -12 12v19q0 12 12 12h123v115q0 135 40 196t134 62q27 0 60 -4
q14 -2 14 -21v-10q0 -14 -24 -11t-46 3q-76 0 -104 -50t-29 -171v-109h373q12 0 12 -12z" />
    <glyph glyph-name="fl" unicode="fl" horiz-adv-x="745" 
d="M618 1407v-1395q0 -12 -12 -12h-20q-12 0 -13 12v1377q-68 10 -131 10q-121 -1 -169 -63t-48 -197v-70h172q12 0 13 -12v-19q0 -12 -13 -12h-172v-1014q0 -12 -12 -12h-20q-12 0 -13 12v1014h-123q-12 0 -12 12v19q0 12 12 12h123v78q0 151 60 223t202 72q86 0 164 -17
q12 -4 12 -18z" />
    <glyph glyph-name="f_f_i" unicode="ffi" horiz-adv-x="1130" 
d="M1008 1421v-145q0 -12 -13 -12h-28q-12 0 -13 12v145q0 12 13 13h28q13 -1 13 -13zM1004 1057v-1045q0 -12 -13 -12h-20q-12 0 -13 12v1014h-340v-1014q0 -12 -12 -12h-20q-12 0 -13 12v1014h-348v-1014q0 -12 -12 -12h-20q-12 0 -13 12v1014h-123q-12 0 -12 12v19
q0 12 12 12h123v115q0 135 40 196t134 62q27 0 60 -4q14 -2 14 -21v-10q0 -14 -24 -11t-46 3q-76 0 -104 -50t-29 -173v-107h348v115q0 135 40 196t135 62q27 0 59 -4q14 -2 14 -21v-10q1 -14 -23 -11t-46 3q-76 0 -105 -50t-29 -173v-107h373q13 0 13 -12z" />
    <glyph glyph-name="f_f_l" unicode="ffl" horiz-adv-x="1138" 
d="M618 1026v-1014q0 -12 -12 -12h-20q-12 0 -13 12v1014h-348v-1014q0 -12 -12 -12h-20q-12 0 -13 12v1014h-123q-12 0 -12 12v19q0 12 12 12h123v115q0 135 40 196t134 62q27 0 60 -4q14 -2 14 -21v-8q0 -16 -24 -13t-46 3q-76 0 -104 -50t-29 -173v-107h348v78
q1 151 61 223t200 72q88 0 165 -17q12 -4 13 -18v-1395q0 -12 -13 -12h-20q-12 0 -12 12v1377q-68 10 -131 10q-121 -1 -169 -63t-49 -197v-70h173q12 0 12 -12v-19q0 -12 -12 -12h-173z" />
    <glyph glyph-name="f_b" unicode="fb" horiz-adv-x="1236" 
d="M618 1407v-547q25 102 91 164t165 61q154 0 222 -139t68 -411t-68 -412q-68 -139 -222 -139q-102 0 -166 61t-90 164v-197q0 -12 -12 -12h-20q-12 0 -13 12v1377q-68 10 -131 10q-121 -1 -169 -63t-48 -197v-70h172q12 0 13 -12v-19q0 -12 -13 -12h-172v-1014
q0 -12 -12 -12h-20q-12 0 -13 12v1014h-123q-12 0 -12 12v19q0 12 12 12h123v78q0 151 60 223t200 72q88 0 166 -17q12 -4 12 -18zM616 535q0 -508 258 -508q242 0 242 508t-242 507q-258 1 -258 -507z" />
    <glyph glyph-name="f_f_b" unicode="ffb" horiz-adv-x="1630" 
d="M1012 1407v-547q25 102 89 164q65 61 167 61q154 0 222 -139t66 -411q0 -272 -67 -412q-68 -139 -221 -139q-102 0 -167 61t-89 164v-197q0 -12 -13 -12h-20q-12 0 -12 12v1377q-68 10 -131 10q-121 -1 -169 -63t-49 -197v-70h173q12 0 12 -12v-19q0 -12 -12 -12h-173
v-1014q0 -12 -12 -12h-20q-12 0 -13 12v1014h-348v-1014q0 -12 -12 -12h-20q-12 0 -13 12v1014h-123q-12 0 -12 12v19q0 12 12 12h123v115q0 135 40 196t134 62q27 0 60 -4q14 -2 14 -21v-10q0 -14 -24 -11t-46 3q-76 0 -104 -50t-29 -173v-107h348v78q1 151 61 223t200 72
q88 0 165 -17q13 -4 13 -18zM1010 535q0 -508 258 -508q242 0 242 508t-242 507q-258 1 -258 -507z" />
    <glyph glyph-name="f_h" unicode="fh" horiz-adv-x="1236" 
d="M618 1407v-518q78 197 269 196q123 0 181 -84t58 -229v-760q0 -12 -12 -12h-20q-12 0 -13 12v760q0 270 -194 270q-115 0 -192 -91t-77 -238v-701q0 -12 -12 -12h-20q-12 0 -13 12v1377q-68 10 -131 10q-121 -1 -169 -63t-48 -197v-70h172q12 0 13 -12v-19q0 -12 -13 -12
h-172v-1014q0 -12 -12 -12h-20q-12 0 -13 12v1014h-123q-12 0 -12 12v19q0 12 12 12h123v78q0 151 60 223t200 72q88 0 166 -17q12 -4 12 -18z" />
    <glyph glyph-name="f_f_h" unicode="ffh" horiz-adv-x="1630" 
d="M1012 1407v-518q29 80 96 138q68 58 182 58t171 -84q58 -84 59 -227v-762q0 -12 -13 -12h-20q-12 0 -12 12v760q0 270 -195 270q-116 0 -192 -91t-76 -238v-701q0 -12 -13 -12h-20q-12 0 -12 12v1377q-68 10 -131 10q-121 -1 -169 -63t-49 -197v-70h173q12 0 12 -12v-19
q0 -12 -12 -12h-173v-1014q0 -12 -12 -12h-20q-12 0 -13 12v1014h-348v-1014q0 -12 -12 -12h-20q-12 0 -13 12v1014h-123q-12 0 -12 12v19q0 12 12 12h123v115q0 135 40 196t134 62q27 0 60 -4q14 -2 14 -21v-10q0 -14 -24 -11t-46 3q-76 0 -104 -50t-29 -173v-107h348v78
q1 151 61 223t200 72q88 0 165 -17q13 -4 13 -18z" />
    <glyph glyph-name="f_j" unicode="fj" horiz-adv-x="737" 
d="M614 1421v-145q0 -12 -12 -12h-29q-12 0 -12 12v145q0 12 12 13h29q12 -1 12 -13zM610 1057v-1100q0 -100 -28 -145t-105 -45q-19 0 -33 2t-14 18v14q0 13 12 11t50 -2t56 33q17 34 17 112v1071h-340v-1014q0 -12 -12 -12h-20q-12 0 -13 12v1014h-123q-12 0 -12 12v19
q0 12 12 12h123v115q0 135 40 196t134 62q27 0 60 -4q14 -2 14 -21v-10q0 -14 -24 -11t-46 3q-76 0 -104 -50t-29 -173v-107h373q12 0 12 -12z" />
    <glyph glyph-name="f_f_j" unicode="ffj" horiz-adv-x="1130" 
d="M1008 1421v-145q0 -12 -13 -12h-28q-12 0 -13 12v145q0 12 13 13h28q13 -1 13 -13zM1004 1057v-1100q0 -100 -29 -145t-105 -45q-20 0 -33 2t-14 18v14q1 13 13 11t50 -2t55 33q17 34 17 116v1067h-340v-1014q0 -12 -12 -12h-20q-12 0 -13 12v1014h-348v-1014
q0 -12 -12 -12h-20q-12 0 -13 12v1014h-123q-12 0 -12 12v19q0 12 12 12h123v115q0 135 40 196t134 62q27 0 60 -4q14 -2 14 -21v-10q0 -14 -24 -11t-46 3q-76 0 -104 -50t-29 -173v-107h348v115q0 135 40 196t135 62q27 0 59 -4q14 -2 14 -21v-10q1 -14 -23 -11t-46 3
q-76 0 -105 -50t-29 -173v-107h373q13 0 13 -12z" />
    <glyph glyph-name="f_k" unicode="fk" horiz-adv-x="1101" 
d="M618 1407v-797l377 447q12 12 27 12h20q10 0 12 -6t-3 -12l-389 -457l401 -576q14 -18 -8 -18h-21q-18 0 -26 12l-390 563v-563q0 -12 -12 -12h-20q-12 0 -13 12v1377q-68 10 -131 10q-121 -1 -169 -63t-48 -197v-70h172q12 0 13 -12v-19q0 -12 -13 -12h-172v-1014
q0 -12 -12 -12h-20q-12 0 -13 12v1014h-123q-12 0 -12 12v19q0 12 12 12h123v78q0 151 60 223t200 72q88 0 166 -17q12 -4 12 -18z" />
    <glyph glyph-name="f_f_k" unicode="ffk" horiz-adv-x="1495" 
d="M967 12v1377q-68 10 -131 10q-121 -1 -169 -63t-49 -197v-70h173q12 0 12 -12v-19q0 -12 -12 -12h-173v-1014q0 -12 -12 -12h-20q-12 0 -13 12v1014h-348v-1014q0 -12 -12 -12h-20q-12 0 -13 12v1014h-123q-12 0 -12 12v19q0 12 12 12h123v115q0 135 40 196t134 62
q27 0 60 -4q14 -2 14 -21v-10q0 -14 -24 -11t-46 3q-76 0 -104 -50t-29 -173v-107h348v78q1 151 61 223t200 72q88 0 165 -17q12 -4 13 -18v-797l377 447q12 12 26 12h21q10 0 12 -6t-4 -12l-389 -457l401 -576q14 -18 -8 -18h-21q-18 0 -26 12l-389 563v-563q0 -12 -13 -12
h-20q-12 0 -12 12z" />
    <glyph glyph-name="f_t" unicode="ft" horiz-adv-x="892" 
d="M225 1069h348v246q0 12 13 12h20q12 0 12 -12v-246h193q12 0 12 -12v-19q0 -12 -12 -12h-193v-782q0 -123 29 -167t103 -44q33 0 55 5t22 -9v-13q0 -18 -14 -20q-27 -6 -65 -6q-92 0 -134 53q-41 53 -41 197v786h-348v-1014q0 -12 -12 -12h-20q-12 0 -13 12v1014h-123
q-12 0 -12 12v19q0 12 12 12h123v115q0 135 40 196t134 62q27 0 60 -4q14 -2 14 -21v-10q0 -14 -24 -11t-46 3q-76 0 -104 -50t-29 -173v-107z" />
    <glyph glyph-name="f_f_t" unicode="fft" horiz-adv-x="1286" 
d="M573 1069v115q0 135 40 196t135 62q27 0 59 -4q14 -2 14 -21v-10q1 -14 -23 -11t-46 3q-76 0 -105 -51t-29 -174v-105h349v246q0 12 12 12h20q12 0 13 -12v-246h192q12 0 13 -12v-19q0 -12 -13 -12h-192v-782q0 -123 28 -167t103 -44q33 0 55 5t23 -9v-13q0 -18 -15 -20
q-27 -6 -65 -6q-92 0 -133 53t-41 197v786h-349v-1014q0 -12 -12 -12h-20q-12 0 -13 12v1014h-348v-1014q0 -12 -12 -12h-20q-12 0 -13 12v1014h-123q-12 0 -12 12v19q0 12 12 12h123v115q0 135 40 196t134 62q27 0 60 -4q14 -2 14 -21v-8q0 -16 -24 -13t-46 3
q-76 0 -104 -50t-29 -173v-107h348z" />
    <glyph glyph-name="t_t" unicode="tt" horiz-adv-x="884" 
d="M803 1026h-193v-782q0 -123 29 -167t102 -44q33 0 55 5t23 -9v-13q0 -18 -14 -20q-27 -6 -66 -6q-92 0 -133 53t-41 199v784h-348v-782q0 -121 27 -166t88 -45q29 0 51 5t23 -9v-13q0 -18 -15 -20q-27 -6 -61 -6q-80 0 -119 53t-39 197v786h-119q-12 0 -12 12v19
q0 12 12 12h119v266q0 12 12 13h21q12 0 12 -13v-266h348v266q0 12 13 13h20q12 0 12 -13v-266h193q12 0 12 -12v-19q0 -12 -12 -12z" />
    <glyph glyph-name="t_t_f" unicode="ttf" horiz-adv-x="1245" 
d="M610 1026v-782q0 -123 29 -167t102 -44q33 0 55 5t23 -9v-13q0 -18 -14 -20q-27 -6 -66 -6q-92 0 -133 53t-41 199v784h-348v-782q0 -121 27 -166t88 -45q29 0 51 5t23 -9v-13q0 -18 -15 -20q-27 -6 -61 -6q-80 0 -119 53t-39 197v786h-119q-12 0 -12 12v19q0 12 12 12
h119v266q0 12 12 13h21q12 0 12 -13v-266h348v266q0 12 13 13h20q12 0 12 -13v-266h348v96q0 150 40 213t147 64q33 0 61 -4q14 -2 15 -21v-10q0 -14 -22 -11t-50 3q-88 0 -117 -53t-28 -189v-88h192q12 0 12 -12v-19q0 -12 -12 -12h-192v-1014q0 -12 -13 -12h-20
q-12 0 -13 12v1014h-348z" />
    <glyph glyph-name=".notdef" horiz-adv-x="1007" 
d="M504 616l-342 -516h684zM504 797l344 516h-686zM100 1223v-1030l344 514zM907 193v1030l-344 -516zM0 1413h1008v-1413h-1008v1413z" />
    <glyph glyph-name=".null" horiz-adv-x="0" 
 />
    <glyph glyph-name="nonmarkingreturn" horiz-adv-x="681" 
 />
    <glyph glyph-name="space" unicode=" " horiz-adv-x="409" 
 />
    <glyph glyph-name="exclam" unicode="!" horiz-adv-x="364" 
d="M190 365h-16q-12 0 -12 12l-6 1044q0 12 12 13h29q12 0 12 -13l-6 -1044q-1 -12 -13 -12zM143 12v113q0 12 13 12h53q12 0 12 -12v-113q0 -12 -12 -12h-53q-13 0 -13 12z" />
    <glyph glyph-name="quotedbl" unicode="&#x22;" horiz-adv-x="499" 
d="M328 1414q0 30 5 39t24 9t23 -10t5 -39q0 -29 -4 -131l-10 -254h-29l-10 254q-4 102 -4 132zM115 1413q0 29 5 39t23 10q17 0 23 -10t6 -39t-4 -131l-10 -254h-29l-10 254q-4 102 -4 131z" />
    <glyph glyph-name="numbersign" unicode="#" horiz-adv-x="942" 
d="M356 938l-116 -426h346l116 426h-346zM905 983q12 0 13 -12v-21q0 -12 -13 -12h-153l-117 -426h143q12 0 13 -12v-21q0 -12 -13 -12h-155l-129 -471q-4 -12 -15 -10l-22 6q-12 2 -8 16l124 459h-346l-129 -471q-4 -12 -14 -10l-23 6q-12 2 -8 16l125 459h-141
q-12 0 -12 12v21q0 12 12 12h153l117 426h-143q-12 0 -12 12v21q0 12 12 12h155l125 455q2 10 15 8l22 -6q10 -4 8 -15l-120 -442h346l125 455q2 10 14 8l23 -6q10 -5 8 -15l-121 -442h141z" />
    <glyph glyph-name="dollar" unicode="$" horiz-adv-x="749" 
d="M408 1606v-156q115 -2 188 -23q14 -4 14 -18v-14q0 -16 -16 -13q-86 23 -186 23q-146 0 -206 -67t-61 -205q0 -82 36 -155t77 -116q40 -43 148 -130t153 -138q104 -125 104 -276q-1 -150 -65 -236t-186 -98v-156q0 -12 -13 -12h-22q-12 0 -13 12v152q-160 0 -256 34
q-14 4 -14 19v14q0 16 16 12q92 -35 236 -35t207 77t63 194t-33 176t-58 85q-24 26 -29 35q-6 9 -38 37t-37 32t-41 33t-75 61t-83 80t-84 128q-40 81 -40 171q0 145 60 224t206 91v158q0 12 13 12h22q13 0 13 -12z" />
    <glyph glyph-name="percent" unicode="%" horiz-adv-x="1294" 
d="M1182 379q0 348 -184 348t-185 -348q1 -348 185 -348t184 348zM766 379q0 391 231 391t231 -391t-230 -391q-232 0 -232 391zM481 1055q0 348 -184 348t-184 -348t184 -348t184 348zM66 1055q0 391 231 391t231 -391t-231 -391t-231 391zM313 0h-22q-16 0 -8 16l680 1405
q6 12 18 13h23q16 -1 8 -17l-680 -1405q-6 -12 -19 -12z" />
    <glyph glyph-name="ampersand" unicode="&#x26;" horiz-adv-x="1024" 
d="M487 29q203 0 297 166l-393 632q-121 -47 -184 -165t-63 -280t88 -258q89 -96 255 -95zM874 590q23 0 23 -136t-59 -259l112 -181q10 -14 -6 -14h-29q-10 0 -16 10l-86 140q-113 -166 -313 -166q-404 0 -406 422q0 154 70 280t205 178l-37 62q-94 160 -94 276t70 182
t210 66q90 0 148 -20q14 -4 14 -19v-12q0 -16 -16 -13q-61 20 -162 20t-158 -53q-57 -54 -57 -160t86 -245l436 -706q39 96 39 192t-8 144q-4 12 12 12h22z" />
    <glyph glyph-name="quotesingle" unicode="'" horiz-adv-x="286" 
d="M115 1413q0 29 5 39t23 10q17 0 23 -10t6 -39t-4 -131l-10 -254h-29l-10 254q-4 102 -4 131z" />
    <glyph glyph-name="parenleft" unicode="(" horiz-adv-x="454" 
d="M135 606q0 483 209 832q6 8 16 8h21q12 0 6 -12q-90 -154 -146 -373q-57 -219 -57 -455t56 -454t147 -373q6 -12 -6 -12h-21q-10 0 -16 8q-209 348 -209 831z" />
    <glyph glyph-name="parenright" unicode=")" horiz-adv-x="454" 
d="M319 606q0 -483 -208 -831q-6 -8 -17 -8h-20q-12 0 -6 12q90 154 146 373q56 218 56 454t-56 455t-146 373q-6 12 6 12h20q10 0 17 -8q208 -349 208 -832z" />
    <glyph glyph-name="asterisk" unicode="*" horiz-adv-x="684" 
d="M342 885q-27 0 -27 43t15 219q-162 -111 -191 -126t-43 7q-12 23 22 42t199 99q-165 80 -199 101q-34 20 -21 42t41 6t192 -126q-14 176 -15 219q0 43 27 43t27 -43t-15 -219q33 20 81 53t95 62q46 29 58 5t-25 -44q-86 -45 -196 -99q117 -55 196 -98q37 -20 26 -44
t-56 1t-179 119q14 -176 14 -219t-26 -43z" />
    <glyph glyph-name="plus" unicode="+" horiz-adv-x="925" 
d="M823 713h-338v-412q0 -12 -12 -12h-20q-12 0 -13 12v412h-338q-12 0 -12 12v20q0 12 14 13h336v411q0 12 13 13h20q12 0 12 -13v-411h338q12 0 13 -13v-20q-1 -12 -13 -12z" />
    <glyph glyph-name="comma" unicode="," horiz-adv-x="299" 
d="M137 -168h-8q-14 0 -10 14l28 154h-24q-12 0 -12 12v113q0 12 12 12h53q12 0 12 -12v-111q0 -8 -2 -16l-34 -154q-4 -12 -15 -12z" />
    <glyph glyph-name="hyphen" unicode="-" horiz-adv-x="544" 
d="M451 528h-357q-12 0 -12 13v18q0 12 12 12h357q12 0 12 -12v-18q0 -13 -12 -13z" />
    <glyph glyph-name="period" unicode="." horiz-adv-x="299" 
d="M111 12v113q0 12 12 12h53q12 0 12 -12v-113q0 -12 -12 -12h-53q-12 0 -12 12z" />
    <glyph glyph-name="slash" unicode="/" horiz-adv-x="528" 
d="M500 1434q12 0 10 -13l-444 -1411q-2 -10 -15 -10h-22q-13 0 -11 12l445 1411q2 10 14 11h23z" />
    <glyph glyph-name="zero" unicode="0" horiz-adv-x="897" 
d="M449 23q157 -1 233 163t76 528t-76 528t-232 165q-156 0 -234 -164q-77 -165 -77 -529t77 -528t233 -163zM449 1450q182 0 270 -174t88 -562t-88 -561t-270 -173t-271 173q-88 173 -88 562t88 562q89 173 271 173z" />
    <glyph glyph-name="one" unicode="1" horiz-adv-x="544" 
d="M313 12v1356l-227 -205q-10 -10 -16 0l-15 17q-10 10 0 18l256 229q6 6 17 7h20q12 0 12 -13v-1409q0 -12 -12 -12h-22q-13 0 -13 12z" />
    <glyph glyph-name="two" unicode="2" horiz-adv-x="835" 
d="M156 1108q0 -41 1 -57t-12 -17h-22q-12 0 -12 13q-4 45 -5 63q0 152 77 246t233 94t230 -100t73 -239q0 -341 -288 -722q-95 -127 -144 -185t-140 -159h594q12 0 13 -12v-21q0 -12 -13 -12h-643q-12 0 -12 12v21q0 12 8 20q96 109 147 168q50 59 145 187t146 222
q51 95 95 221q43 126 43 236q0 317 -256 318q-134 0 -196 -80t-62 -217z" />
    <glyph glyph-name="three" unicode="3" horiz-adv-x="741" 
d="M256 774h86q104 0 173 81t69 242t-66 235t-221 75q-96 0 -205 -33q-16 -4 -16 12v13q0 14 14 18q104 33 207 33q180 0 258 -85t78 -251q1 -166 -57 -252q-58 -88 -138 -108q96 -16 158 -104t63 -278q0 -392 -378 -392q-113 0 -222 30q-14 4 -14 19v12q0 16 16 12
q111 -31 220 -30q330 0 329 370q0 336 -268 336h-86q-12 0 -12 12v21q0 12 12 12z" />
    <glyph glyph-name="four" unicode="4" horiz-adv-x="872" 
d="M614 418v925l-501 -925h501zM649 0h-22q-12 0 -13 12v361h-544q-12 0 -13 12v18q0 10 6 23l541 997q6 10 19 11h26q12 0 13 -13v-1003h161q12 0 13 -12v-21q0 -12 -13 -12h-161v-361q-1 -12 -13 -12z" />
    <glyph glyph-name="five" unicode="5" horiz-adv-x="761" 
d="M680 444q0 -465 -391 -464q-123 0 -209 28q-14 4 -14 19v12q0 16 16 12q90 -29 207 -28q342 0 342 421q1 174 -59 276t-214 101q-117 0 -195 -33q-26 -10 -31 -10t-18 10t-14 23q20 287 31 610q0 12 12 13h463q12 0 12 -13v-20q0 -12 -12 -12h-430q-6 -301 -29 -562
q93 37 199 37q201 0 270 -124q64 -110 64 -296z" />
    <glyph glyph-name="six" unicode="6" horiz-adv-x="839" 
d="M453 23q131 -1 197 111t67 294q0 410 -275 410q-283 0 -282 -402q0 -150 62 -272q32 -63 92 -103q61 -38 139 -38zM485 1407q-178 -1 -262 -149t-84 -510q0 -90 2 -140q15 125 95 199t208 74q322 0 322 -453q0 -205 -80 -327t-233 -121q-193 0 -278 171t-85 565t90 564
t305 170q88 0 152 -23q14 -4 14 -18v-12q0 -17 -16 -13q-68 23 -150 23z" />
    <glyph glyph-name="seven" unicode="7" horiz-adv-x="753" 
d="M211 12q0 322 122 715t290 662h-545q-12 0 -12 12v20q0 12 12 13h594q12 0 12 -13v-20q0 -10 -6 -21q-162 -238 -290 -648t-128 -720q0 -12 -12 -12h-25q-12 0 -12 12z" />
    <glyph glyph-name="eight" unicode="8" horiz-adv-x="835" 
d="M135 332q0 -148 72 -228q72 -82 211 -82t211 82q71 80 71 228t-79 246q-80 98 -203 143q-123 -45 -203 -143t-80 -246zM418 1407q-125 0 -196 -75t-70 -202q0 -260 266 -360q266 100 266 360q0 127 -70 202t-196 75zM418 -20q-164 0 -248 93t-84 253t80 264t201 155
q-264 121 -265 385q0 144 83 232t233 88t232 -88t83 -232q0 -264 -264 -385q121 -51 201 -155t80 -264t-84 -253t-248 -93z" />
    <glyph glyph-name="nine" unicode="9" horiz-adv-x="839" 
d="M387 1409q-131 0 -198 -112t-66 -293q0 -410 274 -410q283 0 283 401q0 153 -63 273q-32 63 -92 102t-138 39zM700 684q0 90 -2 139q-16 -125 -95 -199t-208 -73q-322 0 -321 453q0 204 80 326t233 122q193 0 278 -171t85 -565t-90 -564t-306 -170q-88 0 -151 22
q-14 4 -15 19v12q1 16 17 12q68 -23 149 -22q178 0 262 148t84 511z" />
    <glyph glyph-name="colon" unicode=":" horiz-adv-x="356" 
d="M139 936v111q0 14 13 14h53q12 0 12 -12v-113q0 -12 -12 -12h-53q-13 0 -13 12zM139 12v113q0 12 13 12h53q12 0 12 -12v-113q0 -12 -12 -12h-53q-13 0 -13 12z" />
    <glyph glyph-name="semicolon" unicode=";" horiz-adv-x="356" 
d="M166 -168h-8q-14 0 -11 14l29 154h-24q-12 0 -13 12v113q0 12 13 12h53q12 0 12 -12v-111q0 -8 -2 -16l-35 -154q-4 -12 -14 -12zM139 936v113q0 12 11 12h55q12 0 12 -12v-113q0 -12 -12 -12h-53q-13 0 -13 12z" />
    <glyph glyph-name="less" unicode="&#x3c;" horiz-adv-x="925" 
d="M135 733q0 6 6 12l551 551q8 10 19 0l16 -16q8 -8 0 -16l-530 -531l530 -530q8 -8 0 -17l-16 -16q-10 -10 -19 0l-551 551q-6 6 -6 12z" />
    <glyph glyph-name="equal" unicode="=" horiz-adv-x="925" 
d="M811 504h-696q-12 0 -13 12v21q0 12 13 12h696q12 0 12 -12v-21q0 -12 -12 -12zM811 922h-696q-12 0 -13 12v20q0 12 13 13h696q12 0 12 -13v-20q0 -12 -12 -12z" />
    <glyph glyph-name="greater" unicode="&#x3e;" horiz-adv-x="925" 
d="M791 733q0 -6 -7 -12l-551 -551q-8 -10 -18 0l-16 16q-8 8 0 17l530 530l-530 531q-8 8 0 16l16 16q10 10 18 0l551 -551q7 -6 7 -12z" />
    <glyph glyph-name="question" unicode="?" horiz-adv-x="679" 
d="M334 481v-102q0 -14 -12 -14h-25q-12 0 -12 12v104q0 150 119 322q120 166 120 355q0 112 -54 180t-168 67q-114 0 -208 -31q-16 -4 -16 12v15q0 14 14 18q86 31 193 31q157 0 223 -79t65 -232q1 -101 -37 -195t-82 -156q-120 -168 -120 -307zM270 12v113q0 12 13 12h53
q12 0 12 -12v-113q0 -12 -12 -12h-53q-13 0 -13 12z" />
    <glyph glyph-name="at" unicode="@" horiz-adv-x="1486" 
d="M1030 -156v-10q0 -16 -14 -18q-111 -27 -250 -27q-317 0 -476 142t-159 510t177 583q178 215 484 215t437 -148t131 -421q0 -274 -106 -434t-289 -160h-35q-35 0 -33 33l10 133q-66 -178 -231 -179q-92 1 -146 91t-53 231q0 288 106 431q39 54 109 90t165 36t161 -18
q14 -6 12 -21l-92 -788h18q170 0 267 148q96 149 96 407t-120 393q-121 135 -409 135t-453 -201t-165 -577q0 -326 150 -458t444 -132q133 0 248 27q16 4 16 -13zM856 899q-334 0 -334 -514q0 -125 43 -202t117 -77q102 0 169 102t83 249l49 432q-61 10 -127 10z" />
    <glyph glyph-name="A" unicode="A" horiz-adv-x="876" 
d="M424 1434h29q14 0 16 -13l352 -1407q2 -14 -10 -14h-23q-10 0 -14 12l-112 447h-447l-113 -447q-4 -12 -14 -12h-22q-12 0 -11 14l353 1407q2 13 16 13zM225 504h426l-211 848h-4z" />
    <glyph glyph-name="B" unicode="B" horiz-adv-x="864" 
d="M174 45h211q178 0 265 78t87 257t-82 260t-252 81h-229v-676zM397 1434q361 0 361 -332q0 -170 -62 -254q-62 -82 -161 -103q252 -41 251 -360q0 -205 -101 -295t-300 -90h-246q-12 0 -12 12v1409q0 12 12 13h258zM174 766h219q162 0 240 77t78 243t-76 235
q-76 68 -240 68h-221v-623z" />
    <glyph glyph-name="C" unicode="C" horiz-adv-x="757" 
d="M506 29q86 0 158 20q16 4 16 -12v-14q0 -14 -14 -19q-70 -20 -160 -20q-229 0 -323 162q-93 163 -93 571q0 409 92 571t320 162q82 0 151 -20q14 -4 15 -19v-14q0 -16 -17 -13q-72 20 -149 21q-203 0 -283 -153q-80 -154 -80 -536t81 -534t286 -153z" />
    <glyph glyph-name="D" unicode="D" horiz-adv-x="888" 
d="M360 1389h-186v-1344h186q133 0 214 55q174 118 175 616t-175 617q-81 56 -214 56zM360 0h-221q-12 0 -12 12v1409q0 12 14 13h219q111 0 188 -33t135 -113q116 -160 116 -570t-116 -573q-58 -81 -135 -113t-188 -32z" />
    <glyph glyph-name="E" unicode="E" horiz-adv-x="716" 
d="M606 713h-432v-668h449q12 0 12 -12v-23q0 -10 -12 -10h-484q-12 0 -12 12v1409q0 12 14 13h477q12 0 13 -13v-20q0 -12 -13 -12h-444v-631h432q12 0 12 -13v-20q0 -12 -12 -12z" />
    <glyph glyph-name="F" unicode="F" horiz-adv-x="688" 
d="M598 713h-424v-701q0 -12 -12 -12h-23q-12 0 -12 12v1409q0 12 12 13h471q12 0 13 -15v-18q0 -12 -13 -12h-436v-631h424q12 0 12 -13v-20q0 -12 -12 -12z" />
    <glyph glyph-name="G" unicode="G" horiz-adv-x="819" 
d="M389 770h307q12 0 13 -12v-719q0 -16 -17 -25q-61 -31 -182 -30q-229 0 -325 163q-95 164 -95 570q0 405 94 569t324 164q88 0 158 -20q14 -4 14 -19v-14q0 -16 -16 -13q-72 20 -156 21q-205 0 -287 -153q-82 -152 -82 -534t83 -536t288 -153q86 0 152 24v672h-273
q-12 0 -12 12v21q0 12 12 12z" />
    <glyph glyph-name="H" unicode="H" horiz-adv-x="892" 
d="M719 12v701h-545v-701q0 -12 -12 -12h-23q-12 0 -12 12v1409q0 12 12 13h23q12 0 12 -13v-663h545v663q0 12 12 13h23q12 0 12 -13v-1409q0 -12 -12 -12h-23q-12 0 -12 12z" />
    <glyph glyph-name="I" unicode="I" horiz-adv-x="319" 
d="M137 12v1409q0 12 13 13h22q12 0 12 -13v-1409q0 -12 -12 -12h-22q-13 0 -13 12z" />
    <glyph glyph-name="J" unicode="J" horiz-adv-x="544" 
d="M371 285v1136q0 12 12 13h23q12 0 12 -13v-1138q0 -162 -52 -227t-171 -64q-72 0 -127 20q-14 4 -15 19v14q0 16 17 12q57 -20 139 -20q82 -1 122 53t40 195z" />
    <glyph glyph-name="K" unicode="K" horiz-adv-x="757" 
d="M707 1434q16 0 6 -15l-504 -682l516 -723q10 -14 -6 -14h-33q-10 0 -16 10l-496 699v-697q0 -12 -12 -12h-23q-12 0 -12 12v1409q0 12 12 13h23q12 0 12 -13v-657l483 659q6 10 17 11h33z" />
    <glyph glyph-name="L" unicode="L" horiz-adv-x="663" 
d="M174 1421v-1376h416q12 0 12 -14v-19q0 -12 -12 -12h-451q-12 0 -12 12v1409q0 12 12 13h23q12 -1 12 -13z" />
    <glyph glyph-name="M" unicode="M" horiz-adv-x="1036" 
d="M518 461q-12 0 -18 12l-326 842v-1303q0 -12 -12 -12h-23q-12 0 -12 12v1409q0 12 12 13h25q12 0 16 -11l338 -882l338 882q4 10 16 11h25q12 0 12 -13v-1409q0 -12 -12 -12h-23q-12 0 -12 12v1303l-325 -842q-7 -12 -19 -12z" />
    <glyph glyph-name="N" unicode="N" horiz-adv-x="913" 
d="M786 1419v-1407q0 -12 -12 -12h-20q-12 0 -19 12l-561 1309v-1309q0 -12 -12 -12h-23q-12 0 -12 12v1409q0 12 12 13h21q12 0 18 -13l561 -1308v1308q0 12 13 13h22q12 -1 12 -15z" />
    <glyph glyph-name="O" unicode="O" horiz-adv-x="937" 
d="M469 27q174 1 252 157t78 533t-78 533t-252 157q-174 0 -252 -157q-78 -158 -78 -534t78 -532t252 -157zM469 1450q199 0 289 -167t90 -566t-90 -566t-288 -167t-289 167t-91 566t90 566t289 167z" />
    <glyph glyph-name="P" unicode="P" horiz-adv-x="798" 
d="M162 0h-23q-12 0 -12 12v1409q0 12 14 13h185q225 0 310 -102t85 -376q0 -272 -85 -374t-308 -103h-154v-467q0 -12 -12 -12zM174 524h154q200 0 272 90t72 342t-72 342t-272 91h-154v-865z" />
    <glyph glyph-name="Q" unicode="Q" horiz-adv-x="937" 
d="M469 27q174 1 252 157t78 532t-78 534t-252 157q-174 0 -252 -157q-78 -158 -78 -534t78 -532t252 -157zM823 -111v-12q0 -18 -30 -18q-225 0 -365 127q-176 14 -257 183t-81 558t90 556t288 167t286 -166t90 -561t-81 -562t-269 -177q111 -80 258 -80l53 2q18 0 18 -17z
" />
    <glyph glyph-name="R" unicode="R" horiz-adv-x="835" 
d="M139 1434h197q227 0 316 -98t89 -336q0 -240 -68 -341q-69 -100 -235 -118l277 -527q6 -14 -8 -14h-27q-10 0 -16 10l-277 527h-213v-525q0 -12 -12 -12h-23q-12 0 -12 12v1409q0 13 12 13zM174 582h176q188 0 265 86t77 318t-77 318t-279 85h-162v-807z" />
    <glyph glyph-name="S" unicode="S" horiz-adv-x="679" 
d="M598 315q0 -336 -313 -335q-100 0 -191 22q-14 4 -14 18v15q0 16 16 12q82 -23 189 -22q266 0 266 290q0 152 -77 245q-42 52 -74 82t-120 104t-147 162q-59 89 -59 234q0 144 68 226t229 82q88 0 164 -23q14 -4 14 -18v-14q0 -16 -17 -13q-80 23 -163 23
q-137 0 -193 -69q-56 -70 -55 -198q0 -128 53 -209q52 -81 140 -151t120 -102q114 -108 139 -194q25 -85 25 -167z" />
    <glyph glyph-name="T" unicode="T" horiz-adv-x="661" 
d="M49 1401v20q0 12 14 13h537q12 0 12 -13v-20q0 -12 -12 -12h-246v-1377q0 -12 -12 -12h-23q-12 0 -12 12v1377h-246q-12 0 -12 12z" />
    <glyph glyph-name="U" unicode="U" horiz-adv-x="880" 
d="M440 -16q-174 0 -246 96t-73 326v1015q0 12 12 13h23q12 0 12 -13v-1011q0 -211 59 -297t213 -86t213 86t60 297v1011q0 12 12 13h23q12 0 12 -13v-1015q0 -230 -73 -326t-247 -96z" />
    <glyph glyph-name="V" unicode="V" horiz-adv-x="843" 
d="M438 0h-32q-12 0 -17 12l-334 1407q-2 14 11 15h22q10 0 14 -13l234 -981l82 -360h8l82 358l233 983q4 12 15 13h22q12 0 10 -15l-333 -1407q-5 -12 -17 -12z" />
    <glyph glyph-name="W" unicode="W" horiz-adv-x="1302" 
d="M641 1434h21q12 0 14 -13l188 -956l70 -381h8l68 381l180 956q2 12 14 13h25q12 0 10 -15l-268 -1407q-4 -12 -17 -12h-32q-12 0 -17 12l-252 1311h-4l-59 -322l-193 -989q-2 -12 -16 -12h-33q-12 0 -16 12l-269 1407q-2 14 11 15h22q14 0 17 -13l180 -956l67 -383h9
l69 383l189 956q2 13 14 13z" />
    <glyph glyph-name="X" unicode="X" horiz-adv-x="782" 
d="M86 0h-27q-14 0 -8 14l316 721l-299 684q-6 14 8 15h26q12 0 15 -9l274 -637l275 637q2 8 14 9h27q14 0 8 -15l-299 -684l315 -721q6 -14 -8 -14h-27q-12 0 -14 8l-291 672l-291 -672q-2 -8 -14 -8z" />
    <glyph glyph-name="Y" unicode="Y" horiz-adv-x="829" 
d="M438 12q0 -12 -12 -12h-23q-12 0 -12 12v557l-332 850q-4 14 11 15h22q10 0 14 -11l222 -565l84 -231h6l84 231l221 565q4 10 14 11h23q14 0 10 -15l-332 -850v-557z" />
    <glyph glyph-name="Z" unicode="Z" horiz-adv-x="729" 
d="M74 12v21q0 2 4 14l524 1342h-493q-12 0 -13 12v20q0 12 13 13h534q12 0 12 -13v-18q0 -4 -4 -17l-522 -1341h518q12 0 12 -12v-21q0 -12 -12 -12h-561q-12 0 -12 12z" />
    <glyph glyph-name="bracketleft" unicode="[" horiz-adv-x="454" 
d="M373 -195v-18q0 -12 -13 -12h-184q-12 0 -12 12v1634q0 12 12 13h184q12 0 13 -13v-18q0 -12 -13 -12h-151v-1573h151q13 -1 13 -13z" />
    <glyph glyph-name="backslash" unicode="\" horiz-adv-x="528" 
d="M500 0h-23q-12 0 -14 10l-445 1411q-2 12 11 13h22q13 -1 15 -11l444 -1411q2 -12 -10 -12z" />
    <glyph glyph-name="bracketright" unicode="]" horiz-adv-x="454" 
d="M82 -213v18q0 12 12 13h152v1573h-152q-12 0 -12 12v18q0 12 12 13h185q12 0 12 -13v-1634q0 -12 -12 -12h-185q-12 0 -12 12z" />
    <glyph glyph-name="asciicircum" unicode="^" horiz-adv-x="925" 
d="M455 1434h16q10 0 16 -13l308 -686q6 -14 -11 -14h-22q-10 0 -17 12l-282 621l-283 -621q-6 -12 -16 -12h-23q-16 0 -10 14l307 686q7 13 17 13z" />
    <glyph glyph-name="underscore" unicode="_" horiz-adv-x="688" 
d="M635 -150h-582q-12 0 -12 13v18q0 12 12 13h582q12 0 12 -13v-18q0 -13 -12 -13z" />
    <glyph glyph-name="grave" unicode="`" horiz-adv-x="491" 
d="M330 1192h-15q-8 0 -14 8l-143 174q-14 18 8 19h33q14 -1 24 -17l113 -172q8 -12 -6 -12z" />
    <glyph glyph-name="a" unicode="a" horiz-adv-x="720" 
d="M565 365v235q-292 -6 -374 -80t-80 -227q0 -260 198 -260q117 0 187 95q69 96 69 237zM610 809v-797q0 -12 -12 -12h-20q-12 0 -13 12v172q-25 -82 -89 -138t-178 -56q-112 0 -172 81t-60 224q0 250 202 309q116 33 297 37v162q0 127 -45 183q-46 56 -160 56t-221 -43
q-14 -4 -14 11v12q0 16 14 20q105 43 231 43q126 1 183 -67t57 -209z" />
    <glyph glyph-name="b" unicode="b" horiz-adv-x="778" 
d="M160 12q0 -12 -13 -12h-20q-12 0 -12 12v1409q0 12 12 13h20q12 0 13 -13v-561q25 102 89 164q65 61 167 61q154 0 222 -139t67 -411q0 -271 -68 -411t-221 -140q-102 0 -167 61q-64 62 -89 164v-197zM158 535q0 -508 258 -508q242 0 241 508q0 508 -241 507
q-258 1 -258 -507z" />
    <glyph glyph-name="c" unicode="c" horiz-adv-x="591" 
d="M74 535q0 287 68 419t239 131q78 0 143 -24q14 -4 15 -21v-12q0 -18 -17 -10q-53 23 -139 22q-150 0 -206 -120t-56 -385q0 -267 56 -387t208 -119q88 0 141 22q16 8 17 -10v-12q0 -16 -15 -21q-66 -25 -145 -24q-174 0 -242 132q-67 132 -67 419z" />
    <glyph glyph-name="d" unicode="d" horiz-adv-x="778" 
d="M618 12v197q-25 -102 -89 -164q-65 -61 -167 -61q-154 0 -222 139t-66 411q0 272 67 412q68 139 221 139q102 0 167 -61t89 -164v561q0 12 13 13h20q12 0 13 -13v-1409q0 -12 -13 -12h-20q-13 0 -13 12zM621 535q0 508 -259 507q-242 0 -242 -508t242 -507q259 0 259 508
z" />
    <glyph glyph-name="e" unicode="e" horiz-adv-x="700" 
d="M584 580q0 230 -47 346t-174 116t-184 -119q-56 -120 -58 -370h463v27zM412 27q102 0 178 28q14 4 14 -10v-12q0 -16 -14 -21q-76 -29 -180 -28q-186 0 -262 130q-74 130 -74 416t68 420t220 135q152 0 210 -129t59 -376v-58q0 -12 -13 -12h-497q4 -258 67 -371
q64 -112 224 -112z" />
    <glyph glyph-name="f" unicode="f" horiz-adv-x="466" 
d="M225 1069h193q12 0 12 -12v-19q0 -12 -12 -12h-193v-1014q0 -12 -12 -12h-20q-12 0 -13 12v1014h-123q-12 0 -12 12v19q0 12 12 12h123v94q0 152 40 215t147 64q33 0 61 -4q14 -2 14 -21v-10q0 -14 -22 -11t-49 3q-88 0 -117 -53t-29 -191v-86z" />
    <glyph glyph-name="g" unicode="g" horiz-adv-x="761" 
d="M651 1057v-955q1 -182 -71 -263t-206 -81t-224 45q-14 8 -15 21v12q0 14 15 10q98 -45 218 -45t179 70t59 235v193q-25 -102 -89 -164q-65 -61 -165 -61q-279 0 -278 506q0 506 278 505q100 0 165 -61t89 -164v197q0 12 12 12h21q12 0 12 -12zM608 580q0 219 -65 341
q-66 122 -191 121q-231 0 -231 -462t231 -463q125 0 191 122q65 122 65 341z" />
    <glyph glyph-name="h" unicode="h" horiz-adv-x="778" 
d="M668 772v-760q0 -12 -13 -12h-20q-12 0 -12 12v760q0 270 -195 270q-116 0 -192 -91t-76 -238v-699q0 -14 -13 -14h-20q-12 0 -12 12v1409q0 12 12 13h20q12 0 13 -13v-532q29 80 96 138q68 58 182 58t172 -84t58 -229z" />
    <glyph glyph-name="i" unicode="i" horiz-adv-x="299" 
d="M176 1393v-146q0 -12 -12 -12h-29q-12 0 -12 12v146q0 12 12 12h29q12 0 12 -12zM172 1057v-1045q0 -12 -12 -12h-21q-12 0 -12 12v1045q0 12 12 12h21q12 0 12 -12z" />
    <glyph glyph-name="j" unicode="j" horiz-adv-x="311" 
d="M188 1393v-146q0 -12 -12 -12h-29q-12 0 -12 12v146q0 12 12 12h29q12 0 12 -12zM139 -41v1098q0 12 13 12h20q12 0 12 -12v-1100q0 -100 -28 -145t-105 -45q-19 0 -33 2t-14 18v14q0 13 12 11t50 -2t56 33q17 34 17 116z" />
    <glyph glyph-name="k" unicode="k" horiz-adv-x="643" 
d="M596 0h-21q-18 0 -26 12l-389 563v-563q0 -12 -13 -12h-20q-12 0 -12 12v1409q0 12 12 13h20q12 0 13 -13v-811l377 447q12 12 26 12h21q10 0 12 -6t-4 -12l-389 -457l401 -576q15 -18 -8 -18z" />
    <glyph glyph-name="l" unicode="l" horiz-adv-x="299" 
d="M172 1421v-1409q0 -12 -12 -12h-21q-12 0 -12 12v1409q0 12 12 13h21q12 -1 12 -13z" />
    <glyph glyph-name="m" unicode="m" horiz-adv-x="1216" 
d="M631 731v-719q0 -12 -13 -12h-20q-12 0 -12 12v768q0 262 -183 262q-102 0 -175 -93t-72 -232v-705q0 -12 -13 -12h-20q-12 0 -12 12v1045q0 12 12 12h20q12 0 13 -12v-164q23 74 90 133q68 59 158 59t146 -54t68 -150q18 78 92 141t178 63q106 -1 162 -81t56 -224v-768
q0 -12 -12 -12h-21q-12 0 -12 12v768q0 262 -182 262q-104 0 -176 -88t-72 -223z" />
    <glyph glyph-name="n" unicode="n" horiz-adv-x="774" 
d="M664 772v-760q0 -12 -13 -12h-20q-12 0 -13 12v760q0 270 -194 270q-117 0 -193 -95t-75 -236v-699q0 -12 -13 -12h-20q-12 0 -12 12v1045q0 12 12 12h20q12 0 13 -12v-172q25 76 94 138q70 62 184 62t172 -84t58 -229z" />
    <glyph glyph-name="o" unicode="o" horiz-adv-x="753" 
d="M377 27q137 0 196 124t60 384t-59 384q-60 123 -197 123t-197 -123q-59 -124 -59 -384q-1 -260 59 -384t197 -124zM377 -16q-164 0 -234 135t-69 416q0 281 70 415t233 135q163 0 233 -135q70 -136 70 -416t-70 -415t-233 -135z" />
    <glyph glyph-name="p" unicode="p" horiz-adv-x="774" 
d="M156 1057v-197q25 102 89 164q65 61 167 61q154 0 222 -139t66 -411q0 -272 -67 -412q-68 -139 -221 -139q-102 0 -167 61t-89 164v-422q0 -12 -13 -12h-20q-12 0 -12 12v1270q0 12 12 12h20q13 0 13 -12zM154 535q0 -508 258 -508q242 0 241 508q0 508 -241 507
q-258 1 -258 -507z" />
    <glyph glyph-name="q" unicode="q" horiz-adv-x="774" 
d="M618 1057q0 12 13 12h20q12 0 13 -12v-1270q0 -12 -13 -12h-20q-12 0 -13 12v426q-25 -102 -90 -166q-66 -63 -166 -63q-154 0 -222 139t-66 411q0 272 67 412q68 139 221 139q102 0 167 -61q64 -62 89 -164v197zM621 535q0 508 -259 507q-242 0 -242 -508t242 -507
q259 0 259 508z" />
    <glyph glyph-name="r" unicode="r" horiz-adv-x="466" 
d="M156 12q0 -12 -13 -12h-20q-12 0 -12 12v1045q0 12 12 12h20q12 0 13 -12v-189q16 88 85 153t162 64q27 0 27 -18v-14q0 -16 -14 -17l-31 2q-90 0 -160 -97t-69 -249v-680z" />
    <glyph glyph-name="s" unicode="s" horiz-adv-x="610" 
d="M549 270q0 -135 -69 -211q-69 -75 -196 -75t-208 30q-14 4 -15 21v12q0 14 17 10q92 -31 196 -30q229 0 230 243q0 71 -18 102q-18 32 -29 47q-10 15 -37 36l-39 30q-14 10 -51 34q-37 23 -80 53t-80 61t-68 84t-30 119q0 250 264 249q72 0 153 -20q14 -4 15 -18v-13
q0 -16 -17 -12q-72 20 -151 20q-219 0 -219 -206q1 -54 25 -98t53 -68t67 -50t48 -34t58 -40q127 -85 147 -129q34 -77 34 -147z" />
    <glyph glyph-name="t" unicode="t" horiz-adv-x="491" 
d="M410 1026h-193v-782q0 -123 29 -167t102 -44q34 0 56 5t22 -9v-13q0 -18 -14 -20q-27 -6 -66 -6q-92 0 -133 53t-41 197v786h-119q-12 0 -12 12v19q0 12 12 12h119v266q0 12 12 13h21q12 0 12 -13v-266h193q12 0 12 -12v-19q0 -12 -12 -12z" />
    <glyph glyph-name="u" unicode="u" horiz-adv-x="765" 
d="M111 313v744q0 12 12 12h20q12 0 13 -12v-744q0 -287 206 -286q115 0 182 97t66 241v692q0 12 13 12h20q12 0 12 -12v-1045q0 -12 -12 -12h-20q-12 0 -13 12v172q-18 -78 -82 -139t-178 -61q-115 0 -177 86t-62 243z" />
    <glyph glyph-name="v" unicode="v" horiz-adv-x="663" 
d="M342 0h-20q-14 0 -17 12l-258 1043q-2 14 10 14h23q14 0 16 -12l183 -750l51 -221h4l233 971q2 12 17 12h22q12 0 10 -14l-258 -1043q-2 -12 -16 -12z" />
    <glyph glyph-name="w" unicode="w" horiz-adv-x="1040" 
d="M508 1069h24q12 0 15 -10l147 -740l41 -239h4l43 239l148 738q4 12 16 12h21q12 0 10 -14l-213 -1043q-2 -12 -16 -12h-21q-14 0 -16 12l-146 719l-43 250h-4l-43 -250l-149 -719q-2 -12 -17 -12h-20q-14 0 -17 12l-209 1043q-2 14 11 14h20q12 0 17 -12l143 -738
l43 -239h4l41 239l152 740q2 10 14 10z" />
    <glyph glyph-name="x" unicode="x" horiz-adv-x="684" 
d="M590 1069h22q16 0 9 -16l-254 -510l262 -527q8 -16 -8 -16h-23q-10 0 -14 8l-242 490l-242 -490q-4 -8 -14 -8h-23q-16 0 -8 16l262 527l-254 510q-8 16 9 16h22q11 0 15 -8l233 -473l233 473q4 8 15 8z" />
    <glyph glyph-name="y" unicode="y" horiz-adv-x="679" 
d="M63 -193q0 14 17 11q47 -12 86 -13q86 0 125 87t22 151l-258 1012q-2 14 11 14h22q14 0 16 -12l191 -750l49 -217h4l49 217l183 750q2 12 16 12h22q13 0 11 -14l-252 -1037q-33 -137 -76 -196q-43 -60 -139 -60t-99 33v12z" />
    <glyph glyph-name="z" unicode="z" horiz-adv-x="671" 
d="M578 1057v-15q0 -8 -5 -16l-442 -983h451q12 0 12 -12v-19q0 -12 -12 -12h-492q-12 0 -12 12v13q0 8 4 16l442 985h-422q-12 0 -12 12v19q0 12 12 12h463q13 0 13 -12z" />
    <glyph glyph-name="braceleft" unicode="{" horiz-adv-x="454" 
d="M74 594v20q0 12 12 13h18q53 0 73 100q19 99 19 323t27 304t123 80h47q12 0 13 -13v-18q0 -12 -13 -12h-47q-64 0 -84 -70t-20 -288t-20 -315t-79 -114q57 -16 77 -114t22 -315q0 -218 20 -288t84 -69h47q12 0 13 -13v-18q0 -12 -13 -12h-47q-96 0 -123 80t-27 303
t-19 323t-73 101h-18q-12 0 -12 12z" />
    <glyph glyph-name="bar" unicode="|" horiz-adv-x="454" 
d="M250 1462v-1675q0 -12 -12 -12h-21q-12 0 -12 12v1675q0 12 12 13h21q12 -1 12 -13z" />
    <glyph glyph-name="braceright" unicode="}" horiz-adv-x="454" 
d="M381 614v-20q0 -12 -12 -12h-19q-53 0 -72 -100q-20 -100 -20 -324t-27 -304t-122 -79h-48q-12 0 -12 12v18q0 12 12 13h48q63 0 84 69q20 70 20 288t20 315t78 114q-57 16 -77 114t-21 315q0 218 -20 288t-84 70h-48q-12 0 -12 12v18q0 12 12 13h48q97 0 123 -80
t26 -304t20 -323q20 -100 72 -100h19q12 -1 12 -13z" />
    <glyph glyph-name="asciitilde" unicode="~" horiz-adv-x="925" 
d="M264 827q53 0 160 -45l98 -41q98 -41 152 -41q73 0 108 107q4 14 19 6l16 -8q8 -6 4 -17q-43 -143 -155 -143q-57 0 -164 45l-109 45q-84 37 -139 37t-88 -55q-14 -27 -20 -46t-21 -12l-16 9q-8 6 -5 16q43 143 160 143z" />
    <glyph glyph-name="uni00A0" unicode="&#xa0;" horiz-adv-x="0" 
 />
    <glyph glyph-name="exclamdown" unicode="&#xa1;" horiz-adv-x="364" 
d="M174 705h16q12 0 13 -13l6 -905q0 -12 -12 -12h-29q-12 0 -12 12l6 905q0 13 12 13zM221 1057v-113q0 -12 -12 -12h-53q-12 0 -13 12v113q0 12 13 12h53q12 0 12 -12z" />
    <glyph glyph-name="cent" unicode="&#xa2;" horiz-adv-x="630" 
d="M78 535q0 272 65 404q66 132 228 144v158q0 12 12 12h23q12 0 12 -12v-156q66 -2 137 -26q14 -4 14 -21v-12q0 -18 -16 -10q-57 25 -147 24q-158 0 -220 -120q-61 -121 -61 -386q0 -266 61 -386t222 -119q92 0 149 24q16 8 16 -10v-12q0 -16 -14 -21q-72 -25 -141 -26
v-156q0 -12 -12 -12h-23q-12 0 -12 12v158q-164 10 -229 143q-64 134 -64 406z" />
    <glyph glyph-name="sterling" unicode="&#xa3;" horiz-adv-x="884" 
d="M92 713q-12 0 -12 12v18q0 12 12 13h129q-71 232 -71 376t79 231q80 87 238 87q157 0 229 -82t72 -219q0 -74 -16 -74h-23q-12 0 -11 16t1 58q0 256 -246 256q-274 0 -274 -283q0 -131 71 -366h260q12 0 13 -13v-18q0 -12 -13 -12h-245q55 -186 55 -291t-44 -201
t-130 -158q82 35 138 35t154 -32t148 -33q51 -1 81 23q67 52 67 257q0 12 12 13h25q12 0 12 -13q0 -235 -85 -295t-263 2q-92 33 -179 33t-174 -53q-10 -6 -16 4l-12 21q-8 10 4 16q213 141 213 389q0 101 -55 283h-144z" />
    <glyph glyph-name="currency" unicode="&#xa4;" horiz-adv-x="942" 
d="M739 580q1 194 -69 292t-198 98t-199 -98t-71 -292t70 -293t199 -99t199 98t69 294zM160 580q0 146 37 239l-113 115q-8 10 0 18l14 15q8 8 19 0l102 -103q80 146 252 146t252 -146l102 103q10 8 19 0l14 -15q8 -8 0 -18l-113 -115q37 -94 37 -239t-37 -240l113 -115
q8 -10 0 -18l-14 -14q-8 -8 -19 0l-102 102q-80 -145 -252 -145t-252 145l-102 -102q-10 -8 -19 0l-14 14q-8 8 0 18l113 115q-37 94 -37 240z" />
    <glyph glyph-name="yen" unicode="&#xa5;" horiz-adv-x="876" 
d="M461 430v-418q0 -12 -12 -12h-21q-12 0 -12 12v418h-303q-12 0 -13 12v19q0 12 13 12h303v55l-74 185h-229q-12 0 -13 12v18q0 12 13 13h211l-265 663q-4 14 11 15h22q10 0 14 -11l330 -833h4l330 833q4 10 14 11h23q14 0 10 -15l-266 -663h213q12 0 12 -13v-18
q0 -12 -12 -12h-229l-74 -185v-55h303q12 0 12 -12v-19q0 -12 -12 -12h-303z" />
    <glyph glyph-name="brokenbar" unicode="&#xa6;" horiz-adv-x="454" 
d="M250 438v-651q0 -12 -12 -12h-21q-12 0 -12 12v651q0 12 12 13h21q12 -1 12 -13zM250 1462v-651q0 -12 -12 -12h-21q-12 0 -12 12v651q0 12 12 13h21q12 -1 12 -13z" />
    <glyph glyph-name="section" unicode="&#xa7;" horiz-adv-x="942" 
d="M455 879q-109 0 -180 -71t-71 -160t58 -146q57 -57 99 -83t83 -50l52 -31q104 4 171 73t67 162t-83 165q-81 72 -196 141zM160 659q0 88 65 163q66 75 176 89q-90 61 -139 126t-49 173t68 174t212 66t226 -31q14 -4 14 -20v-13q0 -14 -16 -10q-92 31 -220 31
q-127 0 -183 -53t-56 -160q0 -62 38 -118t78 -87t118 -80l6 -2q2 -2 50 -34q93 -61 145 -113q85 -82 85 -187q0 -104 -62 -178t-169 -90q188 -125 188 -280q1 -119 -73 -189t-222 -70t-231 31q-14 4 -14 21v12q0 14 16 10q92 -31 219 -30q260 0 260 215q0 105 -87 178
q-48 41 -77 60q-30 19 -108 67t-125 83q-47 34 -90 96t-43 150z" />
    <glyph glyph-name="dieresis" unicode="&#xa8;" horiz-adv-x="491" 
d="M391 1288v-84q0 -12 -12 -12h-29q-12 0 -12 12v84q0 12 12 12h29q12 0 12 -12zM154 1288v-84q0 -12 -13 -12h-28q-12 0 -13 12v84q0 12 13 12h28q13 0 13 -12z" />
    <glyph glyph-name="copyright" unicode="&#xa9;" horiz-adv-x="1347" 
d="M119 717q0 396 179 589q133 144 374 144t378 -144q176 -190 177 -587q2 -397 -177 -591q-133 -144 -374 -144t-378 144q-123 133 -162 360q-17 106 -17 229zM166 717q0 -292 112 -491t394 -199t396 199q114 198 114 490t-108 483q-118 208 -400 208t-401 -208
q-107 -190 -107 -482zM717 334q76 0 119 14q12 4 12 -8v-16q0 -14 -10 -17q-53 -16 -123 -16q-143 0 -204 100q-60 99 -60 325t60 326t202 101q68 0 121 -17q12 -2 12 -16v-16q0 -12 -15 -9q-39 14 -116 15q-121 0 -169 -87t-48 -296t48 -296t171 -87z" />
    <glyph glyph-name="ordfeminine" unicode="&#xaa;" horiz-adv-x="614" 
d="M477 1012v137q-57 -158 -211 -158q-96 0 -148 66t-52 167t29 159q52 101 218 126q66 10 164 13v129q0 100 -39 144t-130 44t-183 -35q-12 -6 -12 8v17q0 14 12 18q82 33 190 33q205 0 205 -223v-645q0 -12 -12 -13h-19q-12 1 -12 13zM477 1296v187q-149 -4 -210 -23
q-62 -18 -92 -43q-67 -56 -69 -180q0 -205 164 -205q94 0 150 74t57 190z" />
    <glyph glyph-name="guillemotleft" unicode="&#xab;" horiz-adv-x="524" 
d="M274 531q0 3 2 8l109 268q4 10 12 10h27q12 0 8 -12l-110 -277l110 -272q4 -12 -8 -12h-27q-8 0 -12 10l-109 268q-2 6 -2 9zM74 530q0 4 2 9l108 268q4 10 13 10h26q12 0 8 -12l-110 -275l110 -274q4 -12 -8 -12h-26q-8 0 -13 10l-108 268q-2 4 -2 8z" />
    <glyph glyph-name="logicalnot" unicode="&#xac;" horiz-adv-x="925" 
d="M766 745v-362q0 -12 -12 -12h-21q-12 0 -12 12v330h-594q-12 0 -12 12v20q0 12 12 13h627q12 -1 12 -13z" />
    <glyph glyph-name="uni00AD" unicode="&#xad;" horiz-adv-x="544" 
d="M451 528h-357q-12 0 -12 13v18q0 12 12 12h357q12 0 12 -12v-18q0 -13 -12 -13z" />
    <glyph glyph-name="registered" unicode="&#xae;" horiz-adv-x="774" 
d="M287 905v383q0 10 10 10h84q73 0 105 -30t32 -97q0 -117 -94 -129l80 -133q8 -14 -8 -14h-21q-8 0 -14 10l-80 135h-51v-135q0 -10 -11 -10h-22q-10 0 -10 10zM387 774q125 0 199 92t74 226t-74 225q-74 92 -199 92t-199 -92t-74 -225t74 -226q74 -92 199 -92zM387 1450
q141 0 227 -104t86 -254t-86 -254t-227 -104t-227 104t-86 254t86 254t227 104zM330 1081h55q51 -1 69 19t19 70q0 50 -18 68t-74 19h-51v-176z" />
    <glyph glyph-name="macron" unicode="&#xaf;" horiz-adv-x="491" 
d="M406 1208h-320q-12 0 -12 13v14q0 12 12 12h320q12 0 12 -12v-14q0 -13 -12 -13z" />
    <glyph glyph-name="degree" unicode="&#xb0;" horiz-adv-x="569" 
d="M285 967q-100 0 -158 68q-57 69 -57 177t57 178q57 68 157 68t158 -68t58 -178q0 -109 -58 -177t-157 -68zM285 1008q78 0 124 56t46 148t-46 148t-124 57q-78 0 -124 -56q-46 -57 -46 -149t46 -148t124 -56z" />
    <glyph glyph-name="plusminus" unicode="&#xb1;" horiz-adv-x="925" 
d="M823 0h-721q-12 0 -12 12v21q0 12 12 12h721q12 0 13 -12v-21q-1 -12 -13 -12zM823 713h-338v-412q0 -12 -12 -12h-20q-12 0 -13 12v412h-338q-12 0 -12 12v20q0 12 12 13h338v411q0 12 13 13h20q12 0 12 -13v-411h338q12 0 13 -13v-20q-1 -12 -13 -12z" />
    <glyph glyph-name="two.superior" unicode="&#xb2;" 
d="M86 1642q-18 0 -18 72t48 127t148 55q195 0 195 -219q0 -130 -87 -285q-34 -67 -100 -149q-67 -82 -111 -131t-48 -55h346q12 0 12 -13v-16q0 -12 -12 -12h-385q-12 0 -13 12v16q0 12 7 19q252 281 314 446q34 88 34 168q0 182 -152 183q-153 0 -153 -164q0 -16 4 -34
t-11 -20h-18z" />
    <glyph glyph-name="three.superior" unicode="&#xb3;" 
d="M399 1680q1 178 -161 178q-76 0 -142 -21q-12 -4 -12 8v19q0 8 8 12q52 20 148 20q202 0 202 -215q0 -88 -34 -141t-82 -67q55 -5 96 -63t41 -157q0 -250 -254 -249q-82 0 -135 20q-8 4 -8 12v17q0 12 12 8q52 -19 146 -19q196 -1 196 205q0 205 -172 205h-55
q-12 0 -13 12v15q0 12 13 12h53q70 0 112 47t41 142z" />
    <glyph glyph-name="acute" unicode="&#xb4;" horiz-adv-x="491" 
d="M326 1393q23 0 8 -19l-144 -174q-6 -8 -14 -8h-14q-14 0 -6 12l112 172q10 16 25 17h33z" />
    <glyph glyph-name="mu" unicode="&#xb5;" horiz-adv-x="765" 
d="M655 1057v-744q0 -157 -62 -243q-63 -86 -177 -86t-178 61q-63 61 -82 139v-397q0 -12 -13 -12h-20q-12 0 -12 12v1270q0 12 12 12h20q12 0 13 -12v-692q0 -143 66 -241q67 -97 181 -97q207 0 207 286v744q0 12 13 12h20q12 0 12 -12z" />
    <glyph glyph-name="paragraph" unicode="&#xb6;" horiz-adv-x="770" 
d="M700 1391h-63q-61 0 -84 -29t-23 -100v-1289q0 -117 -36 -161t-128 -45q-91 0 -92 24v14q0 13 26 9t58 -4q74 0 101 34t26 131v691h-45q-164 0 -257 97t-93 288t91 287t257 96h262q12 0 13 -13v-18q-1 -12 -13 -12z" />
    <glyph glyph-name="periodcentered" unicode="&#xb7;" horiz-adv-x="299" 
d="M111 477v113q0 12 12 12h53q12 0 12 -12v-113q0 -12 -12 -12h-53q-12 0 -12 12z" />
    <glyph glyph-name="cedilla" unicode="&#xb8;" horiz-adv-x="491" 
d="M248 -274q-56 0 -58 22v12q0 12 13 13h39q76 0 75 61q0 98 -133 184h43q137 -80 138 -190q0 -102 -117 -102z" />
    <glyph glyph-name="one.superior" unicode="&#xb9;" 
d="M315 1884h17q12 0 12 -12v-844q0 -12 -12 -12h-19q-12 0 -12 12v791l-174 -172q-8 -8 -16 0l-15 12q-10 10 0 16l205 203q6 6 14 6z" />
    <glyph glyph-name="ordmasculine" unicode="&#xba;" horiz-adv-x="630" 
d="M315 987q-131 0 -190 112t-59 335q0 222 59 334t190 112t191 -112t59 -334q1 -222 -59 -335q-60 -112 -191 -112zM315 1841q-111 0 -159 -100t-47 -307q0 -208 48 -308q49 -100 159 -100t158 100t48 308t-48 307q-48 100 -159 100z" />
    <glyph glyph-name="guillemotright" unicode="&#xbb;" horiz-adv-x="524" 
d="M250 530q0 -4 -2 -8l-109 -268q-4 -10 -12 -10h-27q-12 0 -8 12l111 274l-111 275q-4 12 8 12h27q8 0 12 -10l109 -268q2 -5 2 -9zM451 530q0 -4 -2 -8l-109 -268q-4 -10 -12 -10h-27q-12 0 -8 12l110 274l-110 275q-4 12 8 12h27q8 0 12 -10l109 -268q2 -5 2 -9z" />
    <glyph glyph-name="onequarter" unicode="&#xbc;" horiz-adv-x="1331" 
d="M1307 215h-95v-203q0 -12 -12 -12h-18q-12 0 -13 12v203h-342q-12 0 -12 12v19q0 10 8 22l340 590q6 10 17 10h20q12 0 12 -12v-600h95q12 0 12 -12v-17q0 -12 -12 -12zM1169 256v535l-305 -535h305zM373 0h-23q-16 0 -8 16l680 1405q6 12 18 13h23q16 -1 8 -17
l-680 -1405q-6 -12 -18 -12zM332 1434q12 0 12 -13v-843q0 -12 -12 -13h-19q-12 0 -12 13v790l-174 -172q-8 -8 -16 0l-15 12q-10 10 0 17l205 202q6 6 14 7h17z" />
    <glyph glyph-name="onehalf" unicode="&#xbd;" horiz-adv-x="1331" 
d="M291 0h-23q-16 0 -8 16l680 1405q6 12 18 13h23q16 -1 8 -17l-680 -1405q-6 -12 -18 -12zM864 627q-18 -1 -18 71t48 127t148 56q195 0 195 -219q0 -131 -87 -286q-34 -67 -100 -149q-67 -82 -111 -131t-48 -55h346q12 0 12 -12v-17q0 -12 -12 -12h-385q-12 0 -12 12v17
q0 12 6 18q253 282 314 447q34 88 34 168q0 182 -152 182t-153 -164q0 -16 4 -34t-10 -19h-19zM332 1434q12 0 12 -13v-843q0 -12 -12 -13h-19q-12 0 -12 13v790l-174 -172q-8 -8 -16 0l-15 12q-10 10 0 17l205 202q6 6 14 7h17z" />
    <glyph glyph-name="threequarters" unicode="&#xbe;" horiz-adv-x="1331" 
d="M1307 215h-95v-203q0 -12 -12 -12h-18q-12 0 -13 12v203h-342q-12 0 -12 12v19q0 10 8 22l340 590q6 10 17 10h20q12 0 12 -12v-600h95q12 0 12 -12v-17q0 -12 -12 -12zM1169 256v535l-305 -535h305zM393 0h-22q-16 0 -9 16l680 1405q6 12 19 13h22q17 -1 9 -17
l-680 -1405q-6 -12 -19 -12zM399 1230q1 178 -161 177q-76 0 -142 -21q-12 -4 -12 9v18q0 8 8 12q52 21 148 21q202 1 202 -215q0 -88 -34 -141t-82 -68q55 -6 96 -64t41 -155q0 -250 -254 -250q-82 0 -135 20q-8 4 -8 13v16q0 12 12 8q52 -18 146 -18q196 0 196 204
t-172 205h-55q-12 0 -13 13v14q0 12 13 12h53q70 0 112 47t41 143z" />
    <glyph glyph-name="questiondown" unicode="&#xbf;" horiz-adv-x="655" 
d="M330 692q0 12 12 13h25q12 0 12 -13v-37q0 -166 -82 -296q-35 -54 -69 -103q-81 -117 -81 -209q0 -240 224 -240q98 0 190 31q16 4 17 -14v-12q0 -14 -15 -19q-88 -31 -192 -31q-272 0 -273 285q0 127 116 272q44 55 80 145t36 191v37zM393 1057v-113q0 -12 -12 -12h-53
q-12 0 -13 12v113q0 12 13 12h53q12 0 12 -12z" />
    <glyph glyph-name="Agrave" unicode="&#xc0;" horiz-adv-x="876" 
d="M438 1532h-14q-8 0 -14 8l-140 164q-14 18 9 18h32q15 0 25 -16l108 -162q8 -12 -6 -12zM424 1434h29q14 0 16 -13l352 -1407q2 -14 -10 -14h-23q-10 0 -14 12l-112 447h-447l-113 -447q-4 -12 -14 -12h-22q-12 0 -11 14l353 1407q2 13 16 13zM225 504h426l-211 848h-4z
" />
    <glyph glyph-name="Aacute" unicode="&#xc1;" horiz-adv-x="876" 
d="M565 1722h33q23 0 8 -18l-139 -164q-6 -8 -14 -8h-15q-14 0 -6 12l109 162q10 16 24 16zM424 1434h29q14 0 16 -13l352 -1407q2 -14 -10 -14h-23q-10 0 -14 12l-112 447h-447l-113 -447q-4 -12 -14 -12h-22q-12 0 -11 14l353 1407q2 13 16 13zM225 504h426l-211 848h-4z
" />
    <glyph glyph-name="Acircumflex" unicode="&#xc2;" horiz-adv-x="876" 
d="M287 1532h-15q-16 0 -8 12l137 170q10 14 25 15h25q14 0 24 -15l137 -170q8 -12 -8 -12h-14q-7 0 -15 8l-137 146l-137 -146q-8 -8 -14 -8zM424 1434h29q14 0 16 -13l352 -1407q2 -14 -10 -14h-23q-10 0 -14 12l-112 447h-447l-113 -447q-4 -12 -14 -12h-22q-12 0 -11 14
l353 1407q2 13 16 13zM225 504h426l-211 848h-4z" />
    <glyph glyph-name="Atilde" unicode="&#xc3;" horiz-adv-x="876" 
d="M641 1640q0 -50 -29 -82q-30 -32 -72 -32t-89 37l-60 43q-51 31 -81 13t-36 -73q-2 -14 -14 -14h-10q-14 0 -14 14q0 51 28 85q29 34 72 34t90 -37l49 -37q33 -27 61 -27q55 1 64 60l2 16q2 14 14 15h11q14 -1 14 -15zM424 1434h29q14 0 16 -13l352 -1407q2 -14 -10 -14
h-23q-10 0 -14 12l-112 447h-447l-113 -447q-4 -12 -14 -12h-22q-12 0 -11 14l353 1407q2 13 16 13zM225 504h426l-211 848h-4z" />
    <glyph glyph-name="Adieresis" unicode="&#xc4;" horiz-adv-x="876" 
d="M584 1628v-84q0 -12 -13 -12h-28q-12 0 -13 12v84q0 12 13 12h28q13 0 13 -12zM346 1628v-84q0 -12 -12 -12h-29q-12 0 -12 12v84q0 12 12 12h29q12 0 12 -12zM424 1434h29q14 0 16 -13l352 -1407q2 -14 -10 -14h-23q-10 0 -14 12l-112 447h-447l-113 -447
q-4 -12 -14 -12h-22q-12 0 -11 14l353 1407q2 13 16 13zM225 504h426l-211 848h-4z" />
    <glyph glyph-name="Aring" unicode="&#xc5;" horiz-adv-x="876" 
d="M326 1544q0 -51 30 -81q30 -29 82 -29q53 0 83 30t30 80q0 51 -30 81t-83 30q-52 0 -82 -30t-30 -81zM225 504h426l-211 848h-4zM285 1544q0 68 41 109q40 41 112 41t113 -41t41 -105t-31 -102q-31 -39 -86 -49l346 -1383q2 -14 -10 -14h-23q-10 0 -14 12l-112 447h-447
l-113 -447q-4 -12 -14 -12h-22q-12 0 -11 14l346 1383q-116 22 -116 147z" />
    <glyph glyph-name="AE" unicode="&#xc6;" horiz-adv-x="1105" 
d="M553 498v891h-82l-252 -891h334zM995 713h-395v-668h412q12 0 12 -12v-21q0 -12 -12 -12h-447q-12 0 -12 12v441h-346l-125 -441q-4 -12 -14 -12h-23q-12 0 -10 14l399 1407q4 12 17 13h557q12 0 12 -13v-20q0 -12 -12 -12h-408v-631h395q12 0 13 -13v-20q-1 -12 -13 -12
z" />
    <glyph glyph-name="Ccedilla" unicode="&#xc7;" horiz-adv-x="757" 
d="M371 -260v12q0 12 12 12h47q84 0 84 66q0 84 -100 162q-174 28 -249 194t-75 552t92 550q92 162 320 162q82 0 151 -20q14 -4 15 -19v-14q0 -16 -17 -13q-72 20 -149 21q-203 0 -283 -153q-80 -154 -80 -536t81 -534t286 -153q86 0 158 20q16 4 16 -12v-14q0 -14 -14 -19
q-70 -20 -128 -20t-71 2q94 -74 94 -162q0 -106 -125 -107q-65 0 -65 23z" />
    <glyph glyph-name="Egrave" unicode="&#xc8;" horiz-adv-x="716" 
d="M420 1532h-14q-8 0 -15 8l-139 164q-14 18 8 18h33q14 0 24 -16l109 -162q8 -12 -6 -12zM606 713h-432v-668h449q12 0 12 -12v-23q0 -10 -12 -10h-484q-12 0 -12 12v1409q0 12 14 13h477q12 0 13 -13v-20q0 -12 -13 -12h-444v-631h432q12 0 12 -13v-20q0 -12 -12 -12z
" />
    <glyph glyph-name="Eacute" unicode="&#xc9;" horiz-adv-x="716" 
d="M485 1722h33q23 0 8 -18l-139 -164q-6 -8 -14 -8h-15q-14 0 -6 12l109 162q10 16 24 16zM606 713h-432v-668h449q12 0 12 -12v-23q0 -10 -12 -10h-484q-12 0 -12 12v1409q0 12 14 13h477q12 0 13 -13v-20q0 -12 -13 -12h-444v-631h432q12 0 12 -13v-20q0 -12 -12 -12z
" />
    <glyph glyph-name="Ecircumflex" unicode="&#xca;" horiz-adv-x="716" 
d="M248 1532h-15q-16 0 -8 12l137 170q10 14 25 15h25q14 0 24 -15l137 -170q8 -12 -8 -12h-14q-6 0 -14 8l-138 146l-137 -146q-8 -8 -14 -8zM606 713h-432v-668h449q12 0 12 -12v-23q0 -10 -12 -10h-484q-12 0 -12 12v1409q0 12 14 13h477q12 0 13 -13v-20q0 -12 -13 -12
h-444v-631h432q12 0 12 -13v-20q0 -12 -12 -12z" />
    <glyph glyph-name="Edieresis" unicode="&#xcb;" horiz-adv-x="716" 
d="M545 1628v-84q0 -12 -13 -12h-28q-12 0 -12 12v84q0 12 12 12h28q13 0 13 -12zM307 1628v-84q0 -12 -12 -12h-29q-12 0 -12 12v84q0 12 12 12h29q12 0 12 -12zM606 713h-432v-668h449q12 0 12 -12v-23q0 -10 -12 -10h-484q-12 0 -12 12v1409q0 12 14 13h477q12 0 13 -13
v-20q0 -12 -13 -12h-444v-631h432q12 0 12 -13v-20q0 -12 -12 -12z" />
    <glyph glyph-name="Igrave" unicode="&#xcc;" horiz-adv-x="319" 
d="M164 1532h-14q-8 0 -15 8l-139 164q-14 18 8 18h33q14 0 24 -16l109 -162q8 -12 -6 -12zM137 12v1409q0 12 13 13h22q12 0 12 -13v-1409q0 -12 -12 -12h-22q-13 0 -13 12z" />
    <glyph glyph-name="Iacute" unicode="&#xcd;" horiz-adv-x="319" 
d="M283 1722h32q23 0 9 -18l-140 -164q-6 -8 -14 -8h-14q-14 0 -6 12l108 162q10 16 25 16zM137 12v1409q0 12 13 13h22q12 0 12 -13v-1409q0 -12 -12 -12h-22q-13 0 -13 12z" />
    <glyph glyph-name="Icircumflex" unicode="&#xce;" horiz-adv-x="319" 
d="M8 1532h-14q-16 0 -8 12l137 170q10 14 24 15h25q14 0 25 -15l137 -170q8 -12 -8 -12h-15q-6 0 -14 8l-137 146l-137 -146q-8 -8 -15 -8zM137 12v1409q0 12 13 13h22q12 0 12 -13v-1409q0 -12 -12 -12h-22q-13 0 -13 12z" />
    <glyph glyph-name="Idieresis" unicode="&#xcf;" horiz-adv-x="319" 
d="M305 1628v-84q0 -12 -12 -12h-29q-12 0 -12 12v84q0 12 12 12h29q12 0 12 -12zM68 1628v-84q0 -12 -13 -12h-28q-12 0 -13 12v84q0 12 13 12h28q13 0 13 -12zM137 12v1409q0 12 13 13h22q12 0 12 -13v-1409q0 -12 -12 -12h-22q-13 0 -13 12z" />
    <glyph glyph-name="Eth" unicode="&#xd0;" horiz-adv-x="892" 
d="M369 698h-191v-653h187q133 0 214 55t128 206t47 411q0 261 -47 411t-128 205t-214 56h-187v-652h191q12 0 12 -12v-14q0 -13 -12 -13zM365 0h-222q-12 0 -12 12v686h-82q-12 0 -12 13v14q0 12 12 12h82v684q0 12 14 13h220q111 0 187 -33t135 -113q116 -160 116 -570
t-116 -573q-59 -81 -135 -113t-187 -32z" />
    <glyph glyph-name="Ntilde" unicode="&#xd1;" horiz-adv-x="913" 
d="M659 1640q-1 -50 -29 -82t-71 -32t-90 37l-59 43q-51 31 -81 13t-36 -73q-2 -14 -14 -14h-11q-14 0 -14 14q0 51 29 85t71 34t90 -37l50 -37q32 -27 60 -27q55 1 64 60l3 16q2 14 14 15h10q14 -1 14 -15zM786 1419v-1407q0 -12 -12 -12h-20q-12 0 -19 12l-561 1309v-1309
q0 -12 -12 -12h-23q-12 0 -12 12v1409q0 12 12 13h21q12 0 18 -13l561 -1308v1308q0 12 13 13h22q12 -1 12 -15z" />
    <glyph glyph-name="Ograve" unicode="&#xd2;" horiz-adv-x="937" 
d="M489 1532h-14q-8 0 -14 8l-139 164q-14 18 8 18h32q15 0 25 -16l109 -162q8 -12 -7 -12zM469 27q174 1 252 157t78 533t-78 533t-252 157q-174 0 -252 -157q-78 -158 -78 -534t78 -532t252 -157zM469 1450q199 0 289 -167t90 -566t-90 -566t-288 -167t-289 167t-91 566
t90 566t289 167z" />
    <glyph glyph-name="Oacute" unicode="&#xd3;" horiz-adv-x="937" 
d="M575 1722h33q23 0 8 -18l-139 -164q-6 -8 -14 -8h-14q-15 0 -7 12l109 162q10 16 24 16zM469 27q174 1 252 157t78 533t-78 533t-252 157q-174 0 -252 -157q-78 -158 -78 -534t78 -532t252 -157zM469 1450q199 0 289 -167t90 -566t-90 -566t-288 -167t-289 167t-91 566
t90 566t289 167z" />
    <glyph glyph-name="Ocircumflex" unicode="&#xd4;" horiz-adv-x="937" 
d="M317 1532h-14q-16 0 -8 12l137 170q10 14 25 15h24q14 0 25 -15l137 -170q8 -12 -8 -12h-14q-7 0 -15 8l-137 146l-137 -146q-8 -8 -15 -8zM469 27q174 1 252 157t78 533t-78 533t-252 157q-174 0 -252 -157q-78 -158 -78 -534t78 -532t252 -157zM469 1450
q199 0 289 -167t90 -566t-90 -566t-288 -167t-289 167t-91 566t90 566t289 167z" />
    <glyph glyph-name="Otilde" unicode="&#xd5;" horiz-adv-x="937" 
d="M672 1640q0 -50 -29 -82t-72 -32t-90 37l-59 43q-51 31 -81 13t-36 -73q-2 -14 -14 -14h-10q-14 0 -15 14q0 51 29 85t72 34t90 -37l49 -37q32 -27 60 -27q57 1 67 76q2 14 14 15h10q15 -1 15 -15zM469 27q174 1 252 157t78 533t-78 533t-252 157q-174 0 -252 -157
q-78 -158 -78 -534t78 -532t252 -157zM469 1450q199 0 289 -167t90 -566t-90 -566t-288 -167t-289 167t-91 566t90 566t289 167z" />
    <glyph glyph-name="Odieresis" unicode="&#xd6;" horiz-adv-x="937" 
d="M614 1628v-84q0 -12 -12 -12h-29q-12 0 -12 12v84q0 12 12 12h29q12 0 12 -12zM377 1628v-84q0 -12 -12 -12h-29q-12 0 -12 12v84q0 12 12 12h29q12 0 12 -12zM469 27q174 1 252 157t78 533t-78 533t-252 157q-174 0 -252 -157q-78 -158 -78 -534t78 -532t252 -157z
M469 1450q199 0 289 -167t90 -566t-90 -566t-288 -167t-289 167t-91 566t90 566t289 167z" />
    <glyph glyph-name="multiply" unicode="&#xd7;" horiz-adv-x="925" 
d="M782 383l-319 319l-320 -319q-8 -10 -18 0l-14 14q-8 8 0 19l319 319l-319 320q-8 10 0 18l14 14q10 10 18 0l320 -319l319 319q8 10 19 0l14 -14q8 -8 0 -18l-319 -320l319 -319q8 -10 0 -19l-14 -14q-11 -10 -19 0z" />
    <glyph glyph-name="Oslash" unicode="&#xd8;" horiz-adv-x="950" 
d="M480 1407q-179 -1 -257 -157t-78 -491t48 -489l544 951q-78 186 -257 186zM469 27q180 1 258 157t78 487t-49 490l-543 -950q76 -184 256 -184zM476 1450q200 0 290 -178l82 141q6 12 18 6l19 -12q12 -6 4 -16l-101 -174q66 -179 66 -539t-90 -527t-291 -167t-289 176
l-82 -142q-6 -10 -18 -4l-18 11q-10 6 -5 18l99 172q-64 169 -64 535t90 533t290 167z" />
    <glyph glyph-name="Ugrave" unicode="&#xd9;" horiz-adv-x="880" 
d="M461 1532h-15q-8 0 -14 8l-139 164q-14 18 8 18h33q14 0 24 -16l109 -162q8 -12 -6 -12zM440 -16q-174 0 -246 96t-73 326v1015q0 12 12 13h23q12 0 12 -13v-1011q0 -211 59 -297t213 -86t213 86t60 297v1011q0 12 12 13h23q12 0 12 -13v-1015q0 -230 -73 -326t-247 -96z
" />
    <glyph glyph-name="Uacute" unicode="&#xda;" horiz-adv-x="880" 
d="M547 1722h33q23 0 8 -18l-139 -164q-6 -8 -15 -8h-14q-14 0 -6 12l108 162q10 16 25 16zM440 -16q-174 0 -246 96t-73 326v1015q0 12 12 13h23q12 0 12 -13v-1011q0 -211 59 -297t213 -86t213 86t60 297v1011q0 12 12 13h23q12 0 12 -13v-1015q0 -230 -73 -326t-247 -96z
" />
    <glyph glyph-name="Ucircumflex" unicode="&#xdb;" horiz-adv-x="880" 
d="M289 1532h-15q-16 0 -8 12l137 170q10 14 25 15h25q14 0 24 -15l137 -170q8 -12 -8 -12h-14q-6 0 -14 8l-138 146l-137 -146q-8 -8 -14 -8zM440 -16q-174 0 -246 96t-73 326v1015q0 12 12 13h23q12 0 12 -13v-1011q0 -211 59 -297t213 -86t213 86t60 297v1011q0 12 12 13
h23q12 0 12 -13v-1015q0 -230 -73 -326t-247 -96z" />
    <glyph glyph-name="Udieresis" unicode="&#xdc;" horiz-adv-x="880" 
d="M586 1628v-84q0 -12 -13 -12h-28q-12 0 -13 12v84q0 12 13 12h28q13 0 13 -12zM348 1628v-84q0 -12 -12 -12h-29q-12 0 -12 12v84q0 12 12 12h29q12 0 12 -12zM440 -16q-174 0 -246 96t-73 326v1015q0 12 12 13h23q12 0 12 -13v-1011q0 -211 59 -297t213 -86t213 86
t60 297v1011q0 12 12 13h23q12 0 12 -13v-1015q0 -230 -73 -326t-247 -96z" />
    <glyph glyph-name="Yacute" unicode="&#xdd;" horiz-adv-x="829" 
d="M520 1722h33q23 0 8 -18l-139 -164q-6 -8 -14 -8h-15q-14 0 -6 12l109 162q10 16 24 16zM438 12q0 -12 -12 -12h-23q-12 0 -12 12v557l-332 850q-4 14 11 15h22q10 0 14 -11l222 -565l84 -231h6l84 231l221 565q4 10 14 11h23q14 0 10 -15l-332 -850v-557z" />
    <glyph glyph-name="Thorn" unicode="&#xde;" horiz-adv-x="770" 
d="M174 420h137q180 0 254 89t74 310t-73 309t-255 89h-137v-797zM162 0h-23q-12 0 -12 12v1409q0 12 12 13h23q12 0 12 -13v-159h137q205 0 291 -100t86 -343q0 -242 -86 -343t-291 -101h-137v-363q0 -12 -12 -12z" />
    <glyph glyph-name="germandbls" unicode="&#xdf;" horiz-adv-x="798" 
d="M395 1399q-104 0 -170 -67t-65 -218v-1102q0 -12 -13 -12h-20q-12 0 -12 12v1110q0 164 75 242q76 78 203 78t191 -66t63 -150q0 -84 -32 -142q-31 -58 -69 -89q-102 -84 -102 -151t101 -168q41 -41 83 -90t72 -125t29 -164q0 -303 -258 -303q-53 0 -92 6q-14 2 -14 20
v13q0 10 16 10q74 -6 88 -6q94 0 155 54q60 54 60 208t-101 272q-42 49 -83 91q-101 105 -101 168t32 109t71 77t70 83q32 53 32 123t-52 124q-53 53 -157 53z" />
    <glyph glyph-name="agrave" unicode="&#xe0;" horiz-adv-x="720" 
d="M383 1192h-14q-8 0 -15 8l-143 174q-14 18 8 19h33q14 -1 24 -17l113 -172q8 -12 -6 -12zM565 365v235q-292 -6 -374 -80t-80 -227q0 -260 198 -260q117 0 187 95q69 96 69 237zM610 809v-797q0 -12 -12 -12h-20q-12 0 -13 12v172q-25 -82 -89 -138t-178 -56
q-112 0 -172 81t-60 224q0 250 202 309q116 33 297 37v162q0 127 -45 183q-46 56 -160 56t-221 -43q-14 -4 -14 11v12q0 16 14 20q105 43 231 43q126 1 183 -67t57 -209z" />
    <glyph glyph-name="aacute" unicode="&#xe1;" horiz-adv-x="720" 
d="M502 1393q23 0 8 -19l-143 -174q-6 -8 -15 -8h-14q-14 0 -6 12l112 172q10 16 25 17h33zM565 365v235q-292 -6 -374 -80t-80 -227q0 -260 198 -260q117 0 187 95q69 96 69 237zM610 809v-797q0 -12 -12 -12h-20q-12 0 -13 12v172q-25 -82 -89 -138t-178 -56
q-112 0 -172 81t-60 224q0 250 202 309q116 33 297 37v162q0 127 -45 183q-46 56 -160 56t-221 -43q-14 -4 -14 11v12q0 16 14 20q105 43 231 43q126 1 183 -67t57 -209z" />
    <glyph glyph-name="acircumflex" unicode="&#xe2;" horiz-adv-x="720" 
d="M213 1192h-14q-16 0 -9 12l134 182q10 14 24 15h25q14 0 24 -15l133 -182q8 -12 -8 -12h-14q-6 0 -14 8l-134 158l-133 -158q-8 -8 -14 -8zM565 365v235q-292 -6 -374 -80t-80 -227q0 -260 198 -260q117 0 187 95q69 96 69 237zM610 809v-797q0 -12 -12 -12h-20
q-12 0 -13 12v172q-25 -82 -89 -138t-178 -56q-112 0 -172 81t-60 224q0 250 202 309q116 33 297 37v162q0 127 -45 183q-46 56 -160 56t-221 -43q-14 -4 -14 11v12q0 16 14 20q105 43 231 43q126 1 183 -67t57 -209z" />
    <glyph glyph-name="atilde" unicode="&#xe3;" horiz-adv-x="720" 
d="M567 1300q-1 -50 -27 -82t-70 -32t-89 37l-53 39q-104 70 -119 -56q-2 -14 -14 -14h-11q-14 0 -14 14q0 51 27 85t69 34t90 -37l50 -37q67 -52 103 -7q14 18 18 44q3 26 16 27h10q14 -1 14 -15zM565 365v235q-292 -6 -374 -80t-80 -227q0 -260 198 -260q117 0 187 95
q69 96 69 237zM610 809v-797q0 -12 -12 -12h-20q-12 0 -13 12v172q-25 -82 -89 -138t-178 -56q-112 0 -172 81t-60 224q0 250 202 309q116 33 297 37v162q0 127 -45 183q-46 56 -160 56t-221 -43q-14 -4 -14 11v12q0 16 14 20q105 43 231 43q126 1 183 -67t57 -209z" />
    <glyph glyph-name="adieresis" unicode="&#xe4;" horiz-adv-x="720" 
d="M514 1288v-84q0 -12 -12 -12h-29q-12 0 -12 12v84q0 12 12 12h29q12 0 12 -12zM276 1288v-84q0 -12 -12 -12h-28q-12 0 -13 12v84q0 12 13 12h28q12 0 12 -12zM565 365v235q-292 -6 -374 -80t-80 -227q0 -260 198 -260q117 0 187 95q69 96 69 237zM610 809v-797
q0 -12 -12 -12h-20q-12 0 -13 12v172q-25 -82 -89 -138t-178 -56q-112 0 -172 81t-60 224q0 250 202 309q116 33 297 37v162q0 127 -45 183q-46 56 -160 56t-221 -43q-14 -4 -14 11v12q0 16 14 20q105 43 231 43q126 1 183 -67t57 -209z" />
    <glyph glyph-name="aring" unicode="&#xe5;" horiz-adv-x="720" 
d="M217 1319q0 67 40 107t113 40q74 0 112 -40t38 -108t-40 -107q-40 -40 -112 -40t-111 40q-40 40 -40 108zM369 1210q111 0 110 109q0 51 -28 80q-29 29 -80 28q-113 -1 -113 -109t111 -108zM565 365v235q-292 -6 -374 -80t-80 -227q0 -260 198 -260q117 0 187 95
q69 96 69 237zM610 809v-797q0 -12 -12 -12h-20q-12 0 -13 12v172q-25 -82 -89 -138t-178 -56q-112 0 -172 81t-60 224q0 250 202 309q116 33 297 37v162q0 127 -45 183q-46 56 -160 56t-221 -43q-14 -4 -14 11v12q0 16 14 20q105 43 231 43q126 1 183 -67t57 -209z" />
    <glyph glyph-name="ae" unicode="&#xe6;" horiz-adv-x="1142" 
d="M545 365v186q-285 -6 -360 -73t-75 -189q1 -121 52 -189q50 -68 154 -68t166 96q62 94 63 237zM1026 612q0 210 -45 320t-164 110t-172 -108t-55 -340h436v18zM866 27q88 0 164 28q14 4 14 -10v-12q0 -16 -14 -21q-76 -28 -182 -28q-214 1 -275 270q-16 -116 -90 -190
q-75 -74 -183 -74t-171 79t-63 207q0 228 186 282q112 32 293 36l2 172q2 150 -45 213q-48 63 -150 63t-209 -43q-14 -4 -14 11v12q0 16 14 20q104 43 213 43q195 0 226 -194q57 195 239 194q137 0 195 -121q57 -122 57 -352v-49q0 -12 -12 -12h-471q0 -281 62 -403
t214 -121z" />
    <glyph glyph-name="ccedilla" unicode="&#xe7;" horiz-adv-x="591" 
d="M319 -274q-57 0 -57 22v12q0 12 12 13h39q76 0 76 61q0 84 -100 162q-119 33 -167 164q-48 130 -48 396t68 398t239 131q78 0 143 -24q14 -4 15 -21v-12q0 -18 -17 -10q-53 23 -139 22q-150 0 -206 -120t-56 -385q0 -267 56 -387t208 -119q88 0 141 22q16 8 17 -10v-12
q0 -16 -15 -21q-66 -24 -118 -24t-62 2q88 -72 88 -158q0 -102 -117 -102z" />
    <glyph glyph-name="egrave" unicode="&#xe8;" horiz-adv-x="700" 
d="M373 1192h-15q-8 0 -14 8l-143 174q-14 18 8 19h33q14 -1 24 -17l113 -172q8 -12 -6 -12zM584 580q0 230 -47 346t-174 116t-184 -119q-56 -120 -58 -370h463v27zM412 27q102 0 178 28q14 4 14 -10v-12q0 -16 -14 -21q-76 -29 -180 -28q-186 0 -262 130q-74 130 -74 416
t68 420t220 135q152 0 210 -129t59 -376v-58q0 -12 -13 -12h-497q4 -258 67 -371q64 -112 224 -112z" />
    <glyph glyph-name="eacute" unicode="&#xe9;" horiz-adv-x="700" 
d="M492 1393q23 0 8 -19l-144 -174q-6 -8 -14 -8h-14q-14 0 -6 12l112 172q10 16 25 17h33zM584 580q0 230 -47 346t-174 116t-184 -119q-56 -120 -58 -370h463v27zM412 27q102 0 178 28q14 4 14 -10v-12q0 -16 -14 -21q-76 -29 -180 -28q-186 0 -262 130q-74 130 -74 416
t68 420t220 135q152 0 210 -129t59 -376v-58q0 -12 -13 -12h-497q4 -258 67 -371q64 -112 224 -112z" />
    <glyph glyph-name="ecircumflex" unicode="&#xea;" horiz-adv-x="700" 
d="M211 1192h-14q-16 0 -9 12l134 182q10 14 24 15h25q14 0 24 -15l133 -182q8 -12 -8 -12h-14q-6 0 -14 8l-134 158l-133 -158q-8 -8 -14 -8zM584 580q0 230 -47 346t-174 116t-184 -119q-56 -120 -58 -370h463v27zM412 27q102 0 178 28q14 4 14 -10v-12q0 -16 -14 -21
q-76 -29 -180 -28q-186 0 -262 130q-74 130 -74 416t68 420t220 135q152 0 210 -129t59 -376v-58q0 -12 -13 -12h-497q4 -258 67 -371q64 -112 224 -112z" />
    <glyph glyph-name="edieresis" unicode="&#xeb;" horiz-adv-x="700" 
d="M504 1288v-84q0 -12 -12 -12h-29q-12 0 -12 12v84q0 12 12 12h29q12 0 12 -12zM266 1288v-84q0 -12 -12 -12h-29q-12 0 -12 12v84q0 12 12 12h29q12 0 12 -12zM584 580q0 230 -47 346t-174 116t-184 -119q-56 -120 -58 -370h463v27zM412 27q102 0 178 28q14 4 14 -10v-12
q0 -16 -14 -21q-76 -29 -180 -28q-186 0 -262 130q-74 130 -74 416t68 420t220 135q152 0 210 -129t59 -376v-58q0 -12 -13 -12h-497q4 -258 67 -371q64 -112 224 -112z" />
    <glyph glyph-name="igrave" unicode="&#xec;" horiz-adv-x="299" 
d="M152 1192h-15q-8 0 -14 8l-143 174q-14 18 8 19h32q15 -1 25 -17l113 -172q8 -12 -6 -12zM172 1057v-1045q0 -12 -12 -12h-21q-12 0 -12 12v1045q0 12 12 12h21q12 0 12 -12z" />
    <glyph glyph-name="iacute" unicode="&#xed;" horiz-adv-x="299" 
d="M311 1393q23 0 8 -19l-143 -174q-6 -8 -14 -8h-15q-14 0 -6 12l113 172q10 16 25 17h32zM172 1057v-1045q0 -12 -12 -12h-21q-12 0 -12 12v1045q0 12 12 12h21q12 0 12 -12z" />
    <glyph glyph-name="icircumflex" unicode="&#xee;" horiz-adv-x="299" 
d="M2 1192h-14q-16 0 -8 12l133 182q10 14 24 15h25q14 0 24 -15l133 -182q8 -12 -8 -12h-14q-6 0 -14 8l-133 158l-134 -158q-8 -8 -14 -8zM172 1057v-1045q0 -12 -12 -12h-21q-12 0 -12 12v1045q0 12 12 12h21q12 0 12 -12z" />
    <glyph glyph-name="idieresis" unicode="&#xef;" horiz-adv-x="299" 
d="M295 1288v-84q0 -12 -12 -12h-29q-12 0 -12 12v84q0 12 12 12h29q12 0 12 -12zM57 1288v-84q0 -12 -12 -12h-29q-12 0 -12 12v84q0 12 12 12h29q12 0 12 -12zM172 1057v-1045q0 -12 -12 -12h-21q-12 0 -12 12v1045q0 12 12 12h21q12 0 12 -12z" />
    <glyph glyph-name="eth" unicode="&#xf0;" horiz-adv-x="757" 
d="M377 27q137 0 196 124t60 384t-59 384q-60 123 -197 123t-197 -123q-59 -124 -59 -384q-1 -260 59 -384t197 -124zM631 1229h-107q156 -268 156 -694q0 -281 -70 -416t-234 -135t-233 135q-70 135 -69 416q0 281 70 415t233 135q131 0 205 -100q-37 123 -107 244h-164
q-12 0 -12 12v14q0 12 12 13h140q-61 86 -125 153q-12 12 6 13h24q10 0 19 -9q82 -88 125 -157h131q12 0 12 -13v-14q0 -12 -12 -12z" />
    <glyph glyph-name="ntilde" unicode="&#xf1;" horiz-adv-x="774" 
d="M586 1300q0 -50 -27 -82t-70 -32t-90 37l-53 39q-70 47 -100 4q-14 -21 -18 -47q-3 -27 -15 -27h-10q-14 0 -15 14q0 51 27 85t70 34t90 -37l49 -37q67 -52 103 -7q15 20 19 45q3 25 15 26h10q15 -1 15 -15zM664 772v-760q0 -12 -13 -12h-20q-12 0 -13 12v760
q0 270 -194 270q-117 0 -193 -95t-75 -236v-699q0 -12 -13 -12h-20q-12 0 -12 12v1045q0 12 12 12h20q12 0 13 -12v-172q25 76 94 138q70 62 184 62t172 -84t58 -229z" />
    <glyph glyph-name="ograve" unicode="&#xf2;" horiz-adv-x="753" 
d="M399 1192h-14q-8 0 -14 8l-144 174q-14 18 9 19h32q15 -1 25 -17l113 -172q8 -12 -7 -12zM377 27q137 0 196 124t60 384t-59 384q-60 123 -197 123t-197 -123q-59 -124 -59 -384q-1 -260 59 -384t197 -124zM377 -16q-164 0 -234 135t-69 416q0 281 70 415t233 135
q163 0 233 -135q70 -136 70 -416t-70 -415t-233 -135z" />
    <glyph glyph-name="oacute" unicode="&#xf3;" horiz-adv-x="753" 
d="M518 1393q23 0 8 -19l-143 -174q-6 -8 -14 -8h-15q-14 0 -6 12l113 172q10 16 24 17h33zM377 27q137 0 196 124t60 384t-59 384q-60 123 -197 123t-197 -123q-59 -124 -59 -384q-1 -260 59 -384t197 -124zM377 -16q-164 0 -234 135t-69 416q0 281 70 415t233 135
q163 0 233 -135q70 -136 70 -416t-70 -415t-233 -135z" />
    <glyph glyph-name="ocircumflex" unicode="&#xf4;" horiz-adv-x="753" 
d="M229 1192h-14q-16 0 -8 12l133 182q10 14 25 15h24q14 0 25 -15l133 -182q8 -12 -8 -12h-15q-6 0 -14 8l-133 158l-133 -158q-8 -8 -15 -8zM377 27q137 0 196 124t60 384t-59 384q-60 123 -197 123t-197 -123q-59 -124 -59 -384q-1 -260 59 -384t197 -124zM377 -16
q-164 0 -234 135t-69 416q0 281 70 415t233 135q163 0 233 -135q70 -136 70 -416t-70 -415t-233 -135z" />
    <glyph glyph-name="otilde" unicode="&#xf5;" horiz-adv-x="753" 
d="M575 1300q-1 -50 -27 -82t-70 -32t-89 37l-53 39q-71 48 -100 4q-14 -21 -18 -47q-3 -27 -15 -27h-10q-14 0 -15 14q0 51 27 85t69 34t91 -37l49 -37q67 -52 103 -7q15 20 19 45q3 25 15 26h10q14 -1 14 -15zM377 27q137 0 196 124t60 384t-59 384q-60 123 -197 123
t-197 -123q-59 -124 -59 -384q-1 -260 59 -384t197 -124zM377 -16q-164 0 -234 135t-69 416q0 281 70 415t233 135q163 0 233 -135q70 -136 70 -416t-70 -415t-233 -135z" />
    <glyph glyph-name="odieresis" unicode="&#xf6;" horiz-adv-x="753" 
d="M522 1288v-84q0 -12 -12 -12h-29q-12 0 -12 12v84q0 12 12 12h29q12 0 12 -12zM285 1288v-84q0 -12 -13 -12h-28q-12 0 -13 12v84q0 12 13 12h28q13 0 13 -12zM377 27q137 0 196 124t60 384t-59 384q-60 123 -197 123t-197 -123q-59 -124 -59 -384q-1 -260 59 -384
t197 -124zM377 -16q-164 0 -234 135t-69 416q0 281 70 415t233 135q163 0 233 -135q70 -136 70 -416t-70 -415t-233 -135z" />
    <glyph glyph-name="divide" unicode="&#xf7;" horiz-adv-x="925" 
d="M424 977v113q0 12 12 12h53q12 0 13 -12v-113q0 -12 -13 -12h-53q-12 0 -12 12zM424 381v113q0 12 12 12h53q12 0 13 -12v-113q0 -12 -13 -12h-53q-12 0 -12 12zM811 713h-696q-12 0 -13 12v20q0 12 13 13h696q12 0 12 -13v-20q0 -12 -12 -12z" />
    <glyph glyph-name="oslash" unicode="&#xf8;" horiz-adv-x="761" 
d="M383 27q135 0 195 124q59 123 59 361t-43 362l-408 -727q62 -120 197 -120zM379 1042q-135 0 -195 -123q-59 -125 -59 -363t41 -359l409 725q-61 120 -196 120zM684 524q0 -270 -70 -405t-226 -135q-157 0 -230 116l-52 -92q-6 -12 -18 -6l-12 10q-12 8 -6 17l65 114
q-57 129 -57 401t70 406t224 135q156 0 230 -116l53 94q6 10 17 4l14 -8q10 -6 4 -17l-65 -114q59 -134 59 -404z" />
    <glyph glyph-name="ugrave" unicode="&#xf9;" horiz-adv-x="765" 
d="M406 1192h-15q-8 0 -14 8l-144 174q-14 18 9 19h32q15 -1 25 -17l113 -172q8 -12 -6 -12zM111 313v744q0 12 12 12h20q12 0 13 -12v-744q0 -287 206 -286q115 0 182 97t66 241v692q0 12 13 12h20q12 0 12 -12v-1045q0 -12 -12 -12h-20q-12 0 -13 12v172q-18 -78 -82 -139
t-178 -61q-115 0 -177 86t-62 243z" />
    <glyph glyph-name="uacute" unicode="&#xfa;" horiz-adv-x="765" 
d="M524 1393q23 0 8 -19l-143 -174q-6 -8 -14 -8h-15q-14 0 -6 12l113 172q10 16 25 17h32zM111 313v744q0 12 12 12h20q12 0 13 -12v-744q0 -287 206 -286q115 0 182 97t66 241v692q0 12 13 12h20q12 0 12 -12v-1045q0 -12 -12 -12h-20q-12 0 -13 12v172q-18 -78 -82 -139
t-178 -61q-115 0 -177 86t-62 243z" />
    <glyph glyph-name="ucircumflex" unicode="&#xfb;" horiz-adv-x="765" 
d="M236 1192h-15q-16 0 -8 12l133 182q10 14 25 15h24q14 0 25 -15l133 -182q8 -12 -8 -12h-15q-6 0 -14 8l-133 158l-133 -158q-8 -8 -14 -8zM111 313v744q0 12 12 12h20q12 0 13 -12v-744q0 -287 206 -286q115 0 182 97t66 241v692q0 12 13 12h20q12 0 12 -12v-1045
q0 -12 -12 -12h-20q-12 0 -13 12v172q-18 -78 -82 -139t-178 -61q-115 0 -177 86t-62 243z" />
    <glyph glyph-name="udieresis" unicode="&#xfc;" horiz-adv-x="765" 
d="M528 1288v-84q0 -12 -12 -12h-29q-12 0 -12 12v84q0 12 12 12h29q12 0 12 -12zM291 1288v-84q0 -12 -12 -12h-29q-12 0 -12 12v84q0 12 12 12h29q12 0 12 -12zM111 313v744q0 12 12 12h20q12 0 13 -12v-744q0 -287 206 -286q115 0 182 97t66 241v692q0 12 13 12h20
q12 0 12 -12v-1045q0 -12 -12 -12h-20q-12 0 -13 12v172q-18 -78 -82 -139t-178 -61q-115 0 -177 86t-62 243z" />
    <glyph glyph-name="yacute" unicode="&#xfd;" horiz-adv-x="679" 
d="M481 1393q23 0 8 -19l-143 -174q-6 -8 -14 -8h-15q-14 0 -6 12l113 172q10 16 25 17h32zM63 -193q0 14 17 11q47 -12 86 -13q86 0 125 87t22 151l-258 1012q-2 14 11 14h22q14 0 16 -12l191 -750l49 -217h4l49 217l183 750q2 12 16 12h22q13 0 11 -14l-252 -1037
q-33 -137 -76 -196q-43 -60 -139 -60t-99 33v12z" />
    <glyph glyph-name="thorn" unicode="&#xfe;" horiz-adv-x="778" 
d="M158 535q0 -508 258 -508q242 0 241 508q0 508 -241 507q-258 1 -258 -507zM127 1434h20q12 0 13 -13v-561q25 102 89 164q65 61 167 61q154 0 222 -139t67 -411q0 -271 -68 -411t-221 -140q-102 0 -167 61t-89 164v-422q0 -12 -13 -12h-20q-12 0 -12 12v1634q0 13 12 13
z" />
    <glyph glyph-name="ydieresis" unicode="&#xff;" horiz-adv-x="679" 
d="M485 1288v-84q0 -12 -12 -12h-29q-12 0 -12 12v84q0 12 12 12h29q12 0 12 -12zM248 1288v-84q0 -12 -12 -12h-29q-12 0 -12 12v84q0 12 12 12h29q12 0 12 -12zM63 -193q0 14 17 11q47 -12 86 -13q86 0 125 87t22 151l-258 1012q-2 14 11 14h22q14 0 16 -12l191 -750
l49 -217h4l49 217l183 750q2 12 16 12h22q13 0 11 -14l-252 -1037q-33 -137 -76 -196q-43 -60 -139 -60t-99 33v12z" />
    <glyph glyph-name="Amacron" unicode="&#x100;" horiz-adv-x="876" 
d="M602 1532h-328q-12 0 -12 12v15q0 12 12 12h328q12 0 12 -12v-15q0 -12 -12 -12zM424 1434h29q14 0 16 -13l352 -1407q2 -14 -10 -14h-23q-10 0 -14 12l-112 447h-447l-113 -447q-4 -12 -14 -12h-22q-12 0 -11 14l353 1407q2 13 16 13zM225 504h426l-211 848h-4z" />
    <glyph glyph-name="amacron" unicode="&#x101;" horiz-adv-x="720" 
d="M528 1208h-319q-12 0 -12 13v14q0 12 12 12h319q12 0 13 -12v-14q-1 -13 -13 -13zM565 365v235q-292 -6 -374 -80t-80 -227q0 -260 198 -260q117 0 187 95q69 96 69 237zM610 809v-797q0 -12 -12 -12h-20q-12 0 -13 12v172q-25 -82 -89 -138t-178 -56q-112 0 -172 81
t-60 224q0 250 202 309q116 33 297 37v162q0 127 -45 183q-46 56 -160 56t-221 -43q-14 -4 -14 11v12q0 16 14 20q105 43 231 43q126 1 183 -67t57 -209z" />
    <glyph glyph-name="Abreve" unicode="&#x102;" horiz-adv-x="876" 
d="M438 1520q-82 0 -129 48t-51 118q0 12 12 12h19q12 0 12 -12q14 -123 137 -123t137 123q0 12 13 12h18q12 0 12 -12q-4 -70 -51 -118t-129 -48zM424 1434h29q14 0 16 -13l352 -1407q2 -14 -10 -14h-23q-10 0 -14 12l-112 447h-447l-113 -447q-4 -12 -14 -12h-22
q-12 0 -11 14l353 1407q2 13 16 13zM225 504h426l-211 848h-4z" />
    <glyph glyph-name="abreve" unicode="&#x103;" horiz-adv-x="720" 
d="M369 1188q-82 0 -129 48t-52 118q0 12 13 12h18q12 0 12 -12q13 -123 137 -123t138 123q0 12 12 12h19q12 0 12 -12q-4 -70 -51 -118t-129 -48zM565 365v235q-292 -6 -374 -80t-80 -227q0 -260 198 -260q117 0 187 95q69 96 69 237zM610 809v-797q0 -12 -12 -12h-20
q-12 0 -13 12v172q-25 -82 -89 -138t-178 -56q-112 0 -172 81t-60 224q0 250 202 309q116 33 297 37v162q0 127 -45 183q-46 56 -160 56t-221 -43q-14 -4 -14 11v12q0 16 14 20q105 43 231 43q126 1 183 -67t57 -209z" />
    <glyph glyph-name="Aogonek" unicode="&#x104;" horiz-adv-x="876" 
d="M225 504h426l-211 848h-4zM821 -246v-14q0 -10 -10 -16q-16 -6 -55 -7q-125 0 -125 107q0 113 141 192l-110 443h-447l-113 -447q-4 -12 -14 -12h-22q-12 0 -11 14l353 1407q2 13 16 13h29q14 0 16 -13l352 -1407q2 -14 -10 -14h-20q-113 -80 -113 -170q0 -66 84 -66
l47 3q12 0 12 -13z" />
    <glyph glyph-name="aogonek" unicode="&#x105;" horiz-adv-x="720" 
d="M565 365v235q-292 -6 -374 -80t-80 -227q0 -260 198 -260q117 0 187 95q69 96 69 237zM604 -252q0 -22 -57 -22q-117 0 -117 102q0 113 135 188v168q-25 -82 -89 -138t-178 -56q-112 0 -172 81t-60 224q0 250 202 309q116 33 297 37v162q0 127 -45 183q-46 56 -160 56
t-221 -43q-14 -4 -14 11v12q0 16 14 20q105 43 231 43q126 1 183 -67t57 -209v-797q0 -12 -12 -12h-14q-106 -78 -107 -166q0 -61 76 -61h39q12 0 12 -13v-12z" />
    <glyph glyph-name="Cacute" unicode="&#x106;" horiz-adv-x="757" 
d="M547 1722h33q23 0 8 -18l-139 -164q-6 -8 -15 -8h-14q-14 0 -6 12l108 162q10 16 25 16zM506 29q86 0 158 20q16 4 16 -12v-14q0 -14 -14 -19q-70 -20 -160 -20q-229 0 -323 162q-93 163 -93 571q0 409 92 571t320 162q82 0 151 -20q14 -4 15 -19v-14q0 -16 -17 -13
q-72 20 -149 21q-203 0 -283 -153q-80 -154 -80 -536t81 -534t286 -153z" />
    <glyph glyph-name="cacute" unicode="&#x107;" horiz-adv-x="591" 
d="M477 1393q23 0 8 -19l-143 -174q-6 -8 -14 -8h-15q-14 0 -6 12l113 172q10 16 24 17h33zM74 535q0 287 68 419t239 131q78 0 143 -24q14 -4 15 -21v-12q0 -18 -17 -10q-53 23 -139 22q-150 0 -206 -120t-56 -385q0 -267 56 -387t208 -119q88 0 141 22q16 8 17 -10v-12
q0 -16 -15 -21q-66 -25 -145 -24q-174 0 -242 132q-67 132 -67 419z" />
    <glyph glyph-name="Ccircumflex" unicode="&#x108;" horiz-adv-x="757" 
d="M330 1532h-15q-16 0 -8 12l137 170q10 14 25 15h25q14 0 24 -15l137 -170q8 -12 -8 -12h-14q-7 0 -15 8l-137 146l-137 -146q-8 -8 -14 -8zM506 29q86 0 158 20q16 4 16 -12v-14q0 -14 -14 -19q-70 -20 -160 -20q-229 0 -323 162q-93 163 -93 571q0 409 92 571t320 162
q82 0 151 -20q14 -4 15 -19v-14q0 -16 -17 -13q-72 20 -149 21q-203 0 -283 -153q-80 -154 -80 -536t81 -534t286 -153z" />
    <glyph glyph-name="ccircumflex" unicode="&#x109;" horiz-adv-x="591" 
d="M219 1192h-14q-16 0 -8 12l133 182q10 14 24 15h25q14 0 24 -15l134 -182q8 -12 -9 -12h-14q-6 0 -14 8l-133 158l-134 -158q-8 -8 -14 -8zM74 535q0 287 68 419t239 131q78 0 143 -24q14 -4 15 -21v-12q0 -18 -17 -10q-53 23 -139 22q-150 0 -206 -120t-56 -385
q0 -267 56 -387t208 -119q88 0 141 22q16 8 17 -10v-12q0 -16 -15 -21q-66 -25 -145 -24q-174 0 -242 132q-67 132 -67 419z" />
    <glyph glyph-name="Cdotaccent" unicode="&#x10a;" horiz-adv-x="757" 
d="M508 1628v-84q0 -12 -12 -12h-29q-12 0 -12 12v84q0 12 12 12h29q12 0 12 -12zM506 29q86 0 158 20q16 4 16 -12v-14q0 -14 -14 -19q-70 -20 -160 -20q-229 0 -323 162q-93 163 -93 571q0 409 92 571t320 162q82 0 151 -20q14 -4 15 -19v-14q0 -16 -17 -13
q-72 20 -149 21q-203 0 -283 -153q-80 -154 -80 -536t81 -534t286 -153z" />
    <glyph glyph-name="cdotaccent" unicode="&#x10b;" horiz-adv-x="591" 
d="M393 1288v-84q0 -12 -12 -12h-29q-12 0 -12 12v84q0 12 12 12h29q12 0 12 -12zM74 535q0 287 68 419t239 131q78 0 143 -24q14 -4 15 -21v-12q0 -18 -17 -10q-53 23 -139 22q-150 0 -206 -120t-56 -385q0 -267 56 -387t208 -119q88 0 141 22q16 8 17 -10v-12
q0 -16 -15 -21q-66 -25 -145 -24q-174 0 -242 132q-67 132 -67 419z" />
    <glyph glyph-name="Ccaron" unicode="&#x10c;" horiz-adv-x="757" 
d="M647 1729q16 0 8 -13l-137 -170q-10 -14 -24 -14h-25q-14 0 -25 14l-137 170q-8 12 8 13h15q6 0 14 -9l137 -145l137 145q8 8 15 9h14zM506 29q86 0 158 20q16 4 16 -12v-14q0 -14 -14 -19q-70 -20 -160 -20q-229 0 -323 162q-93 163 -93 571q0 409 92 571t320 162
q82 0 151 -20q14 -4 15 -19v-14q0 -16 -17 -13q-72 20 -149 21q-203 0 -283 -153q-80 -154 -80 -536t81 -534t286 -153z" />
    <glyph glyph-name="ccaron" unicode="&#x10d;" horiz-adv-x="591" 
d="M514 1401h14q16 0 9 -12l-134 -183q-10 -14 -24 -14h-25q-14 0 -24 14l-133 183q-8 12 8 12h14q6 0 14 -8l134 -158l133 158q8 8 14 8zM74 535q0 287 68 419t239 131q78 0 143 -24q14 -4 15 -21v-12q0 -18 -17 -10q-53 23 -139 22q-150 0 -206 -120t-56 -385
q0 -267 56 -387t208 -119q88 0 141 22q16 8 17 -10v-12q0 -16 -15 -21q-66 -25 -145 -24q-174 0 -242 132q-67 132 -67 419z" />
    <glyph glyph-name="Dcaron" unicode="&#x10e;" horiz-adv-x="888" 
d="M610 1729q16 0 8 -13l-137 -170q-10 -14 -24 -14h-25q-14 0 -24 14l-138 170q-8 12 9 13h14q6 0 14 -9l137 -145l138 145q8 8 14 9h14zM360 1389h-186v-1344h186q133 0 214 55q174 118 175 616t-175 617q-81 56 -214 56zM360 0h-221q-12 0 -12 12v1409q0 12 14 13h219
q111 0 188 -33t135 -113q116 -160 116 -570t-116 -573q-58 -81 -135 -113t-188 -32z" />
    <glyph glyph-name="dcaron" unicode="&#x10f;" horiz-adv-x="860" 
d="M801 1153h-8q-14 0 -11 14l33 170h-24q-12 0 -13 13v112q0 12 13 13h53q12 0 12 -13v-110q0 -9 -2 -17l-39 -170q-4 -12 -14 -12zM618 12v197q-25 -102 -89 -164q-65 -61 -167 -61q-154 0 -222 139t-66 411q0 272 67 412q68 139 221 139q102 0 167 -61t89 -164v561
q0 12 13 13h20q12 0 13 -13v-1409q0 -12 -13 -12h-20q-13 0 -13 12zM621 535q0 508 -259 507q-242 0 -242 -508t242 -507q259 0 259 508z" />
    <glyph glyph-name="Dcroat" unicode="&#x110;" horiz-adv-x="892" 
d="M369 698h-191v-653h187q133 0 214 55t128 206t47 411q0 261 -47 411t-128 205t-214 56h-187v-652h191q12 0 12 -12v-14q0 -13 -12 -13zM365 0h-222q-12 0 -12 12v686h-82q-12 0 -12 13v14q0 12 12 12h82v684q0 12 14 13h220q111 0 187 -33t135 -113q116 -160 116 -570
t-116 -573q-59 -81 -135 -113t-187 -32z" />
    <glyph glyph-name="dcroat" unicode="&#x111;" horiz-adv-x="778" 
d="M621 535q0 508 -259 507q-242 0 -242 -508t242 -507q259 0 259 508zM618 12v197q-25 -102 -89 -164q-65 -61 -167 -61q-154 0 -222 139t-66 413q0 274 67 411q68 138 221 138q102 0 167 -61t89 -164v365h-200q-12 0 -12 12v14q0 12 12 13h200v157q0 12 13 13h20
q12 0 13 -13v-157h73q12 0 13 -13v-14q0 -12 -13 -12h-73v-1213q0 -12 -13 -12h-20q-13 0 -13 12z" />
    <glyph glyph-name="Emacron" unicode="&#x112;" horiz-adv-x="716" 
d="M551 1532h-328q-12 0 -12 12v15q0 12 12 12h328q12 0 12 -12v-15q0 -12 -12 -12zM606 713h-432v-668h449q12 0 12 -12v-23q0 -10 -12 -10h-484q-12 0 -12 12v1409q0 12 14 13h477q12 0 13 -13v-20q0 -12 -13 -12h-444v-631h432q12 0 12 -13v-20q0 -12 -12 -12z" />
    <glyph glyph-name="emacron" unicode="&#x113;" horiz-adv-x="700" 
d="M520 1208h-319q-12 0 -13 13v14q0 12 13 12h319q12 0 12 -12v-14q0 -13 -12 -13zM584 580q0 230 -47 346t-174 116t-184 -119q-56 -120 -58 -370h463v27zM412 27q102 0 178 28q14 4 14 -10v-12q0 -16 -14 -21q-76 -29 -180 -28q-186 0 -262 130q-74 130 -74 416t68 420
t220 135q152 0 210 -129t59 -376v-58q0 -12 -13 -12h-497q4 -258 67 -371q64 -112 224 -112z" />
    <glyph glyph-name="Ebreve" unicode="&#x114;" horiz-adv-x="716" 
d="M408 1520q-82 0 -129 48t-52 118q0 12 13 12h18q12 0 12 -12q16 -123 138 -123t137 123q0 12 12 12h18q12 0 13 -12q-4 -70 -51 -118t-129 -48zM606 713h-432v-668h449q12 0 12 -12v-23q0 -10 -12 -10h-484q-12 0 -12 12v1409q0 12 14 13h477q12 0 13 -13v-20
q0 -12 -13 -12h-444v-631h432q12 0 12 -13v-20q0 -12 -12 -12z" />
    <glyph glyph-name="ebreve" unicode="&#x115;" horiz-adv-x="700" 
d="M360 1188q-82 0 -129 48t-51 118q0 12 13 12h18q12 0 12 -12q14 -123 137 -123t138 123q0 12 12 12h18q12 0 13 -12q-3 -70 -51 -118t-130 -48zM584 580q0 230 -47 346t-174 116t-184 -119q-56 -120 -58 -370h463v27zM412 27q102 0 178 28q14 4 14 -10v-12q0 -16 -14 -21
q-76 -29 -180 -28q-186 0 -262 130q-74 130 -74 416t68 420t220 135q152 0 210 -129t59 -376v-58q0 -12 -13 -12h-497q4 -258 67 -371q64 -112 224 -112z" />
    <glyph glyph-name="Edotaccent" unicode="&#x116;" horiz-adv-x="716" 
d="M438 1628v-84q0 -12 -12 -12h-29q-12 0 -12 12v84q0 12 12 12h29q12 0 12 -12zM606 713h-432v-668h449q12 0 12 -12v-23q0 -10 -12 -10h-484q-12 0 -12 12v1409q0 12 14 13h477q12 0 13 -13v-20q0 -12 -13 -12h-444v-631h432q12 0 12 -13v-20q0 -12 -12 -12z" />
    <glyph glyph-name="edotaccent" unicode="&#x117;" horiz-adv-x="700" 
d="M387 1288v-84q0 -12 -12 -12h-29q-12 0 -12 12v84q0 12 12 12h29q12 0 12 -12zM584 580q0 230 -47 346t-174 116t-184 -119q-56 -120 -58 -370h463v27zM412 27q102 0 178 28q14 4 14 -10v-12q0 -16 -14 -21q-76 -29 -180 -28q-186 0 -262 130q-74 130 -74 416t68 420
t220 135q152 0 210 -129t59 -376v-58q0 -12 -13 -12h-497q4 -258 67 -371q64 -112 224 -112z" />
    <glyph glyph-name="Eogonek" unicode="&#x118;" horiz-adv-x="716" 
d="M594 -246v-14q0 -21 -66 -23q-125 0 -125 107q0 100 115 176h-379q-12 0 -12 12v1409q0 12 14 13h477q12 0 13 -13v-20q0 -12 -13 -12h-444v-631h432q12 0 12 -13v-20q0 -12 -12 -12h-432v-668h449q12 0 12 -12v-23q0 -10 -12 -10h-60q-113 -80 -112 -170q0 -66 84 -66
l47 3q12 0 12 -13z" />
    <glyph glyph-name="eogonek" unicode="&#x119;" horiz-adv-x="700" 
d="M584 580q0 230 -47 346t-174 116t-184 -119q-56 -120 -58 -370h463v27zM571 -252q0 -22 -57 -22q-117 0 -117 102q0 86 92 162q-39 -6 -79 -6q-186 0 -262 130q-74 130 -74 416t68 420t220 135q152 0 210 -129t59 -376v-58q0 -12 -13 -12h-497q4 -258 67 -371
q64 -112 224 -112q102 0 178 28q14 4 14 -10v-12q0 -16 -14 -21l-39 -12q-106 -78 -107 -166q0 -61 76 -61h39q12 0 12 -13v-12z" />
    <glyph glyph-name="Ecaron" unicode="&#x11a;" horiz-adv-x="716" 
d="M569 1729q16 0 9 -13l-138 -170q-10 -14 -24 -14h-25q-14 0 -24 14l-138 170q-8 12 9 13h14q6 0 14 -9l137 -145l138 145q8 8 14 9h14zM606 713h-432v-668h449q12 0 12 -12v-23q0 -10 -12 -10h-484q-12 0 -12 12v1409q0 12 14 13h477q12 0 13 -13v-20q0 -12 -13 -12h-444
v-631h432q12 0 12 -13v-20q0 -12 -12 -12z" />
    <glyph glyph-name="ecaron" unicode="&#x11b;" horiz-adv-x="700" 
d="M508 1401h14q16 0 8 -12l-133 -183q-10 -14 -24 -14h-25q-14 0 -24 14l-134 183q-8 12 9 12h14q6 0 14 -8l133 -158l134 158q8 8 14 8zM584 580q0 230 -47 346t-174 116t-184 -119q-56 -120 -58 -370h463v27zM412 27q102 0 178 28q14 4 14 -10v-12q0 -16 -14 -21
q-76 -29 -180 -28q-186 0 -262 130q-74 130 -74 416t68 420t220 135q152 0 210 -129t59 -376v-58q0 -12 -13 -12h-497q4 -258 67 -371q64 -112 224 -112z" />
    <glyph glyph-name="Gcircumflex" unicode="&#x11c;" horiz-adv-x="819" 
d="M328 1532h-15q-16 0 -8 12l137 170q10 14 25 15h25q14 0 24 -15l137 -170q8 -12 -8 -12h-14q-7 0 -15 8l-137 146l-137 -146q-8 -8 -14 -8zM389 770h307q12 0 13 -12v-719q0 -16 -17 -25q-61 -31 -182 -30q-229 0 -325 163q-95 164 -95 570q0 405 94 569t324 164
q88 0 158 -20q14 -4 14 -19v-14q0 -16 -16 -13q-72 20 -156 21q-205 0 -287 -153q-82 -152 -82 -534t83 -536t288 -153q86 0 152 24v672h-273q-12 0 -12 12v21q0 12 12 12z" />
    <glyph glyph-name="gcircumflex" unicode="&#x11d;" horiz-adv-x="761" 
d="M233 1192h-14q-16 0 -8 12l133 182q10 14 25 15h24q14 0 25 -15l133 -182q8 -12 -8 -12h-15q-6 0 -14 8l-133 158l-133 -158q-8 -8 -15 -8zM651 1057v-955q1 -182 -71 -263t-206 -81t-224 45q-14 8 -15 21v12q0 14 15 10q98 -45 218 -45t179 70t59 235v193
q-25 -102 -89 -164q-65 -61 -165 -61q-279 0 -278 506q0 506 278 505q100 0 165 -61t89 -164v197q0 12 12 12h21q12 0 12 -12zM608 580q0 219 -65 341q-66 122 -191 121q-231 0 -231 -462t231 -463q125 0 191 122q65 122 65 341z" />
    <glyph glyph-name="Gbreve" unicode="&#x11e;" horiz-adv-x="819" 
d="M479 1520q-82 0 -129 48t-51 118q0 12 12 12h19q12 0 12 -12q14 -123 137 -123t137 123q0 12 13 12h18q12 0 12 -12q-4 -70 -51 -118t-129 -48zM389 770h307q12 0 13 -12v-719q0 -16 -17 -25q-61 -31 -182 -30q-229 0 -325 163q-95 164 -95 570q0 405 94 569t324 164
q88 0 158 -20q14 -4 14 -19v-14q0 -16 -16 -13q-72 20 -156 21q-205 0 -287 -153q-82 -152 -82 -534t83 -536t288 -153q86 0 152 24v672h-273q-12 0 -12 12v21q0 12 12 12z" />
    <glyph glyph-name="gbreve" unicode="&#x11f;" horiz-adv-x="761" 
d="M381 1188q-82 0 -129 48t-51 118q0 12 12 12h18q12 0 13 -12q14 -123 137 -123t137 123q0 12 12 12h19q12 0 12 -12q-4 -70 -51 -118t-129 -48zM651 1057v-955q1 -182 -71 -263t-206 -81t-224 45q-14 8 -15 21v12q0 14 15 10q98 -45 218 -45t179 70t59 235v193
q-25 -102 -89 -164q-65 -61 -165 -61q-279 0 -278 506q0 506 278 505q100 0 165 -61t89 -164v197q0 12 12 12h21q12 0 12 -12zM608 580q0 219 -65 341q-66 122 -191 121q-231 0 -231 -462t231 -463q125 0 191 122q65 122 65 341z" />
    <glyph glyph-name="Gdotaccent" unicode="&#x120;" horiz-adv-x="819" 
d="M506 1628v-84q0 -12 -12 -12h-29q-12 0 -12 12v84q0 12 12 12h29q12 0 12 -12zM389 770h307q12 0 13 -12v-719q0 -16 -17 -25q-61 -31 -182 -30q-229 0 -325 163q-95 164 -95 570q0 405 94 569t324 164q88 0 158 -20q14 -4 14 -19v-14q0 -16 -16 -13q-72 20 -156 21
q-205 0 -287 -153q-82 -152 -82 -534t83 -536t288 -153q86 0 152 24v672h-273q-12 0 -12 12v21q0 12 12 12z" />
    <glyph glyph-name="gdotaccent" unicode="&#x121;" horiz-adv-x="761" 
d="M408 1288v-84q0 -12 -13 -12h-28q-12 0 -13 12v84q0 12 13 12h28q13 0 13 -12zM651 1057v-955q1 -182 -71 -263t-206 -81t-224 45q-14 8 -15 21v12q0 14 15 10q98 -45 218 -45t179 70t59 235v193q-25 -102 -89 -164q-65 -61 -165 -61q-279 0 -278 506q0 506 278 505
q100 0 165 -61t89 -164v197q0 12 12 12h21q12 0 12 -12zM608 580q0 219 -65 341q-66 122 -191 121q-231 0 -231 -462t231 -463q125 0 191 122q65 122 65 341z" />
    <glyph glyph-name="Gcommaaccent" unicode="&#x122;" horiz-adv-x="819" 
d="M487 -403h-8q-14 0 -10 14l29 158h-27q-12 0 -12 12v92q0 12 12 12h57q12 0 13 -12v-90q0 -8 -2 -16l-37 -158q-2 -12 -15 -12zM389 770h307q12 0 13 -12v-719q0 -16 -17 -25q-61 -31 -182 -30q-229 0 -325 163q-95 164 -95 570q0 405 94 569t324 164q88 0 158 -20
q14 -4 14 -19v-14q0 -16 -16 -13q-72 20 -156 21q-205 0 -287 -153q-82 -152 -82 -534t83 -536t288 -153q86 0 152 24v672h-273q-12 0 -12 12v21q0 12 12 12z" />
    <glyph glyph-name="gcommaaccent" unicode="&#x123;" horiz-adv-x="761" 
d="M403 1456h9q14 0 10 -14l-29 -142h27q12 0 12 -12v-92q0 -12 -12 -12h-58q-12 0 -12 12v90q0 9 2 17l37 141q4 12 14 12zM651 1057v-955q1 -182 -71 -263t-206 -81t-224 45q-14 8 -15 21v12q0 14 15 10q98 -45 218 -45t179 70t59 235v193q-25 -102 -89 -164
q-65 -61 -165 -61q-279 0 -278 506q0 506 278 505q100 0 165 -61t89 -164v197q0 12 12 12h21q12 0 12 -12zM608 580q0 219 -65 341q-66 122 -191 121q-231 0 -231 -462t231 -463q125 0 191 122q65 122 65 341z" />
    <glyph glyph-name="Hcircumflex" unicode="&#x124;" horiz-adv-x="892" 
d="M295 1532h-14q-16 0 -9 12l138 170q10 14 24 15h25q14 0 24 -15l138 -170q8 -12 -9 -12h-14q-6 0 -14 8l-138 146l-137 -146q-8 -8 -14 -8zM719 12v701h-545v-701q0 -12 -12 -12h-23q-12 0 -12 12v1409q0 12 12 13h23q12 0 12 -13v-663h545v663q0 12 12 13h23
q12 0 12 -13v-1409q0 -12 -12 -12h-23q-12 0 -12 12z" />
    <glyph glyph-name="hcircumflex" unicode="&#x125;" horiz-adv-x="778" 
d="M238 1532h-15q-16 0 -8 12l137 170q10 14 25 15h24q14 0 25 -15l137 -170q8 -12 -8 -12h-14q-7 0 -15 8l-137 146l-137 -146q-8 -8 -14 -8zM668 772v-760q0 -12 -13 -12h-20q-12 0 -12 12v760q0 270 -195 270q-116 0 -192 -91t-76 -238v-699q0 -14 -13 -14h-20
q-12 0 -12 12v1409q0 12 12 13h20q12 0 13 -13v-532q29 80 96 138q68 58 182 58t172 -84t58 -229z" />
    <glyph glyph-name="Hbar" unicode="&#x126;" horiz-adv-x="892" 
d="M174 758h545v366h-545v-366zM719 12v701h-545v-701q0 -12 -12 -12h-23q-12 0 -12 12v1112h-78q-12 0 -12 13v14q0 12 12 12h78v258q0 12 12 13h23q12 0 12 -13v-258h545v258q0 12 12 13h23q12 0 12 -11v-260h78q12 0 12 -12v-14q0 -12 -12 -13h-78v-1112q0 -12 -12 -12
h-23q-12 0 -12 12z" />
    <glyph glyph-name="hbar" unicode="&#x127;" horiz-adv-x="778" 
d="M668 772v-760q0 -12 -13 -12h-20q-12 0 -12 12v760q0 270 -195 270q-116 0 -192 -91t-76 -238v-701q0 -12 -13 -12h-20q-12 0 -12 12v1213h-74q-12 0 -12 12v14q0 12 12 13h74v157q0 12 12 13h20q12 0 13 -13v-157h200q12 0 13 -13v-14q0 -12 -13 -12h-200v-336
q29 80 96 138q68 58 182 58t172 -84t58 -229z" />
    <glyph glyph-name="Itilde" unicode="&#x128;" horiz-adv-x="319" 
d="M362 1640q0 -50 -28 -82t-72 -32q-43 0 -90 37l-59 43q-51 31 -81 13t-36 -73q-2 -14 -14 -14h-11q-14 0 -14 14q0 51 29 85q30 34 72 34t89 -37l50 -37q33 -27 61 -27q57 1 66 76q2 14 14 15h10q14 -1 14 -15zM137 12v1409q0 12 13 13h22q12 0 12 -13v-1409
q0 -12 -12 -12h-22q-13 0 -13 12z" />
    <glyph glyph-name="itilde" unicode="&#x129;" horiz-adv-x="299" 
d="M348 1300q0 -50 -26 -82t-70 -32q-43 0 -90 37l-53 39q-104 70 -119 -56q-2 -14 -15 -14h-10q-14 0 -14 14q0 51 26 85q27 34 70 34t90 -37l49 -37q68 -53 104 -7q14 18 18 44q3 26 16 27h10q14 -1 14 -15zM172 1057v-1045q0 -12 -12 -12h-21q-12 0 -12 12v1045
q0 12 12 12h21q12 0 12 -12z" />
    <glyph glyph-name="Imacron" unicode="&#x12a;" horiz-adv-x="319" 
d="M324 1532h-328q-12 0 -12 12v15q0 12 12 12h328q12 0 12 -12v-15q0 -12 -12 -12zM137 12v1409q0 12 13 13h22q12 0 12 -13v-1409q0 -12 -12 -12h-22q-13 0 -13 12z" />
    <glyph glyph-name="imacron" unicode="&#x12b;" horiz-adv-x="299" 
d="M309 1208h-319q-12 0 -13 13v14q0 12 13 12h319q12 0 13 -12v-14q-1 -13 -13 -13zM172 1057v-1045q0 -12 -12 -12h-21q-12 0 -12 12v1045q0 12 12 12h21q12 0 12 -12z" />
    <glyph glyph-name="Ibreve" unicode="&#x12c;" horiz-adv-x="319" 
d="M160 1520q-82 0 -129 48t-51 118q0 12 12 12h18q12 0 13 -12q14 -123 137 -123t137 123q0 12 12 12h19q12 0 12 -12q-4 -70 -51 -118t-129 -48zM137 12v1409q0 12 13 13h22q12 0 12 -13v-1409q0 -12 -12 -12h-22q-13 0 -13 12z" />
    <glyph glyph-name="ibreve" unicode="&#x12d;" horiz-adv-x="299" 
d="M150 1188q-82 0 -130 48q-47 48 -51 118q0 12 13 12h18q12 0 12 -12q16 -123 138 -123t137 123q0 12 12 12h18q12 0 13 -12q-4 -70 -51 -118t-129 -48zM172 1057v-1045q0 -12 -12 -12h-21q-12 0 -12 12v1045q0 12 12 12h21q12 0 12 -12z" />
    <glyph glyph-name="Iogonek" unicode="&#x12e;" horiz-adv-x="319" 
d="M184 -246v-14q0 -21 -65 -23q-125 0 -125 107q0 117 143 192v1405q0 12 13 13h22q12 0 12 -13v-1409q0 -12 -12 -12h-18q-113 -80 -113 -170q0 -66 84 -66l47 3q12 0 12 -13z" />
    <glyph glyph-name="iogonek" unicode="&#x12f;" horiz-adv-x="299" 
d="M176 1393v-146q0 -12 -12 -12h-29q-12 0 -12 12v146q0 12 12 12h29q12 0 12 -12zM166 -252q0 -22 -57 -22q-117 0 -117 102q0 113 135 188v1041q0 12 12 12h21q12 0 12 -12v-1045q0 -12 -12 -12h-15q-106 -78 -106 -166q0 -61 76 -61h39q12 0 12 -13v-12z" />
    <glyph glyph-name="Idotaccent" unicode="&#x130;" horiz-adv-x="319" 
d="M186 1628v-84q0 -12 -12 -12h-29q-12 0 -12 12v84q0 12 12 12h29q12 0 12 -12zM137 12v1409q0 12 13 13h22q12 0 12 -13v-1409q0 -12 -12 -12h-22q-13 0 -13 12z" />
    <glyph glyph-name="dotlessi" unicode="&#x131;" horiz-adv-x="299" 
d="M172 1057v-1045q0 -12 -12 -12h-21q-12 0 -12 12v1045q0 12 12 12h21q12 0 12 -12z" />
    <glyph glyph-name="IJ" unicode="&#x132;" horiz-adv-x="864" 
d="M690 285v1136q0 12 12 13h23q12 0 12 -13v-1138q0 -162 -52 -227t-171 -64q-72 0 -127 20q-14 4 -14 19v14q0 16 16 12q57 -20 139 -20q82 -1 122 53t40 195zM137 12v1409q0 12 13 13h22q12 0 12 -13v-1409q0 -12 -12 -12h-22q-13 0 -13 12z" />
    <glyph glyph-name="ij" unicode="&#x133;" horiz-adv-x="610" 
d="M487 1393v-146q0 -12 -12 -12h-29q-12 0 -12 12v146q0 12 12 12h29q12 0 12 -12zM438 184v873q0 12 13 12h20q12 0 12 -12v-875q-1 -100 -29 -145t-104 -45q-20 0 -34 2t-13 18v15q0 14 12 11t50 -3q37 -1 55 33t18 116zM176 1393v-146q0 -12 -12 -12h-29q-12 0 -12 12
v146q0 12 12 12h29q12 0 12 -12zM172 1057v-1045q0 -12 -12 -12h-21q-12 0 -12 12v1045q0 12 12 12h21q12 0 12 -12z" />
    <glyph glyph-name="Jcircumflex" unicode="&#x134;" horiz-adv-x="544" 
d="M141 1532h-14q-16 0 -8 12l137 170q10 14 25 15h24q14 0 25 -15l137 -170q8 -12 -8 -12h-15q-6 0 -14 8l-137 146l-137 -146q-8 -8 -15 -8zM371 285v1136q0 12 12 13h23q12 0 12 -13v-1138q0 -162 -52 -227t-171 -64q-72 0 -127 20q-14 4 -15 19v14q0 16 17 12
q57 -20 139 -20q82 -1 122 53t40 195z" />
    <glyph glyph-name="jcircumflex" unicode="&#x135;" horiz-adv-x="311" 
d="M8 1192h-14q-16 0 -8 12l133 182q10 14 24 15h25q14 0 25 -15l133 -182q8 -12 -9 -12h-14q-6 0 -14 8l-133 158l-133 -158q-8 -8 -15 -8zM139 -41v1098q0 12 13 12h20q12 0 12 -12v-1100q0 -100 -28 -145t-105 -45q-19 0 -33 2t-14 18v14q0 14 14 11q6 -2 46 -2t58 33
q17 34 17 116z" />
    <glyph glyph-name="Kcommaaccent" unicode="&#x136;" horiz-adv-x="757" 
d="M408 -403h-9q-14 0 -10 14l29 158h-27q-12 0 -12 12v92q0 12 12 12h58q12 0 12 -12v-90q0 -8 -2 -16l-37 -158q-4 -12 -14 -12zM707 1434q16 0 6 -15l-504 -682l516 -723q10 -14 -6 -14h-33q-10 0 -16 10l-496 699v-697q0 -12 -12 -12h-23q-12 0 -12 12v1409q0 12 12 13
h23q12 0 12 -13v-657l483 659q6 10 17 11h33z" />
    <glyph glyph-name="kcommaaccent" unicode="&#x137;" horiz-adv-x="643" 
d="M342 -387h-8q-14 0 -10 14l28 142h-26q-12 0 -13 12v92q0 12 13 12h57q12 0 12 -12v-90q0 -8 -2 -16l-37 -142q-4 -12 -14 -12zM596 0h-21q-18 0 -26 12l-389 563v-563q0 -12 -13 -12h-20q-12 0 -12 12v1409q0 12 12 13h20q12 0 13 -13v-811l377 447q12 12 26 12h21
q10 0 12 -6t-4 -12l-389 -457l401 -576q15 -18 -8 -18z" />
    <glyph glyph-name="kgreenlandic" unicode="&#x138;" horiz-adv-x="638" 
d="M592 0h-21q-18 0 -26 12l-389 563v-563q0 -12 -13 -12h-20q-12 0 -12 12v1045q0 12 12 12h20q12 0 13 -12v-447l376 447q12 12 27 12h21q10 0 12 -6t-4 -12l-389 -457l401 -576q15 -18 -8 -18z" />
    <glyph glyph-name="Lacute" unicode="&#x139;" horiz-adv-x="663" 
d="M274 1722h33q23 0 8 -18l-139 -164q-6 -8 -14 -8h-15q-14 0 -6 12l109 162q10 16 24 16zM174 1421v-1376h416q12 0 12 -14v-19q0 -12 -12 -12h-451q-12 0 -12 12v1409q0 12 12 13h23q12 -1 12 -13z" />
    <glyph glyph-name="lacute" unicode="&#x13a;" horiz-adv-x="299" 
d="M270 1722h33q23 0 8 -18l-139 -164q-6 -8 -14 -8h-15q-14 0 -6 12l109 162q10 16 24 16zM172 1421v-1409q0 -12 -12 -12h-21q-12 0 -12 12v1409q0 12 12 13h21q12 -1 12 -13z" />
    <glyph glyph-name="Lcommaaccent" unicode="&#x13b;" horiz-adv-x="663" 
d="M360 -403h-8q-14 0 -10 14l29 158h-27q-12 0 -12 12v92q0 12 12 12h57q12 0 13 -12v-90q0 -8 -2 -16l-37 -158q-2 -12 -15 -12zM174 1421v-1376h416q12 0 12 -14v-19q0 -12 -12 -12h-451q-12 0 -12 12v1409q0 12 12 13h23q12 -1 12 -13z" />
    <glyph glyph-name="lcommaaccent" unicode="&#x13c;" horiz-adv-x="299" 
d="M137 -387h-8q-14 0 -10 14l28 142h-26q-12 0 -12 12v92q0 12 12 12h57q12 0 12 -12v-90q0 -8 -2 -16l-36 -142q-4 -12 -15 -12zM172 1421v-1409q0 -12 -12 -12h-21q-12 0 -12 12v1409q0 12 12 13h21q12 -1 12 -13z" />
    <glyph glyph-name="Lcaron" unicode="&#x13d;" horiz-adv-x="663" 
d="M391 1153h-8q-14 0 -10 14l33 170h-25q-12 0 -12 13v112q0 12 12 13h53q12 0 12 -13v-110q0 -9 -2 -17l-38 -170q-4 -12 -15 -12zM174 1421v-1376h416q12 0 12 -14v-19q0 -12 -12 -12h-451q-12 0 -12 12v1409q0 12 12 13h23q12 -1 12 -13z" />
    <glyph glyph-name="lcaron" unicode="&#x13e;" horiz-adv-x="368" 
d="M309 1153h-8q-14 0 -10 14l33 170h-25q-12 0 -12 13v112q0 12 12 13h53q12 0 13 -13v-110q-1 -9 -3 -17l-38 -170q-4 -12 -15 -12zM172 1421v-1409q0 -12 -12 -12h-21q-12 0 -12 12v1409q0 12 12 13h21q12 -1 12 -13z" />
    <glyph glyph-name="Ldot" unicode="&#x13f;" horiz-adv-x="663" 
d="M524 563v113q0 12 13 12h53q12 0 12 -12v-113q0 -12 -12 -12h-53q-13 0 -13 12zM174 1421v-1376h416q12 0 12 -14v-19q0 -12 -12 -12h-451q-12 0 -12 12v1409q0 12 12 13h23q12 -1 12 -13z" />
    <glyph glyph-name="ldot" unicode="&#x140;" horiz-adv-x="405" 
d="M299 477v113q0 12 12 12h54q12 0 12 -12v-113q0 -12 -12 -12h-54q-12 0 -12 12zM164 1421v-1409q0 -12 -12 -12h-21q-12 0 -12 12v1409q0 12 12 13h21q12 -1 12 -13z" />
    <glyph glyph-name="Lslash" unicode="&#x141;" horiz-adv-x="667" 
d="M178 1421v-676l203 117q10 6 16 -6l9 -12q6 -10 -7 -17l-221 -129v-653h416q12 0 12 -12v-21q0 -12 -12 -12h-451q-12 0 -12 12v660l-88 -51q-12 -6 -18 4l-7 14q-6 10 5 16l108 62v704q0 12 12 13h23q12 -1 12 -13z" />
    <glyph glyph-name="lslash" unicode="&#x142;" horiz-adv-x="307" 
d="M176 1421v-678l88 52q10 6 17 -7l8 -12q6 -10 -6 -16l-107 -62v-686q0 -12 -12 -12h-21q-12 0 -12 12v660l-88 -51q-12 -6 -18 4l-7 14q-6 10 5 16l108 62v704q0 12 12 13h21q12 -1 12 -13z" />
    <glyph glyph-name="Nacute" unicode="&#x143;" horiz-adv-x="913" 
d="M563 1722h33q23 0 8 -18l-139 -164q-6 -8 -14 -8h-15q-14 0 -6 12l109 162q10 16 24 16zM786 1419v-1407q0 -12 -12 -12h-20q-12 0 -19 12l-561 1309v-1309q0 -12 -12 -12h-23q-12 0 -12 12v1409q0 12 12 13h21q12 0 18 -13l561 -1308v1308q0 12 13 13h22q12 -1 12 -15z
" />
    <glyph glyph-name="nacute" unicode="&#x144;" horiz-adv-x="774" 
d="M549 1393q23 0 8 -19l-143 -174q-6 -8 -15 -8h-14q-14 0 -6 12l113 172q10 16 24 17h33zM664 772v-760q0 -12 -13 -12h-20q-12 0 -13 12v760q0 270 -194 270q-117 0 -193 -95t-75 -236v-699q0 -12 -13 -12h-20q-12 0 -12 12v1045q0 12 12 12h20q12 0 13 -12v-172
q25 76 94 138q70 62 184 62t172 -84t58 -229z" />
    <glyph glyph-name="Ncommaaccent" unicode="&#x145;" horiz-adv-x="913" 
d="M444 -403h-8q-14 0 -10 14l29 158h-27q-12 0 -12 12v92q0 12 12 12h57q12 0 13 -12v-90q0 -8 -2 -16l-37 -158q-4 -12 -15 -12zM786 1419v-1407q0 -12 -12 -12h-20q-12 0 -19 12l-561 1309v-1309q0 -12 -12 -12h-23q-12 0 -12 12v1409q0 12 12 13h21q12 0 18 -13
l561 -1308v1308q0 12 13 13h22q12 -1 12 -15z" />
    <glyph glyph-name="ncommaaccent" unicode="&#x146;" horiz-adv-x="774" 
d="M375 -387h-8q-14 0 -11 14l29 142h-27q-12 0 -12 12v92q0 12 12 12h58q12 0 12 -12v-90q0 -8 -2 -16l-37 -142q-4 -12 -14 -12zM664 772v-760q0 -12 -13 -12h-20q-12 0 -13 12v760q0 270 -194 270q-117 0 -193 -95t-75 -236v-699q0 -12 -13 -12h-20q-12 0 -12 12v1045
q0 12 12 12h20q12 0 13 -12v-172q25 76 94 138q70 62 184 62t172 -84t58 -229z" />
    <glyph glyph-name="Ncaron" unicode="&#x147;" horiz-adv-x="913" 
d="M623 1729q16 0 8 -13l-137 -170q-10 -14 -25 -14h-25q-14 0 -24 14l-137 170q-8 12 8 13h14q6 0 14 -9l138 -145l137 145q8 8 14 9h15zM786 1419v-1407q0 -12 -12 -12h-20q-12 0 -19 12l-561 1309v-1309q0 -12 -12 -12h-23q-12 0 -12 12v1409q0 12 12 13h21q12 0 18 -13
l561 -1308v1308q0 12 13 13h22q12 -1 12 -15z" />
    <glyph glyph-name="ncaron" unicode="&#x148;" horiz-adv-x="774" 
d="M555 1401h14q16 0 9 -12l-134 -183q-10 -14 -24 -14h-25q-14 0 -24 14l-133 183q-8 12 8 12h14q6 0 14 -8l134 -158l133 158q8 8 14 8zM664 772v-760q0 -12 -13 -12h-20q-12 0 -13 12v760q0 270 -194 270q-117 0 -193 -95t-75 -236v-699q0 -12 -13 -12h-20q-12 0 -12 12
v1045q0 12 12 12h20q12 0 13 -12v-172q25 76 94 138q70 62 184 62t172 -84t58 -229z" />
    <glyph glyph-name="napostrophe" unicode="&#x149;" horiz-adv-x="827" 
d="M14 1153h-8q-14 0 -10 14l33 170h-25q-12 0 -12 13v112q0 12 12 13h53q12 0 13 -13v-110q0 -9 -2 -17l-39 -170q-4 -12 -15 -12zM717 772v-760q0 -12 -12 -12h-21q-12 0 -12 12v760q0 270 -195 270q-117 0 -193 -95t-75 -236v-699q0 -12 -12 -12h-21q-12 0 -12 12v1045
q0 12 12 12h21q12 0 12 -12v-172q25 76 94 138t183 62t172 -84t59 -229z" />
    <glyph glyph-name="Eng" unicode="&#x14a;" horiz-adv-x="913" 
d="M786 1421v-1366q0 -165 -47 -229t-151 -64q-61 0 -111 19q-14 4 -14 18v15q0 16 16 12q51 -18 117 -18t100 44t41 154l-563 1315v-1309q0 -12 -12 -12h-23q-12 0 -12 12v1409q0 12 12 13h21q12 0 18 -13l561 -1308v1308q0 12 13 13h22q12 -1 12 -13z" />
    <glyph glyph-name="eng" unicode="&#x14b;" horiz-adv-x="774" 
d="M618 -41v813q0 270 -194 270q-117 0 -193 -95t-75 -238v-697q0 -12 -13 -12h-20q-12 0 -12 12v1045q0 12 12 12h20q12 0 13 -12v-172q25 76 94 138q70 62 184 62t171 -84q58 -84 59 -229v-815q0 -100 -29 -145t-105 -45q-20 0 -33 2t-14 18v14q0 10 13 11l28 -2
q55 0 75 28q19 29 19 121z" />
    <glyph glyph-name="Omacron" unicode="&#x14c;" horiz-adv-x="937" 
d="M633 1532h-328q-12 0 -12 12v15q0 12 12 12h328q12 0 12 -12v-15q0 -12 -12 -12zM469 27q174 1 252 157t78 533t-78 533t-252 157q-174 0 -252 -157q-78 -158 -78 -534t78 -532t252 -157zM469 1450q199 0 289 -167t90 -566t-90 -566t-288 -167t-289 167t-91 566t90 566
t289 167z" />
    <glyph glyph-name="omacron" unicode="&#x14d;" horiz-adv-x="753" 
d="M537 1208h-320q-12 0 -12 13v14q0 12 12 12h320q12 0 12 -12v-14q0 -13 -12 -13zM377 27q137 0 196 124t60 384t-59 384q-60 123 -197 123t-197 -123q-59 -124 -59 -384q-1 -260 59 -384t197 -124zM377 -16q-164 0 -234 135t-69 416q0 281 70 415t233 135q163 0 233 -135
q70 -136 70 -416t-70 -415t-233 -135z" />
    <glyph glyph-name="Obreve" unicode="&#x14e;" horiz-adv-x="937" 
d="M469 1520q-82 0 -129 48t-51 118q0 12 12 12h18q12 0 13 -12q16 -123 137 -123t137 123q0 12 12 12h19q12 0 12 -12q-4 -70 -51 -118t-129 -48zM469 27q174 1 252 157t78 533t-78 533t-252 157q-174 0 -252 -157q-78 -158 -78 -534t78 -532t252 -157zM469 1450
q199 0 289 -167t90 -566t-90 -566t-288 -167t-289 167t-91 566t90 566t289 167z" />
    <glyph glyph-name="obreve" unicode="&#x14f;" horiz-adv-x="753" 
d="M377 1188q-82 0 -129 48t-51 118q0 12 12 12h18q12 0 13 -12q14 -123 137 -123t137 123q0 12 12 12h19q12 0 12 -12q-4 -70 -51 -118t-129 -48zM377 27q137 0 196 124t60 384t-59 384q-60 123 -197 123t-197 -123q-59 -124 -59 -384q-1 -260 59 -384t197 -124zM377 -16
q-164 0 -234 135t-69 416q0 281 70 415t233 135q163 0 233 -135q70 -136 70 -416t-70 -415t-233 -135z" />
    <glyph glyph-name="Ohungarumlaut" unicode="&#x150;" horiz-adv-x="937" 
d="M674 1720h31q23 0 8 -18l-121 -162q-6 -8 -14 -8h-15q-14 0 -6 12l92 160q10 16 25 16zM479 1720h31q23 0 8 -18l-121 -162q-6 -8 -14 -8h-14q-15 0 -7 12l93 160q10 16 24 16zM469 27q174 1 252 157t78 533t-78 533t-252 157q-174 0 -252 -157q-78 -158 -78 -534
t78 -532t252 -157zM469 1450q199 0 289 -167t90 -566t-90 -566t-288 -167t-289 167t-91 566t90 566t289 167z" />
    <glyph glyph-name="ohungarumlaut" unicode="&#x151;" horiz-adv-x="753" 
d="M614 1393q23 0 9 -19l-125 -174q-6 -8 -15 -8h-14q-14 0 -6 12l96 172q10 16 25 17h30zM420 1393q23 0 8 -19l-125 -174q-6 -8 -14 -8h-15q-14 0 -6 12l97 172q10 16 24 17h31zM377 27q137 0 196 124t60 384t-59 384q-60 123 -197 123t-197 -123q-59 -124 -59 -384
q-1 -260 59 -384t197 -124zM377 -16q-164 0 -234 135t-69 416q0 281 70 415t233 135q163 0 233 -135q70 -136 70 -416t-70 -415t-233 -135z" />
    <glyph glyph-name="OE" unicode="&#x152;" horiz-adv-x="1269" 
d="M688 1389h-137q-133 1 -219 -55t-139 -208t-53 -410t52 -410q54 -153 140 -208t219 -55h137v1346zM1159 713h-424v-668h441q12 0 12 -12v-21q0 -12 -12 -12h-627q-275 0 -378 220q-81 173 -81 497q0 411 127 570q63 79 143 113t191 34h620q12 0 13 -13v-20q0 -12 -13 -12
h-436v-631h424q12 0 12 -13v-20q0 -12 -12 -12z" />
    <glyph glyph-name="oe" unicode="&#x153;" horiz-adv-x="1228" 
d="M1112 580q0 226 -45 344t-167 118t-178 -120t-58 -369h448v27zM121 535q-1 -260 57 -384t190 -124t190 124t58 384t-58 384q-58 123 -190 123t-190 -123q-57 -124 -57 -384zM950 27q92 0 168 28q14 4 15 -10v-12q0 -16 -15 -21q-76 -28 -190 -28q-236 1 -289 276
q-27 -139 -93 -208t-179 -68q-156 0 -225 135t-68 416q0 281 68 415t225 135q219 0 272 -276q53 276 266 276q139 0 197 -129t57 -376v-58q0 -12 -12 -12h-483q4 -256 67 -370t219 -113z" />
    <glyph glyph-name="Racute" unicode="&#x154;" horiz-adv-x="835" 
d="M504 1722h33q23 0 8 -18l-139 -164q-6 -8 -15 -8h-14q-14 0 -6 12l108 162q10 16 25 16zM139 1434h197q227 0 316 -98t89 -336q0 -240 -68 -341q-69 -100 -235 -118l277 -527q6 -14 -8 -14h-27q-10 0 -16 10l-277 527h-213v-525q0 -12 -12 -12h-23q-12 0 -12 12v1409
q0 13 12 13zM174 582h176q188 0 265 86t77 318t-77 318t-279 85h-162v-807z" />
    <glyph glyph-name="racute" unicode="&#x155;" horiz-adv-x="466" 
d="M375 1393q23 0 8 -19l-143 -174q-6 -8 -15 -8h-14q-14 0 -6 12l112 172q10 16 25 17h33zM156 12q0 -12 -13 -12h-20q-12 0 -12 12v1045q0 12 12 12h20q12 0 13 -12v-189q16 88 85 153t162 64q27 0 27 -18v-14q0 -16 -14 -17l-31 2q-90 0 -160 -97t-69 -249v-680z" />
    <glyph glyph-name="Rcommaaccent" unicode="&#x156;" horiz-adv-x="835" 
d="M406 -403h-9q-14 0 -10 14l29 158h-27q-12 0 -12 12v92q0 12 12 12h57q12 0 13 -12v-90q0 -8 -2 -16l-37 -158q-2 -12 -14 -12zM139 1434h197q227 0 316 -98t89 -336q0 -240 -68 -341q-69 -100 -235 -118l277 -527q6 -14 -8 -14h-27q-10 0 -16 10l-277 527h-213v-525
q0 -12 -12 -12h-23q-12 0 -12 12v1409q0 13 12 13zM174 582h176q188 0 265 86t77 318t-77 318t-279 85h-162v-807z" />
    <glyph glyph-name="rcommaaccent" unicode="&#x157;" horiz-adv-x="466" 
d="M121 -387h-8q-14 0 -11 14l29 142h-27q-12 0 -12 12v92q0 12 12 12h58q12 0 12 -12v-90q0 -8 -2 -16l-37 -142q-4 -12 -14 -12zM156 12q0 -12 -13 -12h-20q-12 0 -12 12v1045q0 12 12 12h20q12 0 13 -12v-189q16 88 85 153t162 64q27 0 27 -18v-14q0 -16 -14 -17l-31 2
q-90 0 -160 -97t-69 -249v-680z" />
    <glyph glyph-name="Rcaron" unicode="&#x158;" horiz-adv-x="835" 
d="M584 1729q16 0 8 -13l-137 -170q-10 -14 -25 -14h-24q-14 0 -25 14l-137 170q-8 12 8 13h14q6 0 15 -9l137 -145l137 145q8 8 14 9h15zM139 1434h197q227 0 316 -98t89 -336q0 -240 -68 -341q-69 -100 -235 -118l277 -527q6 -14 -8 -14h-27q-10 0 -16 10l-277 527h-213
v-525q0 -12 -12 -12h-23q-12 0 -12 12v1409q0 13 12 13zM174 582h176q188 0 265 86t77 318t-77 318t-279 85h-162v-807z" />
    <glyph glyph-name="rcaron" unicode="&#x159;" horiz-adv-x="466" 
d="M381 1401h14q16 0 8 -12l-133 -183q-10 -14 -24 -14h-25q-14 0 -24 14l-134 183q-8 12 9 12h14q6 0 14 -8l133 -158l134 158q8 8 14 8zM156 12q0 -12 -13 -12h-20q-12 0 -12 12v1045q0 12 12 12h20q12 0 13 -12v-189q16 88 85 153t162 64q27 0 27 -18v-14q0 -16 -14 -17
l-31 2q-90 0 -160 -97t-69 -249v-680z" />
    <glyph glyph-name="Sacute" unicode="&#x15a;" horiz-adv-x="679" 
d="M446 1722h33q23 0 8 -18l-139 -164q-6 -8 -14 -8h-15q-14 0 -6 12l109 162q10 16 24 16zM598 315q0 -336 -313 -335q-100 0 -191 22q-14 4 -14 18v15q0 16 16 12q82 -23 189 -22q266 0 266 290q0 152 -77 245q-42 52 -74 82t-120 104t-147 162q-59 89 -59 234
q0 144 68 226t229 82q88 0 164 -23q14 -4 14 -18v-14q0 -16 -17 -13q-80 23 -163 23q-137 0 -193 -69q-56 -70 -55 -198q0 -128 53 -209q52 -81 140 -151t120 -102q114 -108 139 -194q25 -85 25 -167z" />
    <glyph glyph-name="sacute" unicode="&#x15b;" horiz-adv-x="610" 
d="M446 1393q23 0 9 -19l-144 -174q-6 -8 -14 -8h-14q-15 0 -7 12l113 172q10 16 25 17h32zM549 270q0 -135 -69 -211q-69 -75 -196 -75t-208 30q-14 4 -15 21v12q0 14 17 10q92 -31 196 -30q229 0 230 243q0 71 -18 102q-18 32 -29 47q-10 15 -37 36l-39 30q-14 10 -51 34
q-37 23 -80 53t-80 61t-68 84t-30 119q0 250 264 249q72 0 153 -20q14 -4 15 -18v-13q0 -16 -17 -12q-72 20 -151 20q-219 0 -219 -206q1 -54 25 -98t53 -68t67 -50t48 -34t58 -40q127 -85 147 -129q34 -77 34 -147z" />
    <glyph glyph-name="Scircumflex" unicode="&#x15c;" horiz-adv-x="679" 
d="M201 1532h-15q-16 0 -8 12l137 170q10 14 25 15h25q14 0 24 -15l137 -170q8 -12 -8 -12h-14q-7 0 -15 8l-137 146l-137 -146q-8 -8 -14 -8zM598 315q0 -336 -313 -335q-100 0 -191 22q-14 4 -14 18v15q0 16 16 12q82 -23 189 -22q266 0 266 290q0 152 -77 245
q-42 52 -74 82t-120 104t-147 162q-59 89 -59 234q0 144 68 226t229 82q88 0 164 -23q14 -4 14 -18v-14q0 -16 -17 -13q-80 23 -163 23q-137 0 -193 -69q-56 -70 -55 -198q0 -128 53 -209q52 -81 140 -151t120 -102q114 -108 139 -194q25 -85 25 -167z" />
    <glyph glyph-name="scircumflex" unicode="&#x15d;" horiz-adv-x="610" 
d="M158 1192h-15q-16 0 -8 12l133 182q10 14 25 15h24q14 0 25 -15l133 -182q8 -12 -8 -12h-14q-7 0 -15 8l-133 158l-133 -158q-8 -8 -14 -8zM549 270q0 -135 -69 -211q-69 -75 -196 -75t-208 30q-14 4 -15 21v12q0 14 17 10q92 -31 196 -30q229 0 230 243q0 71 -18 102
q-18 32 -29 47q-10 15 -37 36l-39 30q-14 10 -51 34q-37 23 -80 53t-80 61t-68 84t-30 119q0 250 264 249q72 0 153 -20q14 -4 15 -18v-13q0 -16 -17 -12q-72 20 -151 20q-219 0 -219 -206q1 -54 25 -98t53 -68t67 -50t48 -34t58 -40q127 -85 147 -129q34 -77 34 -147z" />
    <glyph glyph-name="Scedilla" unicode="&#x15e;" horiz-adv-x="679" 
d="M311 -248q0 12 13 12h47q84 0 84 66q0 84 -95 156q-33 -6 -104 -6t-162 22q-14 4 -14 18v15q0 16 16 12q82 -23 189 -22q266 0 266 290q0 152 -77 245q-42 52 -74 82t-120 104t-147 162q-59 89 -59 234q0 144 68 226t229 82q88 0 164 -23q14 -4 14 -18v-14q0 -16 -17 -13
q-80 23 -163 23q-137 0 -193 -69q-56 -70 -55 -198q0 -128 53 -209q52 -81 140 -151t120 -102q114 -108 139 -194q25 -85 25 -167q0 -270 -201 -321q104 -78 105 -170q0 -106 -125 -107q-64 0 -66 23v12z" />
    <glyph glyph-name="scedilla" unicode="&#x15f;" horiz-adv-x="610" 
d="M291 -274q-56 0 -58 22v12q0 12 13 13h39q76 0 75 61q0 76 -86 150q-117 0 -198 30q-14 4 -15 21v12q0 14 17 10q92 -31 196 -30q229 0 230 243q0 71 -18 102q-18 32 -29 47q-10 15 -37 36l-39 30q-14 10 -51 34q-37 23 -80 53t-80 61t-68 84t-30 119q0 250 264 249
q72 0 153 -20q14 -4 15 -18v-13q0 -16 -17 -12q-72 20 -151 20q-219 0 -219 -206q1 -54 25 -98t53 -68t67 -50t48 -34t58 -40q127 -85 147 -129q34 -77 34 -147q0 -260 -232 -284q90 -74 91 -158q0 -102 -117 -102z" />
    <glyph glyph-name="Scaron" unicode="&#x160;" horiz-adv-x="679" 
d="M526 1729q16 0 9 -13l-138 -170q-10 -14 -24 -14h-25q-14 0 -24 14l-138 170q-8 12 9 13h14q6 0 14 -9l137 -145l138 145q8 8 14 9h14zM598 315q0 -336 -313 -335q-100 0 -191 22q-14 4 -14 18v15q0 16 16 12q82 -23 189 -22q266 0 266 290q0 152 -77 245q-42 52 -74 82
t-120 104t-147 162q-59 89 -59 234q0 144 68 226t229 82q88 0 164 -23q14 -4 14 -18v-14q0 -16 -17 -13q-80 23 -163 23q-137 0 -193 -69q-56 -70 -55 -198q0 -128 53 -209q52 -81 140 -151t120 -102q114 -108 139 -194q25 -85 25 -167z" />
    <glyph glyph-name="scaron" unicode="&#x161;" horiz-adv-x="610" 
d="M453 1401h14q16 0 8 -12l-133 -183q-10 -14 -25 -14h-24q-14 0 -25 14l-133 183q-8 12 8 12h15q6 0 14 -8l133 -158l133 158q8 8 15 8zM549 270q0 -135 -69 -211q-69 -75 -196 -75t-208 30q-14 4 -15 21v12q0 14 17 10q92 -31 196 -30q229 0 230 243q0 71 -18 102
q-18 32 -29 47q-10 15 -37 36l-39 30q-14 10 -51 34q-37 23 -80 53t-80 61t-68 84t-30 119q0 250 264 249q72 0 153 -20q14 -4 15 -18v-13q0 -16 -17 -12q-72 20 -151 20q-219 0 -219 -206q1 -54 25 -98t53 -68t67 -50t48 -34t58 -40q127 -85 147 -129q34 -77 34 -147z" />
    <glyph glyph-name="Tcommaaccent" unicode="&#x162;" horiz-adv-x="661" 
d="M317 -403h-8q-14 0 -10 14l29 158h-27q-12 0 -12 12v92q0 12 12 12h57q12 0 13 -12v-90q0 -8 -2 -16l-37 -158q-4 -12 -15 -12zM49 1401v20q0 12 14 13h537q12 0 12 -13v-20q0 -12 -12 -12h-246v-1377q0 -12 -12 -12h-23q-12 0 -12 12v1377h-246q-12 0 -12 12z" />
    <glyph glyph-name="tcommaaccent" unicode="&#x163;" horiz-adv-x="491" 
d="M274 -387h-8q-14 0 -10 14l29 142h-27q-12 0 -12 12v92q0 12 12 12h57q12 0 13 -12v-90q0 -8 -2 -16l-37 -142q-2 -12 -15 -12zM410 1026h-193v-782q0 -123 29 -167t102 -44q34 0 56 5t22 -9v-13q0 -18 -14 -20q-27 -6 -66 -6q-92 0 -133 53t-41 197v786h-119
q-12 0 -12 12v19q0 12 12 12h119v266q0 12 12 13h21q12 0 12 -13v-266h193q12 0 12 -12v-19q0 -12 -12 -12z" />
    <glyph glyph-name="Tcaron" unicode="&#x164;" horiz-adv-x="661" 
d="M496 1729q16 0 8 -13l-137 -170q-10 -14 -25 -14h-25q-14 0 -24 14l-137 170q-8 12 8 13h14q6 0 15 -9l137 -145l137 145q8 8 14 9h15zM49 1401v20q0 12 14 13h537q12 0 12 -13v-20q0 -12 -12 -12h-246v-1377q0 -12 -12 -12h-23q-12 0 -12 12v1377h-246q-12 0 -12 12z
" />
    <glyph glyph-name="tcaron" unicode="&#x165;" horiz-adv-x="561" 
d="M502 1153h-8q-14 0 -11 14l33 170h-24q-12 0 -13 13v112q0 12 13 13h53q12 0 12 -13v-110q0 -9 -2 -17l-39 -170q-4 -12 -14 -12zM414 1026h-193v-782q0 -123 29 -167t102 -44q34 0 56 5t22 -9v-13q0 -18 -14 -20q-27 -6 -66 -6q-92 0 -133 53t-41 197v786h-119
q-12 0 -12 12v19q0 12 12 12h119v266q0 12 12 13h21q12 0 12 -13v-266h193q12 0 12 -12v-19q0 -12 -12 -12z" />
    <glyph glyph-name="Tbar" unicode="&#x166;" horiz-adv-x="661" 
d="M49 1401v20q0 12 12 13h539q12 0 12 -13v-20q0 -12 -12 -12h-246v-633h148q12 0 12 -13v-14q0 -12 -12 -12h-148v-705q0 -12 -12 -12h-23q-12 0 -12 12v705h-149q-12 4 -13 12v14q0 12 13 13h149v633h-246q-12 0 -12 12z" />
    <glyph glyph-name="tbar" unicode="&#x167;" horiz-adv-x="491" 
d="M410 1026h-193v-432h176q12 0 13 -12v-15q0 -12 -13 -12h-176v-311q0 -123 29 -167t102 -44q34 0 56 5t22 -9v-13q0 -18 -14 -20q-27 -6 -66 -6q-92 0 -133 53t-41 197v315h-119q-12 0 -12 12v15q0 12 12 12h119v432h-119q-12 0 -12 12v19q0 12 12 12h119v266q0 12 12 13
h21q12 0 12 -13v-266h193q12 0 12 -12v-19q0 -12 -12 -12z" />
    <glyph glyph-name="Utilde" unicode="&#x168;" horiz-adv-x="880" 
d="M643 1640q0 -50 -29 -82q-30 -32 -72 -32t-89 37l-60 43q-51 32 -80 14t-34 -57l-3 -17q-2 -14 -14 -14h-10q-14 0 -14 14q0 51 28 85q29 34 72 34t90 -37l49 -37q33 -27 61 -27q55 1 64 60l2 16q2 14 14 15h11q14 -1 14 -15zM440 -16q-174 0 -246 96t-73 326v1015
q0 12 12 13h23q12 0 12 -13v-1011q0 -211 59 -297t213 -86t213 86t60 297v1011q0 12 12 13h23q12 0 12 -13v-1015q0 -230 -73 -326t-247 -96z" />
    <glyph glyph-name="utilde" unicode="&#x169;" horiz-adv-x="765" 
d="M582 1300q0 -50 -27 -82t-70 -32t-90 37l-53 39q-70 47 -100 4q-14 -21 -18 -47q-3 -27 -15 -27h-10q-14 0 -15 14q0 51 27 85t70 34t90 -37l49 -37q67 -52 103 -7q15 20 19 45q3 25 15 26h10q15 -1 15 -15zM111 313v744q0 12 12 12h20q12 0 13 -12v-744q0 -287 206 -286
q115 0 182 97t66 241v692q0 12 13 12h20q12 0 12 -12v-1045q0 -12 -12 -12h-20q-12 0 -13 12v172q-18 -78 -82 -139t-178 -61q-115 0 -177 86t-62 243z" />
    <glyph glyph-name="Umacron" unicode="&#x16a;" horiz-adv-x="880" 
d="M604 1532h-328q-12 0 -12 12v15q0 12 12 12h328q12 0 12 -12v-15q0 -12 -12 -12zM440 -16q-174 0 -246 96t-73 326v1015q0 12 12 13h23q12 0 12 -13v-1011q0 -211 59 -297t213 -86t213 86t60 297v1011q0 12 12 13h23q12 0 12 -13v-1015q0 -230 -73 -326t-247 -96z" />
    <glyph glyph-name="umacron" unicode="&#x16b;" horiz-adv-x="765" 
d="M543 1208h-320q-12 0 -12 13v14q0 12 12 12h320q12 0 12 -12v-14q0 -13 -12 -13zM111 313v744q0 12 12 12h20q12 0 13 -12v-744q0 -287 206 -286q115 0 182 97t66 241v692q0 12 13 12h20q12 0 12 -12v-1045q0 -12 -12 -12h-20q-12 0 -13 12v172q-18 -78 -82 -139
t-178 -61q-115 0 -177 86t-62 243z" />
    <glyph glyph-name="Ubreve" unicode="&#x16c;" horiz-adv-x="880" 
d="M440 1520q-82 0 -129 48t-51 118q0 12 12 12h19q12 0 12 -12q16 -123 137 -123t138 123q0 12 12 12h18q12 0 13 -12q-3 -70 -51 -118t-130 -48zM440 -16q-174 0 -246 96t-73 326v1015q0 12 12 13h23q12 0 12 -13v-1011q0 -211 59 -297t213 -86t213 86t60 297v1011
q0 12 12 13h23q12 0 12 -13v-1015q0 -230 -73 -326t-247 -96z" />
    <glyph glyph-name="ubreve" unicode="&#x16d;" horiz-adv-x="765" 
d="M383 1188q-82 0 -129 48t-51 118q0 12 12 12h18q12 0 13 -12q16 -123 137 -123t137 123q0 12 12 12h19q12 0 12 -12q-4 -70 -51 -118t-129 -48zM111 313v744q0 12 12 12h20q12 0 13 -12v-744q0 -287 206 -286q115 0 182 97t66 241v692q0 12 13 12h20q12 0 12 -12v-1045
q0 -12 -12 -12h-20q-12 0 -13 12v172q-18 -78 -82 -139t-178 -61q-115 0 -177 86t-62 243z" />
    <glyph glyph-name="Uring" unicode="&#x16e;" horiz-adv-x="880" 
d="M287 1669q0 68 41 109q40 41 112 41t113 -41t41 -109q0 -69 -41 -109t-113 -40t-112 40t-41 109zM328 1669q0 -51 30 -81t82 -30q53 0 83 30t30 81t-30 81t-83 30q-52 0 -82 -30t-30 -81zM440 -16q-174 0 -246 96t-73 326v1015q0 12 12 13h23q12 0 12 -13v-1011
q0 -211 59 -297t213 -86t213 86t60 297v1011q0 12 12 13h23q12 0 12 -13v-1015q0 -230 -73 -326t-247 -96z" />
    <glyph glyph-name="uring" unicode="&#x16f;" horiz-adv-x="765" 
d="M231 1319q0 67 40 107t113 40t112 -40t39 -108t-40 -107q-40 -40 -112 -40t-112 40t-40 108zM383 1210q111 0 111 109q0 51 -29 80t-80 28q-113 -1 -113 -109t111 -108zM111 313v744q0 12 12 12h20q12 0 13 -12v-744q0 -287 206 -286q115 0 182 97t66 241v692q0 12 13 12
h20q12 0 12 -12v-1045q0 -12 -12 -12h-20q-12 0 -13 12v172q-18 -78 -82 -139t-178 -61q-115 0 -177 86t-62 243z" />
    <glyph glyph-name="Uhungarumlaut" unicode="&#x170;" horiz-adv-x="880" 
d="M637 1720h31q23 0 8 -18l-121 -162q-6 -8 -14 -8h-15q-14 0 -6 12l92 160q10 16 25 16zM442 1720h31q23 0 8 -18l-121 -162q-6 -8 -14 -8h-14q-14 0 -6 12l92 160q10 16 24 16zM440 -16q-174 0 -246 96t-73 326v1015q0 12 12 13h23q12 0 12 -13v-1011q0 -211 59 -297
t213 -86t213 86t60 297v1011q0 12 12 13h23q12 0 12 -13v-1015q0 -230 -73 -326t-247 -96z" />
    <glyph glyph-name="uhungarumlaut" unicode="&#x171;" horiz-adv-x="765" 
d="M612 1393q23 0 9 -19l-125 -174q-6 -8 -15 -8h-14q-14 0 -6 12l96 172q10 16 25 17h30zM418 1393q23 0 8 -19l-125 -174q-6 -8 -14 -8h-15q-14 0 -6 12l96 172q10 16 25 17h31zM111 313v744q0 12 12 12h20q12 0 13 -12v-744q0 -287 206 -286q115 0 182 97t66 241v692
q0 12 13 12h20q12 0 12 -12v-1045q0 -12 -12 -12h-20q-12 0 -13 12v172q-18 -78 -82 -139t-178 -61q-115 0 -177 86t-62 243z" />
    <glyph glyph-name="Uogonek" unicode="&#x172;" horiz-adv-x="880" 
d="M578 -260q0 -21 -66 -23q-125 0 -125 107q0 90 94 162q-14 -2 -41 -2q-174 0 -246 96t-73 326v1015q0 12 12 13h23q12 0 12 -13v-1011q0 -211 59 -297t213 -86t213 86t60 297v1011q0 12 12 13h23q12 0 12 -13v-1015q0 -197 -52 -294t-173 -120q-100 -76 -101 -162
q0 -66 84 -66l47 3q12 0 13 -13v-14z" />
    <glyph glyph-name="uogonek" unicode="&#x173;" horiz-adv-x="765" 
d="M649 -252q0 -22 -57 -22q-117 0 -117 102q0 113 135 188v168q-18 -78 -82 -139t-178 -61q-115 0 -177 86t-62 243v744q0 12 12 12h20q12 0 13 -12v-744q0 -287 206 -286q115 0 182 97t66 241v692q0 12 13 12h20q12 0 12 -12v-1045q0 -12 -12 -12h-14q-106 -78 -107 -166
q0 -61 76 -61h39q12 0 12 -13v-12z" />
    <glyph glyph-name="Wcircumflex" unicode="&#x174;" horiz-adv-x="1302" 
d="M500 1532h-15q-16 0 -8 12l137 170q10 14 25 15h25q14 0 24 -15l137 -170q8 -12 -8 -12h-14q-7 0 -15 8l-137 146l-137 -146q-8 -8 -14 -8zM641 1434h21q12 0 14 -13l188 -956l70 -381h8l68 381l180 956q2 12 14 13h25q12 0 10 -15l-268 -1407q-4 -12 -17 -12h-32
q-12 0 -17 12l-252 1311h-4l-59 -322l-193 -989q-2 -12 -16 -12h-33q-12 0 -16 12l-269 1407q-2 14 11 15h22q14 0 17 -13l180 -956l67 -383h9l69 383l189 956q2 13 14 13z" />
    <glyph glyph-name="wcircumflex" unicode="&#x175;" horiz-adv-x="1040" 
d="M373 1192h-15q-16 0 -8 12l133 182q10 14 25 15h24q14 0 25 -15l133 -182q8 -12 -8 -12h-14q-7 0 -15 8l-133 158l-133 -158q-8 -8 -14 -8zM508 1069h24q12 0 15 -10l147 -740l41 -239h4l43 239l148 738q4 12 16 12h21q12 0 10 -14l-213 -1043q-2 -12 -16 -12h-21
q-14 0 -16 12l-146 719l-43 250h-4l-43 -250l-149 -719q-2 -12 -17 -12h-20q-14 0 -17 12l-209 1043q-2 14 11 14h20q12 0 17 -12l143 -738l43 -239h4l41 239l152 740q2 10 14 10z" />
    <glyph glyph-name="Ycircumflex" unicode="&#x176;" horiz-adv-x="829" 
d="M262 1532h-14q-16 0 -8 12l137 170q10 14 24 15h25q14 0 25 -15l137 -170q8 -12 -8 -12h-15q-6 0 -14 8l-137 146l-138 -146q-8 -8 -14 -8zM438 12q0 -12 -12 -12h-23q-12 0 -12 12v557l-332 850q-4 14 11 15h22q10 0 14 -11l222 -565l84 -231h6l84 231l221 565
q4 10 14 11h23q14 0 10 -15l-332 -850v-557z" />
    <glyph glyph-name="ycircumflex" unicode="&#x177;" horiz-adv-x="679" 
d="M193 1192h-15q-16 0 -8 12l133 182q10 14 25 15h24q14 0 25 -15l133 -182q8 -12 -8 -12h-15q-6 0 -14 8l-133 158l-133 -158q-8 -8 -14 -8zM63 -193q0 14 17 11q47 -12 86 -13q86 0 125 87t22 151l-258 1012q-2 14 11 14h22q14 0 16 -12l191 -750l49 -217h4l49 217
l183 750q2 12 16 12h22q13 0 11 -14l-252 -1037q-33 -137 -76 -196q-43 -60 -139 -60t-99 33v12z" />
    <glyph glyph-name="Ydieresis" unicode="&#x178;" horiz-adv-x="829" 
d="M559 1628v-84q0 -12 -12 -12h-29q-12 0 -12 12v84q0 12 12 12h29q12 0 12 -12zM322 1628v-84q0 -12 -13 -12h-28q-12 0 -13 12v84q0 12 13 12h28q13 0 13 -12zM438 12q0 -12 -12 -12h-23q-12 0 -12 12v557l-332 850q-4 14 11 15h22q10 0 14 -11l222 -565l84 -231h6
l84 231l221 565q4 10 14 11h23q14 0 10 -15l-332 -850v-557z" />
    <glyph glyph-name="Zacute" unicode="&#x179;" horiz-adv-x="729" 
d="M459 1722h33q23 0 8 -18l-140 -164q-6 -8 -14 -8h-14q-14 0 -6 12l108 162q10 16 25 16zM74 12v21q0 2 4 14l524 1342h-493q-12 0 -13 12v20q0 12 13 13h534q12 0 12 -13v-18q0 -4 -4 -17l-522 -1341h518q12 0 12 -12v-21q0 -12 -12 -12h-561q-12 0 -12 12z" />
    <glyph glyph-name="zacute" unicode="&#x17a;" horiz-adv-x="671" 
d="M477 1393q23 0 8 -19l-143 -174q-6 -8 -14 -8h-15q-14 0 -6 12l113 172q10 16 24 17h33zM578 1057v-15q0 -8 -5 -16l-442 -983h451q12 0 12 -12v-19q0 -12 -12 -12h-492q-12 0 -12 12v13q0 8 4 16l442 985h-422q-12 0 -12 12v19q0 12 12 12h463q13 0 13 -12z" />
    <glyph glyph-name="Zdotaccent" unicode="&#x17b;" horiz-adv-x="729" 
d="M403 1628v-84q0 -12 -12 -12h-29q-12 0 -12 12v84q0 12 12 12h29q12 0 12 -12zM74 12v21q0 2 4 14l524 1342h-493q-12 0 -13 12v20q0 12 13 13h534q12 0 12 -13v-18q0 -4 -4 -17l-522 -1341h518q12 0 12 -12v-21q0 -12 -12 -12h-561q-12 0 -12 12z" />
    <glyph glyph-name="zdotaccent" unicode="&#x17c;" horiz-adv-x="671" 
d="M362 1288v-84q0 -12 -12 -12h-28q-12 0 -13 12v84q0 12 13 12h28q12 0 12 -12zM578 1057v-15q0 -8 -5 -16l-442 -983h451q12 0 12 -12v-19q0 -12 -12 -12h-492q-12 0 -12 12v13q0 8 4 16l442 985h-422q-12 0 -12 12v19q0 12 12 12h463q13 0 13 -12z" />
    <glyph glyph-name="Zcaron" unicode="&#x17d;" horiz-adv-x="729" 
d="M561 1729q16 0 8 -13l-137 -170q-10 -14 -24 -14h-25q-14 0 -25 14l-137 170q-8 12 8 13h15q6 0 14 -9l137 -145l137 145q8 8 15 9h14zM74 12v21q0 2 4 14l524 1342h-493q-12 0 -13 12v20q0 12 13 13h534q12 0 12 -13v-18q0 -4 -4 -17l-522 -1341h518q12 0 12 -12v-21
q0 -12 -12 -12h-561q-12 0 -12 12z" />
    <glyph glyph-name="zcaron" unicode="&#x17e;" horiz-adv-x="671" 
d="M483 1401h15q16 0 8 -12l-133 -183q-10 -14 -25 -14h-24q-14 0 -25 14l-133 183q-8 12 8 12h14q6 0 15 -8l133 -158l133 158q8 8 14 8zM578 1057v-15q0 -8 -5 -16l-442 -983h451q12 0 12 -12v-19q0 -12 -12 -12h-492q-12 0 -12 12v13q0 8 4 16l442 985h-422q-12 0 -12 12
v19q0 12 12 12h463q13 0 13 -12z" />
    <glyph glyph-name="longs" unicode="&#x17f;" horiz-adv-x="454" 
d="M225 1155v-1143q0 -12 -12 -12h-20q-12 0 -13 12v1014h-123q-12 0 -12 12v19q0 12 12 12h123v94q0 154 37 216t141 63q25 0 54 -4q14 -2 14 -21v-10q0 -14 -22 -11t-42 3q-86 -1 -112 -53t-25 -191z" />
    <glyph glyph-name="florin" unicode="&#x192;" horiz-adv-x="942" 
d="M676 803q16 1 10 -21t-14 -22h-195l-100 -776q-15 -117 -61 -167t-138 -50q-33 0 -61 4q-17 2 -13 23q4 20 22 18t52 -2q74 0 105 40t45 142l102 768h-121q-14 0 -12 14l4 17q2 12 12 12h121l49 360q21 152 69 215t155 64q43 0 71 -8q12 -4 9 -24q-3 -19 -27 -15t-53 4
q-85 -1 -121 -55t-56 -189l-47 -352h193z" />
    <glyph glyph-name="Aringacute" unicode="&#x1fa;" horiz-adv-x="876" 
d="M326 1546q0 -51 30 -81q30 -29 82 -29q53 0 83 30t30 80q0 51 -30 81t-83 30q-52 0 -82 -30t-30 -81zM225 504h426l-211 848h-4zM285 1539q0 118 98 149l96 143q10 16 25 16h33q23 0 8 -18l-115 -133h8q72 0 113 -41t41 -109q0 -125 -119 -147l348 -1385q2 -14 -10 -14
h-23q-10 0 -14 12l-112 447h-447l-113 -447q-4 -12 -14 -12h-22q-12 0 -11 14l346 1385q-116 22 -116 140z" />
    <glyph glyph-name="aringacute" unicode="&#x1fb;" horiz-adv-x="720" 
d="M360 1210q111 0 111 109q0 51 -29 80t-80 28q-113 0 -112 -108q-1 -109 110 -109zM512 1318q0 -68 -40 -107q-40 -40 -112 -40t-112 40t-39 108q0 102 86 137l102 156q10 16 25 16h33q23 0 8 -18l-119 -146l18 2q72 0 111 -40t39 -108zM565 365v235q-292 -6 -374 -80
t-80 -227q0 -260 198 -260q117 0 187 95q69 96 69 237zM610 809v-797q0 -12 -12 -12h-20q-12 0 -13 12v172q-25 -82 -89 -138t-178 -56q-112 0 -172 81t-60 224q0 250 202 309q116 33 297 37v162q0 127 -45 183q-46 56 -160 56t-221 -43q-14 -4 -14 11v12q0 16 14 20
q105 43 231 43q126 1 183 -67t57 -209z" />
    <glyph glyph-name="AEacute" unicode="&#x1fc;" horiz-adv-x="1105" 
d="M659 1722h33q23 0 8 -18l-139 -164q-6 -8 -14 -8h-15q-14 0 -6 12l109 162q10 16 24 16zM553 498v891h-82l-252 -891h334zM995 713h-395v-668h412q12 0 12 -12v-21q0 -12 -12 -12h-447q-12 0 -12 12v441h-346l-125 -441q-4 -12 -14 -12h-23q-12 0 -10 14l399 1407
q4 12 17 13h557q12 0 12 -13v-20q0 -12 -12 -12h-408v-631h395q12 0 13 -13v-20q-1 -12 -13 -12z" />
    <glyph glyph-name="aeacute" unicode="&#x1fd;" horiz-adv-x="1142" 
d="M733 1393q23 0 8 -19l-143 -174q-6 -8 -14 -8h-15q-14 0 -6 12l113 172q10 16 24 17h33zM545 365v186q-285 -6 -360 -73t-75 -189q1 -121 52 -189q50 -68 154 -68t166 96q62 94 63 237zM1026 612q0 210 -45 320t-164 110t-172 -108t-55 -340h436v18zM866 27q88 0 164 28
q14 4 14 -10v-12q0 -16 -14 -21q-76 -28 -182 -28q-214 1 -275 270q-16 -116 -90 -190q-75 -74 -183 -74t-171 79t-63 207q0 228 186 282q112 32 293 36l2 172q2 150 -45 213q-48 63 -150 63t-209 -43q-14 -4 -14 11v12q0 16 14 20q104 43 213 43q195 0 226 -194
q57 195 239 194q137 0 195 -121q57 -122 57 -352v-49q0 -12 -12 -12h-471q0 -281 62 -403t214 -121z" />
    <glyph glyph-name="Oslashacute" unicode="&#x1fe;" horiz-adv-x="950" 
d="M582 1722h32q23 0 9 -18l-140 -164q-6 -8 -14 -8h-14q-14 0 -6 12l108 162q10 16 25 16zM480 1407q-179 -1 -257 -157t-78 -491t48 -489l544 951q-78 186 -257 186zM469 27q180 1 258 157t78 487t-49 490l-543 -950q76 -184 256 -184zM476 1450q200 0 290 -178l82 141
q6 12 18 6l19 -12q12 -6 4 -16l-101 -174q66 -179 66 -539t-90 -527t-291 -167t-289 176l-82 -142q-6 -10 -18 -4l-18 11q-10 6 -5 18l99 172q-64 169 -64 535t90 533t290 167z" />
    <glyph glyph-name="oslashacute" unicode="&#x1ff;" horiz-adv-x="761" 
d="M522 1393q23 0 8 -19l-143 -174q-6 -8 -14 -8h-15q-14 0 -6 12l113 172q10 16 24 17h33zM383 27q135 0 195 124q59 123 59 361t-43 362l-408 -727q62 -120 197 -120zM379 1042q-135 0 -195 -123q-59 -125 -59 -363t41 -359l409 725q-61 120 -196 120zM684 524
q0 -270 -70 -405t-226 -135q-157 0 -230 116l-52 -92q-6 -12 -18 -6l-12 10q-12 8 -6 17l65 114q-57 129 -57 401t70 406t224 135q156 0 230 -116l53 94q6 10 17 4l14 -8q10 -6 4 -17l-65 -114q59 -134 59 -404z" />
    <glyph glyph-name="Scommaaccent" unicode="&#x218;" horiz-adv-x="679" 
d="M311 -403h-8q-14 0 -10 14l29 158h-27q-12 0 -12 12v92q0 12 12 12h57q12 0 13 -12v-90q-1 -8 -3 -16l-36 -158q-2 -12 -15 -12zM598 315q0 -336 -313 -335q-100 0 -191 22q-14 4 -14 18v15q0 16 16 12q82 -23 189 -22q266 0 266 290q0 152 -77 245q-42 52 -74 82
t-120 104t-147 162q-59 89 -59 234q0 144 68 226t229 82q88 0 164 -23q14 -4 14 -18v-14q0 -16 -17 -13q-80 23 -163 23q-137 0 -193 -69q-56 -70 -55 -198q0 -128 53 -209q52 -81 140 -151t120 -102q114 -108 139 -194q25 -85 25 -167z" />
    <glyph glyph-name="scommaaccent" unicode="&#x219;" horiz-adv-x="610" 
d="M293 -387h-8q-14 0 -11 14l29 142h-27q-12 0 -12 12v92q0 12 12 12h58q12 0 12 -12v-90q0 -8 -2 -16l-37 -142q-4 -12 -14 -12zM549 270q0 -135 -69 -211q-69 -75 -196 -75t-208 30q-14 4 -15 21v12q0 14 17 10q92 -31 196 -30q229 0 230 243q0 71 -18 102q-18 32 -29 47
q-10 15 -37 36l-39 30q-14 10 -51 34q-37 23 -80 53t-80 61t-68 84t-30 119q0 250 264 249q72 0 153 -20q14 -4 15 -18v-13q0 -16 -17 -12q-72 20 -151 20q-219 0 -219 -206q1 -54 25 -98t53 -68t67 -50t48 -34t58 -40q127 -85 147 -129q34 -77 34 -147z" />
    <glyph glyph-name="uni021A" unicode="&#x21a;" horiz-adv-x="661" 
d="M317 -403h-8q-14 0 -10 14l29 158h-27q-12 0 -12 12v92q0 12 12 12h57q12 0 13 -12v-90q0 -8 -2 -16l-37 -158q-4 -12 -15 -12zM49 1401v20q0 12 14 13h537q12 0 12 -13v-20q0 -12 -12 -12h-246v-1377q0 -12 -12 -12h-23q-12 0 -12 12v1377h-246q-12 0 -12 12z" />
    <glyph glyph-name="uni021B" unicode="&#x21b;" horiz-adv-x="491" 
d="M274 -387h-8q-14 0 -10 14l29 142h-27q-12 0 -12 12v92q0 12 12 12h57q12 0 13 -12v-90q0 -8 -2 -16l-37 -142q-2 -12 -15 -12zM410 1026h-193v-782q0 -123 29 -167t102 -44q34 0 56 5t22 -9v-13q0 -18 -14 -20q-27 -6 -66 -6q-92 0 -133 53t-41 197v786h-119
q-12 0 -12 12v19q0 12 12 12h119v266q0 12 12 13h21q12 0 12 -13v-266h193q12 0 12 -12v-19q0 -12 -12 -12z" />
    <glyph glyph-name="dotlessj" unicode="&#x237;" horiz-adv-x="311" 
d="M139 -41v1098q0 12 13 12h20q12 0 12 -12v-1100q0 -100 -28 -145t-105 -45q-19 0 -33 2t-14 18v14q0 14 14 11q6 -2 46 -2t58 33q17 34 17 116z" />
    <glyph glyph-name="circumflex" unicode="&#x2c6;" horiz-adv-x="491" 
d="M98 1192h-14q-16 0 -8 12l133 182q10 14 24 15h25q14 0 25 -15l133 -182q8 -12 -8 -12h-15q-6 0 -14 8l-133 158l-133 -158q-8 -8 -15 -8z" />
    <glyph glyph-name="caron" unicode="&#x2c7;" horiz-adv-x="491" 
d="M393 1401h15q16 0 8 -12l-133 -183q-10 -14 -25 -14h-25q-14 0 -24 14l-133 183q-8 12 8 12h14q6 0 15 -8l133 -158l133 158q8 8 14 8z" />
    <glyph glyph-name="uni02C9" unicode="&#x2c9;" horiz-adv-x="491" 
d="M406 1208h-320q-12 0 -12 13v14q0 12 12 12h320q12 0 12 -12v-14q0 -13 -12 -13z" />
    <glyph glyph-name="breve" unicode="&#x2d8;" horiz-adv-x="491" 
d="M246 1188q-82 0 -129 48t-51 118q0 12 12 12h18q12 0 13 -12q14 -123 137 -123t137 123q0 12 12 12h19q12 0 12 -12q-4 -70 -51 -118t-129 -48z" />
    <glyph glyph-name="dotaccent" unicode="&#x2d9;" horiz-adv-x="491" 
d="M272 1288v-84q0 -12 -12 -12h-29q-12 0 -12 12v84q0 12 12 12h29q12 0 12 -12z" />
    <glyph glyph-name="ring" unicode="&#x2da;" horiz-adv-x="491" 
d="M94 1319q0 67 40 107t113 40t111 -40t39 -108q0 -68 -40 -107q-39 -40 -111 -40t-112 40t-40 108zM246 1210q111 0 110 109q0 51 -28 80q-29 29 -80 28q-113 -1 -113 -109t111 -108z" />
    <glyph glyph-name="ogonek" unicode="&#x2db;" horiz-adv-x="491" 
d="M301 -252q0 -22 -57 -22q-117 0 -117 102q0 110 137 190h43q-133 -86 -133 -184q0 -61 76 -61h39q12 0 12 -13v-12z" />
    <glyph glyph-name="tilde" unicode="&#x2dc;" horiz-adv-x="491" 
d="M444 1300q0 -50 -26 -82t-71 -32q-44 0 -89 37l-53 39q-104 70 -119 -56q-2 -14 -14 -14h-11q-14 0 -14 14q0 51 27 85q28 34 70 34t89 -37l50 -37q67 -52 103 -7q12 16 17 43t17 28h10q14 -1 14 -15z" />
    <glyph glyph-name="hungarumlaut" unicode="&#x2dd;" horiz-adv-x="491" 
d="M477 1393q23 0 8 -19l-125 -174q-6 -8 -14 -8h-14q-14 0 -6 12l96 172q10 16 24 17h31zM283 1393q23 0 8 -19l-125 -174q-6 -8 -14 -8h-15q-14 0 -6 12l96 172q10 16 25 17h31z" />
    <glyph glyph-name="uni037E" unicode="&#x37e;" horiz-adv-x="299" 
d="M111 477v113q0 12 12 12h53q12 0 12 -12v-113q0 -12 -12 -12h-53q-12 0 -12 12z" />
    <glyph glyph-name="uni0394" unicode="&#x394;" horiz-adv-x="966" 
d="M479 1362l-307 -1317h623l-308 1317h-8zM469 1446h29q10 0 14 -12l332 -1401q8 -33 -27 -33h-667q-35 0 -27 33l332 1401q4 12 14 12z" />
    <glyph glyph-name="uni03A9" unicode="&#x3a9;" horiz-adv-x="1056" 
d="M528 1450q327 0 408 -369q23 -104 22 -235q0 -426 -270 -625v-176h211q12 0 12 -12v-21q0 -12 -12 -12h-258v223q0 20 21 35q248 166 248 610q0 230 -90 384q-89 154 -292 155q-204 0 -292 -155t-88 -384t65 -381q66 -152 182 -229q20 -14 21 -35v-223h-258q-12 0 -13 12
v21q0 12 13 12h211v176q-270 199 -271 625q0 255 97 429q97 175 333 175z" />
    <glyph glyph-name="uni03BC" unicode="&#x3bc;" horiz-adv-x="765" 
d="M655 1057v-744q0 -157 -62 -243q-63 -86 -177 -86t-178 61q-63 61 -82 139v-397q0 -12 -13 -12h-20q-12 0 -12 12v1270q0 12 12 12h20q12 0 13 -12v-692q0 -143 66 -241q67 -97 181 -97q207 0 207 286v744q0 12 13 12h20q12 0 12 -12z" />
    <glyph glyph-name="pi" unicode="&#x3c0;" horiz-adv-x="876" 
d="M836 16q0 -24 -78 -24t-111 45t-33 145v844h-301l-161 -1014q-4 -12 -15 -12h-22q-12 0 -11 12l162 1014h-168q-12 0 -12 12v19q0 12 12 12h713q12 0 12 -12v-19q0 -12 -12 -12h-152v-842q0 -82 23 -116t69 -33q46 0 65 5t20 -9v-15z" />
    <glyph glyph-name="Wgrave" unicode="&#x1e80;" horiz-adv-x="1302" 
d="M672 1532h-15q-8 0 -14 8l-139 164q-14 18 8 18h33q14 0 24 -16l109 -162q8 -12 -6 -12zM641 1434h21q12 0 14 -13l188 -956l70 -381h8l68 381l180 956q2 12 14 13h25q12 0 10 -15l-268 -1407q-4 -12 -17 -12h-32q-12 0 -17 12l-252 1311h-4l-59 -322l-193 -989
q-2 -12 -16 -12h-33q-12 0 -16 12l-269 1407q-2 14 11 15h22q14 0 17 -13l180 -956l67 -383h9l69 383l189 956q2 13 14 13z" />
    <glyph glyph-name="wgrave" unicode="&#x1e81;" horiz-adv-x="1040" 
d="M522 1192h-14q-8 0 -14 8l-144 174q-14 18 8 19h33q15 -1 25 -17l112 -172q8 -12 -6 -12zM508 1069h24q12 0 15 -10l147 -740l41 -239h4l43 239l148 738q4 12 16 12h21q12 0 10 -14l-213 -1043q-2 -12 -16 -12h-21q-14 0 -16 12l-146 719l-43 250h-4l-43 -250l-149 -719
q-2 -12 -17 -12h-20q-14 0 -17 12l-209 1043q-2 14 11 14h20q12 0 17 -12l143 -738l43 -239h4l41 239l152 740q2 10 14 10z" />
    <glyph glyph-name="Wacute" unicode="&#x1e82;" horiz-adv-x="1302" 
d="M758 1722h33q23 0 8 -18l-140 -164q-6 -8 -14 -8h-14q-14 0 -6 12l108 162q10 16 25 16zM641 1434h21q12 0 14 -13l188 -956l70 -381h8l68 381l180 956q2 12 14 13h25q12 0 10 -15l-268 -1407q-4 -12 -17 -12h-32q-12 0 -17 12l-252 1311h-4l-59 -322l-193 -989
q-2 -12 -16 -12h-33q-12 0 -16 12l-269 1407q-2 14 11 15h22q14 0 17 -13l180 -956l67 -383h9l69 383l189 956q2 13 14 13z" />
    <glyph glyph-name="wacute" unicode="&#x1e83;" horiz-adv-x="1040" 
d="M682 1393q23 0 8 -19l-143 -174q-6 -8 -15 -8h-14q-14 0 -6 12l113 172q10 16 24 17h33zM508 1069h24q12 0 15 -10l147 -740l41 -239h4l43 239l148 738q4 12 16 12h21q12 0 10 -14l-213 -1043q-2 -12 -16 -12h-21q-14 0 -16 12l-146 719l-43 250h-4l-43 -250l-149 -719
q-2 -12 -17 -12h-20q-14 0 -17 12l-209 1043q-2 14 11 14h20q12 0 17 -12l143 -738l43 -239h4l41 239l152 740q2 10 14 10z" />
    <glyph glyph-name="Wdieresis" unicode="&#x1e84;" horiz-adv-x="1302" 
d="M797 1628v-84q0 -12 -13 -12h-28q-12 0 -13 12v84q0 12 13 12h28q13 0 13 -12zM559 1628v-84q0 -12 -12 -12h-29q-12 0 -12 12v84q0 12 12 12h29q12 0 12 -12zM641 1434h21q12 0 14 -13l188 -956l70 -381h8l68 381l180 956q2 12 14 13h25q12 0 10 -15l-268 -1407
q-4 -12 -17 -12h-32q-12 0 -17 12l-252 1311h-4l-59 -322l-193 -989q-2 -12 -16 -12h-33q-12 0 -16 12l-269 1407q-2 14 11 15h22q14 0 17 -13l180 -956l67 -383h9l69 383l189 956q2 13 14 13z" />
    <glyph glyph-name="wdieresis" unicode="&#x1e85;" horiz-adv-x="1040" 
d="M666 1288v-84q0 -12 -13 -12h-28q-12 0 -13 12v84q0 12 13 12h28q13 0 13 -12zM428 1288v-84q0 -12 -12 -12h-29q-12 0 -12 12v84q0 12 12 12h29q12 0 12 -12zM508 1069h24q12 0 15 -10l147 -740l41 -239h4l43 239l148 738q4 12 16 12h21q12 0 10 -14l-213 -1043
q-2 -12 -16 -12h-21q-14 0 -16 12l-146 719l-43 250h-4l-43 -250l-149 -719q-2 -12 -17 -12h-20q-14 0 -17 12l-209 1043q-2 14 11 14h20q12 0 17 -12l143 -738l43 -239h4l41 239l152 740q2 10 14 10z" />
    <glyph glyph-name="Ygrave" unicode="&#x1ef2;" horiz-adv-x="829" 
d="M434 1532h-14q-8 0 -14 8l-140 164q-14 18 8 18h33q15 0 25 -16l108 -162q8 -12 -6 -12zM438 12q0 -12 -12 -12h-23q-12 0 -12 12v557l-332 850q-4 14 11 15h22q10 0 14 -11l222 -565l84 -231h6l84 231l221 565q4 10 14 11h23q14 0 10 -15l-332 -850v-557z" />
    <glyph glyph-name="ygrave" unicode="&#x1ef3;" horiz-adv-x="679" 
d="M424 1192h-14q-8 0 -15 8l-143 174q-14 18 8 19h33q14 -1 24 -17l113 -172q8 -12 -6 -12zM63 -193q0 14 17 11q47 -12 86 -13q86 0 125 87t22 151l-258 1012q-2 14 11 14h22q14 0 16 -12l191 -750l49 -217h4l49 217l183 750q2 12 16 12h22q13 0 11 -14l-252 -1037
q-33 -137 -76 -196q-43 -60 -139 -60t-99 33v12z" />
    <glyph glyph-name="figuredash" unicode="&#x2012;" horiz-adv-x="778" 
d="M655 541h-532q-12 0 -12 12v18q0 12 12 13h532q12 0 13 -13v-18q-1 -12 -13 -12z" />
    <glyph glyph-name="endash" unicode="&#x2013;" horiz-adv-x="720" 
d="M631 528h-541q-12 0 -12 13v18q0 12 12 12h541q12 0 12 -12v-18q0 -13 -12 -13z" />
    <glyph glyph-name="emdash" unicode="&#x2014;" horiz-adv-x="1048" 
d="M958 528h-868q-12 0 -12 13v18q0 12 12 12h868q12 0 13 -12v-18q-1 -13 -13 -13z" />
    <glyph glyph-name="quoteleft" unicode="&#x2018;" horiz-adv-x="294" 
d="M174 1434q14 0 10 -15l-32 -170h24q12 0 12 -12v-113q0 -12 -12 -12h-53q-12 0 -12 12v111q0 8 2 16l39 170q4 12 14 13h8z" />
    <glyph glyph-name="quoteright" unicode="&#x2019;" horiz-adv-x="294" 
d="M129 1112h-8q-14 0 -10 14l32 170h-24q-12 0 -13 13v112q0 12 13 13h53q12 0 12 -13v-110q0 -9 -2 -17l-39 -170q-4 -12 -14 -12z" />
    <glyph glyph-name="quotesinglbase" unicode="&#x201a;" horiz-adv-x="294" 
d="M129 -184h-8q-14 0 -10 14l32 170h-24q-12 0 -13 12v113q0 12 13 12h53q12 0 12 -12v-111q0 -8 -2 -16l-39 -170q-4 -12 -14 -12z" />
    <glyph glyph-name="quotedblleft" unicode="&#x201c;" horiz-adv-x="507" 
d="M174 1434q14 0 10 -15l-32 -170h24q12 0 12 -12v-113q0 -12 -12 -12h-53q-12 0 -12 12v111q0 8 2 16l39 170q4 12 14 13h8zM387 1434q14 0 10 -15l-32 -170h24q12 0 12 -12v-113q0 -12 -12 -12h-53q-12 0 -12 12v111q0 8 2 16l39 170q4 12 14 13h8z" />
    <glyph glyph-name="quotedblright" unicode="&#x201d;" horiz-adv-x="507" 
d="M342 1112h-8q-14 0 -10 14l32 170h-24q-12 0 -13 13v112q0 12 13 13h53q12 0 12 -13v-110q0 -9 -2 -17l-39 -170q-4 -12 -14 -12zM129 1112h-8q-14 0 -10 14l32 170h-24q-12 0 -13 13v112q0 12 13 13h53q12 0 12 -13v-110q0 -9 -2 -17l-39 -170q-4 -12 -14 -12z" />
    <glyph glyph-name="quotedblbase" unicode="&#x201e;" horiz-adv-x="507" 
d="M342 -184h-8q-14 0 -10 14l32 170h-24q-12 0 -13 12v113q0 12 13 12h53q12 0 12 -12v-111q0 -8 -2 -16l-39 -170q-4 -12 -14 -12zM129 -184h-8q-14 0 -10 14l32 170h-24q-12 0 -13 12v113q0 12 13 12h53q12 0 12 -12v-111q0 -8 -2 -16l-39 -170q-4 -12 -14 -12z" />
    <glyph glyph-name="dagger" unicode="&#x2020;" horiz-adv-x="686" 
d="M604 1057v-21q0 -12 -12 -12h-225v-1237q0 -12 -13 -12h-22q-12 0 -13 12v1237h-225q-12 0 -12 12v21q0 12 12 12h225v352q0 12 13 13h22q12 0 13 -13v-352h225q12 0 12 -12z" />
    <glyph glyph-name="daggerdbl" unicode="&#x2021;" horiz-adv-x="686" 
d="M604 172v-20q0 -12 -12 -13h-225v-352q0 -12 -13 -12h-22q-12 0 -13 12v352h-225q-12 0 -12 13v20q0 12 12 12h225v840h-225q-12 0 -12 12v21q0 12 12 12h225v352q0 12 13 13h22q12 0 13 -13v-352h225q12 0 12 -12v-21q0 -12 -12 -12h-225v-840h225q12 0 12 -12z" />
    <glyph glyph-name="bullet" unicode="&#x2022;" horiz-adv-x="602" 
d="M301 332q-90 0 -148 57q-59 57 -59 149t58 150q58 57 149 57t149 -57t58 -149t-58 -150q-59 -57 -149 -57z" />
    <glyph glyph-name="onedotenleader" unicode="&#x2024;" horiz-adv-x="299" 
d="M111 12v113q0 12 12 12h53q12 0 12 -12v-113q0 -12 -12 -12h-53q-12 0 -12 12z" />
    <glyph glyph-name="twodotenleader" unicode="&#x2025;" horiz-adv-x="598" 
d="M111 12v113q0 12 12 12h53q12 0 12 -12v-113q0 -12 -12 -12h-53q-12 0 -12 12zM410 12v113q0 12 12 12h53q12 0 12 -12v-113q0 -12 -12 -12h-53q-12 0 -12 12z" />
    <glyph glyph-name="ellipsis" unicode="&#x2026;" horiz-adv-x="897" 
d="M709 12v113q0 12 12 12h53q12 0 12 -12v-113q0 -12 -12 -12h-53q-12 0 -12 12zM410 12v113q0 12 12 12h53q12 0 12 -12v-113q0 -12 -12 -12h-53q-12 0 -12 12zM111 12v113q0 12 12 12h53q12 0 12 -12v-113q0 -12 -12 -12h-53q-12 0 -12 12z" />
    <glyph glyph-name="perthousand" unicode="&#x2030;" horiz-adv-x="1875" 
d="M1763 379q0 348 -184 348t-184 -348t184 -348t184 348zM1348 379q0 391 231 391t231 -391t-231 -391t-231 391zM1182 379q0 348 -184 348t-185 -348q1 -348 185 -348t184 348zM766 379q0 391 231 391t231 -391t-230 -391q-232 0 -232 391zM481 1055q0 348 -184 348
t-184 -348t184 -348t184 348zM66 1055q0 391 231 391t231 -391t-231 -391t-231 391zM313 0h-22q-16 0 -8 16l680 1405q6 12 18 13h23q16 -1 8 -17l-680 -1405q-6 -12 -19 -12z" />
    <glyph glyph-name="guilsinglleft" unicode="&#x2039;" horiz-adv-x="323" 
d="M74 530q0 4 2 9l108 268q4 10 13 10h26q12 0 8 -12l-110 -275l110 -274q4 -12 -8 -12h-26q-8 0 -13 10l-108 268q-2 4 -2 8z" />
    <glyph glyph-name="guilsinglright" unicode="&#x203a;" horiz-adv-x="323" 
d="M250 530q0 -4 -2 -8l-109 -268q-4 -10 -12 -10h-27q-12 0 -8 12l111 274l-111 275q-4 12 8 12h27q8 0 12 -10l109 -268q2 -5 2 -9z" />
    <glyph glyph-name="exclamdbl" unicode="&#x203c;" horiz-adv-x="708" 
d="M535 365h-17q-12 0 -12 12l-6 1044q0 12 12 13h29q12 0 12 -13l-6 -1044q0 -12 -12 -12zM487 12v113q0 12 13 12h53q12 0 12 -12v-113q0 -12 -12 -12h-53q-13 0 -13 12zM190 365h-16q-12 0 -12 12l-6 1044q0 12 12 13h29q12 0 12 -13l-6 -1044q-1 -12 -13 -12zM143 12
v113q0 12 13 12h53q12 0 12 -12v-113q0 -12 -12 -12h-53q-13 0 -13 12z" />
    <glyph glyph-name="fraction" unicode="&#x2044;" horiz-adv-x="118" 
d="M-274 0h-23q-16 0 -8 16l680 1405q6 12 18 13h23q16 -1 8 -17l-680 -1405q-6 -12 -18 -12z" />
    <glyph glyph-name="zero.superior" unicode="&#x2070;" 
d="M276 1026q92 0 138 96q45 96 45 312t-45 311q-46 96 -138 96t-137 -96t-45 -311q0 -216 45 -312t137 -96zM276 987q-115 1 -170 107t-55 340t55 340t170 106t170 -106q56 -106 56 -341t-56 -341t-170 -105z" />
    <glyph glyph-name="four.superior" unicode="&#x2074;" 
d="M528 1214h-94v-202q0 -12 -12 -13h-19q-12 0 -12 13v202h-342q-12 0 -12 13v18q0 10 8 23l340 590q6 10 16 10h21q12 0 12 -13v-600h94q12 0 13 -12v-16q-1 -13 -13 -13zM391 1255v535l-305 -535h305z" />
    <glyph glyph-name="five.superior" unicode="&#x2075;" 
d="M471 1251q0 -264 -250 -264q-82 0 -135 21q-8 4 -8 12v16q0 12 12 8q51 -18 131 -18q207 0 207 227t-164 228q-73 1 -107 -13t-36 -14t-10 5t-9 16q16 229 17 380q0 12 12 13h287q12 0 12 -13v-16q0 -12 -12 -12h-260q-2 -160 -17 -328q55 21 143 21t138 -74t49 -195z
" />
    <glyph glyph-name="six.superior" unicode="&#x2076;" 
d="M296 1026q79 0 120 66t41 172q0 236 -166 235q-72 0 -120 -57q-48 -58 -48 -164t47 -179t126 -73zM324 1880q100 0 100 -25v-20q0 -12 -8 -8q-39 14 -92 14q-115 0 -166 -85t-52 -294q0 -10 2 -35t1 -38q14 69 64 109t118 40q105 0 157 -76t52 -198t-54 -200
q-54 -77 -145 -77q-119 -1 -177 105t-58 347t59 341t199 100z" />
    <glyph glyph-name="seven.superior" unicode="&#x2077;" 
d="M479 1855v-18q0 -10 -4 -16q-100 -149 -180 -387t-80 -422q0 -12 -12 -13h-21q-12 0 -12 13q0 180 79 413t181 402h-348q-12 0 -12 12v16q0 12 12 13h385q12 -1 12 -13z" />
    <glyph glyph-name="eight.superior" unicode="&#x2078;" 
d="M436 1686q0 72 -42 114t-118 43q-76 0 -118 -43t-41 -114q-1 -155 159 -216q160 61 160 216zM102 1198q0 -80 45 -126t129 -46t130 46q45 46 45 126q-1 168 -175 234q-174 -66 -174 -234zM276 987q-104 0 -161 56t-58 157q0 178 172 252q-156 76 -155 234q0 86 54 140
t148 54t148 -54t55 -140q0 -158 -155 -234q172 -74 172 -252q0 -100 -58 -156t-162 -57z" />
    <glyph glyph-name="nine.superior" unicode="&#x2079;" 
d="M430 1589q0 107 -47 179t-126 73t-120 -65t-41 -172q0 -236 166 -236q72 0 120 57t48 164zM229 987q-100 0 -100 25v20q0 12 8 8q39 -14 92 -14q115 0 166 85t51 294q0 10 -1 35t-1 39q-14 -68 -64 -109t-118 -41q-106 0 -158 76q-51 76 -51 199q0 124 53 200t146 76
q119 0 177 -105t58 -346t-59 -341t-199 -101z" />
    <glyph glyph-name="parenleft.superior" unicode="&#x207d;" horiz-adv-x="307" 
d="M98 1434q0 268 129 452q6 8 15 8h22q14 0 6 -12q-127 -166 -127 -448t127 -449q8 -12 -6 -12h-22q-8 0 -15 8q-129 185 -129 453z" />
    <glyph glyph-name="parenright.superior" unicode="&#x207e;" horiz-adv-x="307" 
d="M209 1434q0 -268 -129 -453q-6 -8 -14 -8h-23q-14 0 -6 12q127 166 127 449t-127 448q-8 12 6 12h23q8 0 14 -8q129 -184 129 -452z" />
    <glyph glyph-name="n.superior" unicode="&#x207f;" horiz-adv-x="649" 
d="M109 1868h18q12 0 12 -13v-137q23 66 77 114t146 48t143 -66q50 -67 50 -184v-618q0 -12 -12 -13h-19q-12 0 -12 13v618q0 209 -156 209q-94 0 -155 -79t-62 -189v-559q0 -12 -12 -13h-18q-12 0 -13 13v843q1 13 13 13z" />
    <glyph glyph-name="zero.inferior" unicode="&#x2080;" 
d="M276 -408q92 0 138 96t45 312q0 215 -45 311q-46 97 -138 97t-137 -96t-45 -312t45 -312t137 -96zM276 -446q-115 0 -170 106t-55 340t55 340t170 106t170 -106q56 -106 56 -341t-56 -340t-170 -105z" />
    <glyph glyph-name="one.inferior" unicode="&#x2081;" 
d="M315 434h17q12 0 12 -12v-844q0 -12 -12 -12h-19q-12 0 -12 12v791l-174 -172q-8 -8 -16 0l-15 12q-10 10 0 16l205 203q6 6 14 6z" />
    <glyph glyph-name="two.inferior" unicode="&#x2082;" 
d="M86 193q-18 -1 -18 71t48 127t148 55q195 0 195 -219q0 -130 -87 -285q-34 -67 -100 -149q-67 -82 -111 -131t-48 -55h346q12 0 12 -13v-16q0 -12 -12 -12h-385q-12 0 -13 12v16q0 12 7 19q252 281 314 446q34 88 34 168q0 182 -152 183q-153 0 -153 -164q0 -16 4 -34
t-11 -19h-18z" />
    <glyph glyph-name="three.inferior" unicode="&#x2083;" 
d="M399 230q1 178 -161 178q-76 0 -142 -21q-12 -4 -12 8v19q0 8 8 12q52 20 148 20q202 0 202 -215q0 -88 -34 -141t-82 -67q55 -5 96 -63t41 -157q0 -250 -254 -249q-82 0 -135 20q-8 4 -8 12v17q0 12 12 8q52 -19 146 -19q196 -1 196 205q0 205 -172 205h-55
q-12 0 -13 12v15q0 12 13 12h53q70 0 112 47t41 142z" />
    <glyph glyph-name="four.inferior" unicode="&#x2084;" 
d="M528 -219h-94v-203q0 -12 -12 -12h-19q-12 0 -12 12v203h-342q-12 0 -12 12v19q0 10 8 22l340 590q6 10 16 10h21q12 0 12 -12v-600h94q12 0 13 -12v-17q-1 -12 -13 -12zM391 -178v534l-305 -534h305z" />
    <glyph glyph-name="five.inferior" unicode="&#x2085;" 
d="M264 47q-89 0 -143 -27q-2 0 -10 6t-9 15q16 229 17 381q0 12 12 12h287q12 0 12 -12v-16q0 -12 -12 -13h-260q-2 -160 -17 -327q55 20 127 20q104 0 154 -74t49 -194q0 -264 -250 -264q-82 0 -135 20q-8 4 -8 12v17q0 12 12 8q51 -18 131 -19q207 0 207 228t-164 227z
" />
    <glyph glyph-name="six.inferior" unicode="&#x2086;" 
d="M296 -408q79 0 120 66t41 172q0 236 -166 236q-72 0 -120 -58t-48 -164t47 -179t126 -73zM291 104q106 0 158 -75q51 -76 51 -199t-54 -200t-145 -76q-119 0 -177 105t-58 346t59 341t199 100q55 0 94 -14q6 -2 6 -10v-21q0 -12 -8 -8q-39 14 -92 15q-115 0 -166 -85
t-52 -294q0 -10 2 -35t1 -39q14 69 64 109t118 40z" />
    <glyph glyph-name="seven.inferior" unicode="&#x2087;" 
d="M479 422v-19q0 -10 -4 -16q-100 -149 -180 -387t-80 -422q0 -12 -12 -12h-21q-12 0 -12 12q0 180 79 414t181 401h-348q-12 0 -12 13v16q0 12 12 12h385q12 0 12 -12z" />
    <glyph glyph-name="eight.inferior" unicode="&#x2088;" 
d="M436 252q0 72 -42 115t-118 43t-118 -43t-41 -115q-1 -154 159 -215q160 61 160 215zM102 -236q0 -80 45 -126t129 -46t130 46t45 126q-1 168 -175 234q-174 -66 -174 -234zM276 -446q-104 0 -161 56t-58 157q0 178 172 251q-156 76 -155 234q0 86 54 140t148 54t148 -54
t55 -140q0 -158 -155 -234q172 -74 172 -251q0 -101 -58 -157t-162 -56z" />
    <glyph glyph-name="nine.inferior" unicode="&#x2089;" 
d="M257 408q-79 0 -120 -66t-41 -172q0 -236 166 -236q72 0 120 58t48 164t-47 179t-126 73zM446 -29q0 10 -1 35t-1 39q-14 -69 -64 -109t-118 -40q-106 0 -158 75q-51 76 -51 199t53 200t146 76q119 0 177 -105t58 -346t-59 -341t-199 -100q-55 0 -94 14q-6 2 -6 10v21
q0 12 8 8q39 -14 92 -15q115 0 166 85t51 294z" />
    <glyph glyph-name="parenleft.inferior" unicode="&#x208d;" horiz-adv-x="307" 
d="M98 0q0 268 129 453q6 8 15 8h22q14 0 6 -12q-127 -166 -127 -449t127 -449q8 -12 -6 -12h-22q-8 0 -15 8q-129 185 -129 453z" />
    <glyph glyph-name="parenright.inferior" unicode="&#x208e;" horiz-adv-x="307" 
d="M209 0q0 -268 -129 -453q-6 -8 -14 -8h-23q-14 0 -6 12q127 166 127 449t-127 449q-8 12 6 12h23q8 0 14 -8q129 -185 129 -453z" />
    <glyph glyph-name="Euro" unicode="&#x20ac;" horiz-adv-x="888" 
d="M74 614h139q-2 33 -2 103t2 102h-139q-12 0 -13 12v19q0 12 13 12h139q17 308 117 448t313 140q86 0 156 -20q16 -6 14 -19l-2 -16q-2 -14 -18 -11q-72 20 -150 21q-188 0 -276 -130t-103 -413h467q12 0 12 -12l-2 -19q0 -12 -12 -12h-467q-2 -33 -2 -103t2 -102h440
q12 0 13 -12l-2 -18q0 -12 -13 -13h-436q16 -283 104 -413t277 -129q76 0 156 22q16 4 18 -10l2 -14q2 -14 -14 -21q-76 -23 -162 -22q-213 0 -313 140t-117 447h-141q-12 0 -13 13v18q1 12 13 12z" />
    <glyph glyph-name="afii61289" unicode="&#x2113;" horiz-adv-x="925" 
d="M326 997v-432q342 221 342 588q0 254 -152 254q-88 -1 -139 -103t-51 -307zM477 33q43 0 71 6t27 -8v-13q0 -18 -14 -20q-37 -8 -86 -8q-96 0 -145 60t-49 206v233q-100 -55 -191 -77q-10 -2 -16 8l-6 16q-4 12 8 17q100 29 205 86v456q0 455 235 455q197 0 197 -299
q0 -219 -112 -378t-275 -259v-254q0 -123 36 -175t115 -52z" />
    <glyph glyph-name="trademark" unicode="&#x2122;" horiz-adv-x="946" 
d="M641 979q-10 0 -18 14l-148 363v-572q0 -10 -10 -10h-21q-10 0 -10 10v639q0 10 10 11h33q6 0 8 -4l156 -394l156 394q2 4 8 4h33q10 0 10 -11v-639q0 -10 -10 -10h-21q-10 0 -10 10v574l-148 -365q-8 -14 -18 -14zM356 1393h-120v-609q0 -10 -11 -10h-22q-10 0 -10 10
v609h-121q-10 0 -11 10v20q0 10 11 11h284q10 0 11 -11v-20q-1 -10 -11 -10z" />
    <glyph glyph-name="Omega" unicode="&#x2126;" horiz-adv-x="1056" 
d="M528 1450q327 0 408 -369q23 -104 22 -235q0 -426 -270 -625v-176h211q12 0 12 -12v-21q0 -12 -12 -12h-258v223q0 20 21 35q248 166 248 610q0 230 -90 384q-89 154 -292 155q-204 0 -292 -155t-88 -384t65 -381q66 -152 182 -229q20 -14 21 -35v-223h-258q-12 0 -13 12
v21q0 12 13 12h211v176q-270 199 -271 625q0 255 97 429q97 175 333 175z" />
    <glyph glyph-name="estimated" unicode="&#x212e;" horiz-adv-x="1753" 
d="M1378 748v380q0 49 -22 74q-190 186 -476 186t-479 -198q-18 -18 -18 -60v-382q0 -12 10 -13h975q10 1 10 13zM1679 686h-1286q-10 0 -10 -8v-379q0 -39 16 -59q170 -197 493 -197t515 223h119q-113 -133 -279 -209t-358 -75q-338 0 -573 215q-234 215 -234 520t230 519
t568 214t569 -214q230 -214 230 -521v-29z" />
    <glyph glyph-name="onethird" unicode="&#x2153;" horiz-adv-x="1331" 
d="M1178 664q0 178 -162 178q-76 0 -142 -21q-12 -4 -12 8v19q0 8 8 12q52 20 148 20q202 1 203 -214q0 -88 -34 -142t-83 -67q55 -5 96 -63t41 -156q0 -250 -254 -250q-82 0 -135 20q-8 4 -8 12v17q0 12 12 8q52 -18 146 -18q196 0 196 205t-172 204h-55q-12 0 -13 13v14
q0 12 13 12h53q70 0 112 47q42 46 42 142zM291 0h-23q-16 0 -8 16l680 1405q6 12 18 13h23q16 -1 8 -17l-680 -1405q-6 -12 -18 -12zM332 1434q12 0 12 -13v-843q0 -12 -12 -13h-19q-12 0 -12 13v790l-174 -172q-8 -8 -16 0l-15 12q-10 10 0 17l205 202q6 6 14 7h17z" />
    <glyph glyph-name="twothirds" unicode="&#x2154;" horiz-adv-x="1331" 
d="M1178 664q0 178 -161 178q-75 0 -143 -21q-12 -4 -12 8v19q0 8 8 12q52 20 148 20q202 1 203 -214q0 -88 -34 -142t-83 -67q55 -5 96 -63t41 -156q0 -250 -254 -250q-82 0 -135 20q-8 4 -8 12v17q0 12 12 8q52 -18 146 -18q196 1 196 205t-172 204h-55q-12 0 -13 13v14
q0 12 13 12h53q70 0 112 47q42 46 42 142zM332 0h-23q-16 0 -8 16l680 1405q6 12 18 13h23q16 -1 8 -17l-680 -1405q-6 -12 -18 -12zM86 1192q-18 0 -18 72t48 126q48 56 148 56q195 0 195 -219q0 -113 -51 -217t-108 -180q-56 -76 -120 -148q-65 -72 -67 -76h346
q12 0 12 -12v-16q0 -12 -12 -13h-385q-12 0 -13 13v16q0 12 61 79t144 182q150 210 150 372q0 182 -152 182t-153 -164q0 -17 4 -35t-11 -18h-18z" />
    <glyph glyph-name="oneeighth" unicode="&#x215b;" horiz-adv-x="1331" 
d="M1054 844q-76 0 -117 -43q-42 -43 -42 -115q0 -154 160 -215q160 61 159 215q0 72 -42 115t-118 43zM881 199q0 -80 45 -126t129 -46t129 46t45 126q0 167 -174 233q-174 -66 -174 -233zM1055 -12q-104 0 -162 56q-57 56 -57 157q0 178 172 252q-156 76 -156 233
q0 86 54 140t148 54t149 -54q54 -54 54 -140q0 -158 -155 -233q172 -74 172 -252q0 -100 -57 -157q-58 -56 -162 -56zM291 0h-23q-16 0 -8 16l680 1405q6 12 18 13h23q16 -1 8 -17l-680 -1405q-6 -12 -18 -12zM332 1434q12 0 12 -13v-843q0 -12 -12 -13h-19q-12 0 -12 13
v790l-174 -172q-8 -8 -16 0l-15 12q-10 10 0 17l205 202q6 6 14 7h17z" />
    <glyph glyph-name="threeeighths" unicode="&#x215c;" horiz-adv-x="1331" 
d="M1054 844q-76 0 -117 -43q-42 -43 -42 -115q0 -154 160 -215q160 61 159 215q0 72 -42 115t-118 43zM881 199q0 -80 45 -126t129 -46t129 46t45 126q0 167 -174 233q-174 -66 -174 -233zM1055 -12q-104 0 -162 56q-57 56 -57 157q0 178 172 252q-156 76 -156 233
q0 86 54 140t148 54t149 -54q54 -54 54 -140q0 -158 -155 -233q172 -74 172 -252q0 -100 -57 -157q-58 -56 -162 -56zM332 0h-23q-16 0 -8 16l680 1405q6 12 18 13h23q16 -1 8 -17l-680 -1405q-6 -12 -18 -12zM399 1230q1 178 -161 177q-76 0 -142 -21q-12 -4 -12 9v18
q0 8 8 12q52 21 148 21q202 1 202 -215q0 -88 -34 -141t-82 -68q55 -6 96 -64t41 -155q0 -250 -254 -250q-82 0 -135 20q-8 4 -8 13v16q0 12 12 8q52 -18 146 -18q196 0 196 204t-172 205h-55q-12 0 -13 13v14q0 12 13 12h53q70 0 112 47t41 143z" />
    <glyph glyph-name="fiveeighths" unicode="&#x215d;" horiz-adv-x="1331" 
d="M1054 844q-76 0 -117 -43q-42 -43 -42 -115q0 -154 160 -215q160 61 159 215q0 72 -42 115t-118 43zM881 199q0 -80 45 -126t129 -46t129 46t45 126q0 167 -174 233q-174 -66 -174 -233zM1055 -12q-104 0 -162 56q-57 56 -57 157q0 178 172 252q-156 76 -156 233
q0 86 54 140t148 54t149 -54q54 -54 54 -140q0 -158 -155 -233q172 -74 172 -252q0 -100 -57 -157q-58 -56 -162 -56zM332 0h-23q-16 0 -8 16l680 1405q6 12 18 13h23q16 -1 8 -17l-680 -1405q-6 -12 -18 -12zM471 817q0 -264 -250 -264q-82 0 -135 20q-8 4 -8 13v16
q0 12 12 8q51 -18 131 -18q207 0 207 227t-164 228q-64 1 -103 -13q-38 -14 -41 -14t-10 5t-8 15q16 229 17 381q0 12 12 13h287q12 0 12 -13v-16q0 -12 -12 -12h-260q-2 -160 -17 -328q55 20 127 20q104 0 154 -73q49 -74 49 -195z" />
    <glyph glyph-name="seveneighths" unicode="&#x215e;" horiz-adv-x="1331" 
d="M1054 844q-76 0 -117 -43q-42 -43 -42 -115q0 -154 160 -215q160 61 159 215q0 72 -42 115t-118 43zM881 199q0 -80 45 -126t129 -46t129 46t45 126q0 167 -174 233q-174 -66 -174 -233zM1055 -12q-104 0 -162 56q-57 56 -57 157q0 178 172 252q-156 76 -156 233
q0 86 54 140t148 54t149 -54q54 -54 54 -140q0 -158 -155 -233q172 -74 172 -252q0 -100 -57 -157q-58 -56 -162 -56zM250 0h-23q-16 0 -8 16l680 1405q6 12 19 13h22q16 -1 8 -17l-680 -1405q-6 -12 -18 -12zM479 1421v-18q0 -10 -4 -17q-100 -150 -180 -388t-80 -420
q0 -12 -12 -13h-21q-12 0 -12 13q0 180 79 413t181 402h-348q-12 0 -12 12v16q0 12 12 13h385q12 -1 12 -13z" />
    <glyph glyph-name="arrowleft" unicode="&#x2190;" horiz-adv-x="962" 
d="M827 557q12 0 13 -12v-17q0 -12 -13 -12h-651l299 -401q10 -14 -6 -15h-25q-10 0 -18 11l-301 401q-10 16 -10 24t10 25l301 402q8 10 18 10h25q16 -1 6 -15l-299 -401h651z" />
    <glyph glyph-name="arrowup" unicode="&#x2191;" horiz-adv-x="962" 
d="M502 248q0 -12 -13 -12h-16q-12 0 -12 12v651l-402 -299q-14 -10 -14 6v25q0 10 10 18l402 301q16 10 24 10t25 -10l401 -301q10 -8 11 -18v-25q-1 -16 -15 -6l-401 299v-651z" />
    <glyph glyph-name="arrowright" unicode="&#x2192;" horiz-adv-x="962" 
d="M518 973q10 0 19 -10l301 -402q10 -16 10 -24t-10 -25l-301 -401q-8 -10 -19 -11h-24q-16 0 -7 15l299 401h-651q-12 0 -12 12v17q0 12 12 12h651l-299 401q-10 14 7 15h24z" />
    <glyph glyph-name="arrowdown" unicode="&#x2193;" horiz-adv-x="962" 
d="M461 825q0 12 12 13h16q12 0 13 -13v-651l401 299q14 10 15 -6v-25q0 -10 -11 -18l-401 -301q-14 -10 -24 -10t-25 10l-402 301q-10 8 -10 18v25q0 16 14 6l402 -299v651z" />
    <glyph glyph-name="arrowboth" unicode="&#x2194;" horiz-adv-x="1413" 
d="M969 973q10 0 18 -10l301 -402q10 -16 10 -24t-10 -25l-301 -401q-8 -10 -18 -11h-25q-16 0 -6 15l299 401l-520 4l-541 -4l299 -401q10 -14 -6 -15h-25q-10 0 -18 11l-301 401q-10 16 -10 24t10 25l301 402q8 10 18 10h25q16 0 6 -15l-299 -401l541 -4l520 4l-299 401
q-10 14 6 15h25z" />
    <glyph glyph-name="arrowupdn" unicode="&#x2195;" horiz-adv-x="962" 
d="M918 274q0 -10 -11 -18l-401 -301q-16 -10 -26 -10t-23 10l-402 301q-10 8 -10 18v25q0 16 14 6l402 -299l4 520l-4 541l-402 -299q-14 -10 -14 6v25q0 10 10 18l402 301q16 10 24 10t25 -10l401 -301q10 -8 11 -18v-25q0 -16 -15 -6l-401 299l-4 -541l4 -520l401 299
q14 10 15 -6v-25z" />
    <glyph glyph-name="arrowupleft" unicode="&#x2196;" horiz-adv-x="962" 
d="M764 856l-496 -72l461 -460q8 -8 0 -17l-12 -12q-8 -8 -17 0l-460 461l-72 -496q-10 -10 -14 -6l-19 18q-8 8 -6 21l72 495q4 31 35 35l495 72q12 2 21 -6l18 -19q4 -4 1 -9t-7 -5z" />
    <glyph glyph-name="arrowupright" unicode="&#x2197;" horiz-adv-x="962" 
d="M694 784l-495 72q-4 0 -8 5q-3 5 2 9l18 19q8 8 20 6l496 -72q31 -4 35 -35l72 -495q2 -12 -7 -21l-18 -18q-4 -4 -9 -1t-5 7l-72 496l-461 -461q-8 -8 -16 0l-13 12q-8 8 0 17z" />
    <glyph glyph-name="arrowdownright" unicode="&#x2198;" horiz-adv-x="962" 
d="M199 217l495 72l-461 461q-8 8 0 16l13 12q8 8 16 0l461 -461l72 496q0 4 5 7t9 -1l18 -18q8 -8 7 -21l-72 -495q-4 -31 -35 -35l-496 -72q-12 -2 -18 4l-20 21q-4 4 -2 9q4 5 8 5z" />
    <glyph glyph-name="arrowdownleft" unicode="&#x2199;" horiz-adv-x="962" 
d="M268 289l496 -72q16 -4 6 -14l-18 -19q-8 -8 -21 -6l-495 72q-16 2 -24 9t-11 26l-72 495q-2 12 6 21l19 18q4 4 9 1t5 -7l72 -496l460 461q8 8 17 0l12 -12q8 -8 0 -16z" />
    <glyph glyph-name="partialdiff" unicode="&#x2202;" horiz-adv-x="884" 
d="M127 350q1 -147 61 -237t164 -90t172 52t104 135q68 157 68 333q0 279 -258 278q-242 0 -298 -316q-13 -75 -13 -155zM289 1399v12q0 12 16 19q61 20 150 20q178 0 259 -119t81 -373q0 -979 -428 -978q-137 0 -213 100t-76 285t74 329q84 170 300 170q116 0 193 -68
q76 -68 86 -192q14 122 14 356t-69 340q-70 106 -225 107q-82 -1 -148 -21q-14 -4 -14 13z" />
    <glyph glyph-name="Delta" unicode="&#x2206;" horiz-adv-x="966" 
d="M479 1362l-307 -1317h623l-308 1317h-8zM469 1446h29q10 0 14 -12l332 -1401q8 -33 -27 -33h-667q-35 0 -27 33l332 1401q4 12 14 12z" />
    <glyph glyph-name="product" unicode="&#x220f;" horiz-adv-x="1011" 
d="M946 1401q0 -4 -8 -12h-176v-1377q0 -12 -12 -12h-23q-12 0 -12 12v1377h-418v-1377q0 -12 -12 -12h-23q-12 4 -12 12v1377h-172q-12 0 -12 12v20q0 12 12 13h856q12 0 12 -13v-20z" />
    <glyph glyph-name="summation" unicode="&#x2211;" horiz-adv-x="798" 
d="M713 -180q12 0 12 -13v-20q0 -12 -12 -12h-619q-12 0 -12 12v14q0 6 4 19l367 792l-359 777q-4 12 -4 18v14q0 12 12 13h603q12 0 12 -13v-20q0 -12 -12 -12h-558l351 -758q4 -12 4 -19v-8q0 -6 -4 -18l-355 -766h570z" />
    <glyph glyph-name="minus" unicode="&#x2212;" horiz-adv-x="925" 
d="M811 713h-696q-12 0 -13 12v20q0 12 13 13h696q12 0 12 -13v-20q0 -12 -12 -12z" />
    <glyph glyph-name="uni2215" unicode="&#x2215;" horiz-adv-x="118" 
d="M-274 0h-23q-16 0 -8 16l680 1405q6 12 18 13h23q16 -1 8 -17l-680 -1405q-6 -12 -18 -12z" />
    <glyph glyph-name="uni2219" unicode="&#x2219;" horiz-adv-x="299" 
d="M111 477v113q0 12 12 12h53q12 0 12 -12v-113q0 -12 -12 -12h-53q-12 0 -12 12z" />
    <glyph glyph-name="radical" unicode="&#x221a;" horiz-adv-x="1011" 
d="M535 -143h-21q-14 0 -16 12l-256 1085h-148q-12 0 -12 13v18q0 12 12 12h174q14 0 17 -12l237 -1034h4l320 1593q2 12 16 12h23q12 0 10 -14l-344 -1673q-2 -12 -16 -12z" />
    <glyph glyph-name="infinity" unicode="&#x221e;" horiz-adv-x="1028" 
d="M715 434q92 0 133 67t41 214t-38 216t-122 69t-121 -46t-57 -157l-39 -205q61 -158 203 -158zM139 719q0 -147 38 -216t122 -69t121 46t57 157l39 205q-61 158 -203 157q-92 -1 -133 -67t-41 -213zM725 1042q209 0 209 -325q0 -166 -50 -246t-167 -80q-84 0 -139 45
t-80 99q-47 -143 -195 -144q-209 0 -209 326q0 166 50 246t167 79q84 0 139 -45t80 -98q47 143 195 143z" />
    <glyph glyph-name="integral" unicode="&#x222b;" horiz-adv-x="514" 
d="M233 -41v1301q0 100 29 145t107 45q20 0 33 -2t14 -18v-17q0 -14 -12 -11t-50 3t-56 -33t-17 -112v-1303q0 -100 -30 -145t-106 -45q-20 0 -33 2t-14 18v16q0 13 12 11t50 -2t56 32q17 33 17 115z" />
    <glyph glyph-name="approxequal" unicode="&#x2248;" horiz-adv-x="925" 
d="M671 854q-62 0 -167 45l-107 45q-92 39 -137 39q-80 0 -104 -90q-7 -26 -19 -27h-28q-12 0 -9 17q40 153 154 153q61 0 168 -45l127 -53q78 -31 119 -31q76 0 102 90q7 27 18 27h29q14 0 8 -16q-20 -76 -56 -115t-98 -39zM671 436q-62 0 -167 45l-107 45q-92 39 -137 39
q-80 0 -104 -90q-7 -26 -19 -26h-28q-12 0 -9 16q41 153 154 153q61 0 168 -45l127 -53q76 -31 119 -31q76 0 102 91q7 26 18 26h29q14 0 8 -16q-20 -76 -56 -115t-98 -39z" />
    <glyph glyph-name="notequal" unicode="&#x2260;" horiz-adv-x="925" 
d="M811 500h-393l-154 -490q-2 -10 -14 -10h-23q-14 0 -10 12l154 488h-256q-12 0 -13 12v20q0 12 13 13h270l119 381h-389q-12 0 -13 12v20q0 12 13 13h403l144 452q2 10 14 11h22q14 0 11 -13l-144 -450h246q12 0 12 -13v-20q0 -12 -12 -12h-260l-119 -381h379
q12 0 12 -13v-20q0 -12 -12 -12z" />
    <glyph glyph-name="lessequal" unicode="&#x2264;" horiz-adv-x="925" 
d="M717 0h-563q-12 0 -13 12v21q0 12 13 12h563q12 0 12 -12v-21q0 -12 -12 -12zM135 733q0 6 6 12l551 551q8 10 19 0l16 -16q8 -8 0 -16l-530 -531l530 -530q8 -8 0 -17l-16 -16q-10 -10 -19 0l-551 551q-6 6 -6 12z" />
    <glyph glyph-name="greaterequal" unicode="&#x2265;" horiz-adv-x="925" 
d="M772 0h-563q-12 0 -12 12v21q0 12 12 12h563q12 0 12 -12v-21q0 -12 -12 -12zM791 733q0 -6 -7 -12l-551 -551q-8 -10 -18 0l-16 16q-8 8 0 17l530 530l-530 531q-8 8 0 16l16 16q10 10 18 0l551 -551q7 -6 7 -12z" />
    <glyph glyph-name="lozenge" unicode="&#x25ca;" horiz-adv-x="966" 
d="M483 -12q-10 0 -14 12l-336 700q-6 12 -6 16t6 17l336 701q4 12 14 12t15 -12l336 -701q6 -12 6 -16t-6 -17l-336 -700q-5 -12 -15 -12zM483 63l308 654l-308 653l-307 -653z" />
    <glyph glyph-name="uniE000" unicode="&#xe000;" horiz-adv-x="1024" 
 />
    <glyph glyph-name="Q.alt" unicode="&#xe001;" horiz-adv-x="937" 
d="M469 27q174 1 252 157t78 533t-78 533t-252 157q-174 0 -252 -158q-78 -157 -78 -533t78 -532t252 -157zM90 722q0 394 90 561t289 167t289 -167t90 -561t-86 -562t-273 -176l5 -197q0 -12 -13 -12h-26q-13 0 -13 12l4 197q-186 10 -271 177t-85 561z" />
    <glyph glyph-name="a.alt" unicode="&#xe002;" horiz-adv-x="765" 
d="M655 1057v-1045q0 -12 -12 -12h-20q-12 0 -13 12v197q-25 -102 -89 -164q-65 -61 -163 -61q-150 0 -218 139t-66 411q0 272 67 412q68 139 217 139q98 0 163 -61t89 -164v197q0 12 13 12h20q12 0 12 -12zM612 535q0 508 -254 507q-238 0 -238 -508t238 -507
q254 0 254 508z" />
    <glyph glyph-name="u.alt" unicode="&#xe003;" horiz-adv-x="765" 
d="M383 -16q-158 0 -215 88t-57 282v703q0 12 12 12h20q12 0 13 -12v-703q0 -176 45 -252t182 -76t182 76t45 252v703q0 12 13 12h20q12 0 12 -12v-703q0 -194 -57 -282t-215 -88z" />
    <glyph glyph-name="y.alt" unicode="&#xe004;" horiz-adv-x="753" 
d="M643 102q0 -344 -280 -344q-136 0 -218 41q-14 8 -14 21v12q0 14 14 10q90 -41 211 -41q122 1 182 71t60 234v168q-18 -78 -80 -139t-174 -61q-111 0 -172 87t-61 242v654q0 12 12 12h20q12 0 13 -12v-654q0 -287 200 -286q110 0 176 98t66 240v602q0 12 12 12h21
q12 0 12 -12v-955z" />
    <glyph glyph-name="j.alt" unicode="&#xe005;" horiz-adv-x="299" 
d="M176 1393v-146q0 -12 -12 -12h-29q-12 0 -12 12v146q0 12 12 12h29q12 0 12 -12zM172 1057v-1270q0 -12 -12 -12h-21q-12 0 -12 12v1270q0 12 12 12h21q12 0 12 -12z" />
    <glyph glyph-name="agrave.alt" unicode="&#xe006;" horiz-adv-x="765" 
d="M406 1192h-15q-8 0 -14 8l-144 174q-14 18 9 19h32q15 -1 25 -17l113 -172q8 -12 -6 -12zM655 1057v-1045q0 -12 -12 -12h-20q-12 0 -13 12v197q-25 -102 -89 -164q-65 -61 -163 -61q-150 0 -218 139t-66 411q0 272 67 412q68 139 217 139q98 0 163 -61t89 -164v197
q0 12 13 12h20q12 0 12 -12zM612 535q0 508 -254 507q-238 0 -238 -508t238 -507q254 0 254 508z" />
    <glyph glyph-name="aacute.alt" unicode="&#xe007;" horiz-adv-x="765" 
d="M524 1393q23 0 8 -19l-143 -174q-6 -8 -14 -8h-15q-14 0 -6 12l113 172q10 16 25 17h32zM655 1057v-1045q0 -12 -12 -12h-20q-12 0 -13 12v197q-25 -102 -89 -164q-65 -61 -163 -61q-150 0 -218 139t-66 411q0 272 67 412q68 139 217 139q98 0 163 -61t89 -164v197
q0 12 13 12h20q12 0 12 -12zM612 535q0 508 -254 507q-238 0 -238 -508t238 -507q254 0 254 508z" />
    <glyph glyph-name="acircumflex.alt" unicode="&#xe008;" horiz-adv-x="765" 
d="M219 1192h-14q-16 0 -8 12l133 182q10 14 24 15h25q14 0 24 -15l134 -182q8 -12 -9 -12h-14q-6 0 -14 8l-133 158l-134 -158q-8 -8 -14 -8zM655 1057v-1045q0 -12 -12 -12h-20q-12 0 -13 12v197q-25 -102 -89 -164q-65 -61 -163 -61q-150 0 -218 139t-66 411
q0 272 67 412q68 139 217 139q98 0 163 -61t89 -164v197q0 12 13 12h20q12 0 12 -12zM612 535q0 508 -254 507q-238 0 -238 -508t238 -507q254 0 254 508z" />
    <glyph glyph-name="atilde.alt" unicode="&#xe009;" horiz-adv-x="765" 
d="M569 1300q-1 -50 -27 -82t-70 -32t-89 37l-53 39q-104 70 -119 -56q-2 -14 -14 -14h-11q-14 0 -14 14q0 51 27 85t69 34t90 -37l50 -37q67 -52 103 -7q14 18 18 44q3 26 16 27h10q14 -1 14 -15zM655 1057v-1045q0 -12 -12 -12h-20q-12 0 -13 12v197q-25 -102 -89 -164
q-65 -61 -163 -61q-150 0 -218 139t-66 411q0 272 67 412q68 139 217 139q98 0 163 -61t89 -164v197q0 12 13 12h20q12 0 12 -12zM612 535q0 508 -254 507q-238 0 -238 -508t238 -507q254 0 254 508z" />
    <glyph glyph-name="adieresis.alt" unicode="&#xe00a;" horiz-adv-x="765" 
d="M512 1288v-84q0 -12 -12 -12h-29q-12 0 -12 12v84q0 12 12 12h29q12 0 12 -12zM274 1288v-84q0 -12 -12 -12h-29q-12 0 -12 12v84q0 12 12 12h29q12 0 12 -12zM655 1057v-1045q0 -12 -12 -12h-20q-12 0 -13 12v197q-25 -102 -89 -164q-65 -61 -163 -61q-150 0 -218 139
t-66 411q0 272 67 412q68 139 217 139q98 0 163 -61t89 -164v197q0 12 13 12h20q12 0 12 -12zM612 535q0 508 -254 507q-238 0 -238 -508t238 -507q254 0 254 508z" />
    <glyph glyph-name="amacron.alt" unicode="&#xe00b;" horiz-adv-x="765" 
d="M530 1208h-319q-12 0 -12 13v14q0 12 12 12h319q12 0 13 -12v-14q-1 -13 -13 -13zM655 1057v-1045q0 -12 -12 -12h-20q-12 0 -13 12v197q-25 -102 -89 -164q-65 -61 -163 -61q-150 0 -218 139t-66 411q0 272 67 412q68 139 217 139q98 0 163 -61t89 -164v197q0 12 13 12
h20q12 0 12 -12zM612 535q0 508 -254 507q-238 0 -238 -508t238 -507q254 0 254 508z" />
    <glyph glyph-name="abreve.alt" unicode="&#xe00c;" horiz-adv-x="765" 
d="M371 1188q-82 0 -129 48t-52 118q0 12 13 12h18q12 0 12 -12q15 -123 137 -123t138 123q0 12 12 12h19q12 0 12 -12q-4 -70 -51 -118t-129 -48zM655 1057v-1045q0 -12 -12 -12h-20q-12 0 -13 12v197q-25 -102 -89 -164q-65 -61 -163 -61q-150 0 -218 139t-66 411
q0 272 67 412q68 139 217 139q98 0 163 -61t89 -164v197q0 12 13 12h20q12 0 12 -12zM612 535q0 508 -254 507q-238 0 -238 -508t238 -507q254 0 254 508z" />
    <glyph glyph-name="aring.alt" unicode="&#xe00d;" horiz-adv-x="765" 
d="M219 1319q0 67 40 107t113 40q74 0 112 -40t38 -108t-40 -107q-40 -40 -112 -40t-111 40q-40 40 -40 108zM371 1210q111 0 110 109q0 51 -28 80q-29 29 -80 28q-113 -1 -113 -109t111 -108zM655 1057v-1045q0 -12 -12 -12h-20q-12 0 -13 12v197q-25 -102 -89 -164
q-65 -61 -163 -61q-150 0 -218 139t-66 411q0 272 67 412q68 139 217 139q98 0 163 -61t89 -164v197q0 12 13 12h20q12 0 12 -12zM612 535q0 508 -254 507q-238 0 -238 -508t238 -507q254 0 254 508z" />
    <glyph glyph-name="aringacute.alt" unicode="&#xe00e;" horiz-adv-x="765" 
d="M371 1210q111 0 110 109q0 51 -28 80q-29 29 -80 28q-113 -1 -113 -109t111 -108zM522 1316q0 -66 -40 -105q-40 -40 -112 -40t-111 40q-40 40 -40 108q0 127 121 145l98 148q10 16 25 16h33q22 0 8 -18l-119 -144q65 -4 101 -44t36 -106zM612 535q0 508 -254 507
q-238 0 -238 -508t238 -507q254 0 254 508zM655 1057v-1045q0 -12 -12 -12h-20q-12 0 -13 12v197q-25 -102 -89 -164q-65 -61 -163 -61q-150 0 -218 139t-66 411q0 272 67 412q68 139 217 139q98 0 163 -61t89 -164v197q0 12 13 12h20q12 0 12 -12z" />
    <glyph glyph-name="aogonek.alt" unicode="&#xe00f;" horiz-adv-x="765" 
d="M612 535q0 508 -254 507q-238 0 -238 -508t238 -507q254 0 254 508zM649 -252q0 -22 -57 -22q-117 0 -117 102q0 113 135 188v193q-25 -102 -89 -164q-65 -61 -163 -61q-150 0 -218 139t-66 411q0 272 67 412q68 139 217 139q98 0 163 -61t89 -164v197q0 12 13 12h20
q12 0 12 -12v-1045q0 -12 -12 -12h-14q-106 -78 -107 -166q0 -61 76 -61h39q12 0 12 -13v-12z" />
    <glyph glyph-name="ij.alt" unicode="&#xe010;" horiz-adv-x="589" 
d="M467 1393v-146q0 -12 -12 -12h-29q-12 0 -12 12v146q0 12 12 12h29q12 0 12 -12zM463 1057v-1270q0 -12 -12 -12h-21q-12 0 -12 12v1270q0 12 12 12h21q12 0 12 -12zM176 1393v-146q0 -12 -12 -12h-29q-12 0 -12 12v146q0 12 12 12h29q12 0 12 -12zM172 1057v-1045
q0 -12 -12 -12h-21q-12 0 -12 12v1045q0 12 12 12h21q12 0 12 -12z" />
    <glyph glyph-name="jcircumflex.alt" unicode="&#xe011;" horiz-adv-x="299" 
d="M2 1192h-14q-16 0 -8 12l133 182q10 14 24 15h25q14 0 24 -15l133 -182q8 -12 -8 -12h-14q-6 0 -14 8l-133 158l-134 -158q-8 -8 -14 -8zM172 1057v-1270q0 -12 -12 -12h-21q-12 0 -12 12v1270q0 12 12 12h21q12 0 12 -12z" />
    <glyph glyph-name="dotlessj.alt" unicode="&#xe012;" horiz-adv-x="299" 
d="M172 1057v-1270q0 -12 -12 -12h-21q-12 0 -12 12v1270q0 12 12 12h21q12 0 12 -12z" />
    <glyph glyph-name="ugrave.alt" unicode="&#xe013;" horiz-adv-x="765" 
d="M385 1192h-14q-8 0 -15 8l-143 174q-14 18 8 19h33q15 -1 25 -17l112 -172q8 -12 -6 -12zM383 -16q-158 0 -215 88t-57 282v703q0 12 12 12h20q12 0 13 -12v-703q0 -176 45 -252t182 -76t182 76t45 252v703q0 12 13 12h20q12 0 12 -12v-703q0 -194 -57 -282t-215 -88z
" />
    <glyph glyph-name="uacute.alt" unicode="&#xe014;" horiz-adv-x="765" 
d="M545 1393q23 0 8 -19l-143 -174q-6 -8 -15 -8h-14q-14 0 -6 12l112 172q10 16 25 17h33zM383 -16q-158 0 -215 88t-57 282v703q0 12 12 12h20q12 0 13 -12v-703q0 -176 45 -252t182 -76t182 76t45 252v703q0 12 13 12h20q12 0 12 -12v-703q0 -194 -57 -282t-215 -88z" />
    <glyph glyph-name="ucircumflex.alt" unicode="&#xe015;" horiz-adv-x="765" 
d="M236 1192h-15q-16 0 -8 12l133 182q10 14 25 15h24q14 0 25 -15l133 -182q8 -12 -8 -12h-15q-6 0 -14 8l-133 158l-133 -158q-8 -8 -14 -8zM383 -16q-158 0 -215 88t-57 282v703q0 12 12 12h20q12 0 13 -12v-703q0 -176 45 -252t182 -76t182 76t45 252v703q0 12 13 12h20
q12 0 12 -12v-703q0 -194 -57 -282t-215 -88z" />
    <glyph glyph-name="utilde.alt" unicode="&#xe016;" horiz-adv-x="765" 
d="M582 1300q0 -50 -27 -82t-70 -32t-90 37l-53 39q-70 47 -100 4q-14 -21 -18 -47q-3 -27 -15 -27h-10q-14 0 -15 14q0 51 27 85t70 34t90 -37l49 -37q67 -52 103 -7q15 20 19 45q3 25 15 26h10q15 -1 15 -15zM383 -16q-158 0 -215 88t-57 282v703q0 12 12 12h20
q12 0 13 -12v-703q0 -176 45 -252t182 -76t182 76t45 252v703q0 12 13 12h20q12 0 12 -12v-703q0 -194 -57 -282t-215 -88z" />
    <glyph glyph-name="udieresis.alt" unicode="&#xe017;" horiz-adv-x="765" 
d="M528 1288v-84q0 -12 -12 -12h-29q-12 0 -12 12v84q0 12 12 12h29q12 0 12 -12zM291 1288v-84q0 -12 -12 -12h-29q-12 0 -12 12v84q0 12 12 12h29q12 0 12 -12zM383 -16q-158 0 -215 88t-57 282v703q0 12 12 12h20q12 0 13 -12v-703q0 -176 45 -252t182 -76t182 76t45 252
v703q0 12 13 12h20q12 0 12 -12v-703q0 -194 -57 -282t-215 -88z" />
    <glyph glyph-name="umacron.alt" unicode="&#xe018;" horiz-adv-x="765" 
d="M543 1208h-320q-12 0 -12 13v14q0 12 12 12h320q12 0 12 -12v-14q0 -13 -12 -13zM383 -16q-158 0 -215 88t-57 282v703q0 12 12 12h20q12 0 13 -12v-703q0 -176 45 -252t182 -76t182 76t45 252v703q0 12 13 12h20q12 0 12 -12v-703q0 -194 -57 -282t-215 -88z" />
    <glyph glyph-name="ubreve.alt" unicode="&#xe019;" horiz-adv-x="765" 
d="M383 1188q-82 0 -129 48t-51 118q0 12 12 12h18q12 0 13 -12q16 -123 137 -123t137 123q0 12 12 12h19q12 0 12 -12q-4 -70 -51 -118t-129 -48zM383 -16q-158 0 -215 88t-57 282v703q0 12 12 12h20q12 0 13 -12v-703q0 -176 45 -252t182 -76t182 76t45 252v703
q0 12 13 12h20q12 0 12 -12v-703q0 -194 -57 -282t-215 -88z" />
    <glyph glyph-name="uring.alt" unicode="&#xe01a;" horiz-adv-x="765" 
d="M231 1319q0 67 40 107t113 40t112 -40t39 -108t-40 -107q-40 -40 -112 -40t-112 40t-40 108zM383 1210q111 0 111 109q0 51 -29 80t-80 28q-113 -1 -113 -109t111 -108zM383 -16q-158 0 -215 88t-57 282v703q0 12 12 12h20q12 0 13 -12v-703q0 -176 45 -252t182 -76
t182 76t45 252v703q0 12 13 12h20q12 0 12 -12v-703q0 -194 -57 -282t-215 -88z" />
    <glyph glyph-name="uhungarumlaut.alt" unicode="&#xe01b;" horiz-adv-x="765" 
d="M612 1393q23 0 9 -19l-125 -174q-6 -8 -15 -8h-14q-14 0 -6 12l96 172q10 16 25 17h30zM418 1393q23 0 8 -19l-125 -174q-6 -8 -14 -8h-15q-14 0 -6 12l96 172q10 16 25 17h31zM383 -16q-158 0 -215 88t-57 282v703q0 12 12 12h20q12 0 13 -12v-703q0 -176 45 -252
t182 -76t182 76t45 252v703q0 12 13 12h20q12 0 12 -12v-703q0 -194 -57 -282t-215 -88z" />
    <glyph glyph-name="ydieresis.alt" unicode="&#xe01c;" horiz-adv-x="753" 
d="M522 1288v-84q0 -12 -12 -12h-29q-12 0 -12 12v84q0 12 12 12h29q12 0 12 -12zM285 1288v-84q0 -12 -13 -12h-28q-12 0 -13 12v84q0 12 13 12h28q13 0 13 -12zM643 102q0 -344 -280 -344q-136 0 -218 41q-14 8 -14 21v12q0 14 14 10q90 -41 211 -41q122 1 182 71t60 234
v168q-18 -78 -80 -139t-174 -61q-111 0 -172 87t-61 242v654q0 12 12 12h20q12 0 13 -12v-654q0 -287 200 -286q110 0 176 98t66 240v602q0 12 12 12h21q12 0 12 -12v-955z" />
    <glyph glyph-name="yacute.alt" unicode="&#xe01d;" horiz-adv-x="753" 
d="M530 1393q23 0 9 -19l-144 -174q-6 -8 -14 -8h-14q-15 0 -7 12l113 172q10 16 25 17h32zM643 102q0 -344 -280 -344q-136 0 -218 41q-14 8 -14 21v12q0 14 14 10q90 -41 211 -41q122 1 182 71t60 234v168q-18 -78 -80 -139t-174 -61q-111 0 -172 87t-61 242v654
q0 12 12 12h20q12 0 13 -12v-654q0 -287 200 -286q110 0 176 98t66 240v602q0 12 12 12h21q12 0 12 -12v-955z" />
    <glyph glyph-name="ycircumflex.alt" unicode="&#xe01e;" horiz-adv-x="753" 
d="M229 1192h-14q-16 0 -8 12l133 182q10 14 25 15h24q14 0 25 -15l133 -182q8 -12 -8 -12h-15q-6 0 -14 8l-133 158l-133 -158q-8 -8 -15 -8zM643 102q0 -344 -280 -344q-136 0 -218 41q-14 8 -14 21v12q0 14 14 10q90 -41 211 -41q122 1 182 71t60 234v168
q-18 -78 -80 -139t-174 -61q-111 0 -172 87t-61 242v654q0 12 12 12h20q12 0 13 -12v-654q0 -287 200 -286q110 0 176 98t66 240v602q0 12 12 12h21q12 0 12 -12v-955z" />
    <glyph glyph-name="ygrave.alt" unicode="&#xe01f;" horiz-adv-x="753" 
d="M387 1192h-14q-8 0 -15 8l-143 174q-14 18 8 19h33q15 -1 25 -17l112 -172q8 -12 -6 -12zM643 102q0 -344 -280 -344q-136 0 -218 41q-14 8 -14 21v12q0 14 14 10q90 -41 211 -41q122 1 182 71t60 234v168q-18 -78 -80 -139t-174 -61q-111 0 -172 87t-61 242v654
q0 12 12 12h20q12 0 13 -12v-654q0 -287 200 -286q110 0 176 98t66 240v602q0 12 12 12h21q12 0 12 -12v-955z" />
    <glyph glyph-name="i.dot" unicode="&#xe020;" horiz-adv-x="299" 
d="M176 1393v-146q0 -12 -12 -12h-29q-12 0 -12 12v146q0 12 12 12h29q12 0 12 -12zM172 1057v-1045q0 -12 -12 -12h-21q-12 0 -12 12v1045q0 12 12 12h21q12 0 12 -12z" />
    <glyph glyph-name="dollar.old" unicode="&#xe021;" horiz-adv-x="708" 
d="M391 1319v-135q102 -2 168 -21q14 -4 14 -18v-15q0 -16 -16 -12q-73 20 -187 20t-173 -50q-59 -52 -60 -168q0 -70 33 -126t67 -84q33 -28 75 -56t86 -59q44 -30 92 -66t62 -61q15 -24 41 -64t27 -149q2 -109 -60 -179t-169 -86v-142q0 -12 -12 -12h-23q-12 0 -12 12v136
q-166 0 -248 30q-14 4 -14 21v14q0 14 16 10q92 -31 218 -31q259 1 257 242q0 80 -23 117q-22 37 -36 55q-42 55 -199 152q-109 74 -167 146t-58 180q0 250 254 262v137q0 12 12 12h23q12 0 12 -12z" />
    <glyph glyph-name="cent.old" unicode="&#xe022;" horiz-adv-x="737" 
d="M94 582q0 578 334 600v137q0 12 12 12h23q12 0 12 -12v-135q88 -2 150 -27q14 -4 14 -20v-13q0 -14 -16 -10q-66 25 -160 25q-319 0 -319 -557t319 -557q102 0 168 24q16 4 16 -10v-12q0 -16 -14 -21q-59 -23 -158 -26v-136q0 -12 -12 -12h-23q-12 0 -12 12v138
q-334 22 -334 600z" />
    <glyph glyph-name="sterling.old" unicode="&#xe023;" horiz-adv-x="860" 
d="M90 578q-12 0 -12 12v16q0 12 12 12h113q-72 186 -72 301t81 190t228 75q148 0 222 -68t73 -178q0 -63 -16 -64h-23q-12 0 -11 16t1 46q0 94 -59 148t-185 54t-194 -60q-68 -62 -68 -166t76 -294h270q12 0 13 -12v-16q0 -12 -13 -12h-256q54 -138 54 -226t-36 -164
t-95 -116q43 16 103 16t155 -27q96 -27 149 -27t84 37q31 35 37 77t6 108q0 10 12 10h23q12 0 12 -10q0 -193 -77 -241t-255 2q-94 28 -176 28t-174 -45q-8 -6 -14 4l-12 16q-8 8 4 15q203 115 202 315q0 91 -53 228h-129z" />
    <glyph glyph-name="yen.old" unicode="&#xe024;" horiz-adv-x="866" 
d="M743 346h-286v-334q0 -12 -13 -12h-22q-12 0 -12 12v334h-287q-12 0 -12 12v17q0 12 12 12h287v35l-72 156h-215q-12 0 -12 12v16q0 12 12 12h194l-245 535q-6 14 10 14h29q10 0 14 -10l305 -676h6l305 676q4 10 15 10h28q18 0 11 -14l-248 -535h196q12 0 13 -12v-16
q0 -12 -13 -12h-215l-71 -156v-35h286q12 0 13 -12v-17q-1 -12 -13 -12z" />
    <glyph glyph-name="Euro.old" unicode="&#xe025;" horiz-adv-x="864" 
d="M90 492h129q-4 57 -4 97t2 62h-127q-12 0 -12 13v16q0 12 12 12h129q37 492 399 492q98 0 148 -25q12 -8 8 -35q-2 -14 -36 0t-117 15q-319 0 -353 -447h424q16 0 13 -12l-3 -16q-2 -12 -14 -13h-424q-2 -20 -2 -61t4 -98h400q14 0 11 -20t-15 -21h-392q41 -422 363 -422
q83 0 117 14t36 0q4 -26 -8 -35q-49 -25 -147 -24q-365 0 -408 467h-133q-12 0 -12 12v16q0 13 12 13z" />
    <glyph glyph-name="zero.old" unicode="&#xe026;" horiz-adv-x="872" 
d="M436 23q297 0 297 561t-297 561t-297 -561t297 -561zM436 1188q346 0 346 -604t-346 -604t-346 604t346 604z" />
    <glyph glyph-name="one.old" unicode="&#xe027;" horiz-adv-x="622" 
d="M586 0h-512q-12 0 -13 12v19q0 12 13 12h231v1059l-205 -184q-10 -10 -16 0l-14 16q-10 10 0 18l233 209q6 6 16 6h21q12 0 12 -12v-1112h234q12 0 12 -12v-19q0 -12 -12 -12z" />
    <glyph glyph-name="two.old" unicode="&#xe028;" horiz-adv-x="794" 
d="M86 12v21q0 12 8 20q88 82 134 127q46 44 136 144t137 175q48 75 88 176t40 209q1 108 -59 182q-60 73 -185 73q-229 0 -229 -252q0 -41 1 -57t-12 -17h-22q-12 0 -12 12q-4 45 -5 64q0 133 70 214t213 81t216 -86t73 -230q0 -96 -41 -201t-92 -185t-136 -176
q-85 -95 -135 -143t-127 -118h541q12 0 12 -12v-21q0 -12 -12 -12h-590q-12 0 -12 12z" />
    <glyph glyph-name="three.old" unicode="&#xe029;" horiz-adv-x="724" 
d="M227 557h78q102 0 170 79t68 222t-66 213q-67 70 -189 70t-216 -33q-16 -4 -17 12v13q0 14 15 18q84 33 198 33q324 0 324 -330q0 -135 -57 -214t-138 -103q92 -11 157 -97t64 -256q0 -422 -364 -422q-125 0 -211 29q-14 4 -14 19v12q0 16 16 12q90 -29 209 -29
q315 0 315 381q0 326 -268 326h-74q-12 0 -12 12v21q0 12 12 12z" />
    <glyph glyph-name="four.old" unicode="&#xe02a;" horiz-adv-x="851" 
d="M606 1167h27q12 0 12 -12v-950h150q12 0 12 -12v-21q0 -12 -12 -12h-150v-373q0 -12 -12 -12h-23q-12 0 -12 12v373h-516q-12 0 -12 12v21q0 8 6 20l512 944q6 10 18 10zM598 205v872l-473 -872h473z" />
    <glyph glyph-name="five.old" unicode="&#xe02b;" horiz-adv-x="770" 
d="M610 1122h-426q-12 -395 -24 -553q92 37 205 37q315 0 315 -399q0 -444 -385 -445q-117 0 -203 29q-14 4 -14 19v12q0 16 16 12q90 -29 201 -29q336 0 336 402q0 356 -266 356q-116 0 -191 -33q-25 -10 -30 -10t-18 9t-13 24q14 203 26 602q0 12 13 12h458q12 0 13 -12
v-20q-1 -13 -13 -13z" />
    <glyph glyph-name="six.old" unicode="&#xe02c;" horiz-adv-x="819" 
d="M680 446q0 184 -66 304t-198 120t-203 -121q-70 -121 -70 -304t68 -303t201 -120q132 0 200 120t68 304zM483 1434q9 0 11 -6t-5 -11q-256 -246 -323 -667q76 164 241 164t243 -131q78 -130 79 -337q0 -206 -80 -336q-81 -130 -239 -130t-237 132t-79 353q0 616 340 956
q12 12 27 13h22z" />
    <glyph glyph-name="seven.old" unicode="&#xe02d;" horiz-adv-x="704" 
d="M53 1167h563q14 0 15 -12v-20q0 -10 -6 -21q-158 -230 -278 -634t-120 -693q0 -12 -12 -12h-25q-12 0 -12 12q0 301 115 689t276 646h-516q-12 0 -12 13v20q0 12 12 12z" />
    <glyph glyph-name="eight.old" unicode="&#xe02e;" horiz-adv-x="811" 
d="M143 332q0 -148 66 -228q66 -82 197 -82q130 0 196 80t66 229t-72 248t-190 142q-117 -43 -190 -142t-73 -247zM406 1407q-117 0 -182 -75t-64 -202q0 -262 246 -360q246 98 245 360q0 127 -64 202t-181 75zM717 325q1 -161 -77 -253t-233 -92t-234 93t-79 253t76 264
t188 155q-248 121 -247 385q0 143 76 232q77 88 219 88t218 -88q77 -88 76 -232q0 -264 -247 -385q113 -51 189 -155t75 -265z" />
    <glyph glyph-name="nine.old" unicode="&#xe02f;" horiz-adv-x="815" 
d="M672 718q0 183 -68 303t-201 120t-201 -120t-67 -304q0 -184 66 -304q67 -120 199 -120t202 121t70 304zM354 -270h-22q-8 0 -10 5t4 11q256 246 323 668q-76 -164 -241 -164q-166 0 -244 130t-78 337t80 337t238 130t238 -132q79 -132 79 -354q0 -616 -340 -956
q-12 -12 -27 -12z" />
    <glyph glyph-name="dollar.tab" unicode="&#xe030;" horiz-adv-x="942" 
d="M498 1606v-156q115 -2 188 -23q14 -4 14 -18v-14q0 -16 -16 -13q-86 23 -186 23q-146 0 -206 -67t-61 -205q0 -82 36 -155t77 -116q40 -43 148 -130t153 -138q105 -125 105 -276q0 -150 -65 -236t-187 -98v-156q0 -12 -13 -12h-22q-12 0 -12 12v152q-160 0 -256 34
q-14 4 -15 19v14q0 16 17 12q91 -35 235 -35t207 78q63 76 63 193t-33 176t-58 85q-24 26 -29 35q-6 9 -38 37t-37 32t-41 33t-75 61t-83 80t-84 128q-40 81 -40 171q0 145 60 224t207 91v158q0 12 12 12h22q13 0 13 -12z" />
    <glyph glyph-name="cent.tab" unicode="&#xe031;" horiz-adv-x="942" 
d="M238 535q0 272 65 404q66 132 227 144v158q0 12 13 12h22q12 0 13 -12v-156q66 -2 137 -26q14 -4 14 -21v-12q0 -18 -16 -10q-57 25 -148 24q-158 0 -219 -120t-61 -386t61 -386t221 -119q92 0 150 24q16 8 16 -10v-12q0 -16 -14 -21q-72 -25 -141 -26v-156
q0 -12 -13 -12h-22q-12 0 -13 12v158q-164 10 -228 144t-64 405z" />
    <glyph glyph-name="sterling.tab" unicode="&#xe032;" horiz-adv-x="942" 
d="M113 713q-12 0 -13 12v18q0 12 13 13h129q-72 232 -72 376t80 231t238 87t230 -82t70 -219q0 -74 -16 -74h-22q-12 0 -12 16t1 58q0 256 -245 256q-274 0 -275 -283q0 -131 72 -366h260q12 0 12 -13v-18q0 -12 -12 -12h-246q55 -186 55 -291t-44 -201t-130 -158
q82 35 138 35t154 -32t148 -33q97 0 126 92q22 71 22 188q0 12 12 13h25q12 0 12 -13q0 -236 -85 -296q-85 -59 -263 3q-92 33 -179 33t-173 -53q-10 -6 -17 4l-12 21q-8 10 4 16q213 141 213 389q0 101 -55 283h-143z" />
    <glyph glyph-name="yen.tab" unicode="&#xe033;" horiz-adv-x="942" 
d="M494 430v-418q0 -12 -13 -12h-20q-12 0 -12 12v418h-304q-12 0 -12 12v19q0 12 12 12h304v55l-74 185h-230q-12 0 -12 12v18q0 12 12 13h211l-264 663q-4 14 10 15h23q10 0 14 -11l330 -833h4l330 833q4 10 14 11h23q14 0 10 -15l-266 -663h213q12 0 12 -13v-18
q0 -12 -12 -12h-230l-73 -185v-55h303q12 0 12 -12v-19q0 -12 -12 -12h-303z" />
    <glyph glyph-name="Euro.tab" unicode="&#xe034;" horiz-adv-x="942" 
d="M113 614h139q-2 33 -2 103t2 102h-139q-12 0 -13 12v19q0 12 13 12h139q16 308 116 448t314 140q86 0 156 -20q16 -6 14 -19l-2 -16q-2 -14 -19 -11q-72 20 -149 21q-188 0 -276 -130t-103 -413h467q12 0 12 -12l-2 -19q0 -12 -12 -12h-467q-2 -33 -2 -103t2 -102h440
q12 0 13 -12l-2 -18q0 -12 -13 -13h-436q17 -283 105 -413t276 -129q78 0 156 22q16 4 18 -10l2 -14q2 -14 -14 -21q-76 -23 -162 -22q-213 0 -313 140t-117 447h-141q-12 0 -13 13v18q1 12 13 12z" />
    <glyph glyph-name="zero.tab" unicode="&#xe035;" horiz-adv-x="942" 
d="M471 23q157 -1 233 163t76 528t-76 528t-232 165q-158 0 -234 -164q-76 -165 -76 -529t76 -528t233 -163zM471 1450q182 0 270 -174t88 -562t-88 -561t-270 -173t-270 173t-88 562t88 562t270 173z" />
    <glyph glyph-name="one.tab" unicode="&#xe036;" horiz-adv-x="942" 
d="M489 12v1356l-227 -205q-10 -10 -16 0l-15 17q-10 10 0 18l256 229q6 6 17 7h20q12 0 13 -13v-1409q0 -12 -13 -12h-22q-13 0 -13 12z" />
    <glyph glyph-name="two.tab" unicode="&#xe037;" horiz-adv-x="942" 
d="M201 1108q0 -41 1 -57t-12 -17h-22q-12 0 -12 13q-4 45 -4 63q0 152 76 246q77 94 233 94q155 0 229 -100t74 -239q0 -341 -288 -722q-95 -127 -144 -185t-139 -159h593q12 0 13 -12v-21q0 -12 -13 -12h-643q-12 0 -12 12v21q0 12 8 20q96 109 147 168q50 59 145 187
t147 222q51 95 94 221t43 236q0 317 -256 318q-133 0 -195 -80t-63 -217z" />
    <glyph glyph-name="three.tab" unicode="&#xe038;" horiz-adv-x="942" 
d="M346 774h86q104 0 173 81t69 242t-66 235t-221 75q-96 0 -205 -33q-16 -4 -16 12v13q0 14 14 18q104 33 207 33q180 0 258 -85t78 -251t-57 -252q-57 -88 -138 -108q96 -16 158 -104t64 -278q1 -392 -379 -392q-113 0 -221 30q-14 4 -15 19v12q0 16 17 12
q111 -31 219 -30q330 0 329 370q0 336 -268 336h-86q-12 0 -12 12v21q0 12 12 12z" />
    <glyph glyph-name="four.tab" unicode="&#xe039;" horiz-adv-x="942" 
d="M664 418v925l-502 -925h502zM698 0h-22q-12 0 -12 12v361h-545q-12 0 -13 12v18q0 10 7 23l540 997q6 10 19 11h26q12 0 13 -13v-1003h161q12 0 13 -12v-21q0 -12 -13 -12h-161v-361q-1 -12 -13 -12z" />
    <glyph glyph-name="five.tab" unicode="&#xe03a;" horiz-adv-x="942" 
d="M782 444q0 -465 -391 -464q-123 0 -209 28q-14 4 -14 19v12q0 16 16 12q90 -29 207 -28q342 0 342 421q0 174 -59 276t-213 101q-118 0 -196 -33q-25 -10 -29 -10t-13 4l-12 9q-8 6 -8 20q20 287 30 610q0 12 13 13h463q12 0 12 -13v-20q0 -12 -12 -12h-430
q-6 -301 -29 -562q92 37 198 37q201 0 271 -124q63 -108 63 -296z" />
    <glyph glyph-name="six.tab" unicode="&#xe03b;" horiz-adv-x="942" 
d="M510 23q131 -1 198 111t66 294q0 410 -274 410q-283 0 -283 -402q0 -152 63 -272q32 -63 92 -102t138 -39zM543 1407q-178 -1 -262 -149t-84 -510q0 -90 2 -140q16 125 95 199t208 74q322 0 321 -453q0 -205 -80 -327t-233 -121q-193 0 -278 171t-85 565q1 394 91 564
t305 170q88 0 151 -23q14 -4 15 -18v-12q-1 -17 -17 -13q-68 23 -149 23z" />
    <glyph glyph-name="seven.tab" unicode="&#xe03c;" horiz-adv-x="942" 
d="M317 12q0 322 122 715t290 662h-545q-12 0 -12 12v20q0 12 12 13h594q12 0 13 -13v-20q0 -10 -7 -21q-162 -238 -290 -648t-127 -720q0 -12 -13 -12h-24q-13 0 -13 12z" />
    <glyph glyph-name="eight.tab" unicode="&#xe03d;" horiz-adv-x="942" 
d="M188 332q0 -148 72 -228q72 -82 211 -82t211 82q72 80 72 228t-80 246t-203 143q-123 -45 -203 -143t-80 -246zM471 1407q-125 0 -196 -75t-70 -202q0 -260 266 -360q266 100 266 360q0 127 -70 202q-71 75 -196 75zM471 -20q-164 0 -248 93t-84 253t80 264t201 155
q-264 121 -264 385q0 144 83 232t233 88t232 -88t82 -232q0 -264 -264 -385q121 -51 201 -155t80 -264t-84 -253t-248 -93z" />
    <glyph glyph-name="nine.tab" unicode="&#xe03e;" horiz-adv-x="942" 
d="M436 1409q-132 0 -198 -112t-66 -293q0 -410 274 -410q283 0 283 401q0 151 -62 273q-33 63 -93 102t-138 39zM750 684q0 90 -2 139q-16 -125 -96 -199t-208 -73q-322 0 -321 453q0 204 80 326t233 122q193 0 278 -171t85 -565t-90 -564t-306 -170q-88 0 -151 22
q-14 4 -14 19v12q0 16 16 12q68 -23 149 -22q178 0 263 148q84 148 84 511z" />
    <glyph glyph-name="dollar.tabold" unicode="&#xe03f;" horiz-adv-x="942" 
d="M508 1319v-135q102 -2 168 -21q14 -4 14 -18v-15q0 -16 -16 -12q-72 20 -187 20t-174 -50q-59 -52 -59 -168q0 -70 33 -126t67 -84t75 -56q217 -147 242 -188q13 -22 39 -65t27 -148q0 -107 -61 -177t-168 -86v-142q0 -12 -12 -12h-23q-12 0 -12 12v136q-166 0 -248 30
q-14 4 -14 21v14q0 14 16 10q92 -31 217 -31q260 1 258 242q0 82 -24 118l-36 54q-32 44 -166 131q-135 88 -196 164t-61 183q0 250 254 262v137q0 12 12 12h23q12 0 12 -12z" />
    <glyph glyph-name="cent.tabold" unicode="&#xe040;" horiz-adv-x="942" 
d="M197 582q0 578 333 600v137q0 12 13 12h22q12 0 13 -12v-135q88 -2 149 -27q14 -4 14 -20v-13q0 -14 -16 -10q-66 25 -160 25q-319 0 -319 -557t319 -557q102 0 168 24q16 4 17 -10v-12q0 -16 -15 -21q-59 -23 -157 -26v-136q0 -12 -13 -12h-22q-12 0 -13 12v138
q-333 22 -333 600z" />
    <glyph glyph-name="sterling.tabold" unicode="&#xe041;" horiz-adv-x="942" 
d="M135 578q-12 0 -12 12v16q0 12 12 12h113q-72 186 -72 301t81 190t229 75t221 -68q74 -68 73 -178q0 -63 -16 -64h-23q-12 0 -11 16t1 46q0 94 -59 148t-185 54t-194 -60q-68 -62 -68 -166t76 -294h270q12 0 13 -12v-16q0 -12 -13 -12h-256q53 -138 53 -226t-35 -164
q-36 -76 -95 -116q42 16 102 16t156 -27t149 -27t84 37q31 35 37 77t6 108q0 10 12 10h23q12 0 12 -10q0 -193 -77 -241t-255 2q-95 28 -177 28t-173 -45q-8 -6 -14 4l-12 16q-8 8 4 15q203 115 202 315q0 91 -53 228h-129z" />
    <glyph glyph-name="yen.tabold" unicode="&#xe042;" horiz-adv-x="942" 
d="M782 346h-286v-334q0 -12 -13 -12h-22q-12 0 -12 12v334h-287q-12 0 -12 12v17q0 12 12 12h287v35l-72 156h-215q-12 0 -12 12v16q0 12 12 12h194l-245 535q-8 14 10 14h29q10 0 14 -10l305 -676h6l305 676q4 10 15 10h28q16 0 11 -14l-248 -535h196q12 0 13 -12v-16
q0 -12 -13 -12h-215l-71 -156v-35h286q12 0 13 -12v-17q-1 -12 -13 -12z" />
    <glyph glyph-name="Euro.tabold" unicode="&#xe043;" horiz-adv-x="942" 
d="M102 492h129q-4 57 -4 97t2 62h-127q-12 0 -12 13v16q0 12 12 12h129q37 492 400 492q98 0 147 -25q12 -8 8 -35q-2 -14 -36 0t-117 15q-319 0 -352 -447h424q16 0 12 -12l-2 -16q-2 -12 -15 -13h-424q-2 -20 -2 -61t5 -98h399q14 0 11 -20t-15 -21h-391
q41 -422 362 -422q83 0 117 14t37 0q4 -26 -8 -35q-49 -25 -148 -24q-365 0 -407 467h-134q-12 0 -12 12v16q0 13 12 13z" />
    <glyph glyph-name="zero.tabold" unicode="&#xe044;" horiz-adv-x="942" 
d="M471 23q297 0 297 561t-297 561t-297 -561t297 -561zM471 1188q346 0 346 -604t-346 -604t-346 604t346 604z" />
    <glyph glyph-name="one.tabold" unicode="&#xe045;" horiz-adv-x="942" 
d="M737 0h-512q-12 0 -12 12v19q0 12 12 12h232v1059l-205 -184q-10 -10 -16 0l-15 16q-10 10 0 18l234 209q6 6 16 6h21q12 0 12 -12v-1112h233q12 0 13 -12v-19q-1 -12 -13 -12z" />
    <glyph glyph-name="two.tabold" unicode="&#xe046;" horiz-adv-x="942" 
d="M160 12v21q0 12 8 20q88 82 134 127q46 44 135 144q268 299 265 544q0 125 -59 198t-184 73q-229 0 -230 -252q0 -41 1 -57t-11 -17h-22q-12 0 -13 12q-4 45 -4 64q0 133 70 214t213 81t216 -86t73 -230q0 -96 -41 -201t-93 -185t-136 -176q-85 -95 -135 -143t-126 -118
h541q12 0 12 -12v-21q0 -12 -12 -12h-590q-12 0 -12 12z" />
    <glyph glyph-name="three.tabold" unicode="&#xe047;" horiz-adv-x="942" 
d="M354 557h78q102 0 170 79t68 222t-66 213t-188 70t-217 -33q-16 -4 -17 12v13q0 14 15 18q84 33 198 33q324 0 324 -330q0 -135 -57 -214t-138 -103q92 -11 157 -97t64 -256q0 -422 -364 -422q-125 0 -211 29q-14 4 -14 19v12q0 16 16 12q90 -29 209 -29q315 0 315 381
q0 326 -268 326h-74q-12 0 -12 12v21q0 12 12 12z" />
    <glyph glyph-name="four.tabold" unicode="&#xe048;" horiz-adv-x="942" 
d="M643 1167h27q12 0 12 -12v-950h149q12 0 13 -12v-21q0 -12 -13 -12h-149v-373q0 -12 -12 -12h-23q-12 0 -12 12v373h-516q-12 0 -13 12v21q0 8 7 20l512 944q6 10 18 10zM635 205v872l-473 -872h473z" />
    <glyph glyph-name="five.tabold" unicode="&#xe049;" horiz-adv-x="942" 
d="M692 1122h-426q-12 -395 -24 -553q92 37 204 37q315 0 316 -399q0 -444 -385 -445q-117 0 -203 29q-14 4 -14 19v12q0 16 16 12q90 -29 201 -29q336 0 336 402q0 356 -267 356q-115 0 -190 -33q-25 -10 -30 -10t-18 9t-13 24q14 203 26 602q0 12 12 12h459q12 0 13 -12
v-20q-1 -13 -13 -13z" />
    <glyph glyph-name="six.tabold" unicode="&#xe04a;" horiz-adv-x="942" 
d="M209 445q-1 -183 67 -303t201 -120t201 120t67 304q0 184 -65 305q-66 119 -199 119t-203 -121t-69 -304zM549 1434q8 0 10 -6t-4 -11q-256 -246 -324 -667q76 164 241 164t244 -131q79 -130 79 -337q0 -206 -80 -336t-239 -130q-160 0 -238 132t-78 353q0 616 340 956
q12 12 26 13h23z" />
    <glyph glyph-name="seven.tabold" unicode="&#xe04b;" horiz-adv-x="942" 
d="M184 1167h564q14 0 14 -12v-20q0 -10 -6 -21q-158 -230 -278 -634t-120 -693q0 -12 -12 -12h-24q-12 0 -13 12q0 301 115 689t276 646h-516q-12 0 -12 13v20q0 12 12 12z" />
    <glyph glyph-name="eight.tabold" unicode="&#xe04c;" horiz-adv-x="942" 
d="M209 332q0 -148 65 -229q66 -81 197 -81t197 80t66 229t-74 248q-72 99 -189 142q-117 -43 -189 -142t-73 -247zM471 1407q-117 0 -181 -75t-65 -202q0 -262 246 -360q246 98 246 360q-1 127 -65 202t-181 75zM472 -20q-156 0 -234 93t-78 253t76 264t188 155
q-248 121 -248 385q0 144 77 232t218 88t218 -88t77 -232q0 -264 -248 -385q113 -51 189 -155q75 -104 75 -265t-78 -253t-232 -92z" />
    <glyph glyph-name="nine.tabold" unicode="&#xe04d;" horiz-adv-x="942" 
d="M733 718q0 183 -67 303q-68 120 -201 120t-201 -120t-68 -304t66 -304t199 -120t203 121q69 121 69 304zM416 -270h-23q-8 0 -10 5t4 11q256 246 324 668q-76 -164 -241 -164t-244 130t-79 337t80 337t239 130q160 0 238 -132t78 -354q0 -616 -340 -956q-12 -12 -26 -12z
" />
    <glyph glyph-name="ampersand.alt" unicode="&#xe04e;" horiz-adv-x="892" 
d="M399 1116q-266 0 -266 -577q166 28 289 108q66 43 104 112q39 69 39 152q0 205 -166 205zM805 541h-105q-23 -559 -309 -559q-157 0 -231 150t-74 415q0 612 313 612q106 0 160 -70q53 -71 53 -165t-37 -154q137 188 211 412q2 10 15 8l20 -4q12 -2 8 -17
q-109 -315 -275 -475t-421 -196q6 -215 71 -344q66 -129 194 -129t189 142q60 142 70 404q0 12 13 13h135q12 0 12 -13v-18q0 -12 -12 -12z" />
    <glyph glyph-name="at.cap" unicode="&#xe04f;" horiz-adv-x="1486" 
d="M1030 55v-10q0 -16 -14 -18q-111 -27 -250 -27q-317 0 -476 142t-159 510t177 583q178 215 484 215t437 -148t131 -421t-106 -434t-289 -160h-35q-35 0 -33 32l10 134q-66 -178 -231 -179q-92 0 -146 90t-53 232q0 288 106 431q39 54 109 90t165 36t161 -18q14 -4 12 -21
l-92 -788h18q170 0 267 148q96 148 96 406t-120 394q-121 135 -409 135t-453 -201t-165 -577q0 -326 150 -458t444 -132q133 0 248 27q16 4 16 -13zM856 1110q-334 0 -334 -514q0 -125 43 -202t117 -77q102 0 169 102t83 249l49 432q-61 10 -127 10z" />
    <glyph glyph-name="paragraph.cap" unicode="&#xe050;" horiz-adv-x="770" 
d="M700 1391h-63q-61 0 -84 -29t-23 -100v-1067q0 -117 -36 -162t-128 -45q-91 0 -92 24v15q0 14 26 9t58 -5q74 0 101 35t26 131v469h-43q-166 0 -259 97t-93 288t91 287t257 96h262q12 0 13 -13v-18q-1 -12 -13 -12z" />
    <glyph glyph-name="registered.cap" unicode="&#xe051;" horiz-adv-x="1347" 
d="M119 700q0 578 338 711q96 39 217 39q239 0 376 -144q176 -190 177 -587q2 -397 -177 -591q-133 -144 -374 -144q-305 0 -436 219q-121 199 -121 497zM535 1130h127q133 0 188 -55t55 -190t-41 -193t-129 -69l154 -299q8 -14 -8 -15h-23q-10 0 -16 10l-152 302h-123v-299
q0 -12 -12 -13h-20q-12 0 -13 13v796q1 12 13 12zM567 664h103q110 0 150 41t40 172t-40 171t-158 39h-95v-423zM166 717q0 -292 112 -491t394 -199t396 199q114 198 114 490t-108 483q-118 208 -400 208t-401 -208q-107 -190 -107 -482z" />
    <glyph glyph-name="questiondown.cap" unicode="&#xe052;" horiz-adv-x="679" 
d="M346 1055q0 14 12 14h25q12 0 12 -12v-105q0 -86 -38 -173t-82 -148q-43 -61 -81 -153t-38 -202q0 -112 54 -180t168 -68t208 31q16 4 16 -12v-14q0 -14 -14 -19q-88 -31 -193 -30q-157 0 -223 78t-66 233q0 100 38 194q38 93 82 155q120 168 120 308v103zM410 1421v-112
q0 -12 -13 -13h-53q-12 0 -12 13v112q0 12 12 13h53q13 -1 13 -13z" />
    <glyph glyph-name="exclamdown.cap" unicode="&#xe053;" horiz-adv-x="364" 
d="M174 1069h16q12 0 13 -12l6 -1045q0 -12 -12 -12h-29q-12 0 -12 12l6 1045q0 12 12 12zM143 1309v112q0 12 13 13h53q12 0 12 -13v-112q0 -12 -12 -13h-53q-13 1 -13 13z" />
    <glyph glyph-name="parenleft.cap" unicode="&#xe054;" horiz-adv-x="430" 
d="M139 717q0 225 45 393t135 336q6 8 17 8h20q12 0 6 -12q-174 -328 -174 -725t174 -725q6 -12 -6 -12h-20q-10 0 -17 8q-90 168 -135 336t-45 393z" />
    <glyph glyph-name="parenright.cap" unicode="&#xe055;" horiz-adv-x="430" 
d="M291 717q0 -225 -45 -393t-135 -336q-6 -8 -17 -8h-20q-12 0 -6 12q174 328 174 725t-174 725q-6 12 6 12h20q10 0 17 -8q90 -168 135 -336t45 -393z" />
    <glyph glyph-name="bracketleft.cap" unicode="&#xe056;" horiz-adv-x="430" 
d="M369 31v-19q0 -12 -13 -12h-172q-12 0 -12 12v1409q0 12 12 13h172q12 0 13 -13v-18q0 -12 -13 -12h-139v-1348h139q13 0 13 -12z" />
    <glyph glyph-name="bracketright.cap" unicode="&#xe057;" horiz-adv-x="430" 
d="M61 12v19q0 12 15 12h137v1348h-139q-12 0 -13 12v18q0 12 13 13h172q12 0 12 -13v-1409q0 -12 -12 -12h-172q-13 0 -13 12z" />
    <glyph glyph-name="braceleft.cap" unicode="&#xe058;" horiz-adv-x="430" 
d="M74 707v20q0 12 12 12h18q92 0 93 340q0 176 27 266q28 89 110 89h47q12 0 12 -13v-18q0 -12 -12 -12h-47q-92 0 -92 -312q0 -186 -23 -269t-76 -93q53 -10 76 -93t23 -270q0 -311 92 -311h47q12 0 12 -12v-19q0 -12 -12 -12h-47q-82 0 -110 89t-27 265q0 340 -93 340
h-18q-12 1 -12 13z" />
    <glyph glyph-name="braceright.cap" unicode="&#xe059;" horiz-adv-x="430" 
d="M356 727v-20q0 -12 -12 -13h-18q-92 0 -93 -340q1 -176 -27 -265t-110 -89h-47q-12 0 -12 12v19q0 12 12 12h47q92 0 92 311q0 186 23 270t76 93q-53 10 -76 93t-23 269q0 311 -92 312h-47q-12 0 -12 12v18q0 12 12 13h47q82 0 110 -89t27 -266q0 -340 93 -340h18
q12 0 12 -12z" />
    <glyph glyph-name="guillemotleft.cap" unicode="&#xe05a;" horiz-adv-x="524" 
d="M274 718q0 3 2 7l109 268q4 10 12 11h27q12 0 8 -13l-110 -276l110 -273q4 -12 -8 -12h-27q-8 0 -12 10l-109 269q-2 6 -2 9zM74 717q0 4 2 8l108 268q4 10 13 11h26q12 0 8 -13l-110 -274l110 -275q4 -12 -8 -12h-26q-8 0 -13 10l-108 269q-2 4 -2 8z" />
    <glyph glyph-name="guillemotright.cap" unicode="&#xe05b;" horiz-adv-x="524" 
d="M250 717q0 -4 -2 -8l-109 -269q-4 -10 -12 -10h-27q-12 0 -8 12l111 275l-111 274q-4 12 8 13h27q8 0 12 -11l109 -268q2 -4 2 -8zM451 717q0 -4 -2 -8l-109 -269q-4 -10 -12 -10h-27q-12 0 -8 12l110 275l-110 274q-4 12 8 13h27q8 0 12 -11l109 -268q2 -4 2 -8z" />
    <glyph glyph-name="guilsinglleft.cap" unicode="&#xe05c;" horiz-adv-x="323" 
d="M74 717q0 4 2 8l108 268q4 10 13 11h26q12 0 8 -13l-110 -274l110 -275q4 -12 -8 -12h-26q-8 0 -13 10l-108 269q-2 4 -2 8z" />
    <glyph glyph-name="guilsinglright.cap" unicode="&#xe05d;" horiz-adv-x="323" 
d="M250 717q0 -4 -2 -8l-109 -269q-4 -10 -12 -10h-27q-12 0 -8 12l111 275l-111 274q-4 12 8 13h27q8 0 12 -11l109 -268q2 -4 2 -8z" />
    <glyph glyph-name="hyphen.cap" unicode="&#xe05e;" horiz-adv-x="544" 
d="M451 696h-357q-12 0 -12 13v18q0 12 12 12h357q12 0 12 -12v-18q0 -13 -12 -13z" />
    <glyph glyph-name="endash.cap" unicode="&#xe05f;" horiz-adv-x="720" 
d="M631 696h-541q-12 0 -12 13v18q0 12 12 12h541q12 0 12 -12v-18q0 -13 -12 -13z" />
    <glyph glyph-name="emdash.cap" unicode="&#xe060;" horiz-adv-x="1048" 
d="M958 696h-868q-12 0 -12 13v18q0 12 12 12h868q12 0 13 -12v-18q-1 -13 -13 -13z" />
    <glyph glyph-name="periodcentered.cap" unicode="&#xe061;" horiz-adv-x="299" 
d="M111 659v113q0 12 12 12h53q12 0 12 -12v-113q0 -12 -12 -12h-53q-12 0 -12 12z" />
    <glyph glyph-name="bullet.cap" unicode="&#xe062;" horiz-adv-x="602" 
d="M301 510q-90 0 -148 57q-59 57 -59 149t58 150t149 58t149 -58t58 -149q0 -92 -58 -150q-59 -57 -149 -57z" />
    <glyph glyph-name="bar.cap" unicode="&#xe063;" horiz-adv-x="454" 
d="M250 1554v-1675q0 -12 -12 -12h-21q-12 0 -12 12v1675q0 12 12 13h21q12 -1 12 -13z" />
    <glyph glyph-name="brokenbar.cap" unicode="&#xe064;" horiz-adv-x="454" 
d="M250 530v-651q0 -12 -12 -12h-21q-12 0 -12 12v651q0 12 12 13h21q12 -1 12 -13zM250 1554v-651q0 -12 -12 -12h-21q-12 0 -12 12v651q0 12 12 13h21q12 -1 12 -13z" />
    <glyph glyph-name="arrowleft.cap" unicode="&#xe065;" horiz-adv-x="962" 
d="M827 737q12 0 13 -12v-16q0 -12 -13 -13h-651l299 -401q10 -14 -6 -14h-25q-10 0 -18 10l-301 401q-10 16 -10 24t10 25l301 402q8 10 18 10h25q16 0 6 -14l-299 -402h651z" />
    <glyph glyph-name="arrowup.cap" unicode="&#xe066;" horiz-adv-x="962" 
d="M502 428q0 -12 -13 -12h-16q-12 0 -12 12v651l-402 -299q-14 -10 -14 6v25q0 10 10 18l402 301q16 10 24 10t25 -10l401 -301q10 -8 11 -18v-25q-1 -16 -15 -6l-401 299v-651z" />
    <glyph glyph-name="arrowright.cap" unicode="&#xe067;" horiz-adv-x="962" 
d="M494 1153h24q10 0 19 -10l301 -402q10 -16 10 -24t-10 -25l-301 -401q-8 -10 -19 -10h-24q-16 0 -7 14l299 401h-651q-12 0 -12 13v16q0 12 12 12h651l-299 402q-10 14 7 14z" />
    <glyph glyph-name="arrowdown.cap" unicode="&#xe068;" horiz-adv-x="962" 
d="M461 1006q0 12 12 12h16q12 0 13 -12v-652l401 299q14 10 15 -6v-24q0 -10 -11 -19l-401 -301q-14 -10 -24 -10t-25 10l-402 301q-10 8 -10 19v24q0 16 14 6l402 -299v652z" />
    <glyph glyph-name="arrowboth.cap" unicode="&#xe069;" horiz-adv-x="1413" 
d="M944 1153h25q10 0 18 -10l301 -402q10 -16 10 -24t-10 -25l-301 -401q-8 -10 -18 -10h-25q-16 0 -6 14l299 401l-520 4l-541 -4l299 -401q10 -14 -6 -14h-25q-10 0 -18 10l-301 401q-10 16 -10 24t10 25l301 402q8 10 18 10h25q16 0 6 -14l-299 -402l541 -4l520 4
l-299 402q-10 14 6 14z" />
    <glyph glyph-name="arrowupdn.cap" unicode="&#xe06a;" horiz-adv-x="962" 
d="M918 455q0 -10 -11 -19l-401 -301q-16 -10 -26 -10t-23 10l-402 301q-10 8 -10 19v24q0 16 14 6l402 -299l4 521l-4 540l-402 -299q-14 -10 -14 6v25q0 10 10 18l402 301q16 10 24 10t25 -10l401 -301q10 -8 11 -18v-25q0 -16 -15 -6l-401 299l-4 -540l4 -521l401 299
q14 10 15 -6v-24z" />
    <glyph glyph-name="arrowupleft.cap" unicode="&#xe06b;" horiz-adv-x="962" 
d="M764 1036l-496 -71l461 -461q8 -8 0 -17l-12 -12q-8 -8 -17 0l-460 461l-72 -496q-10 -10 -14 -6l-19 19q-8 8 -6 20l72 496q4 29 35 35l495 71q12 2 21 -6l18 -18q4 -3 1 -9t-7 -6z" />
    <glyph glyph-name="arrowupright.cap" unicode="&#xe06c;" horiz-adv-x="962" 
d="M694 965l-495 71q-3 0 -7 5t1 10l18 18q8 8 20 6l496 -71q31 -4 35 -35l72 -496q2 -12 -7 -20l-18 -19q-4 -4 -9 -1t-5 7l-72 496l-461 -461q-8 -8 -16 0l-13 12q-8 8 0 17z" />
    <glyph glyph-name="arrowdownright.cap" unicode="&#xe06d;" horiz-adv-x="962" 
d="M199 397l495 72l-461 461q-8 8 0 16l13 12q8 8 16 0l461 -460l72 495q0 4 5 7t9 -1l18 -18q8 -8 7 -20l-72 -496q-4 -31 -35 -35l-496 -72q-12 -2 -18 4l-20 21q-4 4 -2 9q4 5 8 5z" />
    <glyph glyph-name="arrowdownleft.cap" unicode="&#xe06e;" horiz-adv-x="962" 
d="M268 469l496 -72q16 -4 6 -14l-18 -18q-8 -8 -21 -7l-495 72q-16 2 -24 9t-11 26l-72 496q-2 12 6 20l19 18q4 4 9 1t5 -7l72 -495l460 460q8 8 17 0l12 -12q8 -8 0 -16z" />
    <glyph glyph-name="grave.cap" unicode="&#xe06f;" horiz-adv-x="491" 
d="M328 1532h-15q-8 0 -14 8l-139 164q-14 18 8 18h33q14 0 24 -16l109 -162q8 -12 -6 -12z" />
    <glyph glyph-name="acute.cap" unicode="&#xe070;" horiz-adv-x="491" 
d="M291 1722h33q23 0 8 -18l-139 -164q-6 -8 -15 -8h-14q-14 0 -6 12l108 162q10 16 25 16z" />
    <glyph glyph-name="dieresis.cap" unicode="&#xe071;" horiz-adv-x="491" 
d="M391 1628v-84q0 -12 -12 -12h-29q-12 0 -12 12v84q0 12 12 12h29q12 0 12 -12zM154 1628v-84q0 -12 -13 -12h-28q-12 0 -13 12v84q0 12 13 12h28q13 0 13 -12z" />
    <glyph glyph-name="circumflex.cap" unicode="&#xe072;" horiz-adv-x="491" 
d="M94 1532h-14q-16 0 -8 12l137 170q10 14 24 15h25q14 0 25 -15l137 -170q8 -12 -8 -12h-15q-6 0 -14 8l-137 146l-137 -146q-8 -8 -15 -8z" />
    <glyph glyph-name="tilde.cap" unicode="&#xe073;" horiz-adv-x="491" 
d="M449 1640q0 -50 -29 -82t-72 -32t-90 37l-59 43q-51 31 -81 13t-36 -73q-2 -14 -14 -14h-11q-14 0 -14 14q0 51 29 85q30 34 72 34t89 -37l50 -37q33 -27 61 -27q57 1 66 76q2 14 14 15h10q15 -1 15 -15z" />
    <glyph glyph-name="macron.cap" unicode="&#xe074;" horiz-adv-x="491" 
d="M410 1532h-328q-12 0 -12 12v15q0 12 12 12h328q12 0 12 -12v-15q0 -12 -12 -12z" />
    <glyph glyph-name="breve.cap" unicode="&#xe075;" horiz-adv-x="491" 
d="M246 1520q-82 0 -129 48t-51 118q0 12 12 12h18q12 0 13 -12q14 -123 137 -123t137 123q0 12 12 12h19q12 0 12 -12q-4 -70 -51 -118t-129 -48z" />
    <glyph glyph-name="dotaccent.cap" unicode="&#xe076;" horiz-adv-x="491" 
d="M272 1628v-84q0 -12 -12 -12h-29q-12 0 -12 12v84q0 12 12 12h29q12 0 12 -12z" />
    <glyph glyph-name="ring.cap" unicode="&#xe077;" horiz-adv-x="491" 
d="M92 1669q0 68 41 109t113 41t112 -41t41 -109q0 -69 -41 -109q-40 -40 -112 -40t-113 40t-41 109zM133 1669q0 -51 30 -81t83 -30t83 30t29 81q0 51 -29 81q-30 30 -83 30t-83 -30t-30 -81z" />
    <glyph glyph-name="cedilla.cap" unicode="&#xe078;" horiz-adv-x="491" 
d="M186 -248q0 12 13 12h47q84 0 84 66q-1 102 -142 188h43q145 -80 146 -194q0 -106 -125 -107q-64 0 -66 23v12z" />
    <glyph glyph-name="hungarumlaut.cap" unicode="&#xe079;" horiz-adv-x="491" 
d="M442 1720h31q23 0 8 -18l-121 -162q-6 -8 -14 -8h-14q-14 0 -6 12l92 160q10 16 24 16zM248 1720h31q23 0 8 -18l-121 -162q-6 -8 -14 -8h-15q-14 0 -6 12l92 160q10 16 25 16z" />
    <glyph glyph-name="ogonek.cap" unicode="&#xe07a;" horiz-adv-x="491" 
d="M305 -246v-14q0 -10 -10 -16q-16 -6 -55 -7q-125 0 -125 107q0 114 145 194h43q-141 -86 -141 -188q0 -66 84 -66l47 3q12 0 12 -13z" />
    <glyph glyph-name="caron.cap" unicode="&#xe07b;" horiz-adv-x="491" 
d="M412 1729q16 0 8 -13l-137 -170q-10 -14 -25 -14h-25q-14 0 -24 14l-137 170q-8 12 8 13h14q6 0 15 -9l137 -145l137 145q8 8 14 9h15z" />
    <glyph glyph-name="commaaccent.cap" unicode="&#xe07c;" horiz-adv-x="491" 
d="M233 -403h-8q-14 0 -10 14l29 158h-27q-12 0 -12 12v92q0 12 12 12h57q12 0 13 -12v-90q0 -8 -2 -16l-37 -158q-2 -12 -15 -12z" />
    <glyph glyph-name="a.superior" unicode="&#xe07d;" horiz-adv-x="614" 
d="M477 1012v137q-57 -158 -211 -158q-96 0 -148 66t-52 167t29 159q52 101 218 126q66 10 164 13v129q0 100 -39 144t-130 44t-183 -35q-12 -6 -12 8v17q0 14 12 18q82 33 190 33q205 0 205 -223v-645q0 -12 -12 -13h-19q-12 1 -12 13zM477 1296v187q-149 -4 -210 -23
q-62 -18 -92 -43q-67 -56 -69 -180q0 -205 164 -205q94 0 150 74t57 190z" />
    <glyph glyph-name="b.superior" unicode="&#xe07e;" horiz-adv-x="649" 
d="M141 1012q0 -12 -12 -13h-18q-12 0 -13 13v1102q0 12 13 12h18q12 0 12 -12v-416q47 182 207 182q236 0 236 -446t-236 -447q-160 0 -207 182v-157zM139 1434q0 -408 209 -408q193 0 193 408t-191 407q-211 1 -211 -407z" />
    <glyph glyph-name="d.superior" unicode="&#xe07f;" horiz-adv-x="649" 
d="M508 1012v157q-47 -182 -207 -182q-235 1 -235 447t235 446q160 0 207 -182v416q0 12 12 12h19q12 0 12 -12v-1102q0 -12 -12 -13h-19q-12 1 -12 13zM510 1434q0 408 -209 407q-193 1 -193 -407t193 -408q209 0 209 408z" />
    <glyph glyph-name="e.superior" unicode="&#xe080;" horiz-adv-x="585" 
d="M481 1470q0 182 -38 276t-140 95q-102 0 -147 -94t-47 -297h372v20zM342 1026q82 0 145 23q12 6 13 -9v-14q0 -12 -13 -16q-55 -23 -147 -23q-152 1 -213 107t-61 336t56 340t179 110t173 -104t50 -306v-43q0 -14 -12 -14h-403q4 -211 53 -299t180 -88z" />
    <glyph glyph-name="h.superior" unicode="&#xe081;" horiz-adv-x="651" 
d="M141 2114v-396q23 66 77 114t146 48t143 -66q50 -67 50 -184v-618q0 -12 -12 -13h-19q-12 0 -12 13v618q0 209 -156 209q-94 0 -155 -78t-62 -188v-561q0 -12 -12 -13h-18q-12 0 -13 13v1102q0 12 13 12h18q12 0 12 -12z" />
    <glyph glyph-name="i.superior" unicode="&#xe082;" horiz-adv-x="243" 
d="M96 2015v113q0 12 13 12h26q12 0 12 -12v-113q0 -12 -12 -12h-26q-13 0 -13 12zM102 1012v843q0 12 13 13h18q12 0 12 -13v-843q0 -12 -12 -13h-18q-13 1 -13 13z" />
    <glyph glyph-name="l.superior" unicode="&#xe083;" horiz-adv-x="247" 
d="M102 1012v1102q0 12 13 12h18q12 0 12 -12v-1102q0 -12 -12 -13h-18q-13 1 -13 13z" />
    <glyph glyph-name="m.superior" unicode="&#xe084;" horiz-adv-x="999" 
d="M522 1591v-579q0 -12 -12 -13h-18q-12 0 -13 13v626q0 98 -30 150q-31 51 -116 51t-139 -74t-55 -186v-567q0 -12 -12 -13h-18q-12 0 -13 13v843q0 12 13 13h18q12 0 12 -13v-129q21 62 71 108t128 46q147 0 174 -162q23 68 76 115t133 47q184 0 184 -242v-626
q0 -12 -12 -13h-19q-12 0 -12 13v626q0 98 -31 150t-115 51q-84 0 -140 -71q-54 -71 -54 -177z" />
    </font>
</defs>
</svg>
