<?xml version="1.0" encoding="UTF-8" standalone="no"?>
<svg height="96px" id="svg3001" version="1.1" viewBox="0 0 520 520" width="96px" x="0px" xml:space="preserve" xmlns:cc="http://creativecommons.org/ns#" xmlns:dc="http://purl.org/dc/elements/1.1/"
  xmlns:rdf="http://www.w3.org/1999/02/22-rdf-syntax-ns#" xmlns="http://www.w3.org/2000/svg" y="0px">
  <path
    d="m437.1,441.49c-22.983,22.982-49.73,41.02-79.504,53.614-7.5626,3.1986-15.243,6.0064-23.031,8.428v-44.629c0-23.457-8.0441-40.71-24.134-51.759,10.082-0.96888,19.337-2.3262,27.77-4.071,8.4327-1.7447,17.352-4.2652,26.752-7.5602,9.4028-3.2952,17.836-7.2207,25.297-11.777,7.465-4.556,14.636-10.468,21.518-17.738,6.8833-7.2696,12.649-15.508,17.301-24.717,4.6525-9.2085,8.3373-20.258,11.05-33.149,2.7147-12.891,4.071-27.091,4.071-42.6,0-30.047-9.7888-55.636-29.369-76.767,8.9189-23.262,7.9488-48.561-2.9078-75.894l-7.2696-0.87235c-5.0387-0.58157-14.103,1.5505-27.188,6.3972s-27.77,12.795-44.054,23.845c-23.068-6.3972-47.008-9.5958-71.822-9.5958-25.008,0-48.851,3.1986-71.532,9.5958-10.274-6.9787-20.016-12.745-29.224-17.301-9.2085-4.556-16.575-7.6568-22.099-9.305-5.5248-1.6481-10.662-2.6659-15.411-3.0532-4.7491-0.38732-7.8022-0.48501-9.1597-0.29077-1.3574,0.19424-2.3262,0.38731-2.9078,0.58156-10.855,27.527-11.825,52.826-2.9078,75.894-19.578,21.13-29.369,46.72-29.369,76.767,0,15.508,1.3574,29.709,4.0709,42.6s6.3972,23.941,11.05,33.149c4.6525,9.2085,10.419,17.447,17.301,24.717,6.8823,7.2696,14.054,13.182,21.518,17.738,7.4638,4.556,15.897,8.4816,25.297,11.777,9.4016,3.2952,18.319,5.8157,26.752,7.5602,8.4327,1.7447,17.688,3.1021,27.77,4.071-15.897,10.855-23.845,28.11-23.845,51.759v45.496c-8.7805-2.6135-17.435-5.7016-25.938-9.2981-29.75-12.63-56.5-30.66-79.488-53.64-22.981-22.98-41.02-49.73-53.613-79.51-13.024-30.79-19.63-63.54-19.63-97.32,0-33.778,6.6055-66.531,19.632-97.33,12.593-29.764,30.63-56.516,53.61-79.499,22.983-22.98,49.735-41.017,79.499-53.61,30.799-13.027,63.554-19.632,97.33-19.632,33.781,0,66.525,6.6055,97.325,19.632,29.774,12.593,56.521,30.63,79.504,53.613,22.981,22.981,41.018,49.73,53.611,79.503,13.027,30.799,19.633,63.554,19.633,97.33,0,33.781-6.6065,66.525-19.632,97.324-12.592,29.772-30.632,56.522-53.614,79.502z"
    fill="none" id="path3" stroke-width="16.6321373" stroke="#FFF"/></svg>
