<svg viewBox="-201.1 203.7 95 95.7" xmlns="http://www.w3.org/2000/svg">
  <style>
    #github {
      fill: none;
      stroke: #fff;
      stroke-width: 3;
    }
  </style>
  <path  id="github" d="M-125 279.9c-3.7 3.7-8.1 6.6-12.9 8.7-1.2.5-2.5 1-3.7 1.4v-7.2c0-3.8-1.3-6.6-3.9-8.4 1.6-.2 3.1-.4 4.5-.7 1.4-.3 2.8-.7 4.3-1.2s2.9-1.2 4.1-1.9c1.2-.7 2.4-1.7 3.5-2.9s2-2.5 2.8-4c.8-1.5 1.3-3.3 1.8-5.4.4-2.1.7-4.4.7-6.9 0-4.9-1.6-9-4.8-12.4 1.4-3.8 1.3-7.9-.5-12.3l-1.2-.1c-.8-.1-2.3.3-4.4 1-2.1.8-4.5 2.1-7.1 3.9-3.7-1-7.6-1.6-11.6-1.6s-7.9.5-11.6 1.6c-1.7-1.1-3.2-2.1-4.7-2.8-1.5-.7-2.7-1.2-3.6-1.5-.9-.3-1.7-.4-2.5-.5-.8-.1-1.3-.1-1.5 0-.2 0-.4.1-.5.1-1.8 4.5-1.9 8.6-.5 12.3-3.2 3.4-4.8 7.6-4.8 12.4 0 2.5.2 4.8.7 6.9.4 2.1 1 3.9 1.8 5.4.8 1.5 1.7 2.8 2.8 4 1.1 1.2 2.3 2.1 3.5 2.9 1.2.7 2.6 1.4 4.1 1.9 1.5.5 3 .9 4.3 1.2 1.4.3 2.9.5 4.5.7-2.6 1.8-3.9 4.6-3.9 8.4v7.4c-1.4-.4-2.8-.9-4.2-1.5-4.8-2-9.1-5-12.9-8.7-3.7-3.7-6.6-8.1-8.7-12.9-2.1-5-3.2-10.3-3.2-15.8s1.1-10.8 3.2-15.8c2-4.8 5-9.1 8.7-12.9 3.7-3.7 8.1-6.6 12.9-8.7 5-2.1 10.3-3.2 15.8-3.2s10.8 1.1 15.8 3.2c4.8 2 9.1 5 12.9 8.7 3.7 3.7 6.6 8.1 8.7 12.9 2.1 5 3.2 10.3 3.2 15.8s-1.1 10.8-3.2 15.8c-2.1 4.6-5 8.9-8.7 12.7z"/>
</svg>
