<?xml version="1.0" encoding="UTF-8" standalone="no"?>
<!-- Generator: Adobe Illustrator 16.0.0, SVG Export Plug-In . SVG Version: 6.00 Build 0)  -->
<svg id="svg2989" xmlns:rdf="http://www.w3.org/1999/02/22-rdf-syntax-ns#" xmlns="http://www.w3.org/2000/svg" xml:space="preserve" height="96" viewBox="0 0 272.37207 288.938" width="90.496" version="1.1" y="0px" x="0px" xmlns:cc="http://creativecommons.org/ns#" xmlns:dc="http://purl.org/dc/elements/1.1/"><metadata id="metadata9"><rdf:RDF><cc:Work rdf:about=""><dc:format>image/svg+xml</dc:format><dc:type rdf:resource="http://purl.org/dc/dcmitype/StillImage"/><dc:title/></cc:Work></rdf:RDF></metadata><g id="g2991" transform="matrix(0.93816591,0,0,0.93816591,0.43535988,8.2056979)"><path id="path4" d="M203.94,137.06c-12.06,127.68-124.93,102.51-123.66,22.76,1.57-54.53,33.484-108.02,127.91-78.612l-5.84,73.512c-6.2443,39.926,6.0787,54.337,22.224,54.81,24.971,0.47846,52.861-32.789,52.861-89.552,0-70.913-42.586-121.83-118.44-121.83-79.714,0-146.76,63.14-146.76,162.46,0,81.709,53.344,132.1,125.73,132.1,27.89,0,79.829-4.2288,107.85-44.72" stroke="#FFF" stroke-width="10.6058569" fill="none"/></g></svg>
