<?xml version="1.0" standalone="no"?>
<!DOCTYPE svg PUBLIC "-//W3C//DTD SVG 1.1//EN" "http://www.w3.org/Graphics/SVG/1.1/DTD/svg11.dtd" >
<svg xmlns="http://www.w3.org/2000/svg">
<metadata>
Created by FontPrep 20130207 at Wed Jul  1 21:05:40 2015
 By Guillermo Cura
(c) 2012, 2013, 2014, 2015 by Stawix Ruecha &#38; Foundry. All rights reserved.
</metadata>
<defs>
<font id="225685593974360fd31789211b230542" horiz-adv-x='1024' >
  <font-face 
    font-family="AmsiPro-Light"
    font-weight="400"
    font-stretch="normal"
    units-per-em="2048"
    panose-1="2 11 10 6 2 2 1 1 1 4"
    ascent="1747"
    descent="-301"
    x-height="1051"
    cap-height="1436"
    bbox="-430.942 -584 2558 2138"
    underline-thickness="71"
    underline-position="-136"
    unicode-range="U+0020-FB4E"
  />
<missing-glyph horiz-adv-x="1007" 
d="M504 616l-342 -516h684zM504 797l344 516h-686zM100 1223v-1030l344 514zM907 193v1030l-344 -516zM0 1413h1008v-1413h-1008v1413z" />
    <glyph glyph-name="f_f" unicode="ff" horiz-adv-x="1269" 
d="M932 1051h260q27 0 27 -27v-57q0 -25 -27 -25h-260v-917q0 -25 -23 -25h-71q-25 0 -25 25v917h-463v-917q0 -25 -22 -25h-72q-25 0 -25 25v917h-155q-25 0 -25 25v57q0 27 25 27h155v106q0 143 69 218t200 75q80 0 135 -20q16 -6 16 -25l-2 -55q0 -27 -24 -19
q-49 12 -111 12q-164 0 -164 -190v-102h463v106q0 143 69 218t199 75q80 0 136 -20q16 -6 16 -25l-2 -55q0 -27 -25 -19q-49 12 -110 12q-164 0 -164 -190v-102z" />
    <glyph glyph-name="fi" unicode="fi" horiz-adv-x="1107" 
d="M932 1413v-172q0 -23 -25 -22h-65q-25 0 -25 22v172q0 23 25 23h65q25 0 25 -23zM231 1153q0 297 278 297q142 0 142 -45l-2 -55q0 -25 -26 -19q-61 12 -113 12q-160 0 -160 -196v-96h559q25 0 25 -27v-999q0 -25 -25 -25h-69q-27 0 -27 25v917h-463v-917q0 -25 -22 -25
h-72q-25 0 -25 25v917h-155q-25 0 -25 25v57q0 27 25 27h155v102z" />
    <glyph glyph-name="fl" unicode="fl" horiz-adv-x="1105" 
d="M932 1389v-1364q0 -25 -23 -25h-71q-25 0 -25 25v1306q-82 17 -214 17t-190 -54t-59 -164v-79h213q25 0 25 -27v-57q0 -25 -25 -25h-213v-917q0 -25 -22 -25h-72q-25 0 -25 25v917h-155q-25 0 -25 25v57q0 27 25 27h155v82q0 161 86 241q85 80 285 80t305 -35
q25 -7 25 -30z" />
    <glyph glyph-name="f_f_i" unicode="ffi" horiz-adv-x="1687" 
d="M1513 1413v-172q0 -23 -24 -22h-66q-27 0 -26 22v172q0 23 26 23h66q24 0 24 -23zM1516 1024v-999q0 -25 -25 -25h-72q-23 0 -22 25v917h-465v-917q0 -25 -23 -25h-71q-25 0 -25 25v917h-463v-917q0 -25 -22 -25h-72q-25 0 -25 25v917h-155q-25 0 -25 25v57q0 27 25 27
h155v106q0 143 69 218t200 75q80 0 135 -20q16 -6 16 -25l-2 -55q0 -27 -24 -19q-49 12 -111 12q-164 0 -164 -190v-102h463v106q0 143 69 218t199 75q80 0 136 -20q16 -6 16 -25l-2 -55q0 -27 -25 -19q-49 12 -110 12q-164 0 -164 -190v-102h559q25 0 25 -27z" />
    <glyph glyph-name="f_f_l" unicode="ffl" horiz-adv-x="1687" 
d="M932 942v-917q0 -25 -23 -25h-71q-25 0 -25 25v917h-463v-917q0 -25 -22 -25h-72q-25 0 -25 25v917h-155q-25 0 -25 25v57q0 27 25 27h155v106q0 143 69 218t200 75q80 0 135 -20q16 -6 16 -25l-2 -55q0 -27 -24 -19q-49 12 -111 12q-164 0 -164 -190v-102h463v82
q0 161 85 241q84 80 284 80t305 -35q27 -8 26 -33v-1361q0 -25 -22 -25h-72q-25 0 -24 25v1306q-82 17 -215 17q-132 0 -190 -52t-58 -166v-79h213q25 0 24 -27v-57q0 -25 -24 -25h-213z" />
    <glyph glyph-name="f_b" unicode="fb" horiz-adv-x="1892" 
d="M932 1389v-547q45 111 148 172t243 61q217 0 339 -141q122 -142 122 -408t-122 -406t-339 -140q-141 0 -244 58q-102 58 -147 171v-184q0 -25 -25 -25h-69q-25 0 -25 25v1306q-82 17 -214 17t-190 -54t-59 -164v-79h213q25 0 25 -27v-57q0 -25 -25 -25h-213v-917
q0 -25 -22 -25h-72q-25 0 -25 25v917h-155q-25 0 -25 25v57q0 27 25 27h155v82q0 161 86 241q85 80 285 80t305 -35q25 -7 25 -30zM932 526q0 -212 97 -326t274 -114q358 0 358 441t-358 442q-175 0 -273 -115t-98 -328z" />
    <glyph glyph-name="f_f_b" unicode="ffb" horiz-adv-x="2476" 
d="M1513 1389v-547q45 111 147 172t241 61q219 0 342 -141q123 -142 123 -408t-122 -406t-341 -140q-139 0 -241 58q-101 58 -149 171v-184q0 -25 -26 -25h-68q-25 0 -24 25v1306q-82 17 -215 17q-132 0 -190 -52t-58 -166v-79h213q27 0 26 -27v-57q0 -25 -26 -25h-213v-917
q0 -25 -23 -25h-71q-25 0 -25 25v917h-463v-917q0 -25 -22 -25h-72q-25 0 -25 25v917h-155q-25 0 -25 25v57q0 27 25 27h155v106q0 143 69 218t200 75q80 0 135 -20q16 -6 16 -25l-2 -55q0 -27 -24 -19q-49 12 -111 12q-164 0 -164 -190v-102h463v82q0 161 85 241
q84 80 284 80t305 -35q26 -7 26 -30zM1513 526q1 -212 97 -326t274 -114q358 0 358 441t-358 442q-178 0 -274 -115t-97 -328z" />
    <glyph glyph-name="f_h" unicode="fh" horiz-adv-x="1847" 
d="M932 1389v-525q37 86 131 148t264 63q170 0 265 -99t96 -276v-675q0 -25 -25 -25h-70q-25 0 -24 25v659q0 279 -285 279q-158 -1 -255 -93t-97 -233v-612q0 -25 -23 -25h-71q-25 0 -25 25v1306q-82 17 -214 17t-190 -54t-59 -164v-79h213q25 0 25 -27v-57q0 -25 -25 -25
h-213v-917q0 -25 -22 -25h-72q-25 0 -25 25v917h-155q-25 0 -25 25v57q0 27 25 27h155v82q0 161 86 241q85 80 285 80t305 -35q25 -7 25 -30z" />
    <glyph glyph-name="f_f_h" unicode="ffh" horiz-adv-x="2428" 
d="M1513 1389v-525q37 84 131 148t264 63q168 0 264 -100t97 -277v-673q0 -25 -24 -25h-70q-27 0 -27 25v659q0 279 -282 279q-158 -1 -255 -93t-98 -233v-612q0 -25 -22 -25h-72q-25 0 -24 25v1306q-82 17 -215 17q-132 0 -190 -52t-58 -166v-79h213q27 0 26 -27v-57
q0 -25 -26 -25h-213v-917q0 -25 -23 -25h-71q-25 0 -25 25v917h-463v-917q0 -25 -22 -25h-72q-25 0 -25 25v917h-155q-25 0 -25 25v57q0 27 25 27h155v106q0 143 68 218t197 75q84 0 139 -20q16 -6 16 -25l-2 -55q0 -27 -24 -19q-49 12 -111 12q-164 0 -164 -190v-102h463
v82q0 161 85 241q84 80 284 80t305 -35q26 -7 26 -30z" />
    <glyph glyph-name="f_j" unicode="fj" horiz-adv-x="1107" 
d="M936 1413v-172q0 -23 -25 -22h-65q-25 0 -25 22v172q0 23 25 23h65q25 0 25 -23zM938 1024v-997q0 -133 -50 -197t-163 -63q-66 0 -119 16q-18 4 -18 24l2 60q0 25 36 17t88 -9q105 0 103 166v901h-467v-917q0 -25 -22 -25h-72q-25 0 -25 25v917h-155q-25 0 -25 25v57
q0 27 25 27h155v106q0 143 69 218t200 75q80 0 135 -20q16 -6 16 -25l-2 -55q0 -27 -24 -19q-49 12 -111 12q-164 0 -164 -190v-102h563q25 0 25 -27z" />
    <glyph glyph-name="f_f_j" unicode="ffj" horiz-adv-x="1689" 
d="M1516 1413v-172q0 -23 -23 -22h-68q-25 0 -24 22v172q0 23 24 23h68q23 0 23 -23zM1520 1024v-997q0 -133 -50 -197t-163 -63q-63 0 -121 16q-16 2 -17 24l2 60q0 25 27 18q68 -10 86 -10q61 0 89 39t28 125v903h-469v-917q0 -25 -23 -25h-71q-25 0 -25 25v917h-463v-917
q0 -25 -22 -25h-72q-25 0 -25 25v917h-155q-25 0 -25 25v57q0 27 25 27h155v106q0 143 69 218t200 75q80 0 135 -20q16 -6 16 -25l-2 -55q0 -27 -24 -19q-49 12 -111 12q-164 0 -164 -190v-102h463v106q0 143 69 218t199 75q80 0 136 -20q16 -6 16 -25l-2 -55q0 -27 -25 -19
q-49 12 -110 12q-164 0 -164 -190v-102h561q27 0 27 -27z" />
    <glyph glyph-name="f_k" unicode="fk" horiz-adv-x="1624" 
d="M934 1389v-725l477 374q18 12 35 13h104q14 1 18 -11t-9 -22l-551 -428l575 -559q10 -11 5 -21t-17 -10h-105q-18 0 -34 16l-498 490v-481q0 -25 -23 -25h-73q-25 0 -25 25v1306q-82 17 -214 17t-190 -54t-59 -164v-79h213q25 0 25 -27v-57q0 -25 -25 -25h-213v-917
q-2 -25 -22 -25h-72q-25 0 -25 25v917h-155q-25 0 -25 25v57q0 27 25 27h155v82q0 161 86 241q85 80 285 80t305 -35q27 -7 27 -30z" />
    <glyph glyph-name="f_f_k" unicode="ffk" horiz-adv-x="2203" 
d="M1395 25v1306q-82 17 -215 17q-132 0 -190 -52t-58 -166v-79h213q25 0 24 -27v-57q0 -25 -24 -25h-213v-917q0 -25 -23 -25h-71q-25 0 -25 25v917h-463v-917q0 -25 -22 -25h-72q-25 0 -25 25v917h-155q-25 0 -25 25v57q0 27 25 27h155v106q0 143 69 218t200 75
q80 0 135 -20q16 -6 16 -25l-2 -55q0 -27 -24 -19q-49 12 -111 12q-164 0 -164 -190v-102h463v82q0 161 85 241q86 80 286 80t305 -35q27 -8 27 -30v-725l477 374q16 12 35 13h104q12 1 16 -11t-8 -22l-551 -428l574 -559q10 -11 6 -21t-17 -10h-104q-18 0 -35 16l-497 490
v-481q0 -25 -25 -25h-72q-24 0 -24 25z" />
    <glyph glyph-name="f_t" unicode="ft" horiz-adv-x="1308" 
d="M350 1051h467v272q0 25 23 25h67q25 0 25 -25v-272h289q25 0 24 -27v-57q0 -25 -24 -25h-289v-627q0 -127 38 -173t146 -46q39 0 107 15q23 4 26 -21l6 -57q2 -18 -18 -25q-78 -20 -141 -20q-154 0 -218 72t-65 243v639h-463v-917q0 -25 -22 -25h-72q-25 0 -25 25v917
h-155q-25 0 -25 25v57q0 27 25 27h155v106q0 143 69 218t200 75q80 0 135 -20q16 -6 16 -25l-2 -55q0 -27 -24 -19q-49 12 -111 12q-164 0 -164 -190v-102z" />
    <glyph glyph-name="f_f_t" unicode="fft" horiz-adv-x="1890" 
d="M813 1051v106q0 143 69 218t199 75q84 0 136 -20q16 -6 16 -25l-2 -55q0 -27 -25 -19q-49 12 -110 12q-164 0 -164 -190v-102h465v272q0 25 24 25h66q27 0 26 -25v-272h289q23 0 23 -25v-59q0 -25 -23 -25h-289v-627q0 -127 38 -173t145 -46q35 0 102 15q20 2 27 -21
l14 -55q4 -18 -16 -25q-53 -23 -146 -22q-155 0 -219 72t-63 243v639h-463v-917q0 -25 -23 -25h-71q-25 0 -25 25v917h-463v-917q0 -25 -22 -25h-72q-25 0 -25 25v917h-155q-25 0 -25 25v57q0 27 25 27h155v106q0 143 69 218t200 75q80 0 135 -20q16 -6 16 -25l-2 -55
q0 -27 -24 -19q-49 12 -111 12q-164 0 -164 -190v-102h463z" />
    <glyph glyph-name="t_t" unicode="tt" horiz-adv-x="1298" 
d="M1210 942h-290v-627q0 -127 38 -173t146 -46q31 0 102 15q20 2 27 -21l14 -55q4 -18 -16 -25q-53 -23 -146 -22q-156 0 -219 72t-63 241v641h-469v-627q0 -127 39 -173t145 -46q31 0 103 15q18 4 24 -21l17 -55q4 -18 -17 -25q-55 -23 -145 -22q-156 0 -219 72t-64 243
v639h-160q-25 0 -24 25v57q0 27 24 27h162v272q0 25 25 25h65q25 0 25 -25v-272h471v272q0 25 24 25h66q25 0 25 -25v-272h290q23 0 23 -27v-57q0 -25 -23 -25z" />
    <glyph glyph-name="t_t_f" unicode="ttf" horiz-adv-x="1853" 
d="M920 942v-627q0 -127 38 -173t146 -46q41 0 102 15q23 4 27 -21l10 -57q2 -18 -18 -25q-78 -20 -140 -20q-155 0 -219 72t-63 241v641h-469v-627q0 -127 39 -173t145 -46q31 0 103 15q18 2 24 -21l12 -55q4 -18 -16 -25q-55 -23 -141 -22q-156 0 -219 72t-64 243v639
h-160q-25 0 -24 25v57q0 27 24 27h162v272q0 25 25 25h65q25 0 25 -25v-272h471v272q0 25 24 25h66q25 0 25 -25v-272h477v106q0 143 68 218q69 75 198 75q82 0 137 -20q14 -8 15 -25l-3 -55q0 -27 -24 -19q-49 12 -111 12q-162 0 -161 -190v-102h260q25 0 24 -27v-57
q0 -25 -24 -25h-260v-917q0 -25 -25 -25h-72q-23 0 -22 25v917h-477z" />
    <glyph glyph-name=".notdef" horiz-adv-x="1007" 
d="M504 616l-342 -516h684zM504 797l344 516h-686zM100 1223v-1030l344 514zM907 193v1030l-344 -516zM0 1413h1008v-1413h-1008v1413z" />
    <glyph glyph-name=".null" horiz-adv-x="0" 
 />
    <glyph glyph-name="nonmarkingreturn" horiz-adv-x="681" 
 />
    <glyph glyph-name="space" unicode=" " horiz-adv-x="622" 
 />
    <glyph glyph-name="exclam" unicode="!" horiz-adv-x="565" 
d="M309 389h-53q-25 0 -25 27l-22 995q0 25 24 25h99q25 0 24 -25l-22 -995q0 -27 -25 -27zM201 25v145q0 23 22 23h119q23 0 23 -23v-145q0 -25 -23 -25h-119q-22 0 -22 25z" />
    <glyph glyph-name="quotedbl" unicode="&#x22;" horiz-adv-x="632" 
d="M391 1403q-1 63 61 63t62 -70t-6 -124l-23 -287h-63l-25 287q-6 111 -6 131zM119 1396q0 70 61 70q62 0 62 -70t-6 -124l-25 -287h-61l-25 287q-6 54 -6 124z" />
    <glyph glyph-name="numbersign" unicode="#" horiz-adv-x="1296" 
d="M520 930l-119 -432h375l115 432h-371zM1231 1028q25 0 24 -24v-50q0 -25 -24 -24h-232l-116 -432h198q25 0 25 -25v-49q0 -25 -25 -25h-225l-104 -399q-6 -27 -29 -20l-55 16q-23 8 -17 31l99 372h-373l-105 -399q-6 -27 -30 -20l-54 16q-25 6 -18 31l100 372h-204
q-27 0 -27 25v49q0 25 27 25h231l115 432h-197q-25 0 -25 24v50q0 25 25 24h223l109 410q6 23 28 16l56 -12q25 -4 16 -31l-100 -383h371l108 410q6 25 31 16l53 -12q24 -6 18 -31l-102 -383h205z" />
    <glyph glyph-name="dollar" unicode="$" horiz-adv-x="1132" 
d="M631 1618v-162q180 -2 321 -61q23 -12 15 -31l-23 -66q-8 -23 -33 -14q-135 57 -307 57q-172 -1 -264 -67t-92 -162t32 -134q32 -36 48 -53t59 -40l62 -29q39 -22 151 -63q215 -88 289 -144q149 -109 149 -282t-110 -266t-293 -111v-170q0 -25 -25 -25h-49q-25 0 -24 25
v162q-256 0 -414 67q-27 12 -21 31l23 65q8 23 35 13q160 -62 349 -62t296 66q106 66 106 194q0 75 -21 109q-20 33 -32 50t-43 37t-45 32t-56 30t-91 40t-95 36q-201 80 -266 127q-143 102 -143 285q0 146 106 242t305 110v164q0 23 27 22h49q25 1 25 -22z" />
    <glyph glyph-name="percent" unicode="%" horiz-adv-x="1849" 
d="M1645 408q1 156 -55 238t-160 81q-216 0 -216 -319t216 -320q104 0 160 82t55 238zM1104 408q0 204 87 312t239 108t238 -110q86 -108 85 -310q0 -202 -87 -312q-87 -108 -238 -108q-152 0 -238 108t-86 312zM422 1350q-104 0 -160 -83t-57 -238q0 -155 56 -237
q57 -82 161 -81q104 -1 160 81t55 237q0 155 -56 238q-55 83 -159 83zM98 1029q0 205 86 313t237 108t237 -109t87 -311q0 -202 -86 -312q-85 -108 -237 -108t-238 108t-86 311zM512 0h-72q-29 0 -14 27l874 1390q10 18 37 19h74q26 0 12 -25l-876 -1391q-14 -20 -35 -20z
" />
    <glyph glyph-name="ampersand" unicode="&#x26;" horiz-adv-x="1464" 
d="M688 94q279 0 402 129l-519 559q-170 -31 -256 -124t-86 -234q0 -142 127 -236t332 -94zM1282 686q45 0 45 -168t-90 -293l186 -198q6 -11 2 -19t-14 -8h-88q-25 0 -59 35l-99 108q-158 -160 -479 -159q-266 0 -426 118t-160 322q0 168 106 286t290 156l-47 52
q-70 76 -101 134t-31 134q0 272 367 272q156 0 264 -49q31 -12 21 -31l-23 -51q-12 -25 -39 -12q-92 39 -217 39q-260 0 -260 -168q0 -75 63 -155q19 -24 72 -81l594 -641q59 88 60 230q-1 31 -11 73t-10 47q-2 27 23 27h61z" />
    <glyph glyph-name="quotesingle" unicode="'" horiz-adv-x="362" 
d="M119 1396q0 70 61 70q62 0 62 -70t-6 -124l-25 -287h-61l-25 287q-6 54 -6 124z" />
    <glyph glyph-name="parenleft" unicode="(" horiz-adv-x="722" 
d="M195 608q0 238 97 456t236 374q10 16 33 16h62q12 0 15 -8t-3 -14q-137 -156 -226 -376q-182 -450 0 -891q89 -218 226 -378q12 -27 -12 -27h-62q-20 0 -33 17q-141 157 -237 375t-96 456z" />
    <glyph glyph-name="parenright" unicode=")" horiz-adv-x="722" 
d="M530 609q0 -237 -96 -455t-235 -377q-16 -16 -35 -17h-62q-25 0 -12 27q137 154 226 374t90 447q0 228 -90 448t-226 376q-6 6 -3 14t15 8h62q20 0 35 -16q139 -156 235 -374t96 -455z" />
    <glyph glyph-name="asterisk" unicode="*" horiz-adv-x="794" 
d="M398 772q-26 0 -39 16t0 132q12 116 14 145q-27 -17 -102 -69t-99 -66q-44 -29 -62 3t-13 44t32 31q57 30 217 102q-33 16 -114 54t-103 53q-49 27 -25 65q20 37 68 10q24 -12 96 -63t103 -72l-19 240q0 31 8 42t35 11t35 -11t8 -37t-16 -245q195 131 201 135
q45 27 67 -12t-24 -66q-23 -14 -108 -52t-109 -50q39 -20 117 -57t100 -47q45 -29 23 -68t-66 -10q-25 14 -101 67t-98 68l18 -240q0 -29 -9 -41t-35 -12z" />
    <glyph glyph-name="plus" unicode="+" horiz-adv-x="1191" 
d="M1042 655h-391v-393q0 -23 -22 -22h-64q-27 0 -26 22v393h-389q-25 0 -25 23v59q0 23 25 23h389v389q0 25 26 25h64q23 0 22 -25v-389h391q25 0 25 -23v-59q0 -23 -25 -23z" />
    <glyph glyph-name="comma" unicode="," horiz-adv-x="440" 
d="M207 -229h-33q-20 0 -14 24l43 205h-37q-25 0 -25 25v141q0 25 25 24h108q25 0 25 -24v-133q0 -21 -4 -33l-64 -211q-6 -18 -24 -18z" />
    <glyph glyph-name="hyphen" unicode="-" horiz-adv-x="798" 
d="M682 477h-569q-23 0 -23 23v59q0 23 25 23h567q25 0 25 -23v-59q0 -23 -25 -23z" />
    <glyph glyph-name="period" unicode="." horiz-adv-x="440" 
d="M141 25v141q0 25 25 24h108q25 0 25 -24v-141q0 -25 -23 -25h-110q-25 0 -25 25z" />
    <glyph glyph-name="slash" unicode="/" horiz-adv-x="856" 
d="M745 1436h68q33 0 18 -29l-686 -1382q-12 -25 -34 -25h-68q-32 0 -18 29l684 1384q12 23 36 23z" />
    <glyph glyph-name="zero" unicode="0" horiz-adv-x="1361" 
d="M256 718q0 -622 424 -622q213 0 319 161q107 161 107 463t-106 462t-320 159q-424 -1 -424 -623zM680 1458q268 0 410 -191t143 -547q0 -356 -142 -546q-143 -192 -411 -192t-411 191q-142 191 -142 547t142 547q143 191 411 191z" />
    <glyph glyph-name="one" unicode="1" horiz-adv-x="892" 
d="M485 27v1259l-319 -229q-18 -12 -31 4l-45 51q-14 14 4 27l379 286q12 10 33 11h82q25 0 24 -25v-1384q0 -27 -24 -27h-76q-27 0 -27 27z" />
    <glyph glyph-name="two" unicode="2" horiz-adv-x="1263" 
d="M184 940q-37 0 -38 150t115 260q117 108 359 108t357 -118t115 -314q0 -106 -52 -220t-127 -207q-199 -244 -565 -484h739q27 0 27 -27v-61q0 -27 -27 -27h-923q-27 0 -27 27v51q0 20 19 35q807 524 807 909q0 322 -353 321q-184 1 -264 -75t-80 -195l10 -110
q0 -23 -24 -23h-68z" />
    <glyph glyph-name="three" unicode="3" horiz-adv-x="1157" 
d="M858 1075q0 269 -356 269q-180 0 -346 -70q-20 -10 -29 12l-27 64q-6 16 19 26q172 82 396 82t347 -96t123 -270q0 -264 -233 -330q118 -25 196 -111t78 -245q0 -209 -134 -317q-134 -107 -377 -107t-415 81q-23 6 -16 25l25 68q6 23 30 14q177 -76 367 -76t291 80
q100 80 100 232q0 289 -352 288h-150q-27 0 -26 25v61q-1 25 26 25h148q147 1 231 69t84 201z" />
    <glyph glyph-name="four" unicode="4" horiz-adv-x="1310" 
d="M891 449v808l-660 -808h660zM989 0h-76q-25 0 -24 27v311h-774q-25 0 -25 27v63q0 18 12 33l775 956q16 18 32 19h80q25 0 25 -25v-962h227q27 0 27 -25v-59q0 -27 -27 -27h-227v-311q0 -27 -25 -27z" />
    <glyph glyph-name="five" unicode="5" horiz-adv-x="1185" 
d="M1067 434q0 -215 -136 -334q-136 -118 -387 -118t-429 81q-25 14 -17 33l27 62q8 23 31 14q170 -78 376 -78q406 0 406 348q0 160 -87 244t-286 84q-119 0 -229 -32t-117 -32q-8 0 -22 7l-35 12q-16 6 -15 31q39 344 43 653q0 27 29 27h737q27 0 27 -25v-61
q0 -27 -27 -27h-659q-4 -231 -33 -502q143 59 314 60q248 0 368 -116t121 -331z" />
    <glyph glyph-name="six" unicode="6" horiz-adv-x="1282" 
d="M293 478q1 -146 105 -265t279 -119t272 109t97 275t-88 267q-88 103 -272 103t-288 -112t-105 -258zM698 956q238 0 357 -132t119 -348t-130 -355t-362 -139q-268 0 -412 186q-143 186 -143 525t149 552q150 213 441 213q160 0 289 -55q25 -10 18 -27l-25 -65
q-7 -23 -30 -15q-115 49 -244 50q-235 0 -359 -184t-114 -517q27 123 141 217q115 94 305 94z" />
    <glyph glyph-name="seven" unicode="7" horiz-adv-x="1134" 
d="M123 1323q-25 0 -25 27v61q0 25 25 25h881q25 0 24 -25v-57q0 -12 -20 -41q-205 -303 -361 -655t-166 -633q0 -25 -26 -25h-80q-27 0 -25 25q23 303 187 680t350 618h-764z" />
    <glyph glyph-name="eight" unicode="8" horiz-adv-x="1245" 
d="M236 371q0 -125 101 -203t285 -78t284 78q101 78 102 203q0 245 -385 321q-387 -76 -387 -321zM973 1104q0 114 -89 180t-262 66q-174 0 -262 -66t-88 -180t89 -189q89 -74 262 -116q172 43 261 117t89 188zM623 -18q-242 0 -377 106t-135 272q-1 166 107 258
q108 94 282 130q-158 41 -254 131q-96 91 -96 239t119 244q121 96 353 96t353 -97t121 -245t-98 -237q-98 -90 -253 -131q172 -36 280 -130t108 -258t-134 -272q-134 -106 -376 -106z" />
    <glyph glyph-name="nine" unicode="9" horiz-adv-x="1282" 
d="M607 1341q-177 -1 -274 -109t-97 -273t89 -267t273 -102t289 110q104 112 104 262t-103 265q-104 114 -281 114zM563 90q231 0 357 179q125 179 116 511q-26 -115 -142 -208t-310 -93q-236 0 -356 133t-120 349q0 215 131 355q130 140 361 140q268 0 412 -187t143 -526
q0 -339 -147 -551t-437 -212q-170 0 -290 55q-23 8 -17 26l25 64q7 22 30 14q123 -49 244 -49z" />
    <glyph glyph-name="colon" unicode=":" horiz-adv-x="503" 
d="M172 883v143q0 25 25 25h108q25 0 25 -27v-141q0 -23 -25 -23h-108q-25 0 -25 23zM172 25v141q0 25 25 24h108q25 0 25 -24v-141q0 -25 -25 -25h-108q-25 0 -25 25z" />
    <glyph glyph-name="semicolon" unicode=";" horiz-adv-x="503" 
d="M238 -229h-31q-20 0 -17 24l43 205h-36q-25 0 -25 25v141q0 25 25 24h108q25 0 25 -24v-133q0 -21 -4 -33l-64 -211q-6 -18 -24 -18zM172 883v141q0 27 27 27h106q25 0 25 -27v-141q0 -23 -25 -23h-108q-25 0 -25 23z" />
    <glyph glyph-name="less" unicode="&#x3c;" horiz-adv-x="1191" 
d="M135 709q0 18 17 28l788 578q18 16 35 0l39 -49q14 -18 -4 -33l-727 -524l727 -525q18 -16 4 -32l-39 -52q-12 -18 -33 -4l-790 580q-17 15 -17 33z" />
    <glyph glyph-name="equal" unicode="=" horiz-adv-x="1191" 
d="M1022 463h-852q-23 0 -23 24v58q0 23 25 22h850q23 0 22 -22v-58q1 -24 -22 -24zM1022 850h-852q-23 0 -23 22v58q0 23 25 22h850q23 0 22 -22v-58q1 -22 -22 -22z" />
    <glyph glyph-name="greater" unicode="&#x3e;" horiz-adv-x="1191" 
d="M1059 705q0 -16 -19 -29l-792 -580q-20 -16 -33 4l-35 52q-16 18 4 32l729 525l-729 524q-18 12 -4 33l35 49q12 18 33 4l792 -582q19 -16 19 -32z" />
    <glyph glyph-name="question" unicode="?" horiz-adv-x="1052" 
d="M567 492v-78q0 -25 -24 -25h-66q-25 0 -24 27v76q0 126 128 245q54 51 107 105q127 128 127 264q0 238 -330 237q-180 0 -356 -73q-23 -8 -33 12l-24 66q-4 16 16 26q164 84 396 84t346 -95q112 -95 112 -253q0 -90 -39 -167t-94 -130t-109 -101q-132 -117 -133 -220z
M424 25v145q0 23 25 23h116q25 0 25 -23v-145q0 -25 -25 -25h-116q-25 0 -25 25z" />
    <glyph glyph-name="at" unicode="@" horiz-adv-x="1875" 
d="M991 1225q750 0 750 -640q0 -227 -112 -369t-345 -142h-104q-12 0 -21 5q-8 5 -6 17l21 160q-100 -190 -330 -190q-164 0 -252 92t-88 250q0 226 141 380t393 154q162 0 314 -61q16 -8 14 -23l-123 -694h51q190 0 272 115q81 115 81 325q0 535 -658 535q-356 0 -558 -196
t-202 -500t167 -442t536 -138q256 0 416 74q16 4 22 -13l16 -47q2 -10 -12 -16q-168 -82 -442 -82q-406 0 -602 160q-196 161 -195 501t229 562t627 223zM1034 846q-196 0 -306 -121t-110 -311q0 -117 60 -184t178 -66q275 -1 332 325l57 320q-92 37 -211 37z" />
    <glyph glyph-name="A" unicode="A" horiz-adv-x="1343" 
d="M625 1436h94q25 0 33 -27l530 -1382q8 -27 -20 -27h-84q-20 0 -31 23l-146 383h-659l-147 -383q-10 -23 -29 -23h-86q-27 0 -19 27l529 1382q12 27 35 27zM381 522h580l-287 778h-4z" />
    <glyph glyph-name="B" unicode="B" horiz-adv-x="1396" 
d="M317 117h383q246 0 348 64q101 65 101 221t-94 222t-332 64h-406v-571zM709 0h-492q-27 0 -27 27v1384q0 25 27 25h492q266 0 390 -88t124 -275q0 -143 -65 -221t-169 -98q285 -47 285 -353q0 -213 -136 -307t-429 -94zM317 803h400q209 0 295 61q86 62 86 200t-90 196
t-303 59h-388v-516z" />
    <glyph glyph-name="C" unicode="C" horiz-adv-x="1222" 
d="M772 96q160 0 295 72q23 12 35 -16l26 -62q6 -16 -18 -29q-143 -82 -352 -81q-307 0 -471 192t-164 546q0 353 162 547t463 193q211 0 346 -80q27 -12 18 -28l-25 -62q-10 -27 -34 -14q-123 66 -289 65q-252 -1 -381 -159t-129 -462t130 -463t388 -159z" />
    <glyph glyph-name="D" unicode="D" horiz-adv-x="1376" 
d="M553 1317h-236v-1198h238q141 -1 241 27q223 61 293 283q38 122 37 304q0 330 -141 457t-432 127zM555 0h-338q-27 0 -27 27v1384q0 25 25 25h338q350 0 527 -160t177 -554t-176 -558t-526 -164z" />
    <glyph glyph-name="E" unicode="E" horiz-adv-x="1112" 
d="M950 678h-633v-561h660q27 0 27 -25v-65q0 -27 -27 -27h-760q-27 0 -27 27v1384q0 25 25 25h756q27 0 26 -25v-65q0 -27 -26 -27h-654v-526h633q25 0 25 -27v-61q0 -27 -25 -27z" />
    <glyph glyph-name="F" unicode="F" horiz-adv-x="1083" 
d="M956 668h-639v-641q0 -27 -26 -27h-74q-27 0 -27 27v1384q0 25 27 25h752q25 0 24 -23v-67q0 -27 -24 -27h-652v-539h639q27 0 27 -26v-62q0 -24 -27 -24z" />
    <glyph glyph-name="G" unicode="G" horiz-adv-x="1413" 
d="M786 809h439q27 0 26 -27v-651q0 -35 -32 -57q-158 -94 -420 -94q-676 0 -676 739t680 739q211 0 375 -86q27 -12 20 -29l-27 -61q-10 -27 -34 -14q-143 72 -328 71q-285 -1 -420 -153t-135 -468t135 -469t416 -153q190 0 321 68v530h-340q-27 0 -26 25v63q-1 27 26 27z
" />
    <glyph glyph-name="H" unicode="H" horiz-adv-x="1429" 
d="M1112 27v649h-795v-649q0 -27 -26 -27h-74q-27 0 -27 27v1384q0 25 27 25h74q27 0 26 -25v-616h795v616q0 25 27 25h75q25 0 25 -25v-1384q0 -27 -25 -27h-75q-27 0 -27 27z" />
    <glyph glyph-name="I" unicode="I" horiz-adv-x="536" 
d="M205 27v1384q0 25 24 25h76q27 0 27 -25v-1384q0 -27 -27 -27h-76q-24 0 -24 27z" />
    <glyph glyph-name="J" unicode="J" horiz-adv-x="956" 
d="M649 426v985q0 25 27 25h76q25 0 24 -25v-995q0 -438 -397 -439q-184 0 -305 74q-27 18 -19 37l25 64q12 25 33 12q115 -70 258 -70q278 0 278 332z" />
    <glyph glyph-name="K" unicode="K" horiz-adv-x="1220" 
d="M1118 1436q16 0 22 -12t-5 -21l-717 -635l733 -733q16 -16 7 -26q-9 -9 -19 -9h-101q-23 0 -45 23l-676 671v-667q0 -27 -26 -27h-74q-27 0 -27 27v1384q0 25 27 25h74q27 0 26 -25v-582l662 588q20 18 43 19h96z" />
    <glyph glyph-name="L" unicode="L" horiz-adv-x="1079" 
d="M317 1411v-1292h648q27 0 26 -25v-67q0 -27 -26 -27h-748q-27 0 -27 27v1384q0 25 27 25h74q26 0 26 -25z" />
    <glyph glyph-name="M" unicode="M" horiz-adv-x="1626" 
d="M813 426q-23 0 -35 18l-461 770v-1187q0 -27 -26 -27h-74q-27 0 -27 27v1384q0 25 27 25h80q25 0 33 -17l483 -801l483 801q8 16 33 17h80q25 0 25 -25v-1384q0 -27 -25 -27h-76q-25 0 -24 27v1187l-461 -770q-12 -18 -35 -18z" />
    <glyph glyph-name="N" unicode="N" horiz-adv-x="1431" 
d="M1241 1413v-1386q0 -27 -27 -27h-79q-23 0 -37 20l-783 1207v-1200q0 -27 -24 -27h-74q-27 0 -27 27v1384q0 25 27 25h78q29 0 41 -19l780 -1208v1202q0 25 27 25h71q27 0 27 -23z" />
    <glyph glyph-name="O" unicode="O" horiz-adv-x="1445" 
d="M250 719q0 -303 118 -463t356 -160q236 0 354 160t118 463t-118 463t-354 160t-356 -160q-118 -160 -118 -463zM723 1458q295 0 449 -192t155 -548q0 -354 -155 -546q-156 -192 -450 -192t-449 191t-155 547t155 548t450 192z" />
    <glyph glyph-name="P" unicode="P" horiz-adv-x="1304" 
d="M291 0h-74q-27 0 -27 27v1382q0 27 25 27h375q309 0 448 -115q140 -115 140 -376t-140 -376t-448 -114h-273v-428q1 -27 -26 -27zM317 573h273q246 0 352 84t106 288t-106 289t-352 85h-273v-746z" />
    <glyph glyph-name="Q" unicode="Q" horiz-adv-x="1445" 
d="M250 719q0 -303 118 -463t356 -160q236 0 354 160t118 462t-118 463t-356 161t-354 -160q-118 -160 -118 -463zM1137 -66q34 0 65 2t31 -22v-57q0 -19 -12 -25t-52 -6q-301 0 -497 160q-270 16 -412 204q-141 188 -141 536t154 540q155 192 450 192t452 -192t154 -547
q-2 -305 -133 -495t-371 -222q131 -68 312 -68z" />
    <glyph glyph-name="R" unicode="R" horiz-adv-x="1312" 
d="M217 1436h393q298 0 438 -110t140 -345q0 -399 -440 -440l438 -506q10 -11 6 -23t-21 -12h-88q-23 0 -39 20l-438 508h-289v-501q0 -27 -26 -27h-74q-27 0 -27 27v1384q0 25 27 25zM317 645h287q246 0 349 79t103 258t-104 258t-344 79h-291v-674z" />
    <glyph glyph-name="S" unicode="S" horiz-adv-x="1118" 
d="M1020 354q0 -176 -134 -274t-376 -98t-389 63q-27 12 -21 31l25 65q8 25 31 15q146 -60 340 -60t296 70q101 70 101 196t-97 192q-97 67 -237 124q-5 1 -17 7q-10 5 -56 23q-214 87 -280 166q-77 95 -77 228q0 168 115 262t337 94t359 -59q25 -8 18 -29l-24 -63
q-6 -25 -33 -15q-123 49 -295 49q-350 0 -350 -239q0 -106 60 -160q24 -22 38 -35q14 -12 52 -30l54 -27q17 -8 64 -28t149 -64q102 -45 120 -56q18 -12 62 -40t57 -44q13 -18 42 -50t38 -62q28 -92 28 -152z" />
    <glyph glyph-name="T" unicode="T" horiz-adv-x="1093" 
d="M66 1343v68q0 25 24 25h914q25 0 24 -25v-68q0 -27 -24 -26h-394v-1290q0 -27 -26 -27h-74q-27 0 -27 27v1290h-391q-26 -1 -26 26z" />
    <glyph glyph-name="U" unicode="U" horiz-adv-x="1404" 
d="M702 -25q-264 1 -394 137t-130 390v909q0 25 27 25h74q27 0 26 -25v-901q0 -418 397 -418t398 418v901q0 25 24 25h76q25 0 25 -25v-909q1 -254 -129 -390t-394 -137z" />
    <glyph glyph-name="V" unicode="V" horiz-adv-x="1320" 
d="M709 0h-97q-27 0 -37 27l-495 1380q-10 29 18 29h84q20 0 31 -25l330 -919l116 -357h3l116 359l332 917q6 25 31 25h82q31 0 20 -29l-498 -1380q-9 -27 -36 -27z" />
    <glyph glyph-name="W" unicode="W" horiz-adv-x="2076" 
d="M995 1436h86q29 0 35 -25l256 -874l113 -406h4l104 395l258 885q6 25 31 25h80q29 0 20 -31l-405 -1376q-8 -29 -37 -29h-102q-29 0 -37 27l-264 880l-97 350h-4l-96 -350l-264 -880q-8 -27 -37 -27h-102q-29 0 -37 29l-404 1376q-8 31 19 31h82q23 0 28 -25l258 -885
l105 -393h4l110 404l259 874q5 25 34 25z" />
    <glyph glyph-name="X" unicode="X" horiz-adv-x="1263" 
d="M174 0h-86q-12 0 -17 10t3 19l487 694l-477 684q-6 10 -2 19t18 10h88q23 0 35 -21l410 -590l405 590q14 20 37 21h88q11 0 17 -10t0 -19l-480 -684l490 -694q6 -9 2 -19t-16 -10h-84q-27 0 -41 23l-418 602l-418 -602q-16 -23 -41 -23z" />
    <glyph glyph-name="Y" unicode="Y" horiz-adv-x="1280" 
d="M705 27q0 -27 -27 -27h-76q-25 0 -24 27v510l-504 870q-6 10 -2 19t18 10h84q23 0 35 -23l309 -541l121 -225l123 225l309 541q10 23 35 23h84q31 0 16 -29l-501 -870v-510z" />
    <glyph glyph-name="Z" unicode="Z" horiz-adv-x="1193" 
d="M123 27v63q0 18 16 47l770 1180h-745q-25 0 -25 26v68q0 25 25 25h864q25 0 25 -25v-65q0 -23 -15 -46l-766 -1181h766q27 0 27 -25v-67q0 -27 -27 -27h-891q-24 0 -24 27z" />
    <glyph glyph-name="bracketleft" unicode="[" horiz-adv-x="722" 
d="M610 -150v-51q0 -25 -24 -24h-312q-25 0 -24 24v1614q0 23 24 23h312q25 0 24 -23v-53q0 -25 -24 -25h-219v-1460h219q24 0 24 -25z" />
    <glyph glyph-name="backslash" unicode="\" horiz-adv-x="856" 
d="M813 0h-68q-25 0 -36 25l-684 1382q-12 29 18 29h68q24 0 34 -23l686 -1384q14 -29 -18 -29z" />
    <glyph glyph-name="bracketright" unicode="]" horiz-adv-x="727" 
d="M117 -201v51q0 25 24 25h219v1460h-219q-25 0 -24 25v53q0 23 24 23h312q25 0 24 -23v-1614q0 -25 -24 -24h-312q-24 -1 -24 24z" />
    <glyph glyph-name="asciicircum" unicode="^" horiz-adv-x="1191" 
d="M565 1436h62q25 0 35 -21l401 -688q16 -31 -19 -31h-71q-23 0 -37 23l-340 594l-340 -594q-14 -23 -37 -23h-72q-14 0 -19 8t3 23l401 688q10 21 33 21z" />
    <glyph glyph-name="underscore" unicode="_" horiz-adv-x="972" 
d="M903 -182h-831q-25 0 -25 24v41q0 23 25 23h831q23 0 23 -23v-41q0 -24 -23 -24z" />
    <glyph glyph-name="grave" unicode="`" horiz-adv-x="677" 
d="M467 1198h-43q-18 0 -39 16l-190 183q-10 8 -8 19q3 11 18 11h106q25 0 41 -20l127 -184q6 -9 3 -17t-15 -8z" />
    <glyph glyph-name="a" unicode="a" horiz-adv-x="1116" 
d="M842 406v118q-365 -13 -453 -45q-130 -44 -164 -106q-20 -39 -20 -92q0 -88 64 -144q65 -55 190 -55q183 0 283 92t100 232zM958 705v-680q0 -25 -24 -25h-66q-23 0 -22 25v170q-104 -213 -406 -213q-168 0 -260 80t-92 218t100 214q101 73 261 97q159 24 393 30v79
q0 138 -67 202t-229 64t-329 -69q-25 -10 -31 14l-18 60q-6 18 14 28q174 76 381 76t301 -92t94 -278z" />
    <glyph glyph-name="b" unicode="b" horiz-adv-x="1257" 
d="M295 25q0 -25 -23 -25h-69q-27 0 -27 25v1388q0 23 27 23h69q25 0 25 -23v-569q45 111 147 171t242 60q217 0 339 -141q122 -142 122 -408t-122 -406t-339 -140q-299 0 -391 227v-182zM297 526q0 -216 95 -328t274 -112q358 0 358 441t-358 442q-178 0 -274 -114
t-95 -329z" />
    <glyph glyph-name="c" unicode="c" horiz-adv-x="1003" 
d="M111 528q0 260 131 404t356 143q176 0 287 -63q25 -14 16 -31l-24 -57q-8 -25 -35 -13q-100 53 -232 54q-180 0 -278 -111t-98 -326q0 -216 98 -328t258 -112t266 62q23 10 31 -13l24 -59q6 -16 -18 -29q-117 -70 -287 -69q-229 0 -362 144t-133 404z" />
    <glyph glyph-name="d" unicode="d" horiz-adv-x="1257" 
d="M963 25v182q-94 -227 -392 -227q-217 0 -339 140t-121 406q0 266 121 408q122 141 339 141q139 0 241 -60t149 -171v569q0 23 24 23h70q27 0 26 -23v-1388q0 -25 -26 -25h-70q-22 0 -22 25zM963 526q1 213 -97 328t-274 115q-358 1 -358 -441t358 -442q176 0 274 114
t97 326z" />
    <glyph glyph-name="e" unicode="e" horiz-adv-x="1138" 
d="M582 971q-336 0 -353 -400h684v17q1 174 -83 278t-248 105zM620 80q171 0 293 67q23 12 35 -14l21 -53q6 -18 -17 -29q-143 -76 -325 -76q-244 1 -380 147t-136 405t125 403t343 145q219 0 335 -136t116 -359v-84q0 -25 -26 -25h-775q8 -179 114 -285t277 -106z" />
    <glyph glyph-name="f" unicode="f" horiz-adv-x="688" 
d="M350 1051h262q23 0 23 -27v-57q0 -25 -23 -25h-262v-917q0 -25 -22 -25h-72q-25 0 -25 25v917h-155q-25 0 -25 25v57q0 27 25 27h155v106q0 143 69 218t200 75q80 0 135 -20q16 -6 16 -25l-2 -55q0 -27 -24 -19q-49 12 -111 12q-164 0 -164 -190v-102z" />
    <glyph glyph-name="g" unicode="g" horiz-adv-x="1189" 
d="M1020 1024v-877q0 -193 -120 -295t-331 -102t-350 66q-18 12 -14 24l22 60q6 25 29 16q139 -59 304 -59q165 -1 253 75t88 224v145q-41 -101 -136 -157t-220 -56q-199 0 -317 125t-117 367q-1 242 115 368t315 127q123 0 222 -55t138 -150v156q0 25 27 25h67q25 0 25 -27
zM901 590q0 190 -89 286t-249 95q-332 0 -332 -390t332 -391q158 0 248 106q90 104 90 294z" />
    <glyph glyph-name="h" unicode="h" horiz-adv-x="1210" 
d="M1051 700v-675q0 -25 -23 -25h-72q-25 0 -24 25v659q0 279 -285 279q-158 -1 -254 -93t-96 -233v-612q0 -25 -25 -25h-69q-27 0 -27 25v1388q0 23 27 23h69q25 0 25 -23v-549q35 84 130 148t264 63q169 1 265 -99t95 -276z" />
    <glyph glyph-name="i" unicode="i" horiz-adv-x="464" 
d="M293 1395v-170q0 -25 -25 -25h-71q-23 0 -23 25v170q0 25 23 24h71q25 1 25 -24zM293 1024v-999q0 -25 -25 -25h-71q-23 0 -23 25v999q0 27 23 27h71q25 0 25 -27z" />
    <glyph glyph-name="j" unicode="j" horiz-adv-x="483" 
d="M311 1395v-170q0 -25 -24 -25h-72q-23 0 -22 25v170q0 25 22 24h72q24 1 24 -24zM193 39v985q0 27 22 27h72q25 0 24 -27v-997q0 -133 -50 -197t-163 -63q-74 0 -116 14q-20 2 -21 24l2 62q0 23 27 18q51 -10 100 -10q103 0 103 164z" />
    <glyph glyph-name="k" unicode="k" horiz-adv-x="987" 
d="M934 0h-105q-18 0 -34 16l-498 490v-481q0 -25 -25 -25h-69q-27 0 -27 25v1388q0 23 27 23h69q25 0 25 -23v-749l477 374q16 12 35 13h104q13 1 17 -11t-8 -22l-551 -428l575 -559q10 -11 5 -21t-17 -10z" />
    <glyph glyph-name="l" unicode="l" horiz-adv-x="464" 
d="M293 1413v-1388q0 -25 -25 -25h-71q-23 0 -23 25v1388q0 23 23 23h71q25 0 25 -23z" />
    <glyph glyph-name="m" unicode="m" horiz-adv-x="1837" 
d="M983 666v-641q0 -25 -25 -25h-69q-25 0 -25 25v671q0 266 -250 267q-145 0 -235 -87t-90 -227v-624q0 -25 -25 -25h-69q-27 0 -27 25v999q0 27 27 27h69q25 0 25 -25v-158q29 82 118 144t232 63q262 0 319 -215q94 215 375 215q170 0 257 -98t87 -268v-684q0 -25 -24 -25
h-70q-25 0 -24 25v669q0 268 -252 269q-141 0 -233 -84t-91 -213z" />
    <glyph glyph-name="n" unicode="n" horiz-adv-x="1193" 
d="M1034 700v-675q0 -25 -24 -25h-70q-25 0 -25 25v661q0 276 -280 277q-156 -1 -252 -91t-96 -233v-614q0 -25 -25 -25h-72q-23 0 -22 25v999q0 27 22 27h70q25 0 25 -25l2 -160q98 209 375 209q184 1 278 -99t94 -276z" />
    <glyph glyph-name="o" unicode="o" horiz-adv-x="1193" 
d="M596 86q176 0 270 112t94 328t-94 330q-94 113 -270 113t-269 -113t-93 -330q0 -216 92 -328q94 -112 270 -112zM596 -20q-229 0 -357 143t-128 404t128 405t357 143q229 0 358 -143q129 -142 129 -404t-129 -405t-358 -143z" />
    <glyph glyph-name="p" unicode="p" horiz-adv-x="1249" 
d="M287 1026v-182q45 111 148 171t243 60q217 0 339 -141q122 -142 122 -408t-122 -406t-339 -140q-299 0 -389 227v-408q0 -25 -25 -24h-69q-27 0 -27 24v1225q0 27 27 27h67q25 0 25 -25zM289 526q0 -212 96 -326t272 -114q359 0 359 441t-359 442q-176 0 -272 -115
t-96 -328z" />
    <glyph glyph-name="q" unicode="q" horiz-adv-x="1249" 
d="M963 1026q0 25 22 25h70q27 0 26 -27v-1225q0 -25 -26 -24h-70q-25 0 -24 24v404q-90 -223 -390 -223q-217 0 -339 140t-121 406q0 266 121 408q122 141 339 141q139 0 243 -60t149 -171v182zM963 526q1 213 -97 328t-274 115q-358 1 -358 -441t358 -442q176 0 274 114
t97 326z" />
    <glyph glyph-name="r" unicode="r" horiz-adv-x="733" 
d="M289 535v-510q0 -25 -25 -25h-69q-27 0 -27 25v999q0 27 27 27h69q25 0 25 -25v-225q33 92 126 173t230 81q20 0 21 -19v-88q0 -23 -23 -22l-39 4q-127 0 -221 -122t-94 -273z" />
    <glyph glyph-name="s" unicode="s" horiz-adv-x="927" 
d="M831 264q0 -285 -387 -284q-197 0 -338 59q-23 10 -18 24l21 60q8 25 28 14q133 -53 287 -53t221 43q68 43 68 137t-85 146q-77 46 -184 83q-108 37 -120 43t-44 18q-32 13 -44 21l-37 25q-25 16 -35 30t-26 34q-42 52 -42 147q0 264 355 264q186 0 315 -59
q20 -10 14 -27l-18 -55q-6 -20 -29 -14q-127 51 -264 51t-197 -38q-60 -39 -59 -115q0 -76 48 -124q38 -40 174 -87q137 -49 188 -73q140 -67 183 -151q25 -51 25 -119z" />
    <glyph glyph-name="t" unicode="t" horiz-adv-x="712" 
d="M623 942h-289v-627q0 -127 39 -173t145 -46q31 0 103 15q18 2 24 -21l17 -55q4 -18 -17 -25q-55 -23 -145 -22q-156 0 -219 72t-64 243v639h-160q-25 0 -24 25v57q0 27 24 27h162v272q0 25 25 25h65q25 0 25 -25v-272h289q25 0 24 -27v-57q1 -25 -24 -25z" />
    <glyph glyph-name="u" unicode="u" horiz-adv-x="1177" 
d="M154 360v664q0 27 24 27h70q25 0 24 -27v-645q0 -289 277 -289q150 0 245 88t95 232v614q0 27 24 27h72q23 0 23 -27v-999q0 -25 -23 -25h-72q-25 0 -24 25v161q-37 -84 -125 -145t-257 -61t-261 100t-92 280z" />
    <glyph glyph-name="v" unicode="v" horiz-adv-x="999" 
d="M543 0h-86q-20 0 -31 23l-365 999q-10 29 19 29h76q20 0 26 -25l203 -555l113 -340h4l112 340l203 555q6 25 27 25h78q29 0 18 -29l-367 -999q-10 -23 -30 -23z" />
    <glyph glyph-name="w" unicode="w" horiz-adv-x="1630" 
d="M776 1051h76q23 0 29 -25l229 -704l55 -197h4l50 197l211 704q6 25 26 25h76q29 0 20 -29l-307 -999q-6 -23 -31 -23h-86q-25 0 -30 23l-219 667l-62 213h-4l-59 -213l-219 -667q-6 -23 -31 -23h-86q-23 0 -29 23l-311 999q-8 29 20 29h76q20 0 27 -25l213 -704l49 -197
h4l55 197l228 704q6 25 26 25z" />
    <glyph glyph-name="x" unicode="x" horiz-adv-x="995" 
d="M911 1051q13 1 17 -9t-4 -22l-361 -488l373 -503q8 -9 4 -19t-16 -10h-88q-18 0 -31 16l-307 426l-308 -426q-10 -16 -30 -16h-90q-10 0 -15 9q-4 9 4 20l371 503l-360 488q-8 12 -5 21t15 10h90q17 -1 31 -19l299 -407l295 407q10 18 32 19h84z" />
    <glyph glyph-name="y" unicode="y" horiz-adv-x="995" 
d="M285 -233q-76 0 -138 20q-25 8 -18 25l16 59q6 20 29 16q78 -14 105 -14q96 0 140 62t17 133l-373 954q-10 29 17 29h76q18 0 28 -25l215 -561l119 -336h4l107 336l188 561q6 25 27 25h76q28 0 18 -29l-342 -981q-49 -150 -117 -212t-194 -62z" />
    <glyph glyph-name="z" unicode="z" horiz-adv-x="983" 
d="M872 1024v-47q0 -18 -10 -35l-602 -833h586q27 0 26 -23v-61q0 -25 -26 -25h-715q-25 0 -25 25v49q0 16 11 32l604 834h-578q-25 0 -24 25v59q0 27 24 27h705q24 0 24 -27z" />
    <glyph glyph-name="braceleft" unicode="{" horiz-adv-x="722" 
d="M96 573v64q0 25 25 25h35q76 0 110 93t33 302q0 209 50 294t202 85h67q27 0 27 -23v-55q0 -25 -27 -25h-47q-100 1 -130 -65t-29 -238q0 -383 -146 -424q145 -45 146 -424q0 -172 30 -238t129 -67h47q27 0 27 -24v-54q0 -25 -27 -24h-67q-152 0 -202 86t-50 294t-34 302
t-109 94h-35q-25 -1 -25 22z" />
    <glyph glyph-name="bar" unicode="|" horiz-adv-x="536" 
d="M326 1450v-1651q0 -25 -25 -24h-65q-25 0 -25 24v1651q0 25 25 25h65q25 0 25 -25z" />
    <glyph glyph-name="braceright" unicode="}" horiz-adv-x="722" 
d="M627 637v-64q0 -23 -23 -22h-35q-75 0 -109 -94t-34 -301t-51 -294t-201 -87h-70q-27 0 -26 24v54q0 25 26 24h50q100 0 129 67t28 238q0 379 148 424q-147 43 -148 424q0 172 -28 238q-29 66 -129 65h-50q-27 0 -26 25v55q0 23 26 23h70q150 0 201 -86t51 -294t34 -301
t109 -93h35q23 0 23 -25z" />
    <glyph glyph-name="asciitilde" unicode="~" horiz-adv-x="1187" 
d="M361 850q75 0 194 -47l94 -37q113 -43 164 -43t92 63q14 16 21 45q8 25 37 11l43 -21q20 -8 14 -39q-16 -82 -68 -130t-127 -48q-74 0 -192 47l-94 39q-104 41 -162 41t-96 -63q-11 -20 -19 -45t-37 -11l-43 21q-20 8 -16 37q14 84 67 132t128 48z" />
    <glyph glyph-name="uni00A0" unicode="&#xa0;" horiz-adv-x="0" 
 />
    <glyph glyph-name="exclamdown" unicode="&#xa1;" horiz-adv-x="557" 
d="M250 659h57q23 0 23 -26l22 -834q0 -25 -24 -24h-99q-25 0 -24 24l22 834q0 26 23 26zM360 1024v-143q0 -25 -22 -25h-117q-25 0 -24 25v143q0 27 22 27h119q22 0 22 -27z" />
    <glyph glyph-name="cent" unicode="&#xa2;" horiz-adv-x="1038" 
d="M111 524q0 244 121 388q122 144 331 161v156q0 27 25 26h49q25 0 25 -26v-158q152 -6 256 -65q20 -12 14 -27l-25 -57q-8 -27 -33 -13q-100 55 -266 55t-270 -112q-104 -113 -104 -328q0 -216 100 -326t272 -110t281 59q20 12 33 -12l22 -57q4 -16 -16 -29
q-102 -59 -264 -67v-162q0 -25 -25 -25h-49q-25 0 -25 25v162q-213 16 -333 157q-119 141 -119 385z" />
    <glyph glyph-name="sterling" unicode="&#xa3;" horiz-adv-x="1359" 
d="M342 1068q0 -108 102 -294h453q25 0 25 -22v-52q0 -25 -25 -24h-412q72 -125 72 -224q0 -98 -59 -192t-172 -143q92 29 188 29t227 -24t231 -24t141 58q40 58 42 170q0 29 27 28h55q29 0 29 -32q0 -164 -62 -250t-229 -86q-101 0 -239 28t-236 27q-182 0 -318 -57
q-25 -8 -32 4l-37 63q-12 16 6 27q315 174 315 381q0 92 -76 217h-221q-23 0 -22 24v52q0 23 22 22h178q-98 172 -98 285q0 167 130 283q129 116 367 116t357 -98t119 -254q0 -84 -31 -84h-61q-25 0 -25 22l4 60q0 102 -90 171t-266 69t-278 -84q-101 -84 -101 -192z" />
    <glyph glyph-name="currency" unicode="&#xa4;" horiz-adv-x="1292" 
d="M987 580q0 158 -90 244t-252 85q-162 0 -253 -86q-91 -85 -91 -243t91 -244t253 -86t252 86t90 244zM199 580q0 178 94 284l-117 119q-16 16 0 35l33 33q20 16 35 0l121 -123q109 82 283 82t278 -84l125 125q16 16 32 0l33 -33q18 -18 0 -35l-121 -121q95 -112 95 -286
t-95 -281l121 -119q18 -16 0 -35l-33 -32q-16 -16 -32 0l-125 122q-102 -81 -280 -81t-281 81l-121 -122q-16 -18 -35 0l-33 32q-16 19 0 35l117 115q-94 111 -94 289z" />
    <glyph glyph-name="yen" unicode="&#xa5;" horiz-adv-x="1298" 
d="M715 377v-350q0 -27 -27 -27h-76q-27 0 -26 27v350h-418q-23 0 -23 24v50q0 23 23 22h418v57l-90 148h-328q-23 0 -23 22v50q0 23 23 22h278l-380 635q-16 29 16 29h84q23 0 35 -23l448 -762h2l449 762q14 23 35 23h82q33 0 16 -29l-381 -635h278q25 0 25 -22v-50
q0 -23 -25 -22h-327l-88 -148v-57h415q25 0 25 -22v-50q0 -25 -25 -24h-415z" />
    <glyph glyph-name="brokenbar" unicode="&#xa6;" horiz-adv-x="536" 
d="M326 426v-627q0 -25 -25 -24h-65q-25 0 -25 24v627q0 25 25 25h65q25 0 25 -25zM326 1450v-627q0 -25 -25 -24h-65q-25 0 -25 24v627q0 25 25 25h65q25 0 25 -25z" />
    <glyph glyph-name="section" unicode="&#xa7;" horiz-adv-x="1445" 
d="M344 652q0 -82 77 -129t203 -91t154 -55q135 6 228 62q92 55 93 111t-29 97q-48 66 -233 138q-65 26 -182 67q-143 -2 -227 -60t-84 -140zM301 1176q0 142 102 210t314 68t393 -45q27 -6 27 -29v-55q0 -29 -31 -18q-150 41 -340 41t-265 -45t-75 -127t81 -130
q81 -50 243 -114t218 -90q172 -79 218 -161q29 -50 28 -114q0 -94 -85 -163t-236 -91q262 -113 262 -270q0 -279 -487 -279q-252 0 -344 31q-27 8 -27 35v53q0 27 31 21q197 -33 329 -33q373 0 373 178q0 83 -99 138q-78 45 -178 84t-230 91t-189 91q-105 71 -107 183
t81 190q83 79 229 92q-78 38 -120 66t-79 79t-37 113z" />
    <glyph glyph-name="dieresis" unicode="&#xa8;" horiz-adv-x="677" 
d="M580 1370v-147q0 -25 -23 -25h-80q-25 0 -24 25v147q0 25 24 25h80q23 0 23 -25zM223 1370v-147q0 -25 -22 -25h-80q-25 0 -25 25v147q0 25 25 25h80q22 0 22 -25z" />
    <glyph glyph-name="copyright" unicode="&#xa9;" horiz-adv-x="1726" 
d="M121 719q0 431 333 635q171 104 408 104q180 0 324 -59q267 -109 374 -399q48 -132 48 -282q0 -305 -187 -516q-90 -102 -234 -162t-325 -60q-238 0 -408 104t-252 268q-81 164 -81 367zM207 719q0 -279 171 -467t485 -188q313 0 485 188t172 467t-171 467t-485 188
t-486 -188q-171 -188 -171 -467zM891 393q133 0 215 47q20 10 24 -10l23 -53q4 -12 -12 -23q-102 -57 -269 -57t-282 112q-115 113 -115 317t115 314t301 109q145 0 244 -57q16 -8 12 -21l-23 -53q-8 -23 -24 -12q-76 47 -209 47t-219 -86t-86 -242t86 -244t219 -88z" />
    <glyph glyph-name="ordfeminine" unicode="&#xaa;" horiz-adv-x="931" 
d="M698 1028v111q-32 -59 -112 -107t-221 -47q-141 0 -221 66q-78 66 -78 183t90 178t224 78t318 21v72q0 111 -54 158t-190 47t-274 -59q-23 -10 -30 12l-21 53q-6 16 14 25q150 68 318 67q344 0 344 -297v-561q0 -31 -29 -31h-47q-31 0 -31 31zM698 1329v94
q-221 -4 -305 -18t-126 -36q-95 -50 -95 -146q0 -66 52 -107t155 -41q155 -1 237 71t82 183z" />
    <glyph glyph-name="guillemotleft" unicode="&#xab;" horiz-adv-x="802" 
d="M399 543q0 8 2 14l172 272q10 20 33 21h62q33 0 14 -29l-174 -276l174 -279q16 -27 -14 -26h-62q-20 0 -33 18l-172 272q-2 5 -2 13zM82 544q0 7 2 13l172 272q10 20 33 21h61q14 0 18 -9t-3 -20l-175 -278l175 -277q8 -10 4 -18t-19 -8h-61q-20 0 -33 18l-172 272
q-2 7 -2 14z" />
    <glyph glyph-name="logicalnot" unicode="&#xac;" horiz-adv-x="1196" 
d="M1024 741v-405q0 -25 -25 -25h-67q-25 0 -25 25v321h-760q-25 0 -24 25v59q0 25 24 25h852q25 0 25 -25z" />
    <glyph glyph-name="uni00AD" unicode="&#xad;" horiz-adv-x="796" 
d="M682 477h-569q-23 0 -23 23v59q0 23 25 23h567q25 0 25 -23v-59q0 -23 -25 -23z" />
    <glyph glyph-name="registered" unicode="&#xae;" horiz-adv-x="942" 
d="M336 913v377q0 12 14 13h133q82 0 126 -34t44 -98q0 -109 -108 -122l104 -134q12 -16 -8 -16h-43q-10 0 -18 10l-103 135h-80v-131q0 -14 -12 -14h-35q-14 0 -14 14zM178 1096q0 -134 72 -222t220 -88t221 88t73 222t-73 223q-73 88 -221 88t-220 -88t-72 -223zM471 1458
q172 0 259 -103t87 -259t-87 -259t-259 -103t-259 102q-87 104 -87 260t87 259t259 103zM397 1096h72q71 0 97 16t26 58t-26 60t-89 19h-80v-153z" />
    <glyph glyph-name="macron" unicode="&#xaf;" horiz-adv-x="677" 
d="M612 1214h-549q-23 0 -22 23v41q0 25 22 25h549q25 0 25 -25v-41q0 -23 -25 -23z" />
    <glyph glyph-name="degree" unicode="&#xb0;" horiz-adv-x="727" 
d="M365 918q-125 0 -199 76t-74 194q0 120 74 194t199 74t199 -75t73 -193q1 -118 -73 -194t-199 -76zM365 1372q-85 0 -135 -51t-50 -134t50 -135t134 -51q85 -1 134 51t49 135t-49 134t-133 51z" />
    <glyph glyph-name="plusminus" unicode="&#xb1;" horiz-adv-x="1191" 
d="M1042 0h-892q-25 0 -25 25v47q0 25 25 24h892q25 0 25 -24v-47q0 -25 -25 -25zM1042 682h-391v-393q0 -23 -22 -23h-64q-27 0 -26 23v393h-389q-25 0 -25 23v57q0 23 25 22h389v387q0 27 26 27h64q23 0 22 -27v-387h391q25 0 25 -22v-57q0 -23 -25 -23z" />
    <glyph glyph-name="two.superior" unicode="&#xb2;" 
d="M193 1544h-50q-20 0 -26 22t-6 72q0 111 71 179q72 68 232 67q307 0 307 -264q0 -244 -440 -522h432q29 0 28 -29v-43q0 -29 -28 -29h-576q-29 0 -28 29v39q0 18 18 31q252 174 342 264q141 139 141 256q0 80 -44 125t-154 45q-195 0 -195 -152l4 -61q0 -29 -28 -29z" />
    <glyph glyph-name="three.superior" unicode="&#xb3;" 
d="M397 1401h-96q-29 0 -29 29v40q0 29 29 29h98q86 0 136 37q49 37 49 111q0 139 -213 139q-102 0 -213 -43q-31 -10 -39 14l-19 43q-8 18 19 33q111 51 263 51t232 -58t80 -171q0 -139 -131 -193q152 -55 152 -215q0 -127 -87 -193t-247 -67q-160 0 -270 53q-27 14 -21 31
l19 45q10 29 34 19q119 -49 229 -49t171 42q59 43 59 121q0 152 -205 152z" />
    <glyph glyph-name="acute" unicode="&#xb4;" horiz-adv-x="677" 
d="M367 1427h106q14 0 17 -11t-7 -19l-190 -183q-20 -16 -39 -16h-41q-12 0 -16 8t2 17l127 184q14 20 41 20z" />
    <glyph glyph-name="mu" unicode="&#xb5;" horiz-adv-x="1185" 
d="M1026 1024v-666q0 -180 -92 -281t-281 -102q-270 0 -364 207v-383q0 -25 -25 -24h-69q-27 0 -27 24v1225q0 27 27 27h69q25 0 25 -27v-618q0 -144 96 -232t244 -88q276 0 276 289v649q0 27 25 27h71q25 0 25 -27z" />
    <glyph glyph-name="paragraph" unicode="&#xb6;" horiz-adv-x="1026" 
d="M977 1343h-80q-61 -1 -87 -25t-26 -89v-1235q0 -227 -202 -227q-57 0 -121 18q-18 8 -17 25l7 45q4 18 26 16q72 -10 84 -10q115 0 115 145v565h-68q-223 0 -364 116q-142 116 -142 318q0 203 134 317t362 114h379q27 0 27 -23v-45q0 -25 -27 -25z" />
    <glyph glyph-name="periodcentered" unicode="&#xb7;" horiz-adv-x="440" 
d="M141 457v141q0 25 25 25h108q25 0 25 -25v-141q0 -25 -23 -25h-110q-25 0 -25 25z" />
    <glyph glyph-name="cedilla" unicode="&#xb8;" horiz-adv-x="677" 
d="M561 -170q0 -131 -188 -131q-53 0 -69 6t-15 21v38q0 14 18 15h53q111 0 111 65q0 100 -184 172h71q88 -20 146 -71t57 -115z" />
    <glyph glyph-name="one.superior" unicode="&#xb9;" 
d="M455 1874h47q29 0 28 -29v-819q0 -29 -28 -29h-49q-29 0 -29 29v705l-184 -125q-27 -18 -43 6l-27 39q-14 20 8 37l240 174q16 12 37 12z" />
    <glyph glyph-name="ordmasculine" unicode="&#xba;" horiz-adv-x="974" 
d="M486 987q-194 0 -302 116t-106 333q0 218 108 334t302 116t300 -117t106 -333t-106 -333q-108 -116 -302 -116zM487 1788q-141 0 -218 -90t-77 -262t78 -260q76 -88 217 -88t217 88t76 260t-75 262q-77 90 -218 90z" />
    <glyph glyph-name="guillemotright" unicode="&#xbb;" horiz-adv-x="802" 
d="M406 544q0 -7 -5 -14l-172 -272q-12 -18 -30 -18h-62q-31 0 -14 26l174 277l-174 278q-18 29 14 29h62q20 0 30 -21l172 -272q5 -6 5 -13zM723 544q0 -7 -4 -14l-172 -272q-10 -18 -31 -18h-63q-29 0 -13 26l174 277l-174 278q-8 13 -4 21t17 8h63q20 0 31 -21l172 -272
q4 -6 4 -13z" />
    <glyph glyph-name="onequarter" unicode="&#xbc;" horiz-adv-x="2007" 
d="M1927 199h-121v-170q0 -29 -28 -29h-49q-29 0 -29 29v170h-457q-29 0 -29 30v41q0 12 13 29l467 559q18 18 32 19h52q29 0 28 -29v-549h121q29 0 29 -29v-41q0 -30 -29 -30zM1700 299v428l-357 -428h357zM502 1436q29 0 28 -29v-819q0 -29 -28 -29h-49q-29 0 -29 29v704
l-184 -125q-27 -18 -43 7l-27 38q-14 20 8 37l240 174q16 12 37 13h47zM612 0h-71q-33 0 -15 27l875 1390q10 18 37 19h71q31 0 15 -25l-877 -1391q-14 -20 -35 -20z" />
    <glyph glyph-name="onehalf" unicode="&#xbd;" horiz-adv-x="2007" 
d="M1305 547q-21 -1 -27 23t-6 71q0 111 72 179t231 67q307 0 307 -264q0 -244 -440 -523h432q29 0 29 -28v-43q0 -29 -29 -29h-576q-29 0 -28 29v39q0 18 13 27t61 41q297 200 383 345q45 73 45 145t-44 117t-155 45q-195 1 -195 -151l4 -62q0 -29 -28 -28h-49zM502 1436
q29 0 28 -29v-819q0 -29 -28 -29h-49q-29 0 -29 29v704l-184 -125q-27 -18 -43 7l-27 38q-14 20 8 37l240 174q16 12 37 13h47zM530 0h-71q-33 0 -15 27l875 1390q10 18 37 19h71q31 0 15 -25l-877 -1391q-14 -20 -35 -20z" />
    <glyph glyph-name="threequarters" unicode="&#xbe;" horiz-adv-x="2007" 
d="M397 963h-96q-29 0 -29 28v41q0 29 29 29h98q86 0 136 37q49 37 49 110q0 139 -213 140q-102 0 -213 -43q-31 -10 -39 14l-19 43q-8 18 19 33q111 51 263 51t232 -58t80 -171q0 -139 -131 -193q152 -55 152 -215q0 -127 -87 -194t-247 -67t-270 54q-27 14 -21 31l19 45
q10 29 34 18q119 -49 229 -49t171 43q59 43 59 121q0 152 -205 152zM1927 199h-121v-170q0 -29 -28 -29h-49q-29 0 -29 29v170h-457q-29 0 -29 30v41q0 12 13 29l467 559q18 18 32 19h52q29 0 28 -29v-549h121q29 0 29 -29v-41q0 -30 -29 -30zM1700 299v428l-357 -428h357z
M649 0h-71q-33 0 -15 27l875 1390q10 18 37 19h71q31 0 15 -25l-877 -1391q-14 -20 -35 -20z" />
    <glyph glyph-name="questiondown" unicode="&#xbf;" horiz-adv-x="946" 
d="M449 635q0 25 24 24h72q25 0 24 -24v-66q0 -90 -115 -191q-48 -42 -98 -86q-118 -105 -117 -219q1 -113 64 -155t215 -43q152 0 303 64q25 10 33 -11l27 -65q6 -16 -19 -27q-143 -76 -353 -76t-305 73t-95 224t119 257q50 44 100 85q120 98 121 170v66zM592 1024v-143
q0 -25 -25 -25h-116q-25 0 -25 25v143q0 27 27 27h114q25 0 25 -27z" />
    <glyph glyph-name="Agrave" unicode="&#xc0;" horiz-adv-x="1343" 
d="M678 1548h-45q-16 0 -37 17l-188 178q-10 8 -7 19q4 11 19 12h104q23 0 41 -25l127 -176q6 -9 2 -17t-16 -8zM625 1436h94q25 0 33 -27l530 -1382q8 -27 -20 -27h-84q-20 0 -31 23l-146 383h-659l-147 -383q-10 -23 -29 -23h-86q-27 0 -19 27l529 1382q12 27 35 27z
M381 522h580l-287 778h-4z" />
    <glyph glyph-name="Aacute" unicode="&#xc1;" horiz-adv-x="1343" 
d="M817 1774h107q12 0 15 -12t-5 -19l-189 -178q-20 -16 -38 -17h-43q-12 0 -17 8q-4 9 2 17l127 176q18 25 41 25zM625 1436h94q25 0 33 -27l530 -1382q8 -27 -20 -27h-84q-20 0 -31 23l-146 383h-659l-147 -383q-10 -23 -29 -23h-86q-27 0 -19 27l529 1382q12 27 35 27z
M381 522h580l-287 778h-4z" />
    <glyph glyph-name="Acircumflex" unicode="&#xc2;" horiz-adv-x="1343" 
d="M426 1548q-14 0 -16 8t8 19l186 178q16 16 37 16h61q18 0 39 -16l187 -178q10 -11 7 -19t-17 -8h-60q-14 1 -37 17l-147 121l-152 -121q-20 -16 -37 -17h-59zM625 1436h94q25 0 33 -27l530 -1382q8 -27 -20 -27h-84q-20 0 -31 23l-146 383h-659l-147 -383
q-10 -23 -29 -23h-86q-27 0 -19 27l529 1382q12 27 35 27zM381 522h580l-287 778h-4z" />
    <glyph glyph-name="Atilde" unicode="&#xc3;" horiz-adv-x="1343" 
d="M989 1679q0 -63 -35 -103t-100 -40t-172 41l-49 18q-90 33 -134 33t-50 -37l-3 -24q-2 -25 -30 -25h-35q-23 0 -23 33q0 63 34 102t92 39t180 -45l53 -20q80 -33 126 -33t54 49l2 21q2 25 33 24h33q24 0 24 -33zM625 1436h94q25 0 33 -27l530 -1382q8 -27 -20 -27h-84
q-20 0 -31 23l-146 383h-659l-147 -383q-10 -23 -29 -23h-86q-27 0 -19 27l529 1382q12 27 35 27zM381 522h580l-287 778h-4z" />
    <glyph glyph-name="Adieresis" unicode="&#xc4;" horiz-adv-x="1343" 
d="M926 1710v-137q0 -25 -27 -25h-84q-25 0 -24 25v137q0 27 24 27h84q27 0 27 -27zM555 1710v-137q0 -25 -25 -25h-86q-23 0 -22 25v137q0 27 22 27h86q25 0 25 -27zM625 1436h94q25 0 33 -27l530 -1382q8 -27 -20 -27h-84q-20 0 -31 23l-146 383h-659l-147 -383
q-10 -23 -29 -23h-86q-27 0 -19 27l529 1382q12 27 35 27zM381 522h580l-287 778h-4z" />
    <glyph glyph-name="Aring" unicode="&#xc5;" horiz-adv-x="1343" 
d="M547 1552q0 -112 125 -112t125 112q0 53 -32 83t-91 30q-127 0 -127 -113zM381 522h580l-287 778h-4zM471 1552q0 82 54 134q53 52 147 51q94 0 149 -51t56 -134q0 -127 -115 -172l520 -1353q8 -27 -20 -27h-84q-20 0 -31 23l-146 383h-659l-147 -383q-10 -23 -29 -23
h-86q-27 0 -19 27l519 1355q-109 45 -109 170z" />
    <glyph glyph-name="AE" unicode="&#xc6;" horiz-adv-x="1755" 
d="M893 496v823h-35l-434 -823h469zM1591 678h-569v-559h598q25 0 25 -25v-67q0 -27 -25 -27h-698q-27 0 -27 27v356h-533l-190 -360q-12 -23 -33 -23h-92q-12 0 -17 8t1 19l745 1382q14 27 39 27h799q25 0 24 -25v-68q0 -27 -24 -26h-592v-524h569q27 0 27 -27v-61
q0 -27 -27 -27z" />
    <glyph glyph-name="Ccedilla" unicode="&#xc7;" horiz-adv-x="1222" 
d="M559 -254q0 16 19 16h57q113 0 113 70q0 92 -130 160q-242 39 -368 227t-127 520q0 332 162 526t463 193q211 0 346 -80q27 -12 18 -28l-25 -62q-10 -27 -34 -14q-123 66 -289 65q-252 -1 -381 -159t-129 -462t130 -463t388 -159q160 0 295 72q23 12 35 -16l26 -62
q6 -16 -18 -29q-143 -82 -352 -81h-27q111 -66 111 -162q0 -141 -199 -142q-82 0 -84 29v41z" />
    <glyph glyph-name="Egrave" unicode="&#xc8;" horiz-adv-x="1112" 
d="M700 1548h-45q-16 0 -37 17l-188 178q-10 8 -6 19t18 12h105q23 0 41 -25l127 -176q6 -9 2 -17t-17 -8zM950 678h-633v-561h660q27 0 27 -25v-65q0 -27 -27 -27h-760q-27 0 -27 27v1384q0 25 25 25h756q27 0 26 -25v-65q0 -27 -26 -27h-654v-526h633q25 0 25 -27v-61
q0 -27 -25 -27z" />
    <glyph glyph-name="Eacute" unicode="&#xc9;" horiz-adv-x="1112" 
d="M702 1774h107q12 0 15 -12t-5 -19l-188 -178q-20 -16 -39 -17h-43q-12 0 -17 8q-3 9 3 17l127 176q18 25 40 25zM950 678h-633v-561h660q27 0 27 -25v-65q0 -27 -27 -27h-760q-27 0 -27 27v1384q0 25 25 25h756q27 0 26 -25v-65q0 -27 -26 -27h-654v-526h633q25 0 25 -27
v-61q0 -27 -25 -27z" />
    <glyph glyph-name="Ecircumflex" unicode="&#xca;" horiz-adv-x="1112" 
d="M356 1548q-14 0 -16 8t8 19l187 178q16 16 36 16h62q18 0 39 -16l186 -178q10 -11 7 -19t-17 -8h-60q-13 1 -36 17l-148 121l-151 -121q-20 -16 -37 -17h-60zM950 678h-633v-561h660q27 0 27 -25v-65q0 -27 -27 -27h-760q-27 0 -27 27v1384q0 25 25 25h756q27 0 26 -25
v-65q0 -27 -26 -27h-654v-526h633q25 0 25 -27v-61q0 -27 -25 -27z" />
    <glyph glyph-name="Edieresis" unicode="&#xcb;" horiz-adv-x="1112" 
d="M854 1710v-137q0 -25 -27 -25h-84q-25 0 -24 25v137q0 27 24 27h84q27 0 27 -27zM483 1710v-137q0 -25 -24 -25h-86q-23 0 -23 25v137q0 27 23 27h86q24 0 24 -27zM950 678h-633v-561h660q27 0 27 -25v-65q0 -27 -27 -27h-760q-27 0 -27 27v1384q0 25 25 25h756
q27 0 26 -25v-65q0 -27 -26 -27h-654v-526h633q25 0 25 -27v-61q0 -27 -25 -27z" />
    <glyph glyph-name="Igrave" unicode="&#xcc;" horiz-adv-x="536" 
d="M293 1548h-45q-16 0 -37 17l-188 178q-10 8 -7 19q4 11 19 12h104q23 0 41 -25l127 -176q6 -9 2 -17t-16 -8zM205 27v1384q0 25 24 25h76q27 0 27 -25v-1384q0 -27 -27 -27h-76q-24 0 -24 27z" />
    <glyph glyph-name="Iacute" unicode="&#xcd;" horiz-adv-x="536" 
d="M395 1774h107q12 0 15 -12t-5 -19l-188 -178q-20 -16 -39 -17h-43q-12 0 -17 8q-4 9 2 17l127 176q18 25 41 25zM205 27v1384q0 25 24 25h76q27 0 27 -25v-1384q0 -27 -27 -27h-76q-24 0 -24 27z" />
    <glyph glyph-name="Icircumflex" unicode="&#xce;" horiz-adv-x="536" 
d="M18 1548q-14 0 -16 8t8 19l187 178q16 16 36 16h62q18 0 39 -16l186 -178q10 -11 7 -19t-17 -8h-59q-14 1 -37 17l-148 121l-151 -121q-20 -16 -37 -17h-60zM205 27v1384q0 25 24 25h76q27 0 27 -25v-1384q0 -27 -27 -27h-76q-24 0 -24 27z" />
    <glyph glyph-name="Idieresis" unicode="&#xcf;" horiz-adv-x="536" 
d="M518 1710v-137q0 -25 -26 -25h-84q-25 0 -25 25v137q0 27 25 27h84q26 0 26 -27zM147 1710v-137q0 -25 -24 -25h-86q-23 0 -23 25v137q0 27 23 27h86q24 0 24 -27zM205 27v1384q0 25 24 25h76q27 0 27 -25v-1384q0 -27 -27 -27h-76q-24 0 -24 27z" />
    <glyph glyph-name="Eth" unicode="&#xd0;" horiz-adv-x="1380" 
d="M647 672h-325v-553h237q141 1 241 27q222 58 293 278q38 119 37 295q0 340 -141 469t-432 129h-235v-547h325q23 0 23 -25v-51q0 -22 -23 -22zM559 0h-338q-27 0 -26 27v645h-123q-25 0 -25 22v51q0 25 25 25h123v641q0 25 24 25h338q352 0 528 -162q177 -162 177 -556
t-176 -556t-527 -162z" />
    <glyph glyph-name="Ntilde" unicode="&#xd1;" horiz-adv-x="1431" 
d="M1032 1679q0 -63 -35 -103t-100 -40t-172 41l-49 18q-90 33 -134 33t-50 -37l-3 -24q-2 -25 -30 -25h-35q-23 0 -23 33q0 63 34 102q33 39 91 39t181 -45l53 -20q80 -33 126 -33t54 49l2 21q2 25 33 24h33q24 0 24 -33zM1241 1413v-1386q0 -27 -27 -27h-79q-23 0 -37 20
l-783 1207v-1200q0 -27 -24 -27h-74q-27 0 -27 27v1384q0 25 27 25h78q29 0 41 -19l780 -1208v1202q0 25 27 25h71q27 0 27 -23z" />
    <glyph glyph-name="Ograve" unicode="&#xd2;" horiz-adv-x="1445" 
d="M778 1548h-45q-16 0 -37 17l-188 178q-10 8 -6 19t18 12h105q23 0 41 -25l127 -176q6 -9 2 -17t-17 -8zM250 719q0 -303 118 -463t356 -160q236 0 354 160t118 463t-118 463t-354 160t-356 -160q-118 -160 -118 -463zM723 1458q295 0 449 -192t155 -548q0 -354 -155 -546
q-156 -192 -450 -192t-449 191t-155 547t155 548t450 192z" />
    <glyph glyph-name="Oacute" unicode="&#xd3;" horiz-adv-x="1445" 
d="M842 1774h106q12 0 16 -12t-6 -19l-188 -178q-20 -16 -39 -17h-43q-12 0 -16 8t2 17l127 176q18 25 41 25zM250 719q0 -303 118 -463t356 -160q236 0 354 160t118 463t-118 463t-354 160t-356 -160q-118 -160 -118 -463zM723 1458q295 0 449 -192t155 -548
q0 -354 -155 -546q-156 -192 -450 -192t-449 191t-155 547t155 548t450 192z" />
    <glyph glyph-name="Ocircumflex" unicode="&#xd4;" horiz-adv-x="1445" 
d="M475 1548q-14 0 -16 8t8 19l186 178q16 16 37 16h62q18 0 39 -16l186 -178q10 -11 7 -19t-17 -8h-60q-14 1 -37 17l-147 121l-152 -121q-20 -16 -36 -17h-60zM250 719q0 -303 118 -463t356 -160q236 0 354 160t118 463t-118 463t-354 160t-356 -160q-118 -160 -118 -463z
M723 1458q295 0 449 -192t155 -548q0 -354 -155 -546q-156 -192 -450 -192t-449 191t-155 547t155 548t450 192z" />
    <glyph glyph-name="Otilde" unicode="&#xd5;" horiz-adv-x="1445" 
d="M1038 1679q0 -63 -34 -103t-100 -40t-173 41l-49 18q-90 33 -134 33t-50 -37l-2 -24q-2 -25 -31 -25h-35q-22 0 -22 48t33 87t91 39t181 -45l53 -20q80 -33 126 -33t54 49l2 21q2 25 33 24h33q24 0 24 -33zM250 719q0 -303 118 -463t356 -160q236 0 354 160t118 463
t-118 463t-354 160t-356 -160q-118 -160 -118 -463zM723 1458q295 0 449 -192t155 -548q0 -354 -155 -546q-156 -192 -450 -192t-449 191t-155 547t155 548t450 192z" />
    <glyph glyph-name="Odieresis" unicode="&#xd6;" horiz-adv-x="1445" 
d="M975 1710v-137q0 -25 -27 -25h-84q-25 0 -24 25v137q0 27 24 27h84q27 0 27 -27zM604 1710v-137q0 -25 -24 -25h-86q-23 0 -23 25v137q0 27 23 27h86q24 0 24 -27zM250 719q0 -303 118 -463t356 -160q236 0 354 160t118 463t-118 463t-354 160t-356 -160
q-118 -160 -118 -463zM723 1458q295 0 449 -192t155 -548q0 -354 -155 -546q-156 -192 -450 -192t-449 191t-155 547t155 548t450 192z" />
    <glyph glyph-name="multiply" unicode="&#xd7;" horiz-adv-x="1191" 
d="M926 301l-330 328l-330 -330q-16 -16 -35 0l-41 43q-16 16 -2 33l332 332l-332 329q-18 18 0 35l43 41q18 18 37 -2l328 -328l330 330q16 16 35 0l40 -41q18 -16 0 -35l-329 -329l329 -332q14 -16 0 -33l-40 -43q-15 -18 -35 2z" />
    <glyph glyph-name="Oslash" unicode="&#xd8;" horiz-adv-x="1452" 
d="M252 719q0 -238 67 -373l760 836q-121 160 -355 160t-354 -160q-118 -160 -118 -463zM730 96q234 0 350 160q118 160 118 463q0 223 -68 371l-759 -838q125 -156 359 -156zM123 719q1 355 155 547t443 192t442 -182l117 127q18 18 33 6l41 -35q20 -16 4 -35l-133 -147
q104 -190 104 -473q0 -356 -154 -548q-155 -191 -449 -191t-439 180l-121 -131q-18 -16 -33 -2l-41 36q-14 14 -2 31l135 150q-102 176 -102 475z" />
    <glyph glyph-name="Ugrave" unicode="&#xd9;" horiz-adv-x="1404" 
d="M778 1548h-45q-16 0 -37 17l-188 178q-10 8 -6 19t18 12h105q23 0 41 -25l127 -176q6 -9 2 -17t-17 -8zM702 -25q-264 1 -394 137t-130 390v909q0 25 27 25h74q27 0 26 -25v-901q0 -418 397 -418t398 418v901q0 25 24 25h76q25 0 25 -25v-909q1 -254 -129 -390t-394 -137
z" />
    <glyph glyph-name="Uacute" unicode="&#xda;" horiz-adv-x="1404" 
d="M780 1774h107q12 0 15 -12t-5 -19l-188 -178q-20 -16 -39 -17h-43q-12 0 -17 8q-4 9 2 17l127 176q18 25 41 25zM702 -25q-264 1 -394 137t-130 390v909q0 25 27 25h74q27 0 26 -25v-901q0 -418 397 -418t398 418v901q0 25 24 25h76q25 0 25 -25v-909q1 -254 -129 -390
t-394 -137z" />
    <glyph glyph-name="Ucircumflex" unicode="&#xdb;" horiz-adv-x="1404" 
d="M455 1548q-14 0 -17 8q-2 8 8 19l187 178q16 16 37 16h61q18 0 39 -16l186 -178q10 -10 8 -19q-3 -8 -18 -8h-59q-14 1 -37 17l-148 121l-151 -121q-20 -16 -37 -17h-59zM702 -25q-264 1 -394 137t-130 390v909q0 25 27 25h74q27 0 26 -25v-901q0 -418 397 -418t398 418
v901q0 25 24 25h76q25 0 25 -25v-909q1 -254 -129 -390t-394 -137z" />
    <glyph glyph-name="Udieresis" unicode="&#xdc;" horiz-adv-x="1404" 
d="M954 1710v-137q0 -25 -26 -25h-84q-25 0 -25 25v137q0 27 25 27h84q26 0 26 -27zM584 1710v-137q0 -25 -25 -25h-86q-23 0 -22 25v137q0 27 22 27h86q25 0 25 -27zM702 -25q-264 1 -394 137t-130 390v909q0 25 27 25h74q27 0 26 -25v-901q0 -418 397 -418t398 418v901
q0 25 24 25h76q25 0 25 -25v-909q1 -254 -129 -390t-394 -137z" />
    <glyph glyph-name="Yacute" unicode="&#xdd;" horiz-adv-x="1280" 
d="M758 1774h106q12 0 16 -12t-6 -19l-188 -178q-20 -16 -39 -17h-43q-12 0 -16 8t2 17l127 176q18 25 41 25zM705 27q0 -27 -27 -27h-76q-25 0 -24 27v510l-504 870q-6 10 -2 19t18 10h84q23 0 35 -23l309 -541l121 -225l123 225l309 541q10 23 35 23h84q31 0 16 -29
l-501 -870v-510z" />
    <glyph glyph-name="Thorn" unicode="&#xde;" horiz-adv-x="1236" 
d="M317 451h238q227 0 328 80q100 81 100 269t-101 269q-101 80 -327 80h-238v-698zM291 0h-76q-25 0 -25 27v1384q0 25 27 25h74q27 0 26 -25v-145h236q289 0 424 -110t135 -356t-135 -356q-135 -111 -422 -110h-238v-307q1 -27 -26 -27z" />
    <glyph glyph-name="germandbls" unicode="&#xdf;" horiz-adv-x="1251" 
d="M893 1172q0 70 -68 126q-68 58 -211 58t-230 -69t-87 -208v-1054q0 -25 -27 -25h-75q-27 0 -27 25v1067q0 182 123 274t328 92t304 -83t99 -212q0 -76 -47 -135t-103 -88q-56 -28 -104 -58q-47 -30 -47 -52t45 -51q45 -27 110 -63t128 -85t108 -132t45 -186
q0 -330 -385 -329q-121 0 -209 20q-16 6 -16 21v61q0 25 26 23q123 -21 210 -21t164 56t77 186q0 86 -44 154t-108 112q-64 43 -128 78q-64 34 -108 72t-44 81t47 83t103 68t104 76q47 48 47 118z" />
    <glyph glyph-name="agrave" unicode="&#xe0;" horiz-adv-x="1116" 
d="M627 1198h-43q-18 0 -39 16l-191 183q-10 8 -7 19t18 11h106q25 0 41 -20l127 -184q6 -9 3 -17t-15 -8zM842 406v118q-365 -13 -453 -45q-130 -44 -164 -106q-20 -39 -20 -92q0 -88 64 -144q65 -55 190 -55q183 0 283 92t100 232zM958 705v-680q0 -25 -24 -25h-66
q-23 0 -22 25v170q-104 -213 -406 -213q-168 0 -260 80t-92 218t100 214q101 73 261 97q159 24 393 30v79q0 138 -67 202t-229 64t-329 -69q-25 -10 -31 14l-18 60q-6 18 14 28q174 76 381 76t301 -92t94 -278z" />
    <glyph glyph-name="aacute" unicode="&#xe1;" horiz-adv-x="1116" 
d="M641 1427h107q14 0 17 -11t-7 -19l-191 -183q-20 -16 -39 -16h-41q-12 0 -16 8t2 17l127 184q14 20 41 20zM842 406v118q-365 -13 -453 -45q-130 -44 -164 -106q-20 -39 -20 -92q0 -88 64 -144q65 -55 190 -55q183 0 283 92t100 232zM958 705v-680q0 -25 -24 -25h-66
q-23 0 -22 25v170q-104 -213 -406 -213q-168 0 -260 80t-92 218t100 214q101 73 261 97q159 24 393 30v79q0 138 -67 202t-229 64t-329 -69q-25 -10 -31 14l-18 60q-6 18 14 28q174 76 381 76t301 -92t94 -278z" />
    <glyph glyph-name="acircumflex" unicode="&#xe2;" horiz-adv-x="1116" 
d="M362 1198h-57q-14 0 -17 9t7 18l192 186q16 16 37 16h62q23 0 39 -16l192 -186q10 -7 7 -17t-17 -10h-59q-17 0 -35 16l-156 134l-158 -134q-18 -16 -37 -16zM842 406v118q-365 -13 -453 -45q-130 -44 -164 -106q-20 -39 -20 -92q0 -88 64 -144q65 -55 190 -55
q183 0 283 92t100 232zM958 705v-680q0 -25 -24 -25h-66q-23 0 -22 25v170q-104 -213 -406 -213q-168 0 -260 80t-92 218t100 214q101 73 261 97q159 24 393 30v79q0 138 -67 202t-229 64t-329 -69q-25 -10 -31 14l-18 60q-6 18 14 28q174 76 381 76t301 -92t94 -278z" />
    <glyph glyph-name="atilde" unicode="&#xe3;" horiz-adv-x="1116" 
d="M823 1360q21 0 21 -45t-32 -81t-98 -36t-157 39l-45 18q-72 29 -112 29t-48 -35l-6 -24q-6 -23 -31 -23h-34q-23 0 -23 31q0 59 32 95t91 36t164 -41l49 -18q78 -31 114 -31t46 43l4 20q2 23 28 23h37zM842 406v118q-365 -13 -453 -45q-130 -44 -164 -106
q-20 -39 -20 -92q0 -88 64 -144q65 -55 190 -55q183 0 283 92t100 232zM958 705v-680q0 -25 -24 -25h-66q-23 0 -22 25v170q-104 -213 -406 -213q-168 0 -260 80t-92 218t100 214q101 73 261 97q159 24 393 30v79q0 138 -67 202t-229 64t-329 -69q-25 -10 -31 14l-18 60
q-6 18 14 28q174 76 381 76t301 -92t94 -278z" />
    <glyph glyph-name="adieresis" unicode="&#xe4;" horiz-adv-x="1116" 
d="M793 1370v-147q0 -25 -23 -25h-80q-25 0 -24 25v147q0 25 24 25h80q23 0 23 -25zM436 1370v-147q0 -25 -22 -25h-80q-25 0 -25 25v147q0 25 25 25h80q22 0 22 -25zM842 406v118q-365 -13 -453 -45q-130 -44 -164 -106q-20 -39 -20 -92q0 -88 64 -144q65 -55 190 -55
q183 0 283 92t100 232zM958 705v-680q0 -25 -24 -25h-66q-23 0 -22 25v170q-104 -213 -406 -213q-168 0 -260 80t-92 218t100 214q101 73 261 97q159 24 393 30v79q0 138 -67 202t-229 64t-329 -69q-25 -10 -31 14l-18 60q-6 18 14 28q174 76 381 76t301 -92t94 -278z" />
    <glyph glyph-name="aring" unicode="&#xe5;" horiz-adv-x="1116" 
d="M551 1552q92 0 148 -51q57 -51 57 -133t-56 -133t-148 -51q-93 0 -149 51q-55 51 -55 133t55 133q56 51 148 51zM553 1253q59 0 92 30t33 84t-34 84t-93 30q-125 0 -125 -114t127 -114zM842 406v118q-365 -13 -453 -45q-130 -44 -164 -106q-20 -39 -20 -92q0 -88 64 -144
q65 -55 190 -55q183 0 283 92t100 232zM958 705v-680q0 -25 -24 -25h-66q-23 0 -22 25v170q-104 -213 -406 -213q-168 0 -260 80t-92 218t100 214q101 73 261 97q159 24 393 30v79q0 138 -67 202t-229 64t-329 -69q-25 -10 -31 14l-18 60q-6 18 14 28q174 76 381 76t301 -92
t94 -278z" />
    <glyph glyph-name="ae" unicode="&#xe6;" horiz-adv-x="1839" 
d="M840 408v81q-332 -10 -385 -16q-207 -25 -242 -133q-8 -27 -8 -59q0 -195 258 -195q181 0 279 92t98 230zM1612 598q0 168 -80 270t-236 103q-156 -1 -246 -105t-98 -286h660v18zM1328 80q154 0 290 65q23 10 33 -14l22 -55q6 -14 -16 -29q-51 -31 -141 -51t-177 -21
q-161 0 -277 76t-157 201q-98 -270 -450 -270q-184 0 -276 79q-91 80 -91 218q0 184 155 244q102 41 235 51t341 14h19v133q-2 125 -69 185t-227 60t-329 -69q-25 -10 -31 14l-22 60q-8 18 16 28q156 76 375 76q332 0 371 -241q41 114 141 178t240 63q201 0 313 -133
t113 -346v-94q0 -25 -27 -25h-748q10 -181 114 -289q106 -108 260 -108z" />
    <glyph glyph-name="ccedilla" unicode="&#xe7;" horiz-adv-x="1003" 
d="M111 548q0 240 131 384t356 143q176 0 287 -63q25 -14 16 -31l-24 -57q-8 -25 -35 -13q-100 53 -232 54q-180 0 -278 -111t-98 -326q0 -216 98 -328t258 -112t266 62q23 10 31 -13l24 -59q6 -16 -18 -29q-117 -70 -287 -69h-16q106 -59 106 -150q0 -131 -188 -131
q-52 0 -68 6t-16 21v38q0 14 18 15h54q111 0 110 65q0 86 -133 150q-170 39 -266 177q-96 137 -96 377z" />
    <glyph glyph-name="egrave" unicode="&#xe8;" horiz-adv-x="1138" 
d="M639 1198h-43q-18 0 -39 16l-190 183q-10 8 -8 19q3 11 18 11h106q25 0 41 -20l127 -184q6 -9 3 -17t-15 -8zM582 971q-336 0 -353 -400h684v17q1 174 -83 278t-248 105zM620 80q171 0 293 67q23 12 35 -14l21 -53q6 -18 -17 -29q-143 -76 -325 -76q-244 1 -380 147
t-136 405t125 403t343 145q219 0 335 -136t116 -359v-84q0 -25 -26 -25h-775q8 -179 114 -285t277 -106z" />
    <glyph glyph-name="eacute" unicode="&#xe9;" horiz-adv-x="1138" 
d="M668 1427h106q14 0 18 -11t-8 -19l-190 -183q-20 -16 -39 -16h-41q-12 0 -16 8t2 17l127 184q14 20 41 20zM582 971q-336 0 -353 -400h684v17q1 174 -83 278t-248 105zM620 80q171 0 293 67q23 12 35 -14l21 -53q6 -18 -17 -29q-143 -76 -325 -76q-244 1 -380 147
t-136 405t125 403t343 145q219 0 335 -136t116 -359v-84q0 -25 -26 -25h-775q8 -179 114 -285t277 -106z" />
    <glyph glyph-name="ecircumflex" unicode="&#xea;" horiz-adv-x="1138" 
d="M387 1198h-57q-14 0 -18 9t7 18l193 186q16 16 37 16h61q23 0 39 -16l193 -186q10 -7 7 -17t-18 -10h-59q-17 0 -35 16l-155 134l-158 -134q-18 -16 -37 -16zM582 971q-336 0 -353 -400h684v17q1 174 -83 278t-248 105zM620 80q171 0 293 67q23 12 35 -14l21 -53
q6 -18 -17 -29q-143 -76 -325 -76q-244 1 -380 147t-136 405t125 403t343 145q219 0 335 -136t116 -359v-84q0 -25 -26 -25h-775q8 -179 114 -285t277 -106z" />
    <glyph glyph-name="edieresis" unicode="&#xeb;" horiz-adv-x="1138" 
d="M821 1370v-147q0 -25 -22 -25h-80q-25 0 -25 25v147q0 25 25 25h80q22 0 22 -25zM465 1370v-147q0 -25 -23 -25h-80q-25 0 -24 25v147q0 25 24 25h80q23 0 23 -25zM582 971q-336 0 -353 -400h684v17q1 174 -83 278t-248 105zM620 80q171 0 293 67q23 12 35 -14l21 -53
q6 -18 -17 -29q-143 -76 -325 -76q-244 1 -380 147t-136 405t125 403t343 145q219 0 335 -136t116 -359v-84q0 -25 -26 -25h-775q8 -179 114 -285t277 -106z" />
    <glyph glyph-name="igrave" unicode="&#xec;" horiz-adv-x="464" 
d="M266 1198h-43q-18 0 -39 16l-190 183q-10 8 -7 19t17 11h107q25 0 41 -20l127 -184q6 -9 3 -17t-16 -8zM293 1024v-999q0 -25 -25 -25h-69q-25 0 -25 25v999q0 27 25 27h69q25 0 25 -27z" />
    <glyph glyph-name="iacute" unicode="&#xed;" horiz-adv-x="464" 
d="M356 1427h107q14 0 17 -11t-7 -19l-190 -183q-20 -16 -39 -16h-41q-12 0 -17 8q-4 9 2 17l127 184q14 20 41 20zM293 1024v-999q0 -25 -25 -25h-69q-25 0 -25 25v999q0 27 25 27h69q25 0 25 -27z" />
    <glyph glyph-name="icircumflex" unicode="&#xee;" horiz-adv-x="464" 
d="M41 1198h-57q-14 0 -18 9t7 18l193 186q16 16 37 16h61q23 0 39 -16l193 -186q10 -7 7 -17t-18 -10h-59q-17 0 -35 16l-155 134l-158 -134q-18 -16 -37 -16zM293 1024v-999q0 -25 -25 -25h-69q-25 0 -25 25v999q0 27 25 27h69q25 0 25 -27z" />
    <glyph glyph-name="idieresis" unicode="&#xef;" horiz-adv-x="464" 
d="M475 1370v-147q0 -25 -22 -25h-80q-25 0 -25 25v147q0 25 25 25h80q22 0 22 -25zM119 1370v-147q0 -25 -23 -25h-80q-25 0 -24 25v147q0 25 24 25h80q23 0 23 -25zM293 1024v-999q0 -25 -25 -25h-69q-25 0 -25 25v999q0 27 25 27h69q25 0 25 -27z" />
    <glyph glyph-name="eth" unicode="&#xf0;" horiz-adv-x="1191" 
d="M596 86q176 0 270 112t94 328t-94 330q-94 113 -270 113t-269 -113t-93 -330q0 -216 92 -328q94 -112 270 -112zM987 1210h-137q233 -313 233 -684q0 -262 -129 -404t-358 -142t-357 143t-128 403t128 404t343 143q215 0 309 -115q-49 125 -156 252h-307q-25 0 -25 23v33
q0 23 25 22h244q-53 57 -142 117q-14 10 -13 20t18 11h73q29 0 45 -15q70 -51 142 -133h192q23 0 23 -22v-33q0 -23 -23 -23z" />
    <glyph glyph-name="ntilde" unicode="&#xf1;" horiz-adv-x="1193" 
d="M868 1360q21 0 21 -45t-32 -81q-33 -36 -99 -36t-156 39l-45 18q-71 29 -111 29t-49 -35l-6 -24q-6 -23 -31 -23h-34q-23 0 -23 31q0 59 32 95t91 36t164 -41l49 -18q76 -31 114 -31t46 43l4 20q2 23 28 23h37zM1034 700v-675q0 -25 -24 -25h-70q-25 0 -25 25v661
q0 276 -280 277q-156 -1 -252 -91t-96 -233v-614q0 -25 -25 -25h-72q-23 0 -22 25v999q0 27 22 27h70q25 0 25 -25l2 -160q98 209 375 209q184 1 278 -99t94 -276z" />
    <glyph glyph-name="ograve" unicode="&#xf2;" horiz-adv-x="1193" 
d="M659 1198h-43q-18 0 -38 16l-191 183q-10 8 -7 19t17 11h107q25 0 41 -20l127 -184q6 -9 3 -17t-16 -8zM596 86q176 0 270 112t94 328t-94 330q-94 113 -270 113t-269 -113t-93 -330q0 -216 92 -328q94 -112 270 -112zM596 -20q-229 0 -357 143t-128 404t128 405t357 143
q229 0 358 -143q129 -142 129 -404t-129 -405t-358 -143z" />
    <glyph glyph-name="oacute" unicode="&#xf3;" horiz-adv-x="1193" 
d="M688 1427h107q14 0 17 -11t-7 -19l-191 -183q-20 -16 -39 -16h-40q-12 0 -17 8q-4 9 2 17l127 184q14 20 41 20zM596 86q176 0 270 112t94 328t-94 330q-94 113 -270 113t-269 -113t-93 -330q0 -216 92 -328q94 -112 270 -112zM596 -20q-229 0 -357 143t-128 404t128 405
t357 143q229 0 358 -143q129 -142 129 -404t-129 -405t-358 -143z" />
    <glyph glyph-name="ocircumflex" unicode="&#xf4;" horiz-adv-x="1193" 
d="M403 1198h-57q-14 0 -17 9t7 18l192 186q16 16 37 16h62q23 0 39 -16l192 -186q10 -7 7 -17t-17 -10h-60q-16 0 -34 16l-156 134l-158 -134q-18 -16 -37 -16zM596 86q176 0 270 112t94 328t-94 330q-94 113 -270 113t-269 -113t-93 -330q0 -216 92 -328q94 -112 270 -112
zM596 -20q-229 0 -357 143t-128 404t128 405t357 143q229 0 358 -143q129 -142 129 -404t-129 -405t-358 -143z" />
    <glyph glyph-name="otilde" unicode="&#xf5;" horiz-adv-x="1193" 
d="M868 1360q21 0 21 -45t-32 -81q-33 -36 -99 -36t-156 39l-45 18q-71 29 -111 29t-49 -35l-6 -24q-6 -23 -31 -23h-34q-23 0 -23 31q0 59 32 95t91 36t164 -41l49 -18q76 -31 114 -31t46 43l4 20q2 23 28 23h37zM596 86q176 0 270 112t94 328t-94 330q-94 113 -270 113
t-269 -113t-93 -330q0 -216 92 -328q94 -112 270 -112zM596 -20q-229 0 -357 143t-128 404t128 405t357 143q229 0 358 -143q129 -142 129 -404t-129 -405t-358 -143z" />
    <glyph glyph-name="odieresis" unicode="&#xf6;" horiz-adv-x="1193" 
d="M838 1370v-147q0 -25 -23 -25h-80q-25 0 -24 25v147q0 25 24 25h80q23 0 23 -25zM481 1370v-147q0 -25 -22 -25h-80q-25 0 -25 25v147q0 25 25 25h80q22 0 22 -25zM596 86q176 0 270 112t94 328t-94 330q-94 113 -270 113t-269 -113t-93 -330q0 -216 92 -328
q94 -112 270 -112zM596 -20q-229 0 -357 143t-128 404t128 405t357 143q229 0 358 -143q129 -142 129 -404t-129 -405t-358 -143z" />
    <glyph glyph-name="divide" unicode="&#xf7;" horiz-adv-x="1191" 
d="M518 991v139q0 25 25 25h108q25 0 25 -25v-139q0 -25 -25 -24h-108q-25 -1 -25 24zM518 285v137q0 27 25 27h108q25 0 25 -27v-137q0 -27 -25 -27h-108q-25 0 -25 27zM1034 655h-878q-23 0 -23 25v55q0 25 25 25h876q25 0 25 -25v-55q0 -25 -25 -25z" />
    <glyph glyph-name="oslash" unicode="&#xf8;" horiz-adv-x="1202" 
d="M611 86q165 0 259 112t94 307t-61 298l-551 -627q94 -90 259 -90zM593 969q-169 0 -262 -113q-93 -112 -93 -314t61 -294l553 626q-90 95 -259 95zM613 -20q-216 0 -337 110l-73 -84q-18 -18 -37 -4l-27 25q-20 18 -6 32l84 97q-102 132 -102 382t128 394t346 143
q218 0 339 -114l69 79q18 20 37 7l29 -23q20 -14 4 -31l-82 -96q102 -137 102 -384t-129 -390t-345 -143z" />
    <glyph glyph-name="ugrave" unicode="&#xf9;" horiz-adv-x="1177" 
d="M657 1198h-43q-18 0 -39 16l-190 183q-10 8 -7 19t17 11h107q25 0 41 -20l127 -184q6 -9 3 -17t-16 -8zM154 360v664q0 27 24 27h70q25 0 24 -27v-645q0 -289 277 -289q150 0 245 88t95 232v614q0 27 24 27h72q23 0 23 -27v-999q0 -25 -23 -25h-72q-25 0 -24 25v161
q-37 -84 -125 -145t-257 -61t-261 100t-92 280z" />
    <glyph glyph-name="uacute" unicode="&#xfa;" horiz-adv-x="1177" 
d="M674 1427h106q14 0 18 -11t-7 -19l-191 -183q-20 -16 -39 -16h-41q-12 0 -16 8t2 17l127 184q14 20 41 20zM154 360v664q0 27 24 27h70q25 0 24 -27v-645q0 -289 277 -289q150 0 245 88t95 232v614q0 27 24 27h72q23 0 23 -27v-999q0 -25 -23 -25h-72q-25 0 -24 25v161
q-37 -84 -125 -145t-257 -61t-261 100t-92 280z" />
    <glyph glyph-name="ucircumflex" unicode="&#xfb;" horiz-adv-x="1177" 
d="M395 1198h-57q-14 0 -17 9t7 18l192 186q16 16 37 16h61q23 0 39 -16l193 -186q10 -7 7 -17t-17 -10h-60q-17 0 -35 16l-155 134l-158 -134q-18 -16 -37 -16zM154 360v664q0 27 24 27h70q25 0 24 -27v-645q0 -289 277 -289q150 0 245 88t95 232v614q0 27 24 27h72
q23 0 23 -27v-999q0 -25 -23 -25h-72q-25 0 -24 25v161q-37 -84 -125 -145t-257 -61t-261 100t-92 280z" />
    <glyph glyph-name="udieresis" unicode="&#xfc;" horiz-adv-x="1177" 
d="M829 1370v-147q0 -25 -22 -25h-80q-25 0 -25 25v147q0 25 25 25h80q22 0 22 -25zM473 1370v-147q0 -25 -22 -25h-80q-25 0 -25 25v147q0 25 25 25h80q22 0 22 -25zM154 360v664q0 27 24 27h70q25 0 24 -27v-645q0 -289 277 -289q150 0 245 88t95 232v614q0 27 24 27h72
q23 0 23 -27v-999q0 -25 -23 -25h-72q-25 0 -24 25v161q-37 -84 -125 -145t-257 -61t-261 100t-92 280z" />
    <glyph glyph-name="yacute" unicode="&#xfd;" horiz-adv-x="995" 
d="M596 1427h106q14 0 18 -11t-7 -19l-191 -183q-20 -16 -39 -16h-41q-12 0 -16 8t2 17l127 184q14 20 41 20zM285 -233q-76 0 -138 20q-25 8 -18 25l16 59q6 20 29 16q78 -14 105 -14q96 0 140 62t17 133l-373 954q-10 29 17 29h76q18 0 28 -25l215 -561l119 -336h4
l107 336l188 561q6 25 27 25h76q28 0 18 -29l-342 -981q-49 -150 -117 -212t-194 -62z" />
    <glyph glyph-name="thorn" unicode="&#xfe;" horiz-adv-x="1255" 
d="M295 526q0 -216 95 -328t274 -112q358 0 358 441t-358 442q-178 0 -274 -114t-95 -329zM199 1436h71q25 0 25 -23v-569q45 111 147 171t242 60q217 0 339 -141q122 -142 122 -408t-122 -406t-339 -140q-299 0 -389 227v-408q0 -25 -25 -24h-71q-25 0 -25 24v1614
q0 23 25 23z" />
    <glyph glyph-name="ydieresis" unicode="&#xff;" horiz-adv-x="995" 
d="M739 1370v-147q0 -25 -22 -25h-80q-25 0 -25 25v147q0 25 25 25h80q22 0 22 -25zM383 1370v-147q0 -25 -23 -25h-79q-25 0 -25 25v147q0 25 25 25h79q23 0 23 -25zM285 -233q-76 0 -138 20q-25 8 -18 25l16 59q6 20 29 16q78 -14 105 -14q96 0 140 62t17 133l-373 954
q-10 29 17 29h76q18 0 28 -25l215 -561l119 -336h4l107 336l188 561q6 25 27 25h76q28 0 18 -29l-342 -981q-49 -150 -117 -212t-194 -62z" />
    <glyph glyph-name="Amacron" unicode="&#x100;" horiz-adv-x="1343" 
d="M948 1575h-551q-25 0 -24 22v48q0 23 24 22h551q25 0 25 -22v-48q0 -22 -25 -22zM625 1436h94q25 0 33 -27l530 -1382q8 -27 -20 -27h-84q-20 0 -31 23l-146 383h-659l-147 -383q-10 -23 -29 -23h-86q-27 0 -19 27l529 1382q12 27 35 27zM381 522h580l-287 778h-4z" />
    <glyph glyph-name="amacron" unicode="&#x101;" horiz-adv-x="1116" 
d="M825 1214h-549q-23 0 -22 23v41q0 25 22 25h549q25 0 25 -25v-41q0 -23 -25 -23zM842 406v118q-365 -13 -453 -45q-130 -44 -164 -106q-20 -39 -20 -92q0 -88 64 -144q65 -55 190 -55q183 0 283 92t100 232zM958 705v-680q0 -25 -24 -25h-66q-23 0 -22 25v170
q-104 -213 -406 -213q-168 0 -260 80t-92 218t100 214q101 73 261 97q159 24 393 30v79q0 138 -67 202t-229 64t-329 -69q-25 -10 -31 14l-18 60q-6 18 14 28q174 76 381 76t301 -92t94 -278z" />
    <glyph glyph-name="Abreve" unicode="&#x102;" horiz-adv-x="1343" 
d="M673 1544q-128 0 -195 60t-68 143q0 20 18 20h43q18 0 25 -18q14 -57 53 -88t125 -31q150 0 178 119q2 18 22 18h41q20 0 21 -20q-2 -83 -68 -143t-195 -60zM625 1436h94q25 0 33 -27l530 -1382q8 -27 -20 -27h-84q-20 0 -31 23l-146 383h-659l-147 -383q-10 -23 -29 -23
h-86q-27 0 -19 27l529 1382q12 27 35 27zM381 522h580l-287 778h-4z" />
    <glyph glyph-name="abreve" unicode="&#x103;" horiz-adv-x="1116" 
d="M552 1192q-132 0 -197 63t-66 150q0 20 18 20h43q16 0 23 -18q14 -61 52 -96t127 -35t127 35t52 96q2 18 23 18h41q20 0 20 -20q-2 -86 -66 -150q-65 -63 -197 -63zM842 406v118q-365 -13 -453 -45q-130 -44 -164 -106q-20 -39 -20 -92q0 -88 64 -144q65 -55 190 -55
q183 0 283 92t100 232zM958 705v-680q0 -25 -24 -25h-66q-23 0 -22 25v170q-104 -213 -406 -213q-168 0 -260 80t-92 218t100 214q101 73 261 97q159 24 393 30v79q0 138 -67 202t-229 64t-329 -69q-25 -10 -31 14l-18 60q-6 18 14 28q174 76 381 76t301 -92t94 -278z" />
    <glyph glyph-name="Aogonek" unicode="&#x104;" horiz-adv-x="1343" 
d="M381 522h580l-287 778h-4zM625 1436h94q25 0 33 -27l530 -1382q8 -27 -20 -27h-19q-150 -68 -149 -168q0 -66 110 -65q34 0 60 7t28 -3l11 -45q6 -16 -9 -23q-54 -25 -124 -25t-120 33t-50 93t44 116q45 55 113 86q-8 8 -10 17l-146 383h-659l-147 -383q-10 -23 -29 -23
h-86q-27 0 -19 27l529 1382q12 27 35 27z" />
    <glyph glyph-name="aogonek" unicode="&#x105;" horiz-adv-x="1116" 
d="M842 406v118q-365 -13 -453 -45q-130 -44 -164 -106q-20 -39 -20 -92q0 -88 64 -144q65 -55 190 -55q183 0 283 92t100 232zM958 705v-680q0 -25 -24 -25h-21q-139 -61 -139 -154q0 -66 103 -65q27 0 56 6t32 -6l10 -41q2 -12 -8 -19q-37 -23 -113 -22q-170 0 -170 125
q0 55 46 106t118 80q-2 4 -2 15v170q-104 -213 -406 -213q-168 0 -260 80t-92 218t100 214q101 73 261 97q159 24 393 30v79q0 138 -67 202t-229 64t-329 -69q-25 -10 -31 14l-18 60q-6 18 14 28q174 76 381 76t301 -92t94 -278z" />
    <glyph glyph-name="Cacute" unicode="&#x106;" horiz-adv-x="1222" 
d="M801 1774h106q11 0 15 -12t-4 -19l-189 -178q-20 -16 -39 -17h-43q-12 0 -16 8t2 17l127 176q18 25 41 25zM772 96q160 0 295 72q23 12 35 -16l26 -62q6 -16 -18 -29q-143 -82 -352 -81q-307 0 -471 192t-164 546q0 353 162 547t463 193q211 0 346 -80q27 -12 18 -28
l-25 -62q-10 -27 -34 -14q-123 66 -289 65q-252 -1 -381 -159t-129 -462t130 -463t388 -159z" />
    <glyph glyph-name="cacute" unicode="&#x107;" horiz-adv-x="1003" 
d="M700 1427h107q14 0 17 -11t-7 -19l-190 -183q-20 -16 -39 -16h-41q-12 0 -17 8q-4 9 2 17l127 184q14 20 41 20zM111 528q0 260 131 404t356 143q176 0 287 -63q25 -14 16 -31l-24 -57q-8 -25 -35 -13q-100 53 -232 54q-180 0 -278 -111t-98 -326q0 -216 98 -328
t258 -112t266 62q23 10 31 -13l24 -59q6 -16 -18 -29q-117 -70 -287 -69q-229 0 -362 144t-133 404z" />
    <glyph glyph-name="Ccircumflex" unicode="&#x108;" horiz-adv-x="1222" 
d="M481 1548q-14 0 -16 8t8 19l186 178q16 16 37 16h62q18 0 39 -16l186 -178q10 -11 7 -19t-17 -8h-60q-13 1 -36 17l-148 121l-151 -121q-20 -16 -37 -17h-60zM772 96q160 0 295 72q23 12 35 -16l26 -62q6 -16 -18 -29q-143 -82 -352 -81q-307 0 -471 192t-164 546
q0 353 162 547t463 193q211 0 346 -80q27 -12 18 -28l-25 -62q-10 -27 -34 -14q-123 66 -289 65q-252 -1 -381 -159t-129 -462t130 -463t388 -159z" />
    <glyph glyph-name="ccircumflex" unicode="&#x109;" horiz-adv-x="1003" 
d="M373 1198h-58q-14 0 -17 9t7 18l193 186q16 16 37 16h61q23 0 39 -16l192 -186q10 -8 8 -18q-3 -9 -18 -9h-59q-17 0 -35 16l-156 134l-157 -134q-18 -16 -37 -16zM111 528q0 260 131 404t356 143q176 0 287 -63q25 -14 16 -31l-24 -57q-8 -25 -35 -13q-100 53 -232 54
q-180 0 -278 -111t-98 -326q0 -216 98 -328t258 -112t266 62q23 10 31 -13l24 -59q6 -16 -18 -29q-117 -70 -287 -69q-229 0 -362 144t-133 404z" />
    <glyph glyph-name="Cdotaccent" unicode="&#x10a;" horiz-adv-x="1222" 
d="M795 1722v-149q0 -25 -23 -25h-86q-27 0 -27 25v149q0 25 27 25h86q23 0 23 -25zM772 96q160 0 295 72q23 12 35 -16l26 -62q6 -16 -18 -29q-143 -82 -352 -81q-307 0 -471 192t-164 546q0 353 162 547t463 193q211 0 346 -80q27 -12 18 -28l-25 -62q-10 -27 -34 -14
q-123 66 -289 65q-252 -1 -381 -159t-129 -462t130 -463t388 -159z" />
    <glyph glyph-name="cdotaccent" unicode="&#x10b;" horiz-adv-x="1003" 
d="M651 1372v-149q0 -25 -22 -25h-86q-27 0 -27 25v149q0 27 27 27h86q22 0 22 -27zM111 528q0 260 131 404t356 143q176 0 287 -63q25 -14 16 -31l-24 -57q-8 -25 -35 -13q-100 53 -232 54q-180 0 -278 -111t-98 -326q0 -216 98 -328t258 -112t266 62q23 10 31 -13l24 -59
q6 -16 -18 -29q-117 -70 -287 -69q-229 0 -362 144t-133 404z" />
    <glyph glyph-name="Ccaron" unicode="&#x10c;" horiz-adv-x="1222" 
d="M911 1769h60q14 0 17 -9t-5 -17l-186 -180q-14 -14 -39 -15h-62q-20 0 -37 15l-186 180q-10 8 -6 17t18 9h58q8 0 35 -18l151 -121l148 121q20 18 34 18zM772 96q160 0 295 72q23 12 35 -16l26 -62q6 -16 -18 -29q-143 -82 -352 -81q-307 0 -471 192t-164 546
q0 353 162 547t463 193q211 0 346 -80q27 -12 18 -28l-25 -62q-10 -27 -34 -14q-123 66 -289 65q-252 -1 -381 -159t-129 -462t130 -463t388 -159z" />
    <glyph glyph-name="ccaron" unicode="&#x10d;" horiz-adv-x="1003" 
d="M770 1427h59q11 0 15 -8t-4 -16l-193 -189q-20 -16 -39 -16h-61q-20 0 -37 16l-193 189q-10 8 -7 16t18 8h57q18 0 37 -16l158 -131l155 131q18 16 35 16zM111 528q0 260 131 404t356 143q176 0 287 -63q25 -14 16 -31l-24 -57q-8 -25 -35 -13q-100 53 -232 54
q-180 0 -278 -111t-98 -326q0 -216 98 -328t258 -112t266 62q23 10 31 -13l24 -59q6 -16 -18 -29q-117 -70 -287 -69q-229 0 -362 144t-133 404z" />
    <glyph glyph-name="Dcaron" unicode="&#x10e;" horiz-adv-x="1376" 
d="M868 1769h60q14 0 17 -9t-5 -17l-186 -180q-14 -14 -39 -15h-62q-20 0 -37 15l-186 180q-10 8 -6 17t18 9h58q8 0 35 -18l151 -121l148 121q23 18 34 18zM553 1317h-236v-1198h238q141 -1 241 27q223 61 293 283q38 122 37 304q0 330 -141 457t-432 127zM555 0h-338
q-27 0 -27 27v1384q0 25 25 25h338q350 0 527 -160t177 -554t-176 -558t-526 -164z" />
    <glyph glyph-name="dcaron" unicode="&#x10f;" horiz-adv-x="1404" 
d="M1274 1038q-18 0 -14 25l49 192h-41q-27 0 -27 25v139q0 25 27 25h114q25 0 25 -25v-131q0 -21 -4 -35l-72 -196q-6 -18 -24 -19h-33zM963 25v182q-94 -227 -392 -227q-217 0 -339 140t-121 406q0 266 121 408q122 141 339 141q139 0 241 -60t149 -171v569q0 23 24 23h70
q27 0 26 -23v-1388q0 -25 -26 -25h-70q-22 0 -22 25zM963 526q1 213 -97 328t-274 115q-358 1 -358 -441t358 -442q176 0 274 114t97 326z" />
    <glyph glyph-name="Dcroat" unicode="&#x110;" horiz-adv-x="1380" 
d="M647 672h-325v-553h237q141 1 241 27q222 58 293 278q38 119 37 295q0 340 -141 469t-432 129h-235v-547h325q23 0 23 -25v-51q0 -22 -23 -22zM559 0h-338q-27 0 -26 27v645h-123q-25 0 -25 22v51q0 25 25 25h123v641q0 25 24 25h338q352 0 528 -162q177 -162 177 -556
t-176 -556t-527 -162z" />
    <glyph glyph-name="dcroat" unicode="&#x111;" horiz-adv-x="1257" 
d="M963 526q1 213 -97 328t-274 115q-358 1 -358 -441t358 -442q176 0 274 114t97 326zM963 25v182q-94 -227 -392 -227q-217 0 -339 140t-121 406q0 266 121 408q122 141 339 141q139 0 241 -60t149 -171v368h-324q-23 0 -23 23v33q0 25 23 24h324v121q0 23 24 23h70
q27 0 26 -23v-121h115q23 0 23 -24v-33q0 -23 -23 -23h-115v-1187q0 -25 -26 -25h-70q-22 0 -22 25z" />
    <glyph glyph-name="Emacron" unicode="&#x112;" horiz-adv-x="1112" 
d="M881 1575h-551q-25 0 -25 22v48q0 23 25 22h551q25 0 24 -22v-48q1 -22 -24 -22zM950 678h-633v-561h660q27 0 27 -25v-65q0 -27 -27 -27h-760q-27 0 -27 27v1384q0 25 25 25h756q27 0 26 -25v-65q0 -27 -26 -27h-654v-526h633q25 0 25 -27v-61q0 -27 -25 -27z" />
    <glyph glyph-name="emacron" unicode="&#x113;" horiz-adv-x="1138" 
d="M856 1214h-549q-23 0 -22 23v41q0 25 22 25h549q25 0 25 -25v-41q0 -23 -25 -23zM582 971q-336 0 -353 -400h684v17q1 174 -83 278t-248 105zM620 80q171 0 293 67q23 12 35 -14l21 -53q6 -18 -17 -29q-143 -76 -325 -76q-244 1 -380 147t-136 405t125 403t343 145
q219 0 335 -136t116 -359v-84q0 -25 -26 -25h-775q8 -179 114 -285t277 -106z" />
    <glyph glyph-name="Ebreve" unicode="&#x114;" horiz-adv-x="1112" 
d="M622 1544q-128 0 -195 60t-69 143q0 20 19 20h43q18 0 24 -18q14 -57 54 -88t125 -31q150 0 178 119q2 18 22 18h41q20 0 21 -20q-3 -83 -69 -143t-194 -60zM950 678h-633v-561h660q27 0 27 -25v-65q0 -27 -27 -27h-760q-27 0 -27 27v1384q0 25 25 25h756q27 0 26 -25
v-65q0 -27 -26 -27h-654v-526h633q25 0 25 -27v-61q0 -27 -25 -27z" />
    <glyph glyph-name="ebreve" unicode="&#x115;" horiz-adv-x="1138" 
d="M583 1192q-132 0 -197 63t-67 150q0 20 19 20h43q16 0 22 -18q15 -61 53 -96t127 -35t127 35t52 96q2 18 22 18h41q20 0 21 -20q-2 -85 -66 -149t-197 -64zM582 971q-336 0 -353 -400h684v17q1 174 -83 278t-248 105zM620 80q171 0 293 67q23 12 35 -14l21 -53
q6 -18 -17 -29q-143 -76 -325 -76q-244 1 -380 147t-136 405t125 403t343 145q219 0 335 -136t116 -359v-84q0 -25 -26 -25h-775q8 -179 114 -285t277 -106z" />
    <glyph glyph-name="Edotaccent" unicode="&#x116;" horiz-adv-x="1112" 
d="M707 1722v-149q0 -25 -23 -25h-86q-27 0 -27 25v149q0 25 27 25h86q23 0 23 -25zM950 678h-633v-561h660q27 0 27 -25v-65q0 -27 -27 -27h-760q-27 0 -27 27v1384q0 25 25 25h756q27 0 26 -25v-65q0 -27 -26 -27h-654v-526h633q25 0 25 -27v-61q0 -27 -25 -27z" />
    <glyph glyph-name="edotaccent" unicode="&#x117;" horiz-adv-x="1138" 
d="M649 1372v-149q0 -25 -22 -25h-86q-27 0 -27 25v149q0 27 27 27h86q22 0 22 -27zM582 971q-336 0 -353 -400h684v17q1 174 -83 278t-248 105zM620 80q171 0 293 67q23 12 35 -14l21 -53q6 -18 -17 -29q-143 -76 -325 -76q-244 1 -380 147t-136 405t125 403t343 145
q219 0 335 -136t116 -359v-84q0 -25 -26 -25h-775q8 -179 114 -285t277 -106z" />
    <glyph glyph-name="Eogonek" unicode="&#x118;" horiz-adv-x="1112" 
d="M950 678h-633v-561h660q27 0 27 -25v-65q0 -27 -27 -27h-41q-150 -68 -150 -168q0 -66 111 -65q35 0 61 7t27 -3l10 -45q6 -16 -8 -23q-53 -25 -124 -25t-121 33t-50 91t41 112q41 53 105 86h-621q-27 0 -27 27v1384q0 25 25 25h756q27 0 26 -25v-65q0 -27 -26 -27h-654
v-526h633q25 0 25 -27v-61q0 -27 -25 -27z" />
    <glyph glyph-name="eogonek" unicode="&#x119;" horiz-adv-x="1138" 
d="M582 971q-336 0 -353 -400h684v17q1 174 -83 278t-248 105zM620 80q171 0 293 67q23 12 35 -14l21 -53q6 -18 -17 -29q-96 -51 -231 -69q-102 -57 -103 -136q0 -66 103 -65q27 0 56 6t32 -6l10 -41q2 -12 -8 -19q-37 -23 -113 -22q-170 0 -170 125q0 82 97 151
q-244 1 -379 147t-135 405t125 403t343 145q219 0 335 -136t116 -359v-84q0 -25 -26 -25h-775q8 -179 114 -285t277 -106z" />
    <glyph glyph-name="Ecaron" unicode="&#x11a;" horiz-adv-x="1112" 
d="M793 1769h59q14 0 17 -9t-5 -17l-186 -180q-14 -14 -39 -15h-61q-20 0 -37 15l-187 180q-10 8 -6 17t19 9h57q8 0 35 -18l151 -121l148 121q20 18 35 18zM950 678h-633v-561h660q27 0 27 -25v-65q0 -27 -27 -27h-760q-27 0 -27 27v1384q0 25 25 25h756q27 0 26 -25v-65
q0 -27 -26 -27h-654v-526h633q25 0 25 -27v-61q0 -27 -25 -27z" />
    <glyph glyph-name="ecaron" unicode="&#x11b;" horiz-adv-x="1138" 
d="M774 1427h60q12 0 15 -8t-5 -16l-193 -189q-20 -16 -39 -16h-61q-20 0 -37 16l-192 189q-10 8 -8 16t18 8h57q18 0 37 -16l158 -131l155 131q18 16 35 16zM582 971q-336 0 -353 -400h684v17q1 174 -83 278t-248 105zM620 80q171 0 293 67q23 12 35 -14l21 -53
q6 -18 -17 -29q-143 -76 -325 -76q-244 1 -380 147t-136 405t125 403t343 145q219 0 335 -136t116 -359v-84q0 -25 -26 -25h-775q8 -179 114 -285t277 -106z" />
    <glyph glyph-name="Gcircumflex" unicode="&#x11c;" horiz-adv-x="1413" 
d="M518 1548q-14 0 -16 8t8 19l186 178q16 16 37 16h62q18 0 39 -16l186 -178q10 -11 7 -19t-17 -8h-60q-14 1 -37 17l-147 121l-152 -121q-20 -16 -36 -17h-60zM786 809h439q27 0 26 -27v-651q0 -35 -32 -57q-158 -94 -420 -94q-676 0 -676 739t680 739q211 0 375 -86
q27 -12 20 -29l-27 -61q-10 -27 -34 -14q-143 72 -328 71q-285 -1 -420 -153t-135 -468t135 -469t416 -153q190 0 321 68v530h-340q-27 0 -26 25v63q-1 27 26 27z" />
    <glyph glyph-name="gcircumflex" unicode="&#x11d;" horiz-adv-x="1189" 
d="M381 1198h-57q-14 0 -18 9t7 18l193 186q16 16 37 16h61q23 0 39 -16l193 -186q10 -7 7 -17t-18 -10h-59q-17 0 -35 16l-156 134l-157 -134q-18 -16 -37 -16zM1020 1024v-877q0 -193 -120 -295t-331 -102t-350 66q-18 12 -14 24l22 60q6 25 29 16q139 -59 304 -59
q165 -1 253 75t88 224v145q-41 -101 -136 -157t-220 -56q-199 0 -317 125t-117 367q-1 242 115 368t315 127q123 0 222 -55t138 -150v156q0 25 27 25h67q25 0 25 -27zM901 590q0 190 -89 286t-249 95q-332 0 -332 -390t332 -391q158 0 248 106q90 104 90 294z" />
    <glyph glyph-name="Gbreve" unicode="&#x11e;" horiz-adv-x="1413" 
d="M769 1544q-128 0 -195 60t-68 143q0 20 18 20h43q18 0 25 -18q14 -57 53 -88t125 -31q150 0 178 119q2 18 23 18h41q20 0 20 -20q-2 -83 -68 -143t-195 -60zM786 809h439q27 0 26 -27v-651q0 -35 -32 -57q-158 -94 -420 -94q-676 0 -676 739t680 739q211 0 375 -86
q27 -12 20 -29l-27 -61q-10 -27 -34 -14q-143 72 -328 71q-285 -1 -420 -153t-135 -468t135 -469t416 -153q190 0 321 68v530h-340q-27 0 -26 25v63q-1 27 26 27z" />
    <glyph glyph-name="gbreve" unicode="&#x11f;" horiz-adv-x="1189" 
d="M574 1192q-132 0 -196 63t-67 150q0 20 19 20h43q16 0 22 -18q14 -61 52 -96t127 -35t127 35t53 96q2 18 22 18h41q20 0 21 -20q-2 -85 -67 -149t-197 -64zM1020 1024v-877q0 -193 -120 -295t-331 -102t-350 66q-18 12 -14 24l22 60q6 25 29 16q139 -59 304 -59
q165 -1 253 75t88 224v145q-41 -101 -136 -157t-220 -56q-199 0 -317 125t-117 367q-1 242 115 368t315 127q123 0 222 -55t138 -150v156q0 25 27 25h67q25 0 25 -27zM901 590q0 190 -89 286t-249 95q-332 0 -332 -390t332 -391q158 0 248 106q90 104 90 294z" />
    <glyph glyph-name="Gdotaccent" unicode="&#x120;" horiz-adv-x="1413" 
d="M860 1722v-149q0 -25 -22 -25h-86q-27 0 -27 25v149q0 25 27 25h86q22 0 22 -25zM786 809h439q27 0 26 -27v-651q0 -35 -32 -57q-158 -94 -420 -94q-676 0 -676 739t680 739q211 0 375 -86q27 -12 20 -29l-27 -61q-10 -27 -34 -14q-143 72 -328 71q-285 -1 -420 -153
t-135 -468t135 -469t416 -153q190 0 321 68v530h-340q-27 0 -26 25v63q-1 27 26 27z" />
    <glyph glyph-name="gdotaccent" unicode="&#x121;" horiz-adv-x="1189" 
d="M662 1372v-149q0 -25 -23 -25h-86q-27 0 -27 25v149q0 27 27 27h86q23 0 23 -27zM1020 1024v-877q0 -193 -120 -295t-331 -102t-350 66q-18 12 -14 24l22 60q6 25 29 16q139 -59 304 -59q165 -1 253 75t88 224v145q-41 -101 -136 -157t-220 -56q-199 0 -317 125t-117 367
q-1 242 115 368t315 127q123 0 222 -55t138 -150v156q0 25 27 25h67q25 0 25 -27zM901 590q0 190 -89 286t-249 95q-332 0 -332 -390t332 -391q158 0 248 106q90 104 90 294z" />
    <glyph glyph-name="Gcommaaccent" unicode="&#x122;" horiz-adv-x="1413" 
d="M815 -477h-18q-23 0 -15 22l43 174h-47q-23 0 -22 25v127q0 25 22 25h111q27 0 26 -25v-121q0 -19 -6 -33l-69 -174q-8 -20 -25 -20zM786 809h439q27 0 26 -27v-651q0 -35 -32 -57q-158 -94 -420 -94q-676 0 -676 739t680 739q211 0 375 -86q27 -12 20 -29l-27 -61
q-10 -27 -34 -14q-143 72 -328 71q-285 -1 -420 -153t-135 -468t135 -469t416 -153q190 0 321 68v530h-340q-27 0 -26 25v63q-1 27 26 27z" />
    <glyph glyph-name="gcommaaccent" unicode="&#x123;" horiz-adv-x="1189" 
d="M582 1546h20q16 0 12 -22l-34 -166h43q25 0 24 -23v-118q0 -25 -24 -25h-105q-25 0 -24 25v110q0 21 6 33l57 168q10 18 25 18zM1020 1024v-877q0 -193 -120 -295t-331 -102t-350 66q-18 12 -14 24l22 60q6 25 29 16q139 -59 304 -59q165 -1 253 75t88 224v145
q-41 -101 -136 -157t-220 -56q-199 0 -317 125t-117 367q-1 242 115 368t315 127q123 0 222 -55t138 -150v156q0 25 27 25h67q25 0 25 -27zM901 590q0 190 -89 286t-249 95q-332 0 -332 -390t332 -391q158 0 248 106q90 104 90 294z" />
    <glyph glyph-name="Hcircumflex" unicode="&#x124;" horiz-adv-x="1429" 
d="M465 1548q-14 0 -16 8t8 19l186 178q16 16 37 16h61q18 0 39 -16l187 -178q10 -11 7 -19t-18 -8h-59q-14 1 -37 17l-147 121l-152 -121q-20 -16 -37 -17h-59zM1112 27v649h-795v-649q0 -27 -26 -27h-74q-27 0 -27 27v1384q0 25 27 25h74q27 0 26 -25v-616h795v616
q0 25 27 25h75q25 0 25 -25v-1384q0 -27 -25 -27h-75q-27 0 -27 27z" />
    <glyph glyph-name="hcircumflex" unicode="&#x125;" horiz-adv-x="1210" 
d="M356 1548q-14 0 -16 8t8 19l187 178q16 16 36 16h62q18 0 39 -16l186 -178q10 -11 7 -19t-17 -8h-60q-13 1 -36 17l-148 121l-151 -121q-20 -16 -37 -17h-60zM1051 700v-675q0 -25 -23 -25h-72q-25 0 -24 25v659q0 279 -285 279q-158 -1 -254 -93t-96 -233v-612
q0 -25 -25 -25h-69q-27 0 -27 25v1388q0 23 27 23h69q25 0 25 -23v-549q35 84 130 148t264 63q169 1 265 -99t95 -276z" />
    <glyph glyph-name="Hbar" unicode="&#x126;" horiz-adv-x="1388" 
d="M317 795h795v315h-795v-315zM1112 27v649h-795v-649q0 -27 -26 -27h-74q-27 0 -27 27v1083h-114q-25 0 -25 23v32q0 23 25 23h114v223q0 25 27 25h74q27 0 26 -25v-223h795v223q0 25 27 25h75q25 0 25 -27v-221h115q25 0 24 -23v-32q0 -23 -24 -23h-115v-1083
q0 -27 -25 -27h-75q-27 0 -27 27z" />
    <glyph glyph-name="hbar" unicode="&#x127;" horiz-adv-x="1210" 
d="M1051 700v-675q0 -25 -23 -25h-72q-25 0 -24 25v659q0 279 -285 279q-158 -1 -254 -93t-96 -233v-612q0 -25 -25 -25h-69q-27 0 -27 25v1187h-115q-23 0 -22 23v33q0 25 22 24h115v121q0 23 27 23h69q25 0 25 -23v-121h324q23 0 22 -24v-33q0 -23 -22 -23h-324v-348
q35 84 130 148t264 63q169 1 265 -99t95 -276z" />
    <glyph glyph-name="Itilde" unicode="&#x128;" horiz-adv-x="536" 
d="M582 1679q0 -63 -35 -103t-101 -40t-172 41l-49 18q-90 33 -134 33t-50 -37l-2 -24q-2 -25 -31 -25h-35q-23 0 -23 48t35 87q34 39 91 39t180 -45l53 -20q80 -33 126 -33t54 49l3 21q2 25 32 24h33q25 0 25 -33zM205 27v1384q0 25 24 25h76q27 0 27 -25v-1384
q0 -27 -27 -27h-76q-24 0 -24 27z" />
    <glyph glyph-name="itilde" unicode="&#x129;" horiz-adv-x="464" 
d="M506 1360q20 0 20 -45t-32 -81t-98 -36q-67 0 -156 39l-45 18q-72 29 -112 29t-48 -35l-6 -24q-6 -23 -31 -23h-35q-23 0 -23 45t32 81t92 36t163 -41l49 -18q76 -31 114 -31t46 43l4 20q2 23 29 23h37zM293 1024v-999q0 -25 -25 -25h-69q-25 0 -25 25v999q0 27 25 27h69
q25 0 25 -27z" />
    <glyph glyph-name="Imacron" unicode="&#x12a;" horiz-adv-x="536" 
d="M541 1575h-551q-25 0 -25 22v48q0 23 25 22h551q25 0 24 -22v-48q1 -22 -24 -22zM205 27v1384q0 25 24 25h76q27 0 27 -25v-1384q0 -27 -27 -27h-76q-24 0 -24 27z" />
    <glyph glyph-name="imacron" unicode="&#x12b;" horiz-adv-x="464" 
d="M508 1214h-549q-23 0 -22 23v41q0 25 22 25h549q25 0 24 -25v-41q1 -23 -24 -23zM293 1024v-999q0 -25 -25 -25h-69q-25 0 -25 25v999q0 27 25 27h69q25 0 25 -27z" />
    <glyph glyph-name="Ibreve" unicode="&#x12c;" horiz-adv-x="536" 
d="M265 1544q-129 0 -195 60t-68 143q0 20 18 20h43q18 0 25 -18q14 -57 53 -88t125 -31q150 0 178 119q2 18 23 18h41q20 0 20 -20q-2 -83 -68 -143t-195 -60zM205 27v1384q0 25 24 25h76q27 0 27 -25v-1384q0 -27 -27 -27h-76q-24 0 -24 27z" />
    <glyph glyph-name="ibreve" unicode="&#x12d;" horiz-adv-x="464" 
d="M235 1192q-132 0 -197 63t-67 150q0 20 19 20h43q16 0 22 -18q15 -61 53 -96t127 -35t127 35t52 96q2 18 22 18h41q20 0 21 -20q-2 -85 -66 -149t-197 -64zM293 1024v-999q0 -25 -25 -25h-69q-25 0 -25 25v999q0 27 25 27h69q25 0 25 -27z" />
    <glyph glyph-name="Iogonek" unicode="&#x12e;" horiz-adv-x="536" 
d="M205 27v1384q0 25 24 25h76q27 0 27 -25v-1384q0 -27 -27 -27h-10q-150 -68 -150 -168q0 -66 111 -65q34 0 60 7t28 -3l10 -45q6 -16 -8 -23q-53 -25 -124 -25t-121 33t-50 93t45 116q45 55 115 86q-6 7 -6 21z" />
    <glyph glyph-name="iogonek" unicode="&#x12f;" horiz-adv-x="464" 
d="M293 1395v-170q0 -25 -25 -25h-71q-23 0 -23 25v170q0 25 23 24h71q25 1 25 -24zM293 1024v-999q0 -25 -25 -25h-22q-139 -61 -140 -154q0 -66 103 -65q27 0 56 6t32 -6l10 -41q2 -12 -8 -19q-37 -23 -113 -22q-170 0 -170 125q0 53 45 105t115 81q-2 4 -2 15v999
q0 27 23 27h71q25 0 25 -27z" />
    <glyph glyph-name="Idotaccent" unicode="&#x130;" horiz-adv-x="536" 
d="M332 1722v-149q0 -25 -23 -25h-86q-27 0 -26 25v149q0 25 26 25h86q23 0 23 -25zM205 27v1384q0 25 24 25h76q27 0 27 -25v-1384q0 -27 -27 -27h-76q-24 0 -24 27z" />
    <glyph glyph-name="dotlessi" unicode="&#x131;" horiz-adv-x="464" 
d="M293 1024v-999q0 -25 -25 -25h-69q-25 0 -25 25v999q0 27 25 27h69q25 0 25 -27z" />
    <glyph glyph-name="IJ" unicode="&#x132;" horiz-adv-x="1462" 
d="M1147 426v985q0 25 27 25h75q25 0 25 -25v-995q0 -438 -397 -439q-184 0 -306 74q-27 18 -18 37l25 64q12 25 32 12q115 -70 258 -70q279 0 279 332zM205 27v1384q0 25 24 25h76q27 0 27 -25v-1384q0 -27 -27 -27h-76q-24 0 -24 27z" />
    <glyph glyph-name="ij" unicode="&#x133;" horiz-adv-x="948" 
d="M776 1395v-170q0 -25 -24 -25h-72q-25 0 -25 25v170q0 25 25 24h72q24 1 24 -24zM655 258v766q0 27 25 27h72q25 0 24 -27v-778q0 -132 -50 -196t-163 -64q-74 0 -119 14q-16 6 -16 27v59q0 20 27 16q51 -10 99 -10q101 0 101 166zM293 1395v-170q0 -25 -25 -25h-71
q-23 0 -23 25v170q0 25 23 24h71q25 1 25 -24zM293 1024v-999q0 -25 -25 -25h-71q-23 0 -23 25v999q0 27 23 27h71q25 0 25 -27z" />
    <glyph glyph-name="Jcircumflex" unicode="&#x134;" horiz-adv-x="956" 
d="M209 1548q-14 0 -16 8t8 19l186 178q16 16 37 16h61q18 0 39 -16l187 -178q10 -11 7 -19t-18 -8h-59q-14 1 -37 17l-147 121l-152 -121q-20 -16 -37 -17h-59zM649 426v985q0 25 27 25h76q25 0 24 -25v-995q0 -438 -397 -439q-184 0 -305 74q-27 18 -19 37l25 64
q12 25 33 12q115 -70 258 -70q278 0 278 332z" />
    <glyph glyph-name="jcircumflex" unicode="&#x135;" horiz-adv-x="485" 
d="M57 1198h-57q-14 0 -17 9t7 18l192 186q16 16 37 16h62q23 0 38 -16l193 -186q10 -7 7 -17t-17 -10h-60q-16 0 -34 16l-156 134l-158 -134q-18 -16 -37 -16zM193 39v985q0 27 22 27h72q25 0 24 -27v-997q0 -133 -50 -197t-163 -63q-63 0 -116 14q-20 6 -21 26l2 60
q0 20 27 18q55 -10 102 -10q101 0 101 164z" />
    <glyph glyph-name="Kcommaaccent" unicode="&#x136;" horiz-adv-x="1220" 
d="M647 -477h-18q-23 0 -15 22l43 174h-47q-23 0 -22 25v127q0 25 22 25h111q27 0 27 -25v-121q-1 -19 -7 -33l-69 -174q-8 -20 -25 -20zM1118 1436q16 0 22 -12t-5 -21l-717 -635l733 -733q16 -16 7 -26q-9 -9 -19 -9h-101q-23 0 -45 23l-676 671v-667q0 -27 -26 -27h-74
q-27 0 -27 27v1384q0 25 27 25h74q27 0 26 -25v-582l662 588q20 18 43 19h96z" />
    <glyph glyph-name="kcommaaccent" unicode="&#x137;" horiz-adv-x="987" 
d="M526 -459q-16 0 -12 23l35 166h-43q-25 0 -25 22v119q0 25 25 25h104q25 0 25 -25v-111q0 -20 -6 -32l-58 -168q-10 -18 -24 -19h-21zM934 0h-105q-18 0 -34 16l-498 490v-481q0 -25 -25 -25h-69q-27 0 -27 25v1388q0 23 27 23h69q25 0 25 -23v-749l477 374q16 12 35 13
h104q13 1 17 -11t-8 -22l-551 -428l575 -559q10 -11 5 -21t-17 -10z" />
    <glyph glyph-name="kgreenlandic" unicode="&#x138;" horiz-adv-x="978" 
d="M928 0h-105q-18 0 -35 16l-497 490v-481q0 -25 -25 -25h-69q-27 0 -27 25v999q0 27 27 27h69q25 0 25 -27v-360l479 374q16 12 33 13h104q13 1 17 -11t-9 -22l-550 -428l573 -559q10 -11 6 -21t-16 -10z" />
    <glyph glyph-name="Lacute" unicode="&#x139;" horiz-adv-x="1079" 
d="M420 1774h106q12 0 16 -12t-5 -19l-189 -178q-20 -16 -39 -17h-43q-12 0 -16 8t2 17l127 176q18 25 41 25zM340 1411v-1292h647q27 0 27 -25v-67q0 -27 -27 -27h-747q-27 0 -27 27v1384q0 25 27 25h73q27 0 27 -25z" />
    <glyph glyph-name="lacute" unicode="&#x13a;" horiz-adv-x="464" 
d="M356 1774h107q12 0 15 -12t-5 -19l-188 -178q-20 -16 -39 -17h-43q-12 0 -17 8q-4 9 2 17l127 176q18 25 41 25zM293 1413v-1388q0 -25 -25 -25h-71q-23 0 -23 25v1388q0 23 23 23h71q25 0 25 -23z" />
    <glyph glyph-name="Lcommaaccent" unicode="&#x13b;" horiz-adv-x="1079" 
d="M520 -477h-18q-23 0 -15 22l43 174h-47q-23 0 -22 25v127q0 25 22 25h111q27 0 27 -25v-121q-1 -19 -7 -33l-69 -174q-8 -20 -25 -20zM317 1411v-1292h648q27 0 26 -25v-67q0 -27 -26 -27h-748q-27 0 -27 27v1384q0 25 27 25h74q26 0 26 -25z" />
    <glyph glyph-name="lcommaaccent" unicode="&#x13c;" horiz-adv-x="464" 
d="M201 -459q-16 0 -13 23l35 166h-43q-25 0 -24 22v119q0 25 24 25h105q25 0 24 -25v-111q0 -20 -6 -32l-57 -168q-10 -18 -25 -19h-20zM297 1413v-1388q0 -25 -25 -25h-71q-23 0 -23 25v1388q0 23 23 23h71q25 0 25 -23z" />
    <glyph glyph-name="Lcaron" unicode="&#x13d;" horiz-adv-x="1079" 
d="M623 1038q-18 0 -15 25l49 192h-41q-27 0 -26 25v139q0 25 26 25h115q25 0 25 -25v-131q0 -21 -4 -35l-72 -196q-6 -18 -25 -19h-32zM317 1411v-1292h648q27 0 26 -25v-67q0 -27 -26 -27h-748q-27 0 -27 27v1384q0 25 27 25h74q26 0 26 -25z" />
    <glyph glyph-name="lcaron" unicode="&#x13e;" horiz-adv-x="620" 
d="M489 1038q-18 0 -14 25l49 192h-41q-27 0 -26 25v139q0 25 26 25h115q25 0 25 -25v-131q-1 -21 -5 -35l-71 -196q-6 -18 -25 -19h-33zM297 1413v-1388q0 -25 -25 -25h-71q-23 0 -23 25v1388q0 23 23 23h71q25 0 25 -23z" />
    <glyph glyph-name="Ldot" unicode="&#x13f;" horiz-adv-x="1089" 
d="M764 594v141q0 25 24 25h109q25 0 25 -25v-141q0 -25 -23 -25h-111q-24 0 -24 25zM317 1411v-1292h648q27 0 26 -25v-67q0 -27 -26 -27h-748q-27 0 -27 27v1384q0 25 27 25h74q26 0 26 -25z" />
    <glyph glyph-name="ldot" unicode="&#x140;" horiz-adv-x="589" 
d="M449 461v141q0 25 24 25h109q25 0 24 -25v-141q0 -25 -22 -25h-111q-24 0 -24 25zM287 1413v-1388q0 -25 -25 -25h-72q-23 0 -22 25v1388q0 23 22 23h72q25 0 25 -23z" />
    <glyph glyph-name="Lslash" unicode="&#x141;" horiz-adv-x="1083" 
d="M322 1411v-672l276 162q25 14 35 -8l18 -31q10 -18 -10 -31l-319 -186v-526h647q27 0 26 -25v-67q0 -27 -26 -27h-748q-27 0 -26 27v542l-62 -34q-23 -10 -33 10l-18 28q-12 20 10 31l103 62v745q0 25 26 25h74q27 0 27 -25z" />
    <glyph glyph-name="lslash" unicode="&#x142;" horiz-adv-x="473" 
d="M297 1413v-608l41 24q23 10 33 -8l18 -30q10 -20 -10 -33l-82 -49v-684q0 -25 -25 -25h-71q-23 0 -23 25v614l-43 -23q-20 -12 -33 11l-18 30q-12 20 10 31l84 49v676q0 23 23 23h71q25 0 25 -23z" />
    <glyph glyph-name="Nacute" unicode="&#x143;" horiz-adv-x="1431" 
d="M834 1774h106q12 0 15 -12t-5 -19l-188 -178q-20 -16 -39 -17h-43q-12 0 -16 8t2 17l127 176q18 25 41 25zM1241 1413v-1386q0 -27 -27 -27h-79q-23 0 -37 20l-783 1207v-1200q0 -27 -24 -27h-74q-27 0 -27 27v1384q0 25 27 25h78q29 0 41 -19l780 -1208v1202q0 25 27 25
h71q27 0 27 -23z" />
    <glyph glyph-name="nacute" unicode="&#x144;" horiz-adv-x="1193" 
d="M662 1427h106q14 0 17 -11t-7 -19l-190 -183q-20 -16 -39 -16h-41q-12 0 -16 8t2 17l127 184q14 20 41 20zM1034 700v-675q0 -25 -24 -25h-70q-25 0 -25 25v661q0 276 -280 277q-156 -1 -252 -91t-96 -233v-614q0 -25 -25 -25h-72q-23 0 -22 25v999q0 27 22 27h70
q25 0 25 -25l2 -160q98 209 375 209q184 1 278 -99t94 -276z" />
    <glyph glyph-name="Ncommaaccent" unicode="&#x145;" horiz-adv-x="1431" 
d="M694 -477h-18q-23 0 -14 22l43 174h-48q-23 0 -22 25v127q0 25 22 25h111q27 0 27 -25v-121q-1 -19 -7 -33l-69 -174q-8 -20 -25 -20zM1241 1413v-1386q0 -27 -27 -27h-79q-23 0 -37 20l-783 1207v-1200q0 -27 -24 -27h-74q-27 0 -27 27v1384q0 25 27 25h78q29 0 41 -19
l780 -1208v1202q0 25 27 25h71q27 0 27 -23z" />
    <glyph glyph-name="ncommaaccent" unicode="&#x146;" horiz-adv-x="1193" 
d="M582 -459q-16 0 -13 23l35 166h-43q-25 0 -24 22v119q0 25 24 25h105q25 0 24 -25v-111q0 -20 -6 -32l-57 -168q-10 -18 -25 -19h-20zM1034 700v-675q0 -25 -24 -25h-70q-25 0 -25 25v661q0 276 -280 277q-156 -1 -252 -91t-96 -233v-614q0 -25 -25 -25h-72q-23 0 -22 25
v999q0 27 22 27h70q25 0 25 -25l2 -160q98 209 375 209q184 1 278 -99t94 -276z" />
    <glyph glyph-name="Ncaron" unicode="&#x147;" horiz-adv-x="1431" 
d="M897 1769h59q14 0 18 -9t-5 -17l-187 -180q-14 -14 -39 -15h-61q-20 0 -37 15l-186 180q-10 8 -6 17t18 9h57q8 0 35 -18l152 -121l147 121q23 18 35 18zM1241 1413v-1386q0 -27 -27 -27h-79q-23 0 -37 20l-783 1207v-1200q0 -27 -24 -27h-74q-27 0 -27 27v1384
q0 25 27 25h78q29 0 41 -19l780 -1208v1202q0 25 27 25h71q27 0 27 -23z" />
    <glyph glyph-name="ncaron" unicode="&#x148;" horiz-adv-x="1193" 
d="M780 1427h60q12 0 15 -8t-5 -16l-193 -189q-20 -16 -39 -16h-61q-20 0 -37 16l-192 189q-10 8 -7 16t17 8h57q18 0 37 -16l158 -131l155 131q18 16 35 16zM1034 700v-675q0 -25 -24 -25h-70q-25 0 -25 25v661q0 276 -280 277q-156 -1 -252 -91t-96 -233v-614
q0 -25 -25 -25h-72q-23 0 -22 25v999q0 27 22 27h70q25 0 25 -25l2 -160q98 209 375 209q184 1 278 -99t94 -276z" />
    <glyph glyph-name="napostrophe" unicode="&#x149;" horiz-adv-x="1353" 
d="M70 1055h-33q-18 0 -14 24l49 193h-41q-27 0 -27 24v140q0 25 27 24h114q25 0 25 -24v-131q0 -21 -4 -35l-72 -197q-6 -18 -24 -18zM1194 700v-675q0 -25 -25 -25h-69q-25 0 -25 25v661q0 276 -280 277q-156 -1 -252 -91t-97 -233v-614q0 -25 -24 -25h-72q-23 0 -22 25
v999q0 27 22 27h70q25 0 24 -25l2 -160q98 209 375 209q184 0 279 -99q94 -100 94 -276z" />
    <glyph glyph-name="Eng" unicode="&#x14a;" horiz-adv-x="1431" 
d="M1241 1411v-1411q0 -115 -60 -174q-61 -59 -159 -59t-132 13t-30 30l19 59q7 25 35 15t81 -11q121 0 121 121l-801 1233v-1200q0 -27 -24 -27h-74q-27 0 -27 27v1384q0 25 27 25h78q29 0 41 -19l780 -1208v1202q0 25 27 25h71q27 0 27 -25z" />
    <glyph glyph-name="eng" unicode="&#x14b;" horiz-adv-x="1193" 
d="M915 39v645q0 279 -280 279q-156 -1 -252 -91t-96 -233v-614q0 -25 -25 -25h-72q-23 0 -22 25v999q0 27 22 27h72q25 0 25 -25v-160q98 209 375 209q184 0 278 -99t94 -276v-673q0 -260 -211 -260q-63 0 -118 16q-16 2 -17 24l2 60q0 25 39 17t78 -9q108 0 108 164z" />
    <glyph glyph-name="Omacron" unicode="&#x14c;" horiz-adv-x="1445" 
d="M997 1575h-551q-25 0 -24 22v48q0 23 24 22h551q25 0 25 -22v-48q0 -22 -25 -22zM250 719q0 -303 118 -463t356 -160q236 0 354 160t118 463t-118 463t-354 160t-356 -160q-118 -160 -118 -463zM723 1458q295 0 449 -192t155 -548q0 -354 -155 -546q-156 -192 -450 -192
t-449 191t-155 547t155 548t450 192z" />
    <glyph glyph-name="omacron" unicode="&#x14d;" horiz-adv-x="1193" 
d="M870 1214h-548q-23 0 -23 23v41q0 25 23 25h548q25 0 25 -25v-41q0 -23 -25 -23zM596 86q176 0 270 112t94 328t-94 330q-94 113 -270 113t-269 -113t-93 -330q0 -216 92 -328q94 -112 270 -112zM596 -20q-229 0 -357 143t-128 404t128 405t357 143q229 0 358 -143
q129 -142 129 -404t-129 -405t-358 -143z" />
    <glyph glyph-name="Obreve" unicode="&#x14e;" horiz-adv-x="1445" 
d="M722 1544q-128 0 -195 60t-68 143q0 20 18 20h43q18 0 25 -18q14 -57 53 -88t125 -31q150 0 178 119q2 18 23 18h41q20 0 20 -20q-3 -83 -69 -143t-194 -60zM250 719q0 -303 118 -463t356 -160q236 0 354 160t118 463t-118 463t-354 160t-356 -160q-118 -160 -118 -463z
M723 1458q295 0 449 -192t155 -548q0 -354 -155 -546q-156 -192 -450 -192t-449 191t-155 547t155 548t450 192z" />
    <glyph glyph-name="obreve" unicode="&#x14f;" horiz-adv-x="1193" 
d="M597 1192q-132 0 -197 63t-66 150q0 20 18 20h43q16 0 23 -18q14 -61 52 -96t127 -35t127 35t52 96q2 18 23 18h41q20 0 20 -20q-2 -86 -66 -150q-65 -63 -197 -63zM596 86q176 0 270 112t94 328t-94 330q-94 113 -270 113t-269 -113t-93 -330q0 -216 92 -328
q94 -112 270 -112zM596 -20q-229 0 -357 143t-128 404t128 405t357 143q229 0 358 -143q129 -142 129 -404t-129 -405t-358 -143z" />
    <glyph glyph-name="Ohungarumlaut" unicode="&#x150;" horiz-adv-x="1445" 
d="M981 1776h86q14 0 18 -12t-4 -21l-151 -178q-16 -16 -39 -17h-45q-27 0 -15 25l111 180q14 23 39 23zM670 1776h88q12 0 15 -12t-5 -21l-152 -178q-14 -16 -38 -17h-46q-12 0 -15 8t3 17l109 180q14 23 41 23zM250 719q0 -303 118 -463t356 -160q236 0 354 160t118 463
t-118 463t-354 160t-356 -160q-118 -160 -118 -463zM723 1458q295 0 449 -192t155 -548q0 -354 -155 -546q-156 -192 -450 -192t-449 191t-155 547t155 548t450 192z" />
    <glyph glyph-name="ohungarumlaut" unicode="&#x151;" horiz-adv-x="1193" 
d="M850 1427h84q12 0 17 -11t-3 -19l-155 -183q-14 -16 -39 -16h-39q-12 0 -17 8q-4 9 2 17l111 184q12 20 39 20zM543 1427h84q12 0 16 -10t-4 -20l-156 -183q-16 -16 -37 -16h-40q-12 0 -17 8q-4 9 2 17l113 184q14 20 39 20zM596 86q176 0 270 112t94 328t-94 330
q-94 113 -270 113t-269 -113t-93 -330q0 -216 92 -328q94 -112 270 -112zM596 -20q-229 0 -357 143t-128 404t128 405t357 143q229 0 358 -143q129 -142 129 -404t-129 -405t-358 -143z" />
    <glyph glyph-name="OE" unicode="&#x152;" horiz-adv-x="1884" 
d="M1022 1317h-133q-141 0 -241 -27q-219 -60 -284 -277q-36 -118 -36 -294q0 -350 146 -480q75 -67 173 -94t240 -26h135v1198zM1722 678h-577v-559h604q27 0 27 -25v-67q0 -27 -27 -27h-862q-350 0 -520 161t-170 557t171 557t521 161h854q27 0 26 -25v-68q0 -27 -26 -26
h-598v-524h577q25 0 25 -27v-61q0 -27 -25 -27z" />
    <glyph glyph-name="oe" unicode="&#x153;" horiz-adv-x="1923" 
d="M1384 971q-152 1 -242 -101t-98 -286h652v14q0 166 -80 270t-232 103zM582 86q166 0 257 114t91 328t-92 327q-92 114 -256 114t-256 -114t-92 -328q0 -213 90 -327q92 -114 258 -114zM1412 80q152 0 288 65q25 10 35 -14l22 -55q4 -14 -12 -27q-119 -74 -299 -74
t-292 74t-161 205q-47 -131 -155 -203t-256 -71q-217 0 -344 144t-127 403t127 403t344 145q147 -1 255 -71t154 -199q47 129 147 200t244 70q201 0 317 -136t116 -347v-84q0 -25 -27 -25h-744q8 -183 112 -293t256 -110z" />
    <glyph glyph-name="Racute" unicode="&#x154;" horiz-adv-x="1312" 
d="M756 1774h106q12 0 16 -12t-6 -19l-188 -178q-20 -16 -39 -17h-43q-12 0 -16 8t2 17l127 176q18 25 41 25zM217 1436h393q298 0 438 -110t140 -345q0 -399 -440 -440l438 -506q10 -11 6 -23t-21 -12h-88q-23 0 -39 20l-438 508h-289v-501q0 -27 -26 -27h-74q-27 0 -27 27
v1384q0 25 27 25zM317 645h287q246 0 349 79t103 258t-104 258t-344 79h-291v-674z" />
    <glyph glyph-name="racute" unicode="&#x155;" horiz-adv-x="733" 
d="M453 1427h106q13 0 17 -11t-7 -19l-190 -183q-20 -16 -39 -16h-41q-12 0 -16 8t2 17l127 184q14 20 41 20zM289 535v-510q0 -25 -25 -25h-69q-27 0 -27 25v999q0 27 27 27h69q25 0 25 -25v-225q33 92 126 173t230 81q20 0 21 -19v-88q0 -23 -23 -22l-39 4
q-127 0 -221 -122t-94 -273z" />
    <glyph glyph-name="Rcommaaccent" unicode="&#x156;" horiz-adv-x="1312" 
d="M635 -477h-19q-23 0 -14 22l43 174h-47q-23 0 -23 25v127q0 25 23 25h111q27 0 26 -25v-121q0 -19 -6 -33l-70 -174q-8 -20 -24 -20zM217 1436h393q298 0 438 -110t140 -345q0 -399 -440 -440l438 -506q10 -11 6 -23t-21 -12h-88q-23 0 -39 20l-438 508h-289v-501
q0 -27 -26 -27h-74q-27 0 -27 27v1384q0 25 27 25zM317 645h287q246 0 349 79t103 258t-104 258t-344 79h-291v-674z" />
    <glyph glyph-name="rcommaaccent" unicode="&#x157;" horiz-adv-x="733" 
d="M199 -459q-16 0 -13 23l35 166h-43q-25 0 -24 22v119q0 25 24 25h105q25 0 24 -25v-111q0 -20 -6 -32l-57 -168q-10 -18 -25 -19h-20zM289 535v-510q0 -25 -25 -25h-69q-27 0 -27 25v999q0 27 27 27h69q25 0 25 -25v-225q33 92 126 173t230 81q20 0 21 -19v-88
q0 -23 -23 -22l-39 4q-127 0 -221 -122t-94 -273z" />
    <glyph glyph-name="Rcaron" unicode="&#x158;" horiz-adv-x="1312" 
d="M840 1769h59q14 0 17 -9t-5 -17l-186 -180q-14 -14 -39 -15h-61q-20 0 -37 15l-187 180q-10 8 -6 17t19 9h57q8 0 35 -18l151 -121l148 121q23 18 35 18zM217 1436h393q298 0 438 -110t140 -345q0 -399 -440 -440l438 -506q10 -11 6 -23t-21 -12h-88q-23 0 -39 20
l-438 508h-289v-501q0 -27 -26 -27h-74q-27 0 -27 27v1384q0 25 27 25zM317 645h287q246 0 349 79t103 258t-104 258t-344 79h-291v-674z" />
    <glyph glyph-name="rcaron" unicode="&#x159;" horiz-adv-x="733" 
d="M590 1427h59q11 0 15 -8t-5 -16l-192 -189q-20 -16 -39 -16h-61q-20 0 -37 16l-193 189q-10 8 -7 16t17 8h58q18 0 37 -16l157 -131l156 131q18 16 35 16zM289 535v-510q0 -25 -25 -25h-69q-27 0 -27 25v999q0 27 27 27h69q25 0 25 -25v-225q33 92 126 173t230 81
q20 0 21 -19v-88q0 -23 -23 -22l-39 4q-127 0 -221 -122t-94 -273z" />
    <glyph glyph-name="Sacute" unicode="&#x15a;" horiz-adv-x="1118" 
d="M662 1774h106q12 0 15 -12t-5 -19l-188 -178q-20 -16 -39 -17h-43q-12 0 -16 8t2 17l127 176q18 25 41 25zM1020 354q0 -176 -134 -274t-376 -98t-389 63q-27 12 -21 31l25 65q8 25 31 15q146 -60 340 -60t296 70q101 70 101 196t-97 192q-97 67 -237 124q-5 1 -17 7
q-10 5 -56 23q-214 87 -280 166q-77 95 -77 228q0 168 115 262t337 94t359 -59q25 -8 18 -29l-24 -63q-6 -25 -33 -15q-123 49 -295 49q-350 0 -350 -239q0 -106 60 -160q24 -22 38 -35q14 -12 52 -30l54 -27q17 -8 64 -28t149 -64q102 -45 120 -56q18 -12 62 -40t57 -44
q13 -18 42 -50t38 -62q28 -92 28 -152z" />
    <glyph glyph-name="sacute" unicode="&#x15b;" horiz-adv-x="927" 
d="M530 1427h107q14 0 17 -11t-7 -19l-190 -183q-20 -16 -39 -16h-41q-12 0 -17 8q-4 9 2 17l127 184q14 20 41 20zM831 264q0 -285 -387 -284q-197 0 -338 59q-23 10 -18 24l21 60q8 25 28 14q133 -53 287 -53t221 43q68 43 68 137t-85 146q-77 46 -184 83q-108 37 -120 43
t-44 18q-32 13 -44 21l-37 25q-25 16 -35 30t-26 34q-42 52 -42 147q0 264 355 264q186 0 315 -59q20 -10 14 -27l-18 -55q-6 -20 -29 -14q-127 51 -264 51t-197 -38q-60 -39 -59 -115q0 -76 48 -124q38 -40 174 -87q137 -49 188 -73q140 -67 183 -151q25 -51 25 -119z" />
    <glyph glyph-name="Scircumflex" unicode="&#x15c;" horiz-adv-x="1118" 
d="M305 1548q-14 0 -16 8t8 19l186 178q16 16 37 16h62q18 0 39 -16l186 -178q10 -11 7 -19t-17 -8h-60q-14 1 -37 17l-147 121l-152 -121q-20 -16 -36 -17h-60zM1020 354q0 -176 -134 -274t-376 -98t-389 63q-27 12 -21 31l25 65q8 25 31 15q146 -60 340 -60t296 70
q101 70 101 196t-97 192q-97 67 -237 124q-5 1 -17 7q-10 5 -56 23q-214 87 -280 166q-77 95 -77 228q0 168 115 262t337 94t359 -59q25 -8 18 -29l-24 -63q-6 -25 -33 -15q-123 49 -295 49q-350 0 -350 -239q0 -106 60 -160q24 -22 38 -35q14 -12 52 -30l54 -27
q17 -8 64 -28t149 -64q102 -45 120 -56q18 -12 62 -40t57 -44q13 -18 42 -50t38 -62q28 -92 28 -152z" />
    <glyph glyph-name="scircumflex" unicode="&#x15d;" horiz-adv-x="927" 
d="M270 1198h-57q-14 0 -17 9t7 18l192 186q16 16 37 16h62q23 0 38 -16l193 -186q10 -7 7 -17t-17 -10h-60q-16 0 -34 16l-156 134l-158 -134q-18 -16 -37 -16zM831 264q0 -285 -387 -284q-197 0 -338 59q-23 10 -18 24l21 60q8 25 28 14q133 -53 287 -53t221 43
q68 43 68 137t-85 146q-77 46 -184 83q-108 37 -120 43t-44 18q-32 13 -44 21l-37 25q-25 16 -35 30t-26 34q-42 52 -42 147q0 264 355 264q186 0 315 -59q20 -10 14 -27l-18 -55q-6 -20 -29 -14q-127 51 -264 51t-197 -38q-60 -39 -59 -115q0 -76 48 -124q38 -40 174 -87
q137 -49 188 -73q140 -67 183 -151q25 -51 25 -119z" />
    <glyph glyph-name="Scedilla" unicode="&#x15e;" horiz-adv-x="1118" 
d="M451 -295v41q0 16 18 16h57q113 0 113 70q0 84 -113 150h-12q-246 0 -393 63q-27 12 -21 31l25 65q8 25 31 15q146 -60 340 -60t296 70q101 70 101 196t-97 192q-97 67 -237 124q-5 1 -17 7q-10 5 -56 23q-214 87 -280 166q-77 95 -77 228q0 168 115 262t337 94t359 -59
q25 -8 18 -29l-24 -63q-6 -25 -33 -15q-123 49 -295 49q-350 0 -350 -239q0 -106 60 -160q24 -22 38 -35q14 -12 52 -30l54 -27q17 -8 64 -28t149 -64q102 -45 120 -56q18 -12 62 -40t57 -44q13 -18 42 -50t38 -62q28 -92 28 -152q0 -158 -108 -253t-302 -113
q123 -68 123 -170q0 -141 -198 -142q-84 0 -84 29z" />
    <glyph glyph-name="scedilla" unicode="&#x15f;" horiz-adv-x="927" 
d="M831 264q0 -266 -344 -282q111 -61 111 -152q0 -131 -188 -131q-52 0 -68 6t-16 21v38q0 14 18 15h53q111 0 111 65q0 78 -105 136q-170 6 -297 59q-23 10 -18 24l21 60q8 25 28 14q133 -53 287 -53t221 43q68 43 68 137t-85 146q-77 46 -184 83q-108 37 -120 43t-44 18
q-32 13 -44 21l-37 25q-25 16 -35 30t-26 34q-42 52 -42 147q0 264 355 264q186 0 315 -59q20 -10 14 -27l-18 -55q-6 -20 -29 -14q-127 51 -264 51t-197 -38q-60 -39 -59 -115q0 -76 48 -124q38 -40 174 -87q137 -49 188 -73q140 -67 183 -151q25 -51 25 -119z" />
    <glyph glyph-name="Scaron" unicode="&#x160;" horiz-adv-x="1118" 
d="M737 1769h60q14 0 17 -9t-5 -17l-186 -180q-14 -14 -39 -15h-62q-20 0 -37 15l-186 180q-10 8 -6 17t18 9h58q8 0 34 -18l152 -121l147 121q23 18 35 18zM1020 354q0 -176 -134 -274t-376 -98t-389 63q-27 12 -21 31l25 65q8 25 31 15q146 -60 340 -60t296 70
q101 70 101 196t-97 192q-97 67 -237 124q-5 1 -17 7q-10 5 -56 23q-214 87 -280 166q-77 95 -77 228q0 168 115 262t337 94t359 -59q25 -8 18 -29l-24 -63q-6 -25 -33 -15q-123 49 -295 49q-350 0 -350 -239q0 -106 60 -160q24 -22 38 -35q14 -12 52 -30l54 -27
q17 -8 64 -28t149 -64q102 -45 120 -56q18 -12 62 -40t57 -44q13 -18 42 -50t38 -62q28 -92 28 -152z" />
    <glyph glyph-name="scaron" unicode="&#x161;" horiz-adv-x="927" 
d="M655 1427h60q12 0 15 -8t-5 -16l-193 -189q-20 -16 -38 -16h-62q-20 0 -37 16l-192 189q-10 8 -7 16t17 8h57q18 0 37 -16l158 -131l156 131q18 16 34 16zM831 264q0 -285 -387 -284q-197 0 -338 59q-23 10 -18 24l21 60q8 25 28 14q133 -53 287 -53t221 43q68 43 68 137
t-85 146q-77 46 -184 83q-108 37 -120 43t-44 18q-32 13 -44 21l-37 25q-25 16 -35 30t-26 34q-42 52 -42 147q0 264 355 264q186 0 315 -59q20 -10 14 -27l-18 -55q-6 -20 -29 -14q-127 51 -264 51t-197 -38q-60 -39 -59 -115q0 -76 48 -124q38 -40 174 -87
q137 -49 188 -73q140 -67 183 -151q25 -51 25 -119z" />
    <glyph glyph-name="Tcommaaccent" unicode="&#x162;" horiz-adv-x="1093" 
d="M524 -477h-18q-23 0 -14 22l43 174h-48q-23 0 -22 25v127q0 25 22 25h111q27 0 27 -25v-121q-1 -19 -7 -33l-69 -174q-8 -20 -25 -20zM66 1343v68q0 25 24 25h914q25 0 24 -25v-68q0 -27 -24 -26h-394v-1290q0 -27 -26 -27h-74q-27 0 -27 27v1290h-391q-26 -1 -26 26z
" />
    <glyph glyph-name="tcommaaccent" unicode="&#x163;" horiz-adv-x="712" 
d="M360 -459q-16 0 -12 23l35 166h-43q-25 0 -25 22v119q0 25 25 25h104q25 0 25 -25v-111q0 -20 -6 -32l-57 -168q-10 -18 -25 -19h-21zM623 942h-289v-627q0 -127 39 -173t145 -46q31 0 103 15q18 2 24 -21l17 -55q4 -18 -17 -25q-55 -23 -145 -22q-156 0 -219 72t-64 243
v639h-160q-25 0 -24 25v57q0 27 24 27h162v272q0 25 25 25h65q25 0 25 -25v-272h289q25 0 24 -27v-57q1 -25 -24 -25z" />
    <glyph glyph-name="Tcaron" unicode="&#x164;" horiz-adv-x="1093" 
d="M727 1769h59q14 0 18 -9t-5 -17l-187 -180q-14 -14 -39 -15h-61q-20 0 -37 15l-186 180q-10 8 -6 17t18 9h57q8 0 35 -18l152 -121l147 121q23 18 35 18zM66 1343v68q0 25 24 25h914q25 0 24 -25v-68q0 -27 -24 -26h-394v-1290q0 -27 -26 -27h-74q-27 0 -27 27v1290h-391
q-26 -1 -26 26z" />
    <glyph glyph-name="tcaron" unicode="&#x165;" horiz-adv-x="886" 
d="M788 1055h-32q-18 0 -15 24l50 193h-41q-27 0 -27 24v140q0 25 27 24h114q25 0 25 -24v-131q0 -21 -4 -35l-72 -197q-6 -18 -25 -18zM621 942h-289v-627q0 -127 39 -173t145 -46q31 0 102 15q18 2 25 -21l16 -55q4 -18 -16 -25q-57 -23 -145 -22q-156 0 -219 72t-64 243
v639h-160q-25 0 -24 25v57q0 27 24 27h162v272q0 25 25 25h65q25 0 25 -25v-272h289q25 0 24 -27v-57q1 -25 -24 -25z" />
    <glyph glyph-name="Tbar" unicode="&#x166;" horiz-adv-x="1093" 
d="M66 1343v68q0 25 26 25h912q25 0 24 -25v-68q0 -27 -24 -26h-394v-555h240q25 0 24 -23v-34q0 -25 -24 -25h-240v-653q0 -27 -26 -27h-74q-27 0 -27 27v653h-237q-25 0 -25 25v34q0 23 25 23h237v555h-391q-26 -1 -26 26z" />
    <glyph glyph-name="tbar" unicode="&#x167;" horiz-adv-x="712" 
d="M623 942h-289v-344h262q25 0 25 -23v-32q0 -25 -25 -25h-262v-203q0 -127 39 -173t145 -46q31 0 103 15q18 2 24 -21l17 -55q4 -18 -17 -25q-55 -23 -145 -22q-156 0 -219 72t-64 243v215h-160q-25 0 -24 25v32q0 23 24 23h160v344h-160q-25 0 -24 25v57q0 27 24 27h162
v272q0 25 25 25h65q25 0 25 -25v-272h289q25 0 24 -27v-57q1 -25 -24 -25z" />
    <glyph glyph-name="Utilde" unicode="&#x168;" horiz-adv-x="1404" 
d="M1018 1679q0 -63 -35 -103t-100 -40t-172 41l-49 18q-90 33 -134 33t-51 -37l-2 -24q-2 -25 -31 -25h-34q-23 0 -23 33q0 63 34 102t91 39t180 -45l53 -20q80 -33 126 -33t55 49l2 21q2 25 33 24h32q25 0 25 -33zM702 -25q-264 1 -394 137t-130 390v909q0 25 27 25h74
q27 0 26 -25v-901q0 -418 397 -418t398 418v901q0 25 24 25h76q25 0 25 -25v-909q1 -254 -129 -390t-394 -137z" />
    <glyph glyph-name="utilde" unicode="&#x169;" horiz-adv-x="1177" 
d="M860 1360q21 0 21 -45t-32 -81q-33 -36 -99 -36t-156 39l-45 18q-72 29 -112 29t-48 -35l-6 -24q-6 -23 -31 -23h-35q-23 0 -23 45t33 81q32 36 91 36t164 -41l49 -18q79 -31 115 -31t45 43l4 20q2 23 28 23h37zM154 360v664q0 27 24 27h70q25 0 24 -27v-645
q0 -289 277 -289q150 0 245 88t95 232v614q0 27 24 27h72q23 0 23 -27v-999q0 -25 -23 -25h-72q-25 0 -24 25v161q-37 -84 -125 -145t-257 -61t-261 100t-92 280z" />
    <glyph glyph-name="Umacron" unicode="&#x16a;" horiz-adv-x="1404" 
d="M977 1575h-551q-25 0 -25 22v48q0 23 25 22h551q25 0 24 -22v-48q1 -22 -24 -22zM702 -25q-264 1 -394 137t-130 390v909q0 25 27 25h74q27 0 26 -25v-901q0 -418 397 -418t398 418v901q0 25 24 25h76q25 0 25 -25v-909q1 -254 -129 -390t-394 -137z" />
    <glyph glyph-name="umacron" unicode="&#x16b;" horiz-adv-x="1177" 
d="M862 1214h-549q-23 0 -22 23v41q0 25 22 25h549q25 0 25 -25v-41q0 -23 -25 -23zM154 360v664q0 27 24 27h70q25 0 24 -27v-645q0 -289 277 -289q150 0 245 88t95 232v614q0 27 24 27h72q23 0 23 -27v-999q0 -25 -23 -25h-72q-25 0 -24 25v161q-37 -84 -125 -145
t-257 -61t-261 100t-92 280z" />
    <glyph glyph-name="Ubreve" unicode="&#x16c;" horiz-adv-x="1404" 
d="M701 1544q-129 0 -195 60t-68 143q0 20 19 20h43q18 0 24 -18q14 -57 54 -88t124 -31q150 0 179 119q2 18 22 18h41q20 0 21 -20q-2 -83 -69 -143t-195 -60zM702 -25q-264 1 -394 137t-130 390v909q0 25 27 25h74q27 0 26 -25v-901q0 -418 397 -418t398 418v901
q0 25 24 25h76q25 0 25 -25v-909q1 -254 -129 -390t-394 -137z" />
    <glyph glyph-name="ubreve" unicode="&#x16d;" horiz-adv-x="1177" 
d="M589 1192q-132 0 -197 63t-66 150q0 20 18 20h43q16 0 23 -18q14 -61 52 -96t127 -35t127 35t52 96q2 18 23 18h40q20 0 21 -20q-2 -85 -66 -149t-197 -64zM154 360v664q0 27 24 27h70q25 0 24 -27v-645q0 -289 277 -289q150 0 245 88t95 232v614q0 27 24 27h72
q23 0 23 -27v-999q0 -25 -23 -25h-72q-25 0 -24 25v161q-37 -84 -125 -145t-257 -61t-261 100t-92 280z" />
    <glyph glyph-name="Uring" unicode="&#x16e;" horiz-adv-x="1404" 
d="M500 1720q0 82 54 133t147 51t149 -50q56 -52 55 -134q0 -82 -55 -134q-54 -52 -148 -52t-148 52t-54 134zM575 1720q0 -112 125 -112t125 112q0 53 -31 83q-32 30 -92 30q-127 0 -127 -113zM702 -25q-264 1 -394 137t-130 390v909q0 25 27 25h74q27 0 26 -25v-901
q0 -418 397 -418t398 418v901q0 25 24 25h76q25 0 25 -25v-909q1 -254 -129 -390t-394 -137z" />
    <glyph glyph-name="uring" unicode="&#x16f;" horiz-adv-x="1177" 
d="M588 1552q92 0 148 -51t56 -133t-54 -133q-56 -51 -149 -51t-149 51q-55 51 -55 133t55 133q56 51 148 51zM590 1253q59 0 92 30t33 84t-34 84t-93 30q-125 0 -125 -114t127 -114zM154 360v664q0 27 24 27h70q25 0 24 -27v-645q0 -289 277 -289q150 0 245 88t95 232v614
q0 27 24 27h72q23 0 23 -27v-999q0 -25 -23 -25h-72q-25 0 -24 25v161q-37 -84 -125 -145t-257 -61t-261 100t-92 280z" />
    <glyph glyph-name="Uhungarumlaut" unicode="&#x170;" horiz-adv-x="1404" 
d="M930 1776h86q14 0 18 -12t-4 -21l-151 -178q-16 -16 -39 -17h-45q-27 0 -15 25l111 180q14 23 39 23zM618 1776h89q12 0 15 -12t-5 -21l-152 -178q-14 -16 -39 -17h-45q-12 0 -15 8t3 17l109 180q14 23 40 23zM702 -25q-264 1 -394 137t-130 390v909q0 25 27 25h74
q27 0 26 -25v-901q0 -418 397 -418t398 418v901q0 25 24 25h76q25 0 25 -25v-909q1 -254 -129 -390t-394 -137z" />
    <glyph glyph-name="uhungarumlaut" unicode="&#x171;" horiz-adv-x="1177" 
d="M817 1427h84q11 0 17 -11t-3 -19l-155 -183q-14 -16 -39 -16h-39q-12 0 -16 8t2 17l110 184q12 20 39 20zM510 1427h84q12 0 16 -10t-4 -20l-155 -183q-16 -16 -37 -16h-41q-12 0 -17 8q-4 9 2 17l113 184q14 20 39 20zM154 360v664q0 27 24 27h70q25 0 24 -27v-645
q0 -289 277 -289q150 0 245 88t95 232v614q0 27 24 27h72q23 0 23 -27v-999q0 -25 -23 -25h-72q-25 0 -24 25v161q-37 -84 -125 -145t-257 -61t-261 100t-92 280z" />
    <glyph glyph-name="Uogonek" unicode="&#x172;" horiz-adv-x="1404" 
d="M702 -25q-264 1 -394 137t-130 390v909q0 25 27 25h74q27 0 26 -25v-901q0 -418 397 -418t398 418v901q0 25 24 25h76q25 0 25 -25v-909q0 -446 -381 -514q-123 -61 -123 -156q0 -66 110 -65q33 0 59 7t30 -3l10 -45q6 -16 -8 -23q-53 -25 -124 -25t-121 33t-50 111
t106 153h-31z" />
    <glyph glyph-name="uogonek" unicode="&#x173;" horiz-adv-x="1177" 
d="M154 360v664q0 27 24 27h70q25 0 24 -27v-645q0 -289 277 -289q150 0 245 88t95 232v614q0 27 24 27h72q23 0 23 -27v-999q0 -25 -23 -25h-29q-139 -61 -139 -154q0 -66 103 -65q27 0 56 6t32 -6l10 -41q2 -12 -8 -19q-37 -23 -113 -22q-170 0 -170 125q0 55 46 106
t118 80q-2 4 -2 15v161q-37 -84 -125 -145t-257 -61t-261 100t-92 280z" />
    <glyph glyph-name="Wcircumflex" unicode="&#x174;" horiz-adv-x="2076" 
d="M793 1548q-14 0 -17 8q-2 8 8 19l187 178q16 16 37 16h61q18 0 39 -16l186 -178q10 -10 8 -19q-3 -8 -18 -8h-59q-14 1 -37 17l-148 121l-151 -121q-20 -16 -37 -17h-59zM995 1436h86q29 0 35 -25l256 -874l113 -406h4l104 395l258 885q6 25 31 25h80q29 0 20 -31
l-405 -1376q-8 -29 -37 -29h-102q-29 0 -37 27l-264 880l-97 350h-4l-96 -350l-264 -880q-8 -27 -37 -27h-102q-29 0 -37 29l-404 1376q-8 31 19 31h82q23 0 28 -25l258 -885l105 -393h4l110 404l259 874q5 25 34 25z" />
    <glyph glyph-name="wcircumflex" unicode="&#x175;" horiz-adv-x="1630" 
d="M623 1198h-58q-14 0 -17 9t7 18l193 186q16 16 36 16h62q23 0 39 -16l192 -186q10 -7 7 -17t-17 -10h-59q-17 0 -35 16l-156 134l-158 -134q-18 -16 -36 -16zM776 1051h76q23 0 29 -25l229 -704l55 -197h4l50 197l211 704q6 25 26 25h76q29 0 20 -29l-307 -999
q-6 -23 -31 -23h-86q-25 0 -30 23l-219 667l-62 213h-4l-59 -213l-219 -667q-6 -23 -31 -23h-86q-23 0 -29 23l-311 999q-8 29 20 29h76q20 0 27 -25l213 -704l49 -197h4l55 197l228 704q6 25 26 25z" />
    <glyph glyph-name="Ycircumflex" unicode="&#x176;" horiz-adv-x="1280" 
d="M393 1548q-14 0 -16 8t8 19l186 178q16 16 37 16h62q18 0 39 -16l186 -178q10 -11 7 -19t-17 -8h-60q-14 1 -37 17l-147 121l-152 -121q-20 -16 -36 -17h-60zM705 27q0 -27 -27 -27h-76q-25 0 -24 27v510l-504 870q-6 10 -2 19t18 10h84q23 0 35 -23l309 -541l121 -225
l123 225l309 541q10 23 35 23h84q31 0 16 -29l-501 -870v-510z" />
    <glyph glyph-name="ycircumflex" unicode="&#x177;" horiz-adv-x="995" 
d="M305 1198h-57q-14 0 -18 9t8 18l192 186q16 16 37 16h61q23 0 39 -16l193 -186q10 -7 7 -17t-17 -10h-60q-17 0 -35 16l-155 134l-158 -134q-18 -16 -37 -16zM285 -233q-76 0 -138 20q-25 8 -18 25l16 59q6 20 29 16q78 -14 105 -14q96 0 140 62t17 133l-373 954
q-10 29 17 29h76q18 0 28 -25l215 -561l119 -336h4l107 336l188 561q6 25 27 25h76q28 0 18 -29l-342 -981q-49 -150 -117 -212t-194 -62z" />
    <glyph glyph-name="Ydieresis" unicode="&#x178;" horiz-adv-x="1280" 
d="M893 1710v-137q0 -25 -27 -25h-84q-25 0 -24 25v137q0 27 24 27h84q27 0 27 -27zM522 1710v-137q0 -25 -24 -25h-86q-23 0 -23 25v137q0 27 23 27h86q24 0 24 -27zM705 27q0 -27 -27 -27h-76q-25 0 -24 27v510l-504 870q-6 10 -2 19t18 10h84q23 0 35 -23l309 -541
l121 -225l123 225l309 541q10 23 35 23h84q31 0 16 -29l-501 -870v-510z" />
    <glyph glyph-name="Zacute" unicode="&#x179;" horiz-adv-x="1193" 
d="M702 1774h107q12 0 15 -12t-5 -19l-188 -178q-20 -16 -39 -17h-43q-12 0 -17 8q-3 9 3 17l127 176q18 25 40 25zM123 27v63q0 18 16 47l770 1180h-745q-25 0 -25 26v68q0 25 25 25h864q25 0 25 -25v-65q0 -23 -15 -46l-766 -1181h766q27 0 27 -25v-67q0 -27 -27 -27h-891
q-24 0 -24 27z" />
    <glyph glyph-name="zacute" unicode="&#x17a;" horiz-adv-x="983" 
d="M569 1427h107q14 0 17 -11t-7 -19l-190 -183q-20 -16 -39 -16h-41q-12 0 -17 8q-4 9 2 17l127 184q14 20 41 20zM872 1024v-47q0 -18 -10 -35l-602 -833h586q27 0 26 -23v-61q0 -25 -26 -25h-715q-25 0 -25 25v49q0 16 11 32l604 834h-578q-25 0 -24 25v59q0 27 24 27
h705q24 0 24 -27z" />
    <glyph glyph-name="Zdotaccent" unicode="&#x17b;" horiz-adv-x="1193" 
d="M664 1722v-149q0 -25 -23 -25h-86q-27 0 -27 25v149q0 25 27 25h86q23 0 23 -25zM123 27v63q0 18 16 47l770 1180h-745q-25 0 -25 26v68q0 25 25 25h864q25 0 25 -25v-65q0 -23 -15 -46l-766 -1181h766q27 0 27 -25v-67q0 -27 -27 -27h-891q-24 0 -24 27z" />
    <glyph glyph-name="zdotaccent" unicode="&#x17c;" horiz-adv-x="983" 
d="M559 1372v-149q0 -25 -22 -25h-86q-27 0 -27 25v149q0 27 27 27h86q22 0 22 -27zM872 1024v-47q0 -18 -10 -35l-602 -833h586q27 0 26 -23v-61q0 -25 -26 -25h-715q-25 0 -25 25v49q0 16 11 32l604 834h-578q-25 0 -24 25v59q0 27 24 27h705q24 0 24 -27z" />
    <glyph glyph-name="Zcaron" unicode="&#x17d;" horiz-adv-x="1193" 
d="M776 1769h60q14 0 17 -9t-5 -17l-186 -180q-14 -14 -39 -15h-62q-20 0 -37 15l-186 180q-10 8 -6 17t18 9h58q8 0 34 -18l152 -121l147 121q20 18 35 18zM123 27v63q0 18 16 47l770 1180h-745q-25 0 -25 26v68q0 25 25 25h864q25 0 25 -25v-65q0 -23 -15 -46l-766 -1181
h766q27 0 27 -25v-67q0 -27 -27 -27h-891q-24 0 -24 27z" />
    <glyph glyph-name="zcaron" unicode="&#x17e;" horiz-adv-x="983" 
d="M684 1427h59q11 0 15 -8t-4 -16l-193 -189q-20 -16 -39 -16h-61q-20 0 -37 16l-193 189q-10 8 -7 16t18 8h57q18 0 37 -16l158 -131l155 131q18 16 35 16zM872 1024v-47q0 -18 -10 -35l-602 -833h586q27 0 26 -23v-61q0 -25 -26 -25h-715q-25 0 -25 25v49q0 16 11 32
l604 834h-578q-25 0 -24 25v59q0 27 24 27h705q24 0 24 -27z" />
    <glyph glyph-name="longs" unicode="&#x17f;" horiz-adv-x="593" 
d="M350 1153v-1128q0 -25 -22 -25h-72q-25 0 -25 25v917h-155q-25 0 -25 25v57q0 27 25 27h155v106q0 143 69 218t200 75q80 0 135 -20q16 -6 16 -25l-2 -55q0 -27 -24 -19q-49 12 -111 12q-164 0 -164 -190z" />
    <glyph glyph-name="florin" unicode="&#x192;" horiz-adv-x="1296" 
d="M985 805q23 0 21 -23l-7 -49q-4 -23 -24 -22h-295l-92 -686q-18 -131 -74 -196t-170 -65q-76 0 -125 19q-20 6 -16 24l12 60q4 25 29 18q53 -12 84 -12q123 0 143 162l88 676h-180q-25 0 -21 22l7 49q4 23 26 23h182l45 348q41 301 300 301q92 0 141 -20q25 -10 18 -27
l-14 -51q-8 -25 -29 -19q-76 14 -98 15q-176 0 -201 -213l-43 -334h293z" />
    <glyph glyph-name="Aringacute" unicode="&#x1fa;" horiz-adv-x="1343" 
d="M547 1552q0 -112 125 -112t125 112q0 53 -32 83t-91 30q-127 0 -127 -113zM381 522h580l-287 778h-4zM471 1551q0 124 111 169l102 142q18 25 41 24h106q11 0 15 -11t-4 -20l-129 -120q76 -11 120 -61t44 -122q0 -127 -115 -172l520 -1353q8 -27 -20 -27h-84
q-20 0 -31 23l-146 383h-659l-147 -383q-10 -23 -29 -23h-86q-27 0 -19 27l519 1355q-109 45 -109 169z" />
    <glyph glyph-name="aringacute" unicode="&#x1fb;" horiz-adv-x="1116" 
d="M557 1253q59 0 92 30t33 84t-34 84t-93 30q-125 0 -125 -114t127 -114zM556 1184q-94 0 -148 51q-56 51 -56 125t37 121t103 63l102 150q14 20 41 20h106q13 0 17 -11t-6 -20l-144 -137q70 -14 111 -61t41 -123t-55 -127t-149 -51zM842 406v118q-365 -13 -453 -45
q-130 -44 -164 -106q-20 -39 -20 -92q0 -88 64 -144q65 -55 190 -55q183 0 283 92t100 232zM958 705v-680q0 -25 -24 -25h-66q-23 0 -22 25v170q-104 -213 -406 -213q-168 0 -260 80t-92 218t100 214q101 73 261 97q159 24 393 30v79q0 138 -67 202t-229 64t-329 -69
q-25 -10 -31 14l-18 60q-6 18 14 28q174 76 381 76t301 -92t94 -278z" />
    <glyph glyph-name="AEacute" unicode="&#x1fc;" horiz-adv-x="1755" 
d="M1016 1774h106q12 0 16 -12t-5 -19l-189 -178q-20 -16 -39 -17h-43q-12 0 -16 8t2 17l127 176q18 25 41 25zM893 496v823h-35l-434 -823h469zM1591 678h-569v-559h598q25 0 25 -25v-67q0 -27 -25 -27h-698q-27 0 -27 27v356h-533l-190 -360q-12 -23 -33 -23h-92
q-12 0 -17 8t1 19l745 1382q14 27 39 27h799q25 0 24 -25v-68q0 -27 -24 -26h-592v-524h569q27 0 27 -27v-61q0 -27 -27 -27z" />
    <glyph glyph-name="aeacute" unicode="&#x1fd;" horiz-adv-x="1839" 
d="M973 1427h106q13 0 17 -11t-6 -19l-191 -183q-20 -16 -39 -16h-41q-12 0 -16 8t2 17l127 184q14 20 41 20zM840 408v81q-332 -10 -385 -16q-207 -25 -242 -133q-8 -27 -8 -59q0 -195 258 -195q181 0 279 92t98 230zM1612 598q0 168 -80 270t-236 103q-156 -1 -246 -105
t-98 -286h660v18zM1328 80q154 0 290 65q23 10 33 -14l22 -55q6 -14 -16 -29q-51 -31 -141 -51t-177 -21q-161 0 -277 76t-157 201q-98 -270 -450 -270q-184 0 -276 79q-91 80 -91 218q0 184 155 244q102 41 235 51t341 14h19v133q-2 125 -69 185t-227 60t-329 -69
q-25 -10 -31 14l-22 60q-8 18 16 28q156 76 375 76q332 0 371 -241q41 114 141 178t240 63q201 0 313 -133t113 -346v-94q0 -25 -27 -25h-748q10 -181 114 -289q106 -108 260 -108z" />
    <glyph glyph-name="Oslashacute" unicode="&#x1fe;" horiz-adv-x="1452" 
d="M834 1774h106q12 0 15 -12t-5 -19l-188 -178q-20 -16 -39 -17h-43q-12 0 -16 8t2 17l127 176q18 25 41 25zM252 719q0 -238 67 -373l760 836q-121 160 -355 160t-354 -160q-118 -160 -118 -463zM730 96q234 0 350 160q118 160 118 463q0 223 -68 371l-759 -838
q125 -156 359 -156zM123 719q1 355 155 547t443 192t442 -182l117 127q18 18 33 6l41 -35q20 -16 4 -35l-133 -147q104 -190 104 -473q0 -356 -154 -548q-155 -191 -449 -191t-439 180l-121 -131q-18 -16 -33 -2l-41 36q-14 14 -2 31l135 150q-102 176 -102 475z" />
    <glyph glyph-name="oslashacute" unicode="&#x1ff;" horiz-adv-x="1202" 
d="M688 1427h107q14 0 17 -11t-7 -19l-191 -183q-20 -16 -39 -16h-40q-12 0 -17 8q-4 9 2 17l127 184q14 20 41 20zM611 86q165 0 259 112t94 308t-61 297l-551 -627q94 -90 259 -90zM593 969q-169 0 -262 -113q-93 -112 -93 -314t61 -294l553 626q-90 95 -259 95zM613 -20
q-216 0 -337 110l-73 -84q-18 -18 -37 -4l-27 25q-20 18 -6 32l84 97q-102 132 -102 382t128 394t346 143q218 0 339 -114l69 79q18 20 37 7l29 -23q20 -14 4 -31l-82 -96q102 -137 102 -384t-129 -390t-345 -143z" />
    <glyph glyph-name="Scommaaccent" unicode="&#x218;" horiz-adv-x="1118" 
d="M557 -477h-18q-23 0 -15 22l43 174h-47q-23 0 -22 25v127q0 25 22 25h111q27 0 26 -25v-121q0 -19 -6 -33l-69 -174q-8 -20 -25 -20zM1020 354q0 -176 -134 -274t-376 -98t-389 63q-27 12 -21 31l25 65q8 25 31 15q146 -60 340 -60t296 70q101 70 101 196t-97 192
q-97 67 -237 124q-5 1 -17 7q-10 5 -56 23q-214 87 -280 166q-77 95 -77 228q0 168 115 262t337 94t359 -59q25 -8 18 -29l-24 -63q-6 -25 -33 -15q-123 49 -295 49q-350 0 -350 -239q0 -106 60 -160q24 -22 38 -35q14 -12 52 -30l54 -27q17 -8 64 -28t149 -64
q102 -45 120 -56q18 -12 62 -40t57 -44q13 -18 42 -50t38 -62q28 -92 28 -152z" />
    <glyph glyph-name="scommaaccent" unicode="&#x219;" horiz-adv-x="927" 
d="M449 -459q-16 0 -13 23l35 166h-43q-25 0 -25 22v119q0 25 25 25h104q25 0 25 -25v-111q0 -20 -6 -32l-57 -168q-10 -18 -25 -19h-20zM831 264q0 -285 -387 -284q-197 0 -338 59q-23 10 -18 24l21 60q8 25 28 14q133 -53 287 -53t221 43q68 43 68 137t-85 146
q-77 46 -184 83q-108 37 -120 43t-44 18q-32 13 -44 21l-37 25q-25 16 -35 30t-26 34q-42 52 -42 147q0 264 355 264q186 0 315 -59q20 -10 14 -27l-18 -55q-6 -20 -29 -14q-127 51 -264 51t-197 -38q-60 -39 -59 -115q0 -76 48 -124q38 -40 174 -87q137 -49 188 -73
q140 -67 183 -151q25 -51 25 -119z" />
    <glyph glyph-name="uni021A" unicode="&#x21a;" horiz-adv-x="1093" 
d="M524 -477h-18q-23 0 -14 22l43 174h-48q-23 0 -22 25v127q0 25 22 25h111q27 0 27 -25v-121q-1 -19 -7 -33l-69 -174q-8 -20 -25 -20zM66 1343v68q0 25 24 25h914q25 0 24 -25v-68q0 -27 -24 -26h-394v-1290q0 -27 -26 -27h-74q-27 0 -27 27v1290h-391q-26 -1 -26 26z
" />
    <glyph glyph-name="uni021B" unicode="&#x21b;" horiz-adv-x="712" 
d="M360 -459q-16 0 -12 23l35 166h-43q-25 0 -25 22v119q0 25 25 25h104q25 0 25 -25v-111q0 -20 -6 -32l-57 -168q-10 -18 -25 -19h-21zM623 942h-289v-627q0 -127 39 -173t145 -46q31 0 103 15q18 2 24 -21l17 -55q4 -18 -17 -25q-55 -23 -145 -22q-156 0 -219 72t-64 243
v639h-160q-25 0 -24 25v57q0 27 24 27h162v272q0 25 25 25h65q25 0 25 -25v-272h289q25 0 24 -27v-57q1 -25 -24 -25z" />
    <glyph glyph-name="dotlessj" unicode="&#x237;" horiz-adv-x="483" 
d="M193 39v985q0 27 22 27h72q25 0 24 -27v-997q0 -133 -50 -197t-163 -63q-63 0 -116 14q-20 6 -21 26l2 60q0 20 27 18q55 -10 102 -10q101 0 101 164z" />
    <glyph glyph-name="circumflex" unicode="&#x2c6;" horiz-adv-x="677" 
d="M145 1198h-57q-14 0 -17 9t7 18l192 186q16 16 37 16h62q23 0 39 -16l192 -186q10 -7 7 -17t-17 -10h-60q-16 0 -34 16l-156 134l-158 -134q-18 -16 -37 -16z" />
    <glyph glyph-name="caron" unicode="&#x2c7;" horiz-adv-x="677" 
d="M530 1427h60q12 0 15 -8t-5 -16l-192 -189q-20 -16 -39 -16h-62q-20 0 -37 16l-192 189q-10 8 -7 16t17 8h57q18 0 37 -16l158 -131l156 131q18 16 34 16z" />
    <glyph glyph-name="uni02C9" unicode="&#x2c9;" horiz-adv-x="677" 
d="M612 1214h-549q-23 0 -22 23v41q0 25 22 25h549q25 0 25 -25v-41q0 -23 -25 -23z" />
    <glyph glyph-name="breve" unicode="&#x2d8;" horiz-adv-x="677" 
d="M339 1192q-132 0 -197 63t-66 150q0 20 18 20h43q16 0 23 -18q14 -61 52 -96t127 -35t127 35t52 96q2 18 23 18h41q20 0 20 -20q-2 -86 -66 -150q-65 -63 -197 -63z" />
    <glyph glyph-name="dotaccent" unicode="&#x2d9;" horiz-adv-x="677" 
d="M406 1372v-149q0 -25 -23 -25h-86q-27 0 -27 25v149q0 27 27 27h86q23 0 23 -27z" />
    <glyph glyph-name="ring" unicode="&#x2da;" horiz-adv-x="677" 
d="M338 1552q92 0 148 -51t56 -133t-54 -133q-56 -51 -149 -51t-149 51q-55 51 -55 133t55 133q56 51 148 51zM340 1253q59 0 92 30t33 84t-34 84t-93 30q-125 0 -125 -114t127 -114z" />
    <glyph glyph-name="ogonek" unicode="&#x2db;" horiz-adv-x="677" 
d="M236 -154q0 -66 102 -65q26 0 56 6t32 -6l10 -41q2 -12 -8 -19q-37 -23 -113 -22q-170 0 -170 125q1 62 59 120t142 81l68 -9q-178 -72 -178 -170z" />
    <glyph glyph-name="tilde" unicode="&#x2dc;" horiz-adv-x="677" 
d="M610 1360q21 0 21 -45t-32 -81q-33 -36 -99 -36t-156 39l-45 18q-72 29 -112 29t-48 -35l-6 -24q-6 -23 -31 -23h-34q-23 0 -23 31q0 59 32 95t91 36t164 -41l49 -18q75 -31 113 -31t47 43l4 20q2 23 28 23h37z" />
    <glyph glyph-name="hungarumlaut" unicode="&#x2dd;" horiz-adv-x="677" 
d="M612 1427h84q12 0 18 -11t-3 -19l-156 -183q-14 -16 -39 -16h-39q-12 0 -16 8t2 17l110 184q12 20 39 20zM305 1427h84q13 0 17 -10t-5 -20l-155 -183q-16 -16 -37 -16h-41q-12 0 -16 8t2 17l112 184q14 20 39 20z" />
    <glyph glyph-name="uni037E" unicode="&#x37e;" horiz-adv-x="440" 
d="M141 449v141q0 25 25 24h108q25 0 25 -24v-141q0 -25 -23 -25h-110q-25 0 -25 25z" />
    <glyph glyph-name="uni0394" unicode="&#x394;" horiz-adv-x="1376" 
d="M684 1321l-414 -1208h834l-412 1208h-8zM635 1436h106q27 0 37 -29l465 -1356q8 -23 -3 -37t-38 -14h-1030q-23 0 -35 15t-4 36l465 1356q10 29 37 29z" />
    <glyph glyph-name="uni03A9" unicode="&#x3a9;" horiz-adv-x="1619" 
d="M810 1458q337 0 510 -170t173 -444q0 -221 -119 -373t-301 -238v-122l299 6q25 0 25 -23v-69q0 -25 -23 -25h-426v258q0 25 29 41q385 195 385 543q0 225 -138 363t-414 138t-412 -138q-138 -138 -138 -363q0 -350 383 -543q31 -16 31 -41v-258h-426q-25 0 -25 25v69
q0 23 27 23l299 -6v122q-182 86 -302 238t-120 373q0 274 173 444t510 170z" />
    <glyph glyph-name="uni03BC" unicode="&#x3bc;" horiz-adv-x="1185" 
d="M1026 1024v-666q0 -180 -92 -281t-281 -102q-270 0 -364 207v-383q0 -25 -25 -24h-69q-27 0 -27 24v1225q0 27 27 27h69q25 0 25 -27v-618q0 -144 96 -232t244 -88q276 0 276 289v649q0 27 25 27h71q25 0 25 -27z" />
    <glyph glyph-name="pi" unicode="&#x3c0;" horiz-adv-x="1380" 
d="M1032 938v-635q0 -123 33 -168t105 -45t105 6q32 6 36 -18l6 -51q2 -20 -19 -25q-61 -16 -133 -16q-135 0 -193 72t-59 235v645h-419l-195 -913q-6 -25 -33 -25h-69q-27 0 -21 25l197 913h-246q-25 0 -25 25v61q0 27 25 27h1161q25 0 25 -27v-61q0 -25 -25 -25h-256z" />
    <glyph glyph-name="Wgrave" unicode="&#x1e80;" horiz-adv-x="2076" 
d="M1034 1548h-45q-16 0 -37 17l-188 178q-10 8 -6 19t18 12h105q23 0 41 -25l127 -176q6 -9 2 -17t-17 -8zM995 1436h86q29 0 35 -25l256 -874l113 -406h4l104 395l258 885q6 25 31 25h80q29 0 20 -31l-405 -1376q-8 -29 -37 -29h-102q-29 0 -37 27l-264 880l-97 350h-4
l-96 -350l-264 -880q-8 -27 -37 -27h-102q-29 0 -37 29l-404 1376q-8 31 19 31h82q23 0 28 -25l258 -885l105 -393h4l110 404l259 874q5 25 34 25z" />
    <glyph glyph-name="wgrave" unicode="&#x1e81;" horiz-adv-x="1630" 
d="M825 1198h-43q-18 0 -39 16l-190 183q-10 8 -7 19t17 11h107q25 0 41 -20l127 -184q6 -9 3 -17t-16 -8zM776 1051h76q23 0 29 -25l229 -704l55 -197h4l50 197l211 704q6 25 26 25h76q29 0 20 -29l-307 -999q-6 -23 -31 -23h-86q-25 0 -30 23l-219 667l-62 213h-4
l-59 -213l-219 -667q-6 -23 -31 -23h-86q-23 0 -29 23l-311 999q-8 29 20 29h76q20 0 27 -25l213 -704l49 -197h4l55 197l228 704q6 25 26 25z" />
    <glyph glyph-name="Wacute" unicode="&#x1e82;" horiz-adv-x="2076" 
d="M1196 1774h107q12 0 15 -12t-5 -19l-189 -178q-20 -16 -39 -17h-43q-12 0 -16 8t2 17l127 176q18 25 41 25zM995 1436h86q29 0 35 -25l256 -874l113 -406h4l104 395l258 885q6 25 31 25h80q29 0 20 -31l-405 -1376q-8 -29 -37 -29h-102q-29 0 -37 27l-264 880l-97 350h-4
l-96 -350l-264 -880q-8 -27 -37 -27h-102q-29 0 -37 29l-404 1376q-8 31 19 31h82q23 0 28 -25l258 -885l105 -393h4l110 404l259 874q5 25 34 25z" />
    <glyph glyph-name="wacute" unicode="&#x1e83;" horiz-adv-x="1630" 
d="M961 1427h106q14 0 17 -11t-7 -19l-190 -183q-20 -16 -39 -16h-41q-12 0 -16 8t2 17l127 184q14 20 41 20zM776 1051h76q23 0 29 -25l229 -704l55 -197h4l50 197l211 704q6 25 26 25h76q29 0 20 -29l-307 -999q-6 -23 -31 -23h-86q-25 0 -30 23l-219 667l-62 213h-4
l-59 -213l-219 -667q-6 -23 -31 -23h-86q-23 0 -29 23l-311 999q-8 29 20 29h76q20 0 27 -25l213 -704l49 -197h4l55 197l228 704q6 25 26 25z" />
    <glyph glyph-name="Wdieresis" unicode="&#x1e84;" horiz-adv-x="2076" 
d="M1292 1710v-137q0 -25 -26 -25h-84q-25 0 -25 25v137q0 27 25 27h84q26 0 26 -27zM922 1710v-137q0 -25 -25 -25h-86q-23 0 -23 25v137q0 27 23 27h86q25 0 25 -27zM995 1436h86q29 0 35 -25l256 -874l113 -406h4l104 395l258 885q6 25 31 25h80q29 0 20 -31l-405 -1376
q-8 -29 -37 -29h-102q-29 0 -37 27l-264 880l-97 350h-4l-96 -350l-264 -880q-8 -27 -37 -27h-102q-29 0 -37 29l-404 1376q-8 31 19 31h82q23 0 28 -25l258 -885l105 -393h4l110 404l259 874q5 25 34 25z" />
    <glyph glyph-name="wdieresis" unicode="&#x1e85;" horiz-adv-x="1630" 
d="M1057 1370v-147q0 -25 -23 -25h-80q-25 0 -24 25v147q0 25 24 25h80q23 0 23 -25zM700 1370v-147q0 -25 -22 -25h-80q-25 0 -25 25v147q0 25 25 25h80q22 0 22 -25zM776 1051h76q23 0 29 -25l229 -704l55 -197h4l50 197l211 704q6 25 26 25h76q29 0 20 -29l-307 -999
q-6 -23 -31 -23h-86q-25 0 -30 23l-219 667l-62 213h-4l-59 -213l-219 -667q-6 -23 -31 -23h-86q-23 0 -29 23l-311 999q-8 29 20 29h76q20 0 27 -25l213 -704l49 -197h4l55 197l228 704q6 25 26 25z" />
    <glyph glyph-name="Ygrave" unicode="&#x1ef2;" horiz-adv-x="1280" 
d="M653 1548h-45q-16 0 -37 17l-188 178q-10 8 -6 19t18 12h105q23 0 41 -25l127 -176q6 -9 2 -17t-17 -8zM705 27q0 -27 -27 -27h-76q-25 0 -24 27v510l-504 870q-6 10 -2 19t18 10h84q23 0 35 -23l309 -541l121 -225l123 225l309 541q10 23 35 23h84q31 0 16 -29
l-501 -870v-510z" />
    <glyph glyph-name="ygrave" unicode="&#x1ef3;" horiz-adv-x="995" 
d="M494 1198h-43q-18 0 -39 16l-191 183q-10 8 -7 19t17 11h107q25 0 41 -20l127 -184q6 -9 3 -17t-15 -8zM285 -233q-76 0 -138 20q-25 8 -18 25l16 59q6 20 29 16q78 -14 105 -14q96 0 140 62t17 133l-373 954q-10 29 17 29h76q18 0 28 -25l215 -561l119 -336h4l107 336
l188 561q6 25 27 25h76q28 0 18 -29l-342 -981q-49 -150 -117 -212t-194 -62z" />
    <glyph glyph-name="figuredash" unicode="&#x2012;" horiz-adv-x="1122" 
d="M965 504h-809q-23 0 -23 24v58q0 23 23 22h809q25 0 24 -22v-58q1 -24 -24 -24z" />
    <glyph glyph-name="endash" unicode="&#x2013;" horiz-adv-x="1058" 
d="M940 477h-825q-20 0 -21 23v59q0 23 23 23h823q25 0 25 -23v-59q0 -23 -25 -23z" />
    <glyph glyph-name="emdash" unicode="&#x2014;" horiz-adv-x="1560" 
d="M1442 477h-1327q-20 0 -21 23v59q0 23 23 23h1325q27 0 26 -23v-59q1 -23 -26 -23z" />
    <glyph glyph-name="quoteleft" unicode="&#x2018;" horiz-adv-x="411" 
d="M264 1440q20 0 17 -23l-50 -192h41q25 0 25 -27v-139q0 -25 -25 -25h-114q-27 0 -27 25v133q0 21 6 33l72 196q6 18 24 19h31z" />
    <glyph glyph-name="quoteright" unicode="&#x2019;" horiz-adv-x="411" 
d="M147 1030q-18 0 -14 25l49 192h-41q-27 0 -26 25v139q0 25 26 25h115q25 0 25 -25v-131q-1 -21 -5 -35l-71 -196q-6 -18 -25 -19h-33z" />
    <glyph glyph-name="quotesinglbase" unicode="&#x201a;" horiz-adv-x="411" 
d="M180 -217h-33q-18 0 -14 24l49 193h-41q-27 0 -26 25v139q0 25 26 24h115q25 0 25 -24v-131q-1 -21 -5 -35l-71 -197q-6 -18 -25 -18z" />
    <glyph glyph-name="quotedblleft" unicode="&#x201c;" horiz-adv-x="718" 
d="M264 1440q20 0 17 -23l-52 -192h43q25 0 25 -27v-139q0 -25 -25 -25h-114q-27 0 -27 25v133q0 15 6 33l72 196q6 18 24 19h31zM571 1440q23 0 15 -23l-49 -192h43q25 0 24 -27v-139q0 -25 -24 -25h-117q-25 0 -25 25v133q0 15 6 33l72 196q6 18 25 19h30z" />
    <glyph glyph-name="quotedblright" unicode="&#x201d;" horiz-adv-x="718" 
d="M455 1030q-23 0 -15 23l52 194h-46q-23 0 -22 23v141q0 25 22 25h117q25 0 25 -25v-133q0 -21 -4 -33l-72 -196q-6 -18 -25 -19h-32zM147 1030q-18 0 -14 23l49 194h-41q-27 0 -26 23v141q0 25 26 25h115q25 0 25 -25v-133q-1 -21 -5 -33l-71 -196q-8 -18 -25 -19h-33z
" />
    <glyph glyph-name="quotedblbase" unicode="&#x201e;" horiz-adv-x="718" 
d="M487 -217h-32q-23 0 -15 22l52 195h-46q-23 0 -22 23v141q0 25 22 24h117q25 0 25 -24v-133q0 -21 -4 -33l-72 -197q-6 -18 -25 -18zM180 -217h-33q-18 0 -14 22l49 195h-41q-27 0 -26 23v141q0 25 26 24h115q25 0 25 -24v-133q-1 -21 -5 -33l-71 -197q-8 -18 -25 -18z
" />
    <glyph glyph-name="dagger" unicode="&#x2020;" horiz-adv-x="1050" 
d="M961 1024v-55q0 -25 -25 -25h-352v-1145q0 -25 -25 -24h-70q-23 0 -22 24v1145h-354q-25 0 -25 25v55q0 27 25 27h354v362q0 23 22 23h70q25 0 25 -23v-362h352q25 0 25 -27z" />
    <glyph glyph-name="daggerdbl" unicode="&#x2021;" horiz-adv-x="1052" 
d="M963 242v-56q0 -25 -25 -24h-352v-363q0 -25 -25 -24h-69q-25 0 -25 24v363h-352q-25 0 -25 24v56q0 25 25 24h352v678h-352q-25 0 -25 25v55q0 27 25 27h352v362q0 23 25 23h69q25 0 25 -23v-362h352q25 0 25 -27v-55q0 -25 -25 -25h-352v-678h352q25 1 25 -24z" />
    <glyph glyph-name="bullet" unicode="&#x2022;" horiz-adv-x="737" 
d="M369 289q-111 0 -185 75q-74 76 -74 188t74 186t185 73q111 0 185 -74q74 -75 73 -187q1 -112 -73 -186t-185 -75z" />
    <glyph glyph-name="onedotenleader" unicode="&#x2024;" horiz-adv-x="440" 
d="M141 25v141q0 25 25 24h108q25 0 25 -24v-141q0 -25 -23 -25h-110q-25 0 -25 25z" />
    <glyph glyph-name="twodotenleader" unicode="&#x2025;" horiz-adv-x="872" 
d="M141 25v141q0 25 25 24h108q25 0 25 -24v-141q0 -25 -23 -25h-110q-25 0 -25 25zM573 25v141q0 25 25 24h109q25 0 24 -24v-141q0 -25 -22 -25h-111q-25 0 -25 25z" />
    <glyph glyph-name="ellipsis" unicode="&#x2026;" horiz-adv-x="1320" 
d="M1022 25v141q0 25 25 24h110q23 0 23 -24v-141q0 -25 -23 -25h-110q-25 0 -25 25zM582 25v141q0 25 24 24h111q23 0 22 -24v-141q0 -25 -22 -25h-111q-24 0 -24 25zM141 25v141q0 25 25 24h108q25 0 25 -24v-141q0 -25 -23 -25h-110q-25 0 -25 25z" />
    <glyph glyph-name="perthousand" unicode="&#x2030;" horiz-adv-x="2658" 
d="M2451 408q0 156 -56 238q-57 82 -161 81q-104 0 -159 -82q-55 -81 -55 -237t54 -238q56 -82 160 -82t161 82q56 82 56 238zM1911 408q0 204 87 312q88 108 238 108t236 -108t86 -312t-86 -312t-237 -108t-237 108t-87 312zM1645 408q1 156 -55 238t-160 81
q-216 0 -216 -319t216 -320q104 0 160 82t55 238zM1104 408q0 204 87 312t239 108t238 -110q86 -108 85 -310q0 -202 -87 -312q-87 -108 -238 -108q-152 0 -238 108t-86 312zM422 1350q-104 0 -160 -83t-57 -238q0 -155 56 -237q57 -82 161 -81q104 -1 160 81t55 237
q0 155 -56 238q-55 83 -159 83zM98 1029q0 205 86 313t237 108t237 -109t87 -311q0 -202 -86 -312q-85 -108 -237 -108t-238 108t-86 311zM512 0h-72q-31 0 -14 27l874 1390q10 18 37 19h74q26 0 12 -25l-876 -1391q-14 -20 -35 -20z" />
    <glyph glyph-name="guilsinglleft" unicode="&#x2039;" horiz-adv-x="485" 
d="M80 544q0 7 4 13l172 272q10 20 33 21h61q14 0 18 -9t-3 -20l-175 -278l175 -277q8 -10 4 -18t-19 -8h-61q-20 0 -33 18l-172 272q-4 7 -4 14z" />
    <glyph glyph-name="guilsinglright" unicode="&#x203a;" horiz-adv-x="485" 
d="M406 544q0 -7 -5 -14l-172 -272q-12 -18 -30 -18h-62q-31 0 -14 26l174 277l-174 278q-18 29 14 29h62q20 0 30 -21l172 -272q5 -6 5 -13z" />
    <glyph glyph-name="exclamdbl" unicode="&#x203c;" horiz-adv-x="1118" 
d="M862 389h-53q-25 0 -25 27l-22 995q0 25 24 25h99q25 0 24 -25l-22 -995q0 -27 -25 -27zM754 25v145q0 23 22 23h119q23 0 23 -23v-145q0 -25 -23 -25h-119q-22 0 -22 25zM309 389h-53q-25 0 -25 27l-22 995q0 25 24 25h99q25 0 24 -25l-22 -995q0 -27 -25 -27zM201 25
v145q0 23 22 23h119q23 0 23 -23v-145q0 -25 -23 -25h-119q-22 0 -22 25z" />
    <glyph glyph-name="fraction" unicode="&#x2044;" horiz-adv-x="149" 
d="M-338 0h-72q-33 0 -14 27l875 1390q10 18 36 19h72q30 0 14 -25l-876 -1391q-14 -20 -35 -20z" />
    <glyph glyph-name="zero.superior" unicode="&#x2070;" 
d="M423 1087q251 1 251 349t-251 348t-251 -348t251 -349zM424 987q-176 0 -269 119t-94 330q-1 212 93 330t270 118t269 -119t93 -329t-93 -329q-93 -120 -269 -120z" />
    <glyph glyph-name="four.superior" unicode="&#x2074;" 
d="M766 1196h-121v-170q0 -29 -29 -29h-49q-29 0 -28 29v170h-457q-29 0 -29 31v41q0 14 13 28l466 559q18 18 33 19h51q29 0 29 -29v-549h121q29 0 29 -28v-41q0 -31 -29 -31zM539 1296v428l-357 -428h357z" />
    <glyph glyph-name="five.superior" unicode="&#x2075;" 
d="M614 1276q0 176 -192 176q-96 0 -157 -17q-59 -17 -77 -19t-38 9l-21 13q-20 8 -18 28q27 276 26 375q0 33 37 33h463q31 0 31 -29v-43q0 -29 -31 -28h-399q-4 -168 -19 -267q100 37 199 37q307 0 307 -266q0 -143 -87 -217t-257 -74t-264 49q-29 14 -21 33l19 45
q12 25 35 16q109 -45 233 -45q231 0 231 191z" />
    <glyph glyph-name="six.superior" unicode="&#x2076;" 
d="M450 1085q106 -1 164 57t58 154t-54 150t-162 53q-110 0 -168 -62q-58 -61 -58 -145t56 -146q58 -62 164 -61zM492 1788q-133 0 -209 -89t-78 -247q27 61 95 102q69 41 171 41q153 0 229 -83t76 -219t-84 -221t-248 -85t-258 115q-92 114 -92 316t102 334t285 132
q121 0 201 -37q27 -10 18 -30l-16 -43q-8 -21 -33 -15q-82 29 -159 29z" />
    <glyph glyph-name="seven.superior" unicode="&#x2077;" 
d="M727 1845v-35q0 -16 -14 -34q-129 -176 -233 -390t-111 -360q0 -29 -29 -29h-55q-27 0 -27 29q8 156 109 362q100 206 237 386h-469q-29 0 -29 28v43q0 29 29 29h561q31 0 31 -29z" />
    <glyph glyph-name="eight.superior" unicode="&#x2078;" 
d="M627 1661q-1 59 -53 95t-151 36t-151 -36t-53 -95q0 -121 205 -168q203 47 203 168zM197 1233q0 -66 61 -110q62 -44 166 -44t166 44q61 44 61 110q0 131 -227 176q-227 -45 -227 -176zM423 987q-161 0 -248 67t-87 173q0 168 209 225q-186 55 -186 209q0 102 79 163
q80 60 234 60t232 -60t79 -163q0 -154 -186 -209q211 -57 211 -225q0 -106 -88 -173t-249 -67z" />
    <glyph glyph-name="nine.superior" unicode="&#x2079;" 
d="M398 1786q-106 0 -166 -57q-58 -57 -58 -153t54 -150t163 -54t167 62t58 146q0 82 -56 144t-162 62zM354 1081q133 0 210 90t79 248q-29 -61 -97 -102t-171 -41q-152 0 -229 83q-76 83 -76 219t83 221t249 85t258 -115q94 -115 94 -321t-102 -333q-102 -128 -287 -128
q-121 0 -199 37q-27 10 -19 31l17 43q8 24 31 14q72 -31 159 -31z" />
    <glyph glyph-name="parenleft.superior" unicode="&#x207d;" horiz-adv-x="462" 
d="M125 1436q0 133 52 251t134 189q16 12 25 12h55q11 0 15 -7t-3 -13q-167 -168 -167 -432t167 -432q6 -6 4 -14q-3 -7 -16 -7h-55q-8 0 -25 12q-82 72 -134 190t-52 251z" />
    <glyph glyph-name="parenright.superior" unicode="&#x207e;" horiz-adv-x="462" 
d="M336 1436q0 -129 -53 -246t-131 -195q-12 -12 -25 -12h-55q-10 0 -14 7t1 14q168 184 168 440t-168 424q-8 6 -3 13t16 7h55q14 0 25 -12q184 -200 184 -440z" />
    <glyph glyph-name="n.superior" unicode="&#x207f;" horiz-adv-x="987" 
d="M158 1876h49q31 0 31 -29v-125q76 164 313 164q155 0 231 -84t76 -229v-545q0 -31 -29 -31h-51q-31 0 -30 31v528q0 227 -226 228q-127 0 -206 -74t-78 -186v-496q0 -31 -29 -31h-51q-29 0 -29 31v819q0 29 29 29z" />
    <glyph glyph-name="zero.inferior" unicode="&#x2080;" 
d="M172 0q0 -348 251 -348t251 348t-251 348t-251 -348zM424 -449q-176 0 -269 119t-94 330t93 330t270 119t269 -119t93 -329t-93 -330t-269 -120z" />
    <glyph glyph-name="one.inferior" unicode="&#x2081;" 
d="M455 438h47q29 0 28 -28v-820q0 -29 -28 -28h-49q-29 0 -29 28v705l-184 -125q-27 -18 -43 6l-27 39q-14 20 8 37l240 174q16 12 37 12z" />
    <glyph glyph-name="two.inferior" unicode="&#x2082;" 
d="M143 109q-20 -1 -26 23t-6 71q-1 111 71 179t232 67q307 0 307 -265q0 -244 -440 -522h432q29 0 28 -29v-43q0 -29 -28 -28h-576q-29 0 -28 28v39q0 18 18 31q252 174 342 264q141 139 141 256q0 80 -44 125t-154 45q-195 1 -195 -151l4 -62q0 -29 -28 -28h-50z" />
    <glyph glyph-name="three.inferior" unicode="&#x2083;" 
d="M397 -35h-96q-29 0 -29 29v41q0 29 29 28h98q86 0 136 37q49 37 49 111q0 139 -213 139q-102 0 -213 -43q-31 -10 -39 15l-19 43q-8 18 19 32q111 51 263 51t232 -58t80 -171q0 -139 -131 -192q152 -55 152 -215q0 -127 -87 -194t-247 -67t-270 54q-27 14 -21 30l19 46
q10 29 34 18q119 -49 229 -49t171 43q59 43 59 121q0 151 -205 151z" />
    <glyph glyph-name="four.inferior" unicode="&#x2084;" 
d="M766 -240h-121v-170q0 -29 -29 -28h-49q-29 0 -28 28v170h-457q-29 0 -29 31v41q0 12 13 29l466 559q18 18 33 18h51q29 0 29 -28v-549h121q29 0 29 -29v-41q0 -31 -29 -31zM539 -139v428l-357 -428h357z" />
    <glyph glyph-name="five.inferior" unicode="&#x2085;" 
d="M614 -160q0 176 -192 176q-96 0 -157 -17q-59 -17 -77 -18t-38 9l-21 12q-20 8 -18 29q27 276 26 375q0 33 37 32h463q31 0 31 -28v-43q0 -29 -31 -29h-399q-4 -168 -19 -266q100 37 199 37q307 -1 307 -267q0 -143 -87 -217t-257 -74t-264 50q-29 14 -21 32l19 45
q12 25 35 17q109 -45 233 -45q231 0 231 190z" />
    <glyph glyph-name="six.inferior" unicode="&#x2086;" 
d="M450 -350q106 0 164 57t58 153t-54 150q-54 53 -162 53q-110 0 -168 -62t-58 -145q0 -82 56 -144q58 -62 164 -62zM471 160q153 0 229 -83t76 -219t-84 -222t-248 -85q-164 0 -258 115q-92 115 -92 317q0 201 102 333t285 133q121 0 201 -37q27 -10 18 -31l-16 -43
q-8 -20 -33 -14q-82 29 -159 28q-133 0 -209 -89t-78 -247q27 61 95 103q69 41 171 41z" />
    <glyph glyph-name="seven.inferior" unicode="&#x2087;" 
d="M727 410v-35q0 -16 -14 -35q-129 -176 -233 -389t-111 -361q0 -29 -29 -28h-55q-27 0 -27 28q8 156 109 362q100 206 237 386h-469q-29 0 -29 29v43q0 29 29 28h561q31 1 31 -28z" />
    <glyph glyph-name="eight.inferior" unicode="&#x2088;" 
d="M627 225q-1 59 -53 95t-151 36t-152 -35q-52 -36 -52 -96q0 -121 205 -168q203 47 203 168zM197 -203q0 -65 61 -109q62 -44 166 -44t166 44q61 44 61 109q0 131 -227 176q-227 -45 -227 -176zM423 -449q-161 0 -248 67t-87 173q0 168 209 225q-186 55 -186 209
q0 102 79 163q80 60 234 60t232 -60t79 -163q0 -154 -186 -209q211 -57 211 -225q0 -106 -88 -173t-249 -67z" />
    <glyph glyph-name="nine.inferior" unicode="&#x2089;" 
d="M616 144q0 82 -56 144t-162 62t-166 -57q-58 -57 -58 -153t54 -150q54 -53 163 -53t167 62t58 145zM375 -160q-152 0 -229 83q-76 83 -76 219t83 222t249 85q166 0 258 -115q94 -115 94 -321t-102 -334t-287 -128q-121 0 -199 37q-27 10 -19 31l17 43q8 24 31 14
q72 -31 159 -30q133 0 210 90t79 248q-29 -61 -97 -103q-69 -41 -171 -41z" />
    <glyph glyph-name="parenleft.inferior" unicode="&#x208d;" horiz-adv-x="462" 
d="M125 0q0 133 52 251t134 189q16 12 25 13h55q11 1 15 -7t-3 -14q-167 -168 -167 -432t167 -432q5 -6 3 -13t-15 -8h-55q-8 0 -25 13q-82 72 -134 190t-52 250z" />
    <glyph glyph-name="parenright.inferior" unicode="&#x208e;" horiz-adv-x="462" 
d="M336 0q0 -131 -53 -247t-131 -193q-12 -12 -25 -13h-55q-10 -1 -14 7t1 14q168 184 168 440t-168 424q-8 6 -3 13t16 8h55q14 0 25 -13q184 -200 184 -440z" />
    <glyph glyph-name="Euro" unicode="&#x20ac;" horiz-adv-x="1314" 
d="M78 616h151q-4 66 -4 115t4 86h-151q-23 0 -23 25v51q0 23 23 22h162q43 238 206 391q164 153 431 152q201 0 348 -84q23 -10 14 -28l-29 -62q-10 -27 -34 -14q-131 70 -289 69q-217 1 -349 -117t-169 -307h600q23 0 16 -26l-16 -47q-8 -25 -33 -25h-578q-4 -31 -4 -85
t4 -116h476q23 0 14 -24l-14 -47q-10 -25 -35 -25h-428q37 -188 169 -306t353 -118q160 0 295 74q20 8 33 -16l28 -64q6 -16 -12 -27q-152 -84 -354 -83q-270 0 -436 151q-165 152 -209 389h-160q-23 0 -23 25v49q0 22 23 22z" />
    <glyph glyph-name="afii61289" unicode="&#x2113;" horiz-adv-x="978" 
d="M397 995v-385q172 92 282 228t109 305q0 221 -182 221q-131 0 -170 -84t-39 -285zM397 324q0 -132 48 -182q49 -50 145 -50t155 19q23 8 27 -15l14 -59q4 -18 -18 -25q-68 -27 -172 -26q-158 0 -237 78t-78 247v142q-98 -39 -201 -58q-18 -4 -25 13l-14 55q-6 18 12 22
q115 25 228 70v422q-1 249 65 365t252 116q143 0 217 -85t74 -232q0 -213 -140 -373t-352 -264v-180z" />
    <glyph glyph-name="trademark" unicode="&#x2122;" horiz-adv-x="1386" 
d="M966 963q-13 0 -22 12l-209 328v-512q0 -16 -16 -17h-53q-18 0 -19 17v628q0 16 19 17h59q16 0 25 -13l215 -346l217 346q4 12 22 13h60q16 0 16 -17v-628q0 -16 -16 -17h-54q-16 0 -16 17v509l-207 -325q-8 -12 -21 -12zM510 1356h-156v-565q0 -16 -18 -17h-55
q-16 0 -17 17v565h-155q-18 0 -19 18v45q0 16 19 17h401q16 0 16 -17v-45q0 -18 -16 -18z" />
    <glyph glyph-name="Omega" unicode="&#x2126;" horiz-adv-x="1619" 
d="M810 1458q337 0 510 -170t173 -444q0 -221 -119 -373t-301 -238v-122l299 6q25 0 25 -23v-69q0 -25 -23 -25h-426v258q0 25 29 41q385 195 385 543q0 225 -138 363t-414 138t-412 -138q-138 -138 -138 -363q0 -350 383 -543q31 -16 31 -41v-258h-426q-25 0 -25 25v69
q0 23 27 23l299 -6v122q-182 86 -302 238t-120 373q0 274 173 444t510 170z" />
    <glyph glyph-name="estimated" unicode="&#x212e;" horiz-adv-x="1753" 
d="M1378 748v380q0 49 -22 74q-190 186 -476 186t-479 -198q-18 -18 -18 -60v-382q0 -12 10 -13h975q10 1 10 13zM1679 686h-1286q-10 0 -10 -8v-379q0 -39 16 -59q170 -197 493 -197t515 223h119q-113 -133 -279 -209t-358 -75q-338 0 -573 215q-234 215 -234 520t230 519
t568 214t569 -214q230 -214 230 -521v-29z" />
    <glyph glyph-name="onethird" unicode="&#x2153;" horiz-adv-x="2004" 
d="M502 1436q29 0 28 -29v-819q0 -29 -28 -29h-49q-29 0 -29 29v704l-184 -125q-27 -18 -43 7l-27 38q-14 20 8 37l240 174q16 12 37 13h47zM1460 403q-29 0 -28 29v41q0 29 28 29h99q86 0 135 37t49 110q0 139 -213 139q-102 0 -213 -43q-31 -10 -39 15l-18 43q-8 18 18 33
q110 51 262 51q152 -1 233 -59t80 -171q0 -139 -131 -192q152 -55 152 -215q0 -127 -87 -194q-87 -66 -247 -66t-270 53q-27 14 -21 31l19 45q10 29 35 18q119 -49 229 -49t170 43q59 43 59 121q0 152 -205 151h-96zM504 0h-72q-33 0 -14 27l874 1390q10 18 37 19h72
q28 0 14 -25l-876 -1391q-14 -20 -35 -20z" />
    <glyph glyph-name="twothirds" unicode="&#x2154;" horiz-adv-x="2004" 
d="M1556 403h-96q-29 0 -28 29v41q0 29 28 29h99q86 0 135 37t49 110q0 139 -213 139q-102 0 -213 -43q-31 -10 -39 15l-18 43q-8 18 18 33q110 51 262 51q152 -1 233 -59t80 -171q0 -139 -131 -192q152 -55 152 -215q0 -127 -87 -194q-87 -66 -247 -66t-270 53
q-27 14 -21 31l19 45q10 29 35 18q119 -49 229 -49t170 43q59 43 59 121q0 151 -205 151zM606 0h-71q-33 0 -15 27l875 1390q10 18 37 19h71q29 0 15 -25l-877 -1391q-14 -20 -35 -20zM193 1106h-50q-20 0 -26 22t-6 72q-1 110 71 178t232 68q307 0 307 -264
q0 -244 -440 -523h432q29 0 28 -28v-43q0 -29 -28 -29h-576q-29 0 -28 29v39q0 18 18 30q252 174 342 265q141 139 141 256q0 80 -44 125t-154 45q-195 0 -195 -152l4 -61q0 -29 -28 -29z" />
    <glyph glyph-name="oneeighth" unicode="&#x215b;" horiz-adv-x="2004" 
d="M502 1436q29 0 28 -29v-819q0 -29 -28 -29h-49q-29 0 -29 29v704l-184 -125q-27 -18 -43 7l-27 38q-14 20 8 37l240 174q16 12 37 13h47zM1786 664q0 59 -52 95t-152 36t-151 -36q-52 -36 -53 -95q0 -121 205 -168q203 47 203 168zM1356 236q0 -66 61 -110t165 -44
t167 44q61 44 61 110q0 131 -227 176q-227 -45 -227 -176zM1919 229q0 -107 -88 -173t-249 -66t-248 66t-87 173q0 168 209 226q-186 55 -186 209q0 102 80 162t234 60t232 -60q79 -60 78 -162q0 -154 -186 -209q211 -57 211 -226zM535 0h-72q-33 0 -14 27l874 1390
q10 18 37 19h72q30 0 14 -25l-877 -1391q-14 -20 -34 -20z" />
    <glyph glyph-name="threeeighths" unicode="&#x215c;" horiz-adv-x="2004" 
d="M1786 664q0 59 -52 95t-152 36t-151 -36q-52 -36 -53 -95q0 -121 205 -168q203 47 203 168zM1356 236q0 -66 61 -110t165 -44t167 44q61 44 61 110q0 131 -227 176q-227 -45 -227 -176zM1919 229q0 -107 -88 -173t-249 -66t-248 66t-87 173q0 168 209 226
q-186 55 -186 209q0 102 80 162t234 60t232 -60q79 -60 78 -162q0 -154 -186 -209q211 -57 211 -226zM573 0h-71q-33 0 -15 27l875 1390q10 18 37 19h71q29 0 15 -25l-877 -1391q-14 -20 -35 -20zM397 963h-96q-29 0 -29 28v41q0 29 29 29h98q86 0 136 37q49 37 49 110
q0 139 -213 140q-102 0 -213 -43q-31 -10 -39 14l-19 43q-8 18 19 33q111 51 263 51t232 -58t80 -171q0 -139 -131 -193q152 -55 152 -215q0 -127 -87 -194t-247 -67t-270 54q-27 14 -21 31l19 45q10 29 34 18q119 -49 229 -49t171 43q59 43 59 121q0 152 -205 152z" />
    <glyph glyph-name="fiveeighths" unicode="&#x215d;" horiz-adv-x="2004" 
d="M1786 664q0 59 -52 95t-152 36t-151 -36q-52 -36 -53 -95q0 -121 205 -168q203 47 203 168zM1356 236q0 -66 61 -110t165 -44t167 44q61 44 61 110q0 131 -227 176q-227 -45 -227 -176zM1919 229q0 -107 -88 -173t-249 -66t-248 66t-87 173q0 168 209 226
q-186 55 -186 209q0 102 80 162t234 60t232 -60q79 -60 78 -162q0 -154 -186 -209q211 -57 211 -226zM575 0h-71q-33 0 -15 27l875 1390q10 18 37 19h72q30 0 14 -25l-877 -1391q-14 -20 -35 -20zM614 838q0 176 -192 176q-96 0 -157 -18q-59 -18 -77 -18q-18 -1 -38 9
l-21 12q-20 8 -18 29q27 276 26 375q0 33 37 33h463q31 0 31 -29v-43q0 -29 -31 -29h-399q-4 -168 -19 -266q102 37 199 37q307 0 307 -266q0 -143 -87 -217t-257 -74t-264 49q-29 14 -21 33l19 45q12 25 35 16q109 -45 233 -45q231 0 231 191z" />
    <glyph glyph-name="seveneighths" unicode="&#x215e;" horiz-adv-x="2004" 
d="M1786 664q0 59 -52 95t-152 36t-151 -36q-52 -36 -53 -95q0 -121 205 -168q203 47 203 168zM1356 236q0 -66 61 -110t165 -44t167 44q61 44 61 110q0 131 -227 176q-227 -45 -227 -176zM1919 229q0 -107 -88 -173t-249 -66t-248 66t-87 173q0 168 209 226
q-186 55 -186 209q0 102 80 162t234 60t232 -60q79 -60 78 -162q0 -154 -186 -209q211 -57 211 -226zM463 0h-72q-33 0 -14 27l874 1390q10 18 37 19h72q28 0 14 -25l-876 -1391q-14 -20 -35 -20zM727 1407v-35q0 -16 -14 -35q-129 -176 -233 -389t-111 -360q0 -29 -29 -29
h-55q-27 0 -27 29q8 156 108 362t238 385h-469q-29 0 -29 29v43q0 29 29 29h561q31 0 31 -29z" />
    <glyph glyph-name="arrowleft" unicode="&#x2190;" horiz-adv-x="1314" 
d="M1198 559v-63q0 -25 -27 -25l-872 4l408 -375q8 -10 4 -18t-17 -8h-86q-18 0 -30 12l-437 414q-12 12 -12 26t12 27l437 414q18 14 30 14h86q12 0 17 -9q4 -10 -4 -20l-408 -372l872 4q27 0 27 -25z" />
    <glyph glyph-name="arrowup" unicode="&#x2191;" horiz-adv-x="1314" 
d="M635 33q-25 0 -25 26l4 873l-374 -408q-8 -10 -18 -6q-9 4 -9 17v88q0 18 12 30l414 434q11 13 27 13t26 -13l416 -434q12 -12 12 -30v-88q0 -11 -9 -15t-17 4l-375 408l4 -873q0 -27 -25 -26h-63z" />
    <glyph glyph-name="arrowright" unicode="&#x2192;" horiz-adv-x="1314" 
d="M618 981h87q14 0 32 -14l434 -414q13 -11 13 -27t-13 -26l-434 -414q-16 -12 -32 -12h-87q-12 0 -16 8t6 18l408 375l-875 -4q-25 0 -24 25v63q0 25 24 25l875 -4l-408 372q-8 10 -5 20t15 9z" />
    <glyph glyph-name="arrowdown" unicode="&#x2193;" horiz-adv-x="1314" 
d="M635 1022h63q25 0 25 -29l-4 -872l375 407q8 8 17 6t9 -16v-86q0 -18 -12 -31l-416 -436q-12 -12 -26 -12t-27 12l-414 436q-12 12 -12 31v86q0 12 9 17q10 3 18 -7l374 -407l-4 872q0 29 25 29z" />
    <glyph glyph-name="arrowboth" unicode="&#x2194;" horiz-adv-x="2019" 
d="M1325 981h86q18 0 33 -14l434 -414q12 -13 12 -27t-12 -26l-434 -414q-14 -12 -33 -12h-86q-12 0 -16 8t6 18l405 375l-714 -10l-707 10l408 -375q8 -10 4 -18t-17 -8h-86q-18 0 -30 12l-437 414q-12 12 -12 27t12 26l437 414q18 14 30 14h86q12 0 16 -9t-3 -20
l-408 -372l707 8l714 -8l-405 372q-8 10 -5 20t15 9z" />
    <glyph glyph-name="arrowupdn" unicode="&#x2195;" horiz-adv-x="1314" 
d="M1112 408v-89q0 -12 -14 -30l-414 -434q-27 -32 -53 0l-414 434q-14 18 -14 30v89q0 12 9 16t17 -6l377 -408l-10 522l10 512l-377 -407q-8 -10 -17 -7t-9 15v88q0 18 14 31l414 436q10 12 25 12t28 -12l414 -436q14 -14 14 -31v-88q0 -12 -9 -15t-20 7l-374 407l10 -512
l-10 -522l374 408q9 8 19 5t10 -15z" />
    <glyph glyph-name="arrowupleft" unicode="&#x2196;" horiz-adv-x="1314" 
d="M276 897q0 37 37 37l600 -14q16 0 33 -15l62 -59q10 -8 5 -19q-6 -10 -20 -10l-551 25l621 -615q18 -18 0 -37l-45 -43q-18 -20 -35 0l-614 621l24 -553q0 -12 -10 -16t-18 4l-60 61q-14 16 -14 31z" />
    <glyph glyph-name="arrowupright" unicode="&#x2197;" horiz-adv-x="1314" 
d="M872 842l-553 -25q-14 0 -18 10t6 19l62 59q14 14 30 15l602 14q13 0 25 -9t12 -28l-14 -602q0 -14 -14 -31l-60 -61q-8 -8 -18 -4t-10 16l24 553l-614 -621q-18 -18 -37 0l-43 43q-18 18 0 37z" />
    <glyph glyph-name="arrowdownright" unicode="&#x2198;" horiz-adv-x="1314" 
d="M319 215l553 -25l-620 617q-16 16 0 35l43 43q18 18 37 0l614 -621l-24 553q0 15 10 19t18 -7l60 -59q14 -12 14 -33l14 -602q0 -16 -12 -26t-25 -11l-602 15q-16 0 -32 16l-60 59q-8 8 -4 18t16 9z" />
    <glyph glyph-name="arrowdownleft" unicode="&#x2199;" horiz-adv-x="1314" 
d="M313 98q-35 4 -37 37l15 602q0 18 14 33l60 59q8 9 18 5t10 -17l-24 -553l614 621q16 18 35 0l45 -43q23 -23 0 -35l-621 -617l551 25q11 0 17 -9t-2 -18l-62 -61q-14 -14 -33 -14z" />
    <glyph glyph-name="partialdiff" unicode="&#x2202;" horiz-adv-x="1290" 
d="M576 90q177 0 288 117t116 282t-88 267t-269 102t-289 -113t-113 -289t89 -271t266 -95zM639 1458q266 0 401 -176q136 -176 136 -489t-135 -549q-69 -121 -189 -193t-283 -71q-225 0 -348 122t-123 339q0 218 138 373t385 155q195 0 303 -108t114 -236q16 104 17 180
q0 266 -117 404t-315 139q-131 0 -250 -43q-25 -8 -29 12l-18 63q-4 16 20 27q127 51 293 51z" />
    <glyph glyph-name="Delta" unicode="&#x2206;" horiz-adv-x="1376" 
d="M684 1321l-414 -1208h834l-412 1208h-8zM635 1436h106q27 0 37 -29l465 -1356q8 -23 -3 -37t-38 -14h-1030q-23 0 -35 15t-4 36l465 1356q10 29 37 29z" />
    <glyph glyph-name="product" unicode="&#x220f;" horiz-adv-x="1501" 
d="M86 1346v65q0 25 27 25h1278q25 0 24 -25v-65q0 -25 -24 -25h-234v-1296q0 -25 -27 -25h-71q-27 0 -27 25v1296h-563v-1296q0 -25 -25 -25h-73q-25 0 -25 25v1296h-233q-27 0 -27 25z" />
    <glyph glyph-name="summation" unicode="&#x2211;" horiz-adv-x="1208" 
d="M1087 -113q23 0 23 -24v-64q0 -25 -23 -24h-952q-27 0 -26 28v58q0 18 14 43l532 710l-522 686q-12 18 -12 41v70q0 25 26 25h928q25 0 25 -25v-61q0 -27 -25 -27h-817l518 -672q8 -12 8 -26v-25q0 -21 -8 -29l-520 -684h831z" />
    <glyph glyph-name="minus" unicode="&#x2212;" horiz-adv-x="1191" 
d="M1034 655h-876q-25 0 -25 23v59q0 23 27 23h874q23 0 23 -23v-59q0 -23 -23 -23z" />
    <glyph glyph-name="uni2215" unicode="&#x2215;" horiz-adv-x="149" 
d="M-338 0h-72q-33 0 -14 27l875 1390q10 18 36 19h72q30 0 14 -25l-876 -1391q-14 -20 -35 -20z" />
    <glyph glyph-name="uni2219" unicode="&#x2219;" horiz-adv-x="440" 
d="M141 455v141q0 25 25 25h108q25 0 25 -25v-141q0 -25 -23 -25h-110q-25 0 -25 25z" />
    <glyph glyph-name="radical" unicode="&#x221a;" horiz-adv-x="1339" 
d="M731 -143h-86q-27 0 -37 26l-315 865h-154q-29 0 -28 24v59q0 25 28 25h230q20 0 30 -25l281 -792h8l414 1493q6 25 26 24h80q27 0 21 -28l-465 -1645q-6 -26 -33 -26z" />
    <glyph glyph-name="infinity" unicode="&#x221e;" horiz-adv-x="1509" 
d="M1034 469q250 0 250 248t-231 248q-111 0 -154 -43t-80 -164l-49 -166q80 -123 264 -123zM477 965q-252 0 -252 -250q1 -121 61 -183t172 -63q112 0 152 41t78 166l53 166q-84 123 -264 123zM1040 1051q347 0 344 -336q0 -150 -82 -241t-274 -91q-193 0 -299 125
q-76 -125 -274 -125q-164 0 -253 89q-89 90 -89 242t88 244q89 92 281 92t298 -124q80 125 260 125z" />
    <glyph glyph-name="integral" unicode="&#x222b;" horiz-adv-x="722" 
d="M301 51v1118q0 137 49 207t164 70q80 0 125 -14q23 -6 18 -27l-12 -59q-2 -20 -27 -19q-57 10 -77 10q-68 0 -94 -44t-25 -132v-1120q0 -135 -49 -205t-164 -69q-63 0 -125 14q-20 6 -18 26l10 60q2 20 26 18q45 -10 80 -10q66 0 92 44t27 132z" />
    <glyph glyph-name="approxequal" unicode="&#x2248;" horiz-adv-x="1191" 
d="M862 801q-72 0 -188 43l-172 65q-113 43 -162 43q-78 0 -100 -69l-11 -29q-6 -18 -26 -18h-41q-33 0 -27 38q39 172 197 173q59 0 188 -46l162 -55q143 -51 176 -51q70 0 94 72l11 28q6 16 26 17h41q33 0 27 -39q-37 -172 -195 -172zM862 379q-72 0 -188 43l-172 65
q-119 45 -162 45q-76 0 -100 -71l-11 -29q-6 -18 -26 -18h-41q-33 0 -27 39q39 174 197 174q63 0 188 -45l162 -58q133 -49 176 -49q70 0 94 70l11 28q6 18 26 19h41q33 0 27 -41q-37 -172 -195 -172z" />
    <glyph glyph-name="notequal" unicode="&#x2260;" horiz-adv-x="1191" 
d="M1022 473h-490l-223 -448q-12 -25 -35 -25h-57q-33 0 -18 27l221 446h-250q-25 0 -25 23v57q0 25 27 25h299l137 276h-438q-25 0 -25 23v57q0 23 27 22h487l230 461q10 18 31 19h63q31 0 16 -29l-227 -451h250q25 0 25 -22v-57q0 -23 -25 -23h-299l-139 -276h438
q25 0 25 -25v-57q0 -23 -25 -23z" />
    <glyph glyph-name="lessequal" unicode="&#x2264;" horiz-adv-x="1191" 
d="M993 0h-827q-25 0 -25 25v47q0 25 25 24h827q25 0 25 -24v-47q0 -25 -25 -25zM135 750q0 16 19 32l786 555q18 12 33 -4l41 -51q16 -20 -4 -33l-727 -497l727 -500q23 -14 4 -33l-41 -51q-14 -18 -33 -4l-786 555q-19 15 -19 31z" />
    <glyph glyph-name="greaterequal" unicode="&#x2265;" horiz-adv-x="1191" 
d="M1028 0h-829q-23 0 -23 25v47q0 25 23 24h827q25 0 25 -24v-47q0 -25 -23 -25zM1057 751q0 -17 -17 -32l-788 -555q-16 -12 -33 4l-41 51q-16 20 4 33l727 500l-727 497q-23 14 -4 33l41 51q16 16 33 4l788 -555q17 -14 17 -31z" />
    <glyph glyph-name="lozenge" unicode="&#x25ca;" horiz-adv-x="1376" 
d="M689 -14q-15 0 -27 14l-523 698q-6 10 -6 22t6 17l523 699q10 14 25 14t28 -14l522 -699q6 -8 6 -18t-6 -21l-522 -698q-11 -14 -26 -14zM688 158l420 561l-420 561l-420 -561z" />
    <glyph glyph-name="uniE000" unicode="&#xe000;" horiz-adv-x="1024" 
 />
    <glyph glyph-name="Q.alt" unicode="&#xe001;" horiz-adv-x="1445" 
d="M250 720q0 -302 118 -463t356 -161q236 0 354 160t118 463t-118 463t-354 160t-356 -160q-118 -160 -118 -462zM119 729q0 344 154 537q155 192 450 192t449 -192t155 -537q0 -344 -141 -535t-410 -206l10 -187q2 -27 -24 -26h-78q-27 -1 -27 26l11 187q-266 16 -408 206
t-141 535z" />
    <glyph glyph-name="a.alt" unicode="&#xe002;" horiz-adv-x="1230" 
d="M1065 1024v-999q0 -25 -25 -25h-69q-25 0 -25 25v184q-94 -229 -383 -229q-211 0 -332 140t-120 406q0 266 120 408q121 141 332 141q133 0 235 -60t148 -171v182q0 25 25 25h69q25 0 25 -27zM946 526q0 213 -95 328t-267 115q-350 1 -350 -441t350 -442q170 0 266 114
t96 326z" />
    <glyph glyph-name="u.alt" unicode="&#xe003;" horiz-adv-x="1146" 
d="M573 -20q-197 0 -307 98t-110 280v666q0 27 22 27h72q25 0 24 -27v-659q0 -131 76 -203t223 -72t225 72q77 72 76 203v659q0 27 23 27h70q27 0 26 -27v-666q1 -180 -111 -279t-309 -99z" />
    <glyph glyph-name="y.alt" unicode="&#xe004;" horiz-adv-x="1163" 
d="M879 156v139q-90 -207 -359 -207q-184 0 -274 101t-90 282v553q0 27 22 27h72q25 0 24 -27v-537q0 -289 271 -288q145 0 238 88t94 231v506q0 27 24 27h72q23 0 22 -27v-877q-1 -193 -115 -295t-317 -102t-338 64q-18 10 -16 26l10 62q4 23 29 14q147 -59 305 -59t242 76
t84 223z" />
    <glyph glyph-name="j.alt" unicode="&#xe005;" horiz-adv-x="464" 
d="M293 1395v-170q0 -25 -25 -25h-71q-23 0 -23 25v170q0 25 23 24h71q25 1 25 -24zM293 1024v-1225q0 -25 -25 -24h-71q-23 0 -23 24v1225q0 27 23 27h71q25 0 25 -27z" />
    <glyph glyph-name="agrave.alt" unicode="&#xe006;" horiz-adv-x="1230" 
d="M709 1198h-43q-18 0 -39 16l-191 183q-10 8 -7 19t17 11h107q25 0 41 -20l127 -184q6 -9 3 -17t-15 -8zM1065 1024v-999q0 -25 -25 -25h-69q-25 0 -25 25v184q-94 -229 -383 -229q-211 0 -332 140t-120 406q0 266 120 408q121 141 332 141q133 0 235 -60t148 -171v182
q0 25 25 25h69q25 0 25 -27zM946 526q0 213 -95 328t-267 115q-350 1 -350 -441t350 -442q170 0 266 114t96 326z" />
    <glyph glyph-name="aacute.alt" unicode="&#xe007;" horiz-adv-x="1230" 
d="M682 1427h106q14 0 18 -11t-7 -19l-191 -183q-20 -16 -39 -16h-41q-12 0 -16 8t2 17l127 184q14 20 41 20zM1065 1024v-999q0 -25 -25 -25h-69q-25 0 -25 25v184q-94 -229 -383 -229q-211 0 -332 140t-120 406q0 266 120 408q121 141 332 141q133 0 235 -60t148 -171v182
q0 25 25 25h69q25 0 25 -27zM946 526q0 213 -95 328t-267 115q-350 1 -350 -441t350 -442q170 0 266 114t96 326z" />
    <glyph glyph-name="acircumflex.alt" unicode="&#xe008;" horiz-adv-x="1230" 
d="M430 1198h-57q-13 0 -17 9t6 18l193 186q16 16 37 16h61q23 0 39 -16l193 -186q10 -7 7 -17t-18 -10h-59q-17 0 -35 16l-155 134l-158 -134q-18 -16 -37 -16zM1065 1024v-999q0 -25 -25 -25h-69q-25 0 -25 25v184q-94 -229 -383 -229q-211 0 -332 140t-120 406
q0 266 120 408q121 141 332 141q133 0 235 -60t148 -171v182q0 25 25 25h69q25 0 25 -27zM946 526q0 213 -95 328t-267 115q-350 1 -350 -441t350 -442q170 0 266 114t96 326z" />
    <glyph glyph-name="atilde.alt" unicode="&#xe009;" horiz-adv-x="1230" 
d="M895 1360q20 0 20 -45q1 -45 -31 -81t-98 -36t-157 39l-45 18q-72 29 -112 29t-48 -35l-6 -24q-6 -23 -31 -23h-35q-22 0 -22 45t31 81t91 36t164 -41l50 -18q76 -31 114 -31t45 43l4 20q2 23 29 23h37zM1065 1024v-999q0 -25 -25 -25h-69q-25 0 -25 25v184
q-94 -229 -383 -229q-211 0 -332 140t-120 406q0 266 120 408q121 141 332 141q133 0 235 -60t148 -171v182q0 25 25 25h69q25 0 25 -27zM946 526q0 213 -95 328t-267 115q-350 1 -350 -441t350 -442q170 0 266 114t96 326z" />
    <glyph glyph-name="adieresis.alt" unicode="&#xe00a;" horiz-adv-x="1230" 
d="M864 1370v-147q0 -25 -22 -25h-80q-25 0 -25 25v147q0 25 25 25h80q22 0 22 -25zM508 1370v-147q0 -25 -23 -25h-79q-25 0 -25 25v147q0 25 25 25h79q23 0 23 -25zM1065 1024v-999q0 -25 -25 -25h-69q-25 0 -25 25v184q-94 -229 -383 -229q-211 0 -332 140t-120 406
q0 266 120 408q121 141 332 141q133 0 235 -60t148 -171v182q0 25 25 25h69q25 0 25 -27zM946 526q0 213 -95 328t-267 115q-350 1 -350 -441t350 -442q170 0 266 114t96 326z" />
    <glyph glyph-name="amacron.alt" unicode="&#xe00b;" horiz-adv-x="1230" 
d="M897 1214h-549q-23 0 -22 23v41q0 25 22 25h549q25 0 25 -25v-41q0 -23 -25 -23zM1065 1024v-999q0 -25 -25 -25h-69q-25 0 -25 25v184q-94 -229 -383 -229q-211 0 -332 140t-120 406q0 266 120 408q121 141 332 141q133 0 235 -60t148 -171v182q0 25 25 25h69
q25 0 25 -27zM946 526q0 213 -95 328t-267 115q-350 1 -350 -441t350 -442q170 0 266 114t96 326z" />
    <glyph glyph-name="abreve.alt" unicode="&#xe00c;" horiz-adv-x="1230" 
d="M624 1192q-132 0 -197 63t-67 150q0 20 19 20h43q16 0 22 -18q14 -61 52 -96t128 -35q89 0 127 35t52 96q2 18 22 18h41q20 0 21 -20q-3 -85 -67 -149t-196 -64zM1065 1024v-999q0 -25 -25 -25h-69q-25 0 -25 25v184q-94 -229 -383 -229q-211 0 -332 140t-120 406
q0 266 120 408q121 141 332 141q133 0 235 -60t148 -171v182q0 25 25 25h69q25 0 25 -27zM946 526q0 213 -95 328t-267 115q-350 1 -350 -441t350 -442q170 0 266 114t96 326z" />
    <glyph glyph-name="aring.alt" unicode="&#xe00d;" horiz-adv-x="1230" 
d="M623 1552q92 0 148 -51t56 -133t-55 -133t-148 -51t-149 51q-55 51 -55 133t55 133q56 51 148 51zM625 1253q59 0 92 30t33 84t-34 84t-93 30q-125 0 -125 -114t127 -114zM1065 1024v-999q0 -25 -25 -25h-69q-25 0 -25 25v184q-94 -229 -383 -229q-211 0 -332 140
t-120 406q0 266 120 408q121 141 332 141q133 0 235 -60t148 -171v182q0 25 25 25h69q25 0 25 -27zM946 526q0 213 -95 328t-267 115q-350 1 -350 -441t350 -442q170 0 266 114t96 326z" />
    <glyph glyph-name="aringacute.alt" unicode="&#xe00e;" horiz-adv-x="1230" 
d="M625 1253q59 0 92 30t33 84t-34 84t-93 30q-125 0 -125 -114t127 -114zM420 1368q0 127 117 170l104 152q14 20 41 20h106q14 0 18 -11t-7 -20l-135 -131q76 -10 120 -59t43 -126q0 -77 -55 -128t-148 -51t-149 51q-55 51 -55 133zM946 526q0 213 -95 328t-267 115
q-350 1 -350 -441t350 -442q170 0 266 114t96 326zM1065 1024v-999q0 -25 -25 -25h-69q-25 0 -25 25v184q-94 -229 -383 -229q-211 0 -332 140t-120 406q0 266 120 408q121 141 332 141q133 0 235 -60t148 -171v182q0 25 25 25h69q25 0 25 -27z" />
    <glyph glyph-name="aogonek.alt" unicode="&#xe00f;" horiz-adv-x="1230" 
d="M946 526q0 213 -95 328t-267 115q-350 1 -350 -441t350 -442q170 0 266 114t96 326zM1065 1024v-999q0 -25 -25 -25h-22q-139 -61 -139 -154q0 -66 102 -65q27 0 57 6t31 -6l10 -41q2 -12 -8 -19q-37 -23 -113 -22q-170 0 -170 125q0 53 46 105t114 81q-2 4 -2 15v184
q-94 -229 -383 -229q-211 0 -332 140t-120 406q0 266 120 408q121 141 332 141q133 0 235 -60t148 -171v182q0 25 25 25h69q25 0 25 -27z" />
    <glyph glyph-name="ij.alt" unicode="&#xe010;" horiz-adv-x="917" 
d="M745 1395v-170q0 -25 -24 -25h-72q-23 0 -22 25v170q0 25 22 24h72q24 1 24 -24zM745 1024v-1225q0 -25 -24 -24h-72q-23 0 -22 24v1225q0 27 22 27h72q24 0 24 -27zM293 1395v-170q0 -25 -25 -25h-71q-23 0 -23 25v170q0 25 23 24h71q25 1 25 -24zM293 1024v-999
q0 -25 -25 -25h-71q-23 0 -23 25v999q0 27 23 27h71q25 0 25 -27z" />
    <glyph glyph-name="jcircumflex.alt" unicode="&#xe011;" horiz-adv-x="466" 
d="M41 1198h-57q-14 0 -18 9t7 18l193 186q16 16 37 16h61q23 0 39 -16l193 -186q10 -7 7 -17t-18 -10h-59q-17 0 -35 16l-155 134l-158 -134q-18 -16 -37 -16zM293 1024v-1225q0 -25 -25 -24h-71q-23 0 -23 24v1225q0 27 23 27h71q25 0 25 -27z" />
    <glyph glyph-name="dotlessj.alt" unicode="&#xe012;" horiz-adv-x="464" 
d="M293 1024v-1225q0 -25 -25 -24h-71q-23 0 -23 24v1225q0 27 23 27h71q25 0 25 -27z" />
    <glyph glyph-name="ugrave.alt" unicode="&#xe013;" horiz-adv-x="1146" 
d="M647 1198h-43q-18 0 -39 16l-190 183q-10 8 -7 19t17 11h107q24 0 40 -20l127 -184q6 -8 4 -17q-3 -8 -16 -8zM573 -20q-197 0 -307 98t-110 280v666q0 27 22 27h72q25 0 24 -27v-659q0 -131 76 -203t223 -72t225 72q77 72 76 203v659q0 27 23 27h70q27 0 26 -27v-666
q1 -180 -111 -279t-309 -99z" />
    <glyph glyph-name="uacute.alt" unicode="&#xe014;" horiz-adv-x="1146" 
d="M655 1427h107q14 0 17 -11t-7 -19l-190 -183q-20 -16 -39 -16h-41q-12 0 -17 8q-4 9 2 17l127 184q14 20 41 20zM573 -20q-197 0 -307 98t-110 280v666q0 27 22 27h72q25 0 24 -27v-659q0 -131 76 -203t223 -72t225 72q77 72 76 203v659q0 27 23 27h70q27 0 26 -27v-666
q1 -180 -111 -279t-309 -99z" />
    <glyph glyph-name="ucircumflex.alt" unicode="&#xe015;" horiz-adv-x="1146" 
d="M379 1198h-57q-14 0 -18 9t7 18l193 186q16 16 37 16h61q23 0 39 -16l193 -186q10 -7 7 -17t-18 -10h-59q-17 0 -35 16l-156 134l-157 -134q-18 -16 -37 -16zM573 -20q-197 0 -307 98t-110 280v666q0 27 22 27h72q25 0 24 -27v-659q0 -131 76 -203t223 -72t225 72
q77 72 76 203v659q0 27 23 27h70q27 0 26 -27v-666q1 -180 -111 -279t-309 -99z" />
    <glyph glyph-name="utilde.alt" unicode="&#xe016;" horiz-adv-x="1146" 
d="M844 1360q20 0 20 -45t-32 -81t-98 -36q-67 0 -156 39l-46 18q-72 29 -112 29t-47 -35l-6 -24q-6 -23 -31 -23h-35q-23 0 -23 45t32 81t91 36t164 -41l49 -18q78 -31 115 -31t45 43l4 20q2 23 29 23h37zM573 -20q-197 0 -307 98t-110 280v666q0 27 22 27h72q25 0 24 -27
v-659q0 -131 76 -203t223 -72t225 72q77 72 76 203v659q0 27 23 27h70q27 0 26 -27v-666q1 -180 -111 -279t-309 -99z" />
    <glyph glyph-name="udieresis.alt" unicode="&#xe017;" horiz-adv-x="1146" 
d="M813 1370v-147q0 -25 -22 -25h-80q-25 0 -25 25v147q0 25 25 25h80q22 0 22 -25zM457 1370v-147q0 -25 -23 -25h-80q-25 0 -24 25v147q0 25 24 25h80q23 0 23 -25zM573 -20q-197 0 -307 98t-110 280v666q0 27 22 27h72q25 0 24 -27v-659q0 -131 76 -203t223 -72t225 72
q77 72 76 203v659q0 27 23 27h70q27 0 26 -27v-666q1 -180 -111 -279t-309 -99z" />
    <glyph glyph-name="umacron.alt" unicode="&#xe018;" horiz-adv-x="1146" 
d="M846 1214h-549q-23 0 -23 23v41q0 25 23 25h549q25 0 24 -25v-41q1 -23 -24 -23zM573 -20q-197 0 -307 98t-110 280v666q0 27 22 27h72q25 0 24 -27v-659q0 -131 76 -203t223 -72t225 72q77 72 76 203v659q0 27 23 27h70q27 0 26 -27v-666q1 -180 -111 -279t-309 -99z
" />
    <glyph glyph-name="ubreve.alt" unicode="&#xe019;" horiz-adv-x="1146" 
d="M572 1192q-132 0 -196 63t-67 150q0 20 19 20h43q16 0 22 -18q14 -61 52 -96t127 -35t127 35t53 96q2 18 22 18h41q20 0 21 -20q-2 -85 -67 -149t-197 -64zM573 -20q-197 0 -307 98t-110 280v666q0 27 22 27h72q25 0 24 -27v-659q0 -131 76 -203t223 -72t225 72
q77 72 76 203v659q0 27 23 27h70q27 0 26 -27v-666q1 -180 -111 -279t-309 -99z" />
    <glyph glyph-name="uring.alt" unicode="&#xe01a;" horiz-adv-x="1146" 
d="M571 1552q93 0 149 -51t56 -133t-55 -133t-149 -51t-148 51q-55 51 -55 133t55 133t147 51zM573 1253q59 0 93 30q32 30 32 84t-33 84q-34 30 -94 30q-125 0 -125 -114t127 -114zM573 -20q-197 0 -307 98t-110 280v666q0 27 22 27h72q25 0 24 -27v-659q0 -131 76 -203
t223 -72t225 72q77 72 76 203v659q0 27 23 27h70q27 0 26 -27v-666q1 -180 -111 -279t-309 -99z" />
    <glyph glyph-name="uhungarumlaut.alt" unicode="&#xe01b;" horiz-adv-x="1146" 
d="M788 1427h84q12 0 18 -11t-3 -19l-156 -183q-14 -16 -39 -16h-39q-12 0 -16 8t2 17l111 184q12 20 38 20zM481 1427h84q13 0 17 -10t-4 -20l-156 -183q-16 -16 -37 -16h-41q-12 0 -16 8t2 17l112 184q14 20 39 20zM573 -20q-197 0 -307 98t-110 280v666q0 27 22 27h72
q25 0 24 -27v-659q0 -131 76 -203t223 -72t225 72q77 72 76 203v659q0 27 23 27h70q27 0 26 -27v-666q1 -180 -111 -279t-309 -99z" />
    <glyph glyph-name="ydieresis.alt" unicode="&#xe01c;" horiz-adv-x="1163" 
d="M821 1370v-147q0 -25 -22 -25h-80q-25 0 -25 25v147q0 25 25 25h80q22 0 22 -25zM465 1370v-147q0 -25 -23 -25h-80q-25 0 -24 25v147q0 25 24 25h80q23 0 23 -25zM879 156v139q-90 -207 -359 -207q-184 0 -274 101t-90 282v553q0 27 22 27h72q25 0 24 -27v-537
q0 -289 271 -288q145 0 238 88t94 231v506q0 27 24 27h72q23 0 22 -27v-877q-1 -193 -115 -295t-317 -102t-338 64q-18 10 -16 26l10 62q4 23 29 14q147 -59 305 -59t242 76t84 223z" />
    <glyph glyph-name="yacute.alt" unicode="&#xe01d;" horiz-adv-x="1163" 
d="M659 1427h107q14 0 17 -11t-7 -19l-190 -183q-20 -16 -39 -16h-41q-12 0 -17 8q-3 9 3 17l126 184q14 20 41 20zM879 156v139q-90 -207 -359 -207q-184 0 -274 101t-90 282v553q0 27 22 27h72q25 0 24 -27v-537q0 -289 271 -288q145 0 238 88t94 231v506q0 27 24 27h72
q23 0 22 -27v-877q-1 -193 -115 -295t-317 -102t-338 64q-18 10 -16 26l10 62q4 23 29 14q147 -59 305 -59t242 76t84 223z" />
    <glyph glyph-name="ycircumflex.alt" unicode="&#xe01e;" horiz-adv-x="1163" 
d="M371 1198h-58q-14 0 -17 9t7 18l193 186q16 16 36 16h62q23 0 39 -16l192 -186q10 -8 8 -18q-3 -9 -18 -9h-59q-17 0 -35 16l-156 134l-157 -134q-18 -16 -37 -16zM879 156v139q-90 -207 -359 -207q-184 0 -274 101t-90 282v553q0 27 22 27h72q25 0 24 -27v-537
q0 -289 271 -288q145 0 238 88t94 231v506q0 27 24 27h72q23 0 22 -27v-877q-1 -193 -115 -295t-317 -102t-338 64q-18 10 -16 26l10 62q4 23 29 14q147 -59 305 -59t242 76t84 223z" />
    <glyph glyph-name="ygrave.alt" unicode="&#xe01f;" horiz-adv-x="1163" 
d="M631 1198h-43q-18 0 -39 16l-191 183q-10 8 -7 19t18 11h106q25 0 41 -20l127 -184q6 -9 3 -17t-15 -8zM879 156v139q-90 -207 -359 -207q-184 0 -274 101t-90 282v553q0 27 22 27h72q25 0 24 -27v-537q0 -289 271 -288q145 0 238 88t94 231v506q0 27 24 27h72
q23 0 22 -27v-877q-1 -193 -115 -295t-317 -102t-338 64q-18 10 -16 26l10 62q4 23 29 14q147 -59 305 -59t242 76t84 223z" />
    <glyph glyph-name="i.dot" unicode="&#xe020;" horiz-adv-x="464" 
d="M293 1395v-170q0 -25 -25 -25h-71q-23 0 -23 25v170q0 25 23 24h71q25 1 25 -24zM293 1024v-999q0 -25 -25 -25h-71q-23 0 -23 25v999q0 27 23 27h71q25 0 25 -27z" />
    <glyph glyph-name="dollar.old" unicode="&#xe021;" horiz-adv-x="1046" 
d="M586 1331v-127q166 -8 280 -55q33 -14 23 -33l-23 -53q-12 -29 -39 -16q-111 47 -265 47t-236 -50q-80 -50 -80 -128q0 -77 39 -115l37 -37q14 -14 55 -32t58 -27q17 -8 105 -40q180 -65 292 -149t112 -220t-96 -215t-262 -91v-131q0 -27 -29 -27h-45q-25 0 -25 27v127
q-213 0 -364 55q-27 8 -21 31l23 59q10 27 35 16q129 -53 306 -53q353 0 353 197q0 76 -48 119q-28 25 -47 41t-86 46t-144 59q-78 28 -107 41t-71 31t-57 31t-45 33t-41 40t-31 57q-20 36 -21 118q0 121 93 202t273 95v127q0 27 25 27h45q29 0 29 -27z" />
    <glyph glyph-name="cent.old" unicode="&#xe022;" horiz-adv-x="1011" 
d="M102 589q0 564 476 607v135q0 27 26 27h45q27 0 27 -27v-131q133 -8 244 -61q27 -12 18 -33l-25 -55q-10 -25 -36 -15q-102 51 -230 51q-420 -1 -420 -497t422 -496q117 0 236 56q25 14 37 -15l22 -55q6 -16 -18 -31q-98 -57 -250 -65v-123q0 -27 -27 -27h-45
q-27 0 -26 27v125q-476 39 -476 603z" />
    <glyph glyph-name="sterling.old" unicode="&#xe023;" horiz-adv-x="1165" 
d="M301 864q0 -90 78 -217h362q29 0 29 -24v-41q0 -27 -29 -27h-321q45 -90 45 -178q0 -172 -148 -262q73 16 143 16t187 -20q117 -21 197 -21t115 47q34 47 34 135q0 29 27 29h51q31 0 31 -33q0 -141 -51 -214t-191 -72q-70 0 -204 22t-201 21q-164 0 -285 -45
q-27 -12 -37 6l-35 57q-12 18 11 29q244 104 243 307q0 94 -55 176h-168q-27 0 -27 27v41q0 25 27 24h123q-74 115 -74 219q0 142 112 238t322 96t316 -83t106 -220q0 -74 -28 -74h-60q-27 0 -26 23l2 47q0 90 -77 144q-77 55 -227 55t-234 -69q-83 -69 -83 -159z" />
    <glyph glyph-name="yen.old" unicode="&#xe024;" horiz-adv-x="1095" 
d="M936 295h-328v-268q0 -27 -24 -27h-70q-27 0 -27 27v268h-327q-27 0 -27 24v37q0 27 27 27h329v51l-73 117h-256q-27 0 -27 24v39q0 25 27 25h209l-320 514q-8 9 -4 21t21 12h71q25 0 37 -23l373 -618h4l373 618q14 23 37 23h69q37 0 19 -33l-322 -514h209q27 0 27 -25
v-39q0 -25 -27 -24h-258l-70 -117v-51h328q27 0 27 -27v-37q0 -24 -27 -24z" />
    <glyph glyph-name="Euro.old" unicode="&#xe025;" horiz-adv-x="1081" 
d="M47 528h119q-2 22 -2 56t4 88h-121q-27 0 -27 22v43q0 23 27 23h127q37 200 174 318t365 118q172 0 299 -72q29 -14 18 -28l-29 -52q-16 -29 -38 -18q-115 57 -242 57q-181 0 -285 -86t-135 -237h492q29 0 18 -29l-12 -37q-8 -23 -35 -22h-473q-4 -25 -4 -73t2 -71h389
q29 0 18 -28l-12 -37q-8 -23 -33 -23h-352q29 -158 135 -250t289 -92q123 0 246 56q27 10 39 -15l26 -51q8 -16 -16 -31q-117 -72 -303 -71q-229 0 -368 124q-138 124 -175 330h-125q-27 0 -27 25v41q0 22 27 22z" />
    <glyph glyph-name="zero.old" unicode="&#xe026;" horiz-adv-x="1165" 
d="M234 590q0 -490 349 -490t349 491t-350 490q-348 -1 -348 -491zM583 1194q228 0 351 -157t123 -449t-122 -447t-351 -155t-352 155q-122 156 -122 448q0 293 123 449q122 156 350 156z" />
    <glyph glyph-name="one.old" unicode="&#xe027;" horiz-adv-x="1019" 
d="M891 0h-678q-25 0 -25 25v63q0 23 25 23h293v933l-260 -182q-18 -12 -35 4l-41 43q-14 18 2 31l326 240q14 10 30 10h74q25 0 25 -25v-1054h264q25 0 24 -23v-63q1 -25 -24 -25z" />
    <glyph glyph-name="two.old" unicode="&#xe028;" horiz-adv-x="1042" 
d="M133 756q-19 0 -27 24t-8 88q0 146 98 238t310 92q213 0 314 -96t102 -248q0 -225 -224 -434q-106 -100 -193 -166t-206 -143h625q25 0 24 -25v-61q0 -25 -24 -25h-807q-25 0 -25 25v51q0 20 19 33q303 205 413 301q276 238 277 440q0 100 -72 169q-73 69 -227 69
t-220 -63q-66 -62 -67 -159l8 -86q0 -25 -28 -24h-62z" />
    <glyph glyph-name="three.old" unicode="&#xe029;" horiz-adv-x="1046" 
d="M311 590h146q147 0 237 66t90 185t-88 183t-263 64t-322 -64q-25 -12 -31 12l-25 64q-4 14 17 26q156 74 374 74t340 -94t121 -250q0 -121 -61 -202t-166 -105q116 -29 194 -115t78 -237q0 -215 -135 -325t-369 -110t-403 78q-20 14 -16 27l26 70q6 23 31 14
q166 -74 355 -74t289 81q99 80 99 230t-100 221t-270 70h-148q-27 0 -26 25v63q-1 23 26 23z" />
    <glyph glyph-name="four.old" unicode="&#xe02a;" horiz-adv-x="1214" 
d="M836 1182h82q25 0 24 -27v-919h219q25 0 25 -27v-59q0 -27 -25 -27h-219v-322q0 -27 -24 -26h-74q-27 0 -27 26v322h-729q-25 0 -25 27v63q0 18 11 33l731 915q17 21 31 21zM819 236v768l-614 -768h614z" />
    <glyph glyph-name="five.old" unicode="&#xe02b;" horiz-adv-x="1134" 
d="M911 1071h-626q-8 -279 -31 -481q147 61 297 61q239 -1 355 -115t116 -329t-131 -330t-371 -115t-411 82q-25 10 -19 27l27 66q10 25 30 14q161 -78 357 -78t294 89q97 89 97 251t-82 245t-270 83q-109 0 -217 -31t-116 -31q-9 0 -24 4l-34 13q-16 8 -15 30
q37 369 41 627q0 29 31 29h702q25 0 25 -25v-61q0 -25 -25 -25z" />
    <glyph glyph-name="six.old" unicode="&#xe02c;" horiz-adv-x="1148" 
d="M236 465q0 -181 92 -275t256 -94t257 94t93 275q0 369 -350 369q-164 0 -256 -94t-92 -275zM690 1436q14 0 18 -10t-6 -17q-138 -123 -248 -282t-161 -302q98 121 312 121t332 -125t118 -355t-125 -356t-345 -126t-345 126t-125 359q-1 495 448 948q18 18 41 19h86z" />
    <glyph glyph-name="seven.old" unicode="&#xe02d;" horiz-adv-x="1062" 
d="M106 1182h850q27 0 27 -25v-53q0 -18 -18 -41q-178 -225 -330 -602t-170 -662q0 -25 -27 -24h-71q-27 0 -27 24q18 293 173 664t331 608h-738q-27 0 -26 25v61q-1 25 26 25z" />
    <glyph glyph-name="eight.old" unicode="&#xe02e;" horiz-adv-x="1216" 
d="M225 371q-1 -123 103 -202t280 -79t280 79q103 79 103 202q0 249 -383 319q-383 -70 -383 -319zM608 1350q-166 0 -257 -67t-91 -181t86 -187q86 -72 262 -114q174 43 261 115t87 186q0 116 -91 182t-257 66zM608 -16q-233 0 -370 106t-138 275q0 305 385 383
q-158 41 -252 131q-94 91 -94 237t123 243t346 97t346 -97t123 -245t-94 -236q-94 -89 -252 -130q385 -78 385 -383q0 -168 -137 -275q-138 -106 -371 -106z" />
    <glyph glyph-name="nine.old" unicode="&#xe02f;" horiz-adv-x="1150" 
d="M918 717q0 180 -94 275t-259 95q-164 0 -255 -94t-91 -276q0 -367 348 -367q163 0 257 94t94 273zM471 -201q-14 -1 -18 9t8 20q127 111 233 255t162 271q-98 -116 -311 -116t-330 124t-117 354q0 232 124 358t344 126t346 -126t126 -357q0 -291 -144 -523
q-119 -191 -298 -374q-16 -20 -39 -21h-86z" />
    <glyph glyph-name="dollar.tab" unicode="&#xe030;" horiz-adv-x="1296" 
d="M709 1618v-162q180 -2 321 -61q23 -12 14 -31l-22 -66q-8 -23 -33 -14q-135 57 -307 57q-172 -1 -264 -67t-92 -162t32 -134q32 -36 48 -53t59 -40l61 -29q37 -21 152 -63q215 -88 289 -144q149 -109 149 -282t-110 -266t-293 -111v-170q0 -25 -25 -25h-49q-25 0 -25 25
v162q-256 0 -413 67q-27 12 -21 31l23 65q8 23 35 13q160 -62 349 -62t296 66q106 66 106 194q0 75 -21 109q-20 33 -32 50t-43 37t-45 32t-56 30t-91 40t-95 36q-201 80 -266 127q-143 102 -143 285q0 146 106 242t305 110v164q0 23 27 22h49q25 1 25 -22z" />
    <glyph glyph-name="cent.tab" unicode="&#xe031;" horiz-adv-x="1296" 
d="M240 524q0 244 121 388q122 144 331 161v156q0 27 25 26h49q25 0 25 -26v-158q152 -6 256 -65q20 -12 14 -27l-25 -57q-8 -27 -32 -13q-100 55 -267 55t-271 -112q-104 -113 -104 -328q0 -216 102 -326t272 -110q172 0 280 59q20 12 33 -12l22 -57q4 -16 -16 -29
q-102 -59 -264 -67v-162q0 -25 -25 -25h-49q-25 0 -25 25v162q-213 16 -333 157q-119 141 -119 385z" />
    <glyph glyph-name="sterling.tab" unicode="&#xe032;" horiz-adv-x="1296" 
d="M326 1068q0 -108 102 -294h453q25 0 24 -22v-52q0 -25 -24 -24h-412q72 -125 72 -224q1 -98 -59 -192t-173 -143q93 29 189 29t227 -24t231 -24t141 58q40 58 42 170q0 29 26 28h56q29 0 28 -32q0 -164 -62 -250t-229 -86q-102 0 -239 28t-236 27q-182 0 -317 -57
q-25 -8 -33 4l-37 63q-12 16 6 27q315 174 316 381q0 92 -76 217h-221q-23 0 -23 24v52q0 23 23 22h178q-98 172 -98 285q0 167 130 283q129 116 367 116t357 -98t119 -254q0 -84 -31 -84h-62q-25 0 -24 22l4 60q0 102 -90 171t-266 69t-278 -84q-101 -84 -101 -192z" />
    <glyph glyph-name="yen.tab" unicode="&#xe033;" horiz-adv-x="1296" 
d="M715 377v-350q0 -27 -27 -27h-76q-27 0 -26 27v350h-418q-23 0 -23 24v50q0 23 23 22h418v57l-90 148h-328q-23 0 -23 22v50q0 23 23 22h278l-380 635q-16 29 16 29h84q23 0 35 -23l448 -762h2l449 762q14 23 35 23h82q33 0 16 -29l-381 -635h278q25 0 25 -22v-50
q0 -23 -25 -22h-327l-88 -148v-57h415q25 0 25 -22v-50q0 -25 -25 -24h-415z" />
    <glyph glyph-name="Euro.tab" unicode="&#xe034;" horiz-adv-x="1296" 
d="M78 616h151q-4 66 -4 115t4 86h-151q-23 0 -23 25v51q0 23 23 22h162q43 238 206 391q164 153 431 152q201 0 348 -84q23 -10 14 -28l-29 -62q-10 -27 -34 -14q-131 70 -289 69q-217 1 -349 -117t-169 -307h600q23 0 16 -26l-16 -47q-8 -25 -33 -25h-578q-4 -31 -4 -85
t4 -116h476q23 0 14 -24l-14 -47q-10 -25 -35 -25h-428q37 -188 169 -306t353 -118q160 0 295 74q20 8 33 -16l28 -64q6 -16 -12 -27q-152 -84 -354 -83q-270 0 -436 151q-165 152 -209 389h-160q-23 0 -23 25v49q0 22 23 22z" />
    <glyph glyph-name="zero.tab" unicode="&#xe035;" horiz-adv-x="1296" 
d="M647 96q213 0 320 161q106 161 106 463t-106 462t-320 159q-424 0 -424 -622q-1 -303 105 -463t319 -160zM647 1458q269 0 411 -191t142 -547t-142 -546q-142 -192 -410 -192t-411 191t-143 547t142 546q142 192 411 192z" />
    <glyph glyph-name="one.tab" unicode="&#xe036;" horiz-adv-x="1296" 
d="M713 27v1259l-320 -229q-18 -12 -31 4l-45 51q-14 14 5 27l378 286q12 10 33 11h82q25 0 25 -25v-1384q0 -27 -25 -27h-76q-26 0 -26 27z" />
    <glyph glyph-name="two.tab" unicode="&#xe037;" horiz-adv-x="1296" 
d="M1116 115q27 0 27 -27v-61q0 -27 -27 -27h-923q-27 0 -27 27v51q0 20 18 35q807 524 807 909q0 322 -352 321q-184 1 -264 -75t-80 -195l10 -110q0 -23 -24 -23h-68q-39 0 -39 150t116 260q116 108 358 108t358 -118q115 -118 114 -314q0 -418 -743 -911h739z" />
    <glyph glyph-name="three.tab" unicode="&#xe038;" horiz-adv-x="1296" 
d="M948 1075q0 269 -356 269q-180 0 -346 -70q-20 -10 -29 12l-27 64q-6 16 19 26q172 82 396 82t347 -96t123 -270q0 -264 -233 -330q118 -25 196 -111t78 -245q0 -209 -134 -317q-134 -107 -377 -107t-415 81q-23 6 -16 25l25 68q6 23 30 14q177 -76 367 -76t291 80
q100 80 100 232q0 289 -352 288h-150q-27 0 -26 25v61q-1 25 26 25h148q147 1 231 69t84 201z" />
    <glyph glyph-name="four.tab" unicode="&#xe039;" horiz-adv-x="1296" 
d="M891 449v808l-660 -808h660zM989 0h-76q-25 0 -24 27v311h-774q-25 0 -25 27v63q0 18 12 33l775 956q16 18 32 19h80q25 0 25 -25v-962h227q27 0 27 -25v-59q0 -27 -27 -27h-227v-311q0 -27 -25 -27z" />
    <glyph glyph-name="five.tab" unicode="&#xe03a;" horiz-adv-x="1296" 
d="M1137 434q-1 -215 -137 -334q-136 -118 -387 -118t-429 81q-25 14 -16 33l27 62q8 23 30 14q170 -78 376 -78q405 0 407 348q0 160 -87 244t-286 84q-119 0 -229 -32t-117 -32q-8 0 -23 7l-35 12q-16 6 -14 31q39 344 43 653q0 27 29 27h737q27 0 27 -25v-61
q0 -27 -27 -27h-659q-4 -231 -33 -502q143 59 313 60q248 0 369 -116t121 -331z" />
    <glyph glyph-name="six.tab" unicode="&#xe03b;" horiz-adv-x="1296" 
d="M687 94q175 0 272 109t97 275t-87 267q-89 103 -273 103t-288 -112t-104 -258t104 -265t279 -119zM709 956q239 0 357 -132t118 -348t-130 -355t-362 -139q-268 0 -411 186t-143 525t149 552q150 213 440 213q160 0 289 -55q25 -10 18 -27l-24 -65q-8 -23 -31 -15
q-115 49 -244 50q-235 0 -359 -184t-114 -517q27 123 141 217q115 94 306 94z" />
    <glyph glyph-name="seven.tab" unicode="&#xe03c;" horiz-adv-x="1296" 
d="M193 1323q-25 0 -25 27v61q0 25 25 25h880q25 0 25 -25v-57q0 -12 -21 -41q-205 -303 -361 -655t-165 -633q0 -25 -27 -25h-80q-26 0 -24 25q23 303 186 680q164 377 350 618h-763z" />
    <glyph glyph-name="eight.tab" unicode="&#xe03d;" horiz-adv-x="1296" 
d="M260 371q0 -125 101 -203t285 -78t285 78t101 203q0 245 -385 321q-387 -76 -387 -321zM997 1104q0 114 -89 180t-262 66t-261 -66t-88 -180t89 -189q89 -74 261 -116q172 43 261 117t89 188zM647 -18q-242 0 -377 106t-135 272t108 258q108 94 281 130q-158 41 -254 131
q-96 91 -96 239t120 244t352 96t353 -97t121 -245t-97 -237q-97 -90 -253 -131q172 -36 280 -130t108 -258t-135 -272q-134 -106 -376 -106z" />
    <glyph glyph-name="nine.tab" unicode="&#xe03e;" horiz-adv-x="1296" 
d="M609 1341q-177 -1 -274 -109t-97 -273t89 -267t273 -102t289 110q104 112 104 262t-103 265q-104 114 -281 114zM565 90q231 0 357 179q125 179 116 511q-26 -115 -142 -208t-310 -93q-236 0 -356 133t-120 349q0 215 131 355q130 140 361 140q268 0 412 -187t143 -526
q0 -339 -147 -551t-437 -212q-170 0 -290 55q-23 8 -17 26l25 64q8 22 31 14q123 -49 243 -49z" />
    <glyph glyph-name="dollar.tabold" unicode="&#xe03f;" horiz-adv-x="1296" 
d="M707 1331v-127q166 -8 280 -55q33 -14 23 -33l-23 -53q-12 -29 -39 -16q-112 47 -266 47t-235 -50t-81 -128q0 -77 40 -115l36 -37q14 -14 56 -32t58 -27q17 -8 105 -40q180 -65 292 -149t112 -220t-96 -215t-262 -91v-131q0 -27 -29 -27h-45q-25 0 -25 27v127
q-213 0 -364 55q-27 8 -21 31l23 59q10 27 35 16q129 -53 305 -53q354 0 354 197q0 76 -48 119q-28 25 -47 41t-86 46t-144 59q-78 28 -107 41q-28 13 -70 31t-58 31q-15 13 -45 33t-41 40q-12 20 -32 57q-20 36 -20 118q0 121 93 202t273 95v127q0 27 25 27h45q29 0 29 -27
z" />
    <glyph glyph-name="cent.tabold" unicode="&#xe040;" horiz-adv-x="1296" 
d="M250 589q0 564 475 607v135q0 27 27 27h45q27 0 26 -27v-131q133 -8 244 -61q27 -12 18 -33l-24 -55q-10 -25 -37 -15q-102 51 -229 51q-420 -1 -420 -497t422 -496q117 0 235 56q25 14 37 -15l23 -55q6 -16 -19 -31q-98 -57 -250 -65v-123q0 -27 -26 -27h-45
q-27 0 -27 27v125q-475 39 -475 603z" />
    <glyph glyph-name="sterling.tabold" unicode="&#xe041;" horiz-adv-x="1296" 
d="M373 864q0 -90 78 -217h362q29 0 29 -24v-41q0 -27 -29 -27h-321q45 -90 45 -178q0 -172 -148 -262q73 16 143 16t187 -20q117 -21 197 -21t115 47q34 47 34 135q0 29 27 29h51q31 0 31 -33q0 -141 -52 -214t-190 -72q-70 0 -204 22t-202 21q-164 0 -284 -45
q-27 -12 -37 6l-35 57q-12 18 10 29q244 104 244 307q0 94 -55 176h-168q-27 0 -27 27v41q0 25 27 24h123q-74 115 -74 219q0 141 111 238q112 96 323 96t316 -83t106 -220q0 -74 -29 -74h-59q-27 0 -27 23l2 47q0 90 -77 144q-78 55 -228 55t-232 -69t-83 -159z" />
    <glyph glyph-name="yen.tabold" unicode="&#xe042;" horiz-adv-x="1296" 
d="M1036 295h-327v-268q0 -27 -25 -27h-70q-27 0 -26 27v268h-328q-27 0 -27 24v37q0 27 27 27h330v51l-74 117h-256q-27 0 -27 24v39q0 25 27 25h209l-319 514q-8 10 -5 22q4 11 21 11h72q25 0 36 -23l373 -618h4l373 618q14 23 37 23h69q37 0 19 -33l-322 -514h209
q27 0 27 -25v-39q0 -25 -27 -24h-258l-69 -117v-51h327q27 0 27 -27v-37q0 -24 -27 -24z" />
    <glyph glyph-name="Euro.tabold" unicode="&#xe043;" horiz-adv-x="1296" 
d="M156 528h118q-2 22 -2 56t4 88h-120q-27 0 -27 22v43q0 23 27 23h127q37 200 174 318t364 118q172 0 299 -72q29 -14 19 -28l-29 -52q-16 -29 -39 -18q-115 57 -242 57q-180 0 -284 -86t-135 -237h491q29 0 19 -29l-13 -37q-8 -23 -35 -22h-473q-4 -25 -4 -73t2 -71h389
q29 0 19 -28l-12 -37q-8 -23 -33 -23h-352q29 -158 135 -250t288 -92q123 0 246 56q27 10 39 -15l27 -51q8 -16 -17 -31q-117 -72 -303 -71q-229 0 -367 124t-175 330h-125q-27 0 -27 25v41q0 22 27 22z" />
    <glyph glyph-name="zero.tabold" unicode="&#xe044;" horiz-adv-x="1296" 
d="M299 590q0 -490 349 -490t349 491t-350 490q-348 -1 -348 -491zM176 589q0 293 122 449t350 156t351 -157t123 -449t-122 -447t-351 -155t-351 156t-122 447z" />
    <glyph glyph-name="one.tabold" unicode="&#xe045;" horiz-adv-x="1296" 
d="M1044 0h-677q-25 0 -25 25v63q0 23 25 23h292v933l-260 -182q-18 -12 -34 4l-41 43q-14 18 2 31l325 240q14 10 31 10h74q25 0 24 -25v-1054h264q25 0 25 -23v-63q0 -25 -25 -25z" />
    <glyph glyph-name="two.tabold" unicode="&#xe046;" horiz-adv-x="1296" 
d="M258 756q-20 0 -28 24t-7 88q-1 146 97 238t311 92t314 -96t102 -248q0 -225 -224 -434q-106 -100 -193 -166t-206 -143h625q25 0 24 -25v-61q0 -25 -24 -25h-807q-25 0 -25 25v51q0 20 19 33q303 205 413 301q276 238 277 440q0 100 -72 169t-226 69t-222 -63
q-66 -62 -66 -159l8 -86q0 -25 -29 -24h-61z" />
    <glyph glyph-name="three.tabold" unicode="&#xe047;" horiz-adv-x="1296" 
d="M426 590h145q147 0 238 66q90 67 90 185q0 119 -88 183t-263 64t-323 -64q-25 -12 -30 12l-25 64q-4 14 16 26q156 74 374 74t340 -94t122 -250q0 -121 -61 -202t-166 -105q117 -29 195 -115t77 -237q0 -215 -135 -325q-136 -110 -370 -110t-402 78q-20 14 -17 27l27 70
q6 23 31 14q166 -74 355 -74t289 81q99 80 99 230t-100 221t-271 70h-147q-27 0 -27 25v63q0 23 27 23z" />
    <glyph glyph-name="four.tabold" unicode="&#xe048;" horiz-adv-x="1296" 
d="M895 1182h82q25 0 24 -27v-919h220q25 0 24 -27v-59q0 -27 -24 -27h-220v-322q0 -27 -24 -26h-74q-27 0 -26 26v322h-730q-25 0 -24 27v63q0 18 10 33l731 915q17 21 31 21zM879 236v768l-615 -768h615z" />
    <glyph glyph-name="five.tabold" unicode="&#xe049;" horiz-adv-x="1296" 
d="M1006 1071h-627q-8 -279 -31 -481q147 61 297 61q239 -1 355 -115t116 -329t-131 -330t-371 -115t-411 82q-25 10 -19 27l27 66q10 25 31 14q160 -78 356 -78t294 89q97 89 97 251t-82 245t-270 83q-109 0 -217 -31t-116 -31q-9 0 -23 4l-35 13q-16 8 -15 30
q37 369 41 627q0 29 31 29h703q25 0 24 -25v-61q1 -25 -24 -25z" />
    <glyph glyph-name="six.tabold" unicode="&#xe04a;" horiz-adv-x="1296" 
d="M315 465q1 -181 93 -275t256 -94t257 94t93 275q0 369 -350 369q-164 0 -256 -94t-93 -275zM770 1436q14 0 18 -10t-6 -17q-138 -123 -248 -282t-161 -302q98 121 312 121t332 -125t118 -355t-125 -356t-345 -126t-346 126q-125 126 -124 359q-1 495 448 948q18 18 41 19
h86z" />
    <glyph glyph-name="seven.tabold" unicode="&#xe04b;" horiz-adv-x="1296" 
d="M225 1182h850q27 0 27 -25v-53q0 -18 -19 -41q-177 -225 -329 -602t-170 -662q0 -25 -27 -24h-72q-27 0 -26 24q18 293 173 664t331 608h-738q-27 0 -26 25v61q-1 25 26 25z" />
    <glyph glyph-name="eight.tabold" unicode="&#xe04c;" horiz-adv-x="1296" 
d="M272 371q0 -123 104 -202t279 -79q176 0 280 79q103 79 103 202q0 249 -383 319q-383 -70 -383 -319zM655 1350q-166 0 -257 -67t-91 -181t86 -187q86 -72 262 -114q174 43 261 115q88 72 88 186q0 116 -92 182t-257 66zM655 -16q-233 0 -370 106t-138 275q0 305 385 383
q-158 41 -252 131q-94 91 -94 237t123 243t346 97t346 -97t123 -245t-94 -236q-94 -89 -252 -130q385 -78 385 -383q0 -168 -137 -275q-138 -106 -371 -106z" />
    <glyph glyph-name="nine.tabold" unicode="&#xe04d;" horiz-adv-x="1296" 
d="M983 717q0 180 -94 275t-258 95t-255 -94t-91 -276q0 -367 348 -367q164 0 257 94t93 273zM537 -201q-15 -1 -19 9t8 20q127 111 234 255q106 144 162 271q-98 -116 -312 -116t-330 124t-116 354q0 232 124 358t344 126t346 -126t126 -357q0 -292 -145 -523
q-121 -194 -297 -374q-16 -20 -39 -21h-86z" />
    <glyph glyph-name="ampersand.alt" unicode="&#xe04e;" horiz-adv-x="1378" 
d="M641 1071q-186 0 -297 -134t-108 -370q236 28 411 106q90 40 144 100q53 60 53 134t-51 119q-52 45 -152 45zM1257 489h-157q-53 -372 -283 -466q-92 -39 -219 -39q-240 0 -364 144t-124 430t146 452q145 166 385 166q147 0 226 -69t79 -165t-47 -149q215 174 303 401
q8 20 27 14l71 -18q20 -6 13 -21q-240 -602 -1077 -700q27 -379 362 -381q201 -2 302 129t101 352q0 23 23 23h233q23 0 23 -23v-57q0 -23 -23 -23z" />
    <glyph glyph-name="at.cap" unicode="&#xe04f;" horiz-adv-x="1875" 
d="M991 1438q750 0 750 -640q0 -227 -112 -369t-345 -142h-104q-12 0 -21 5q-8 5 -6 17l21 160q-100 -190 -330 -190q-164 0 -252 92t-88 250q0 227 141 381t393 153q162 0 314 -61q16 -8 14 -23l-123 -694h51q190 0 272 115q81 115 81 325q0 535 -658 535q-356 0 -558 -196
t-202 -500t167 -442t536 -138q256 0 416 74q16 4 22 -13l16 -47q2 -10 -12 -16q-168 -82 -442 -82q-406 0 -602 160t-195 500t229 563q228 222 627 223zM1034 1059q-196 0 -306 -121t-110 -311q0 -117 60 -184t178 -66q275 -1 332 325l57 320q-92 37 -211 37z" />
    <glyph glyph-name="paragraph.cap" unicode="&#xe050;" horiz-adv-x="1026" 
d="M977 1343h-80q-61 -1 -87 -25t-26 -87v-1014q0 -227 -204 -227q-66 0 -119 16q-18 10 -17 27l7 45q4 18 26 16q57 -12 84 -12q115 0 115 147v342h-70q-221 0 -362 116q-142 116 -142 318q0 203 134 317t362 114h379q27 0 27 -23v-45q0 -25 -27 -25z" />
    <glyph glyph-name="registered.cap" unicode="&#xe051;" horiz-adv-x="1726" 
d="M121 719q0 313 194 526q195 213 547 213t549 -213t197 -522t-187 -521q-90 -102 -234 -162t-325 -60q-238 0 -408 104t-252 268q-81 164 -81 367zM625 1135h245q344 0 344 -265q0 -215 -239 -254l221 -282q6 -8 3 -16t-11 -7h-78q-14 0 -25 15l-217 278h-161v-270
q0 -23 -25 -23h-57q-25 0 -25 23v780q0 21 25 21zM707 698h153q131 0 190 41q58 41 58 131q0 170 -242 170h-159v-342zM207 717q0 -279 171 -466t485 -187q313 0 485 188t172 467t-171 467t-485 188t-486 -189q-171 -189 -171 -468z" />
    <glyph glyph-name="questiondown.cap" unicode="&#xe052;" horiz-adv-x="1052" 
d="M485 1022q0 25 25 25h65q25 0 25 -27v-76q0 -123 -128 -246q-54 -51 -107 -104q-129 -129 -127 -264q0 -238 329 -238q180 0 357 74q23 8 32 -12l25 -66q4 -16 -16 -27q-165 -84 -397 -84q-232 -1 -345 95t-112 254q0 90 39 167t94 130t109 101q132 117 132 220v78z
M629 1411v-145q0 -23 -25 -23h-117q-25 0 -24 23v145q0 25 24 25h117q25 0 25 -25z" />
    <glyph glyph-name="exclamdown.cap" unicode="&#xe053;" horiz-adv-x="557" 
d="M252 1047h53q25 0 25 -27l22 -995q0 -25 -24 -25h-99q-25 0 -24 25l22 995q0 27 25 27zM197 1266v145q0 25 22 25h119q23 0 22 -25v-145q0 -23 -22 -23h-119q-22 0 -22 23z" />
    <glyph glyph-name="parenleft.cap" unicode="&#xe054;" horiz-adv-x="737" 
d="M197 718q0 355 303 718q14 18 32 18h62q12 0 15 -9t-3 -15q-123 -146 -204 -332q-164 -377 0 -759q81 -187 204 -331q12 -12 4 -18t-16 -6h-62q-20 0 -32 16q-303 363 -303 718z" />
    <glyph glyph-name="parenright.cap" unicode="&#xe055;" horiz-adv-x="737" 
d="M543 718q0 -204 -88 -389t-215 -329q-12 -16 -35 -16h-62q-12 0 -15 9t3 15q287 356 287 710t-287 712q-6 6 -3 15t15 9h62q20 0 35 -18q125 -142 214 -328t89 -390z" />
    <glyph glyph-name="bracketleft.cap" unicode="&#xe056;" horiz-adv-x="737" 
d="M612 76v-51q0 -25 -24 -25h-318q-27 0 -26 25v1388q0 23 26 23h318q25 0 24 -23v-53q0 -25 -24 -25h-226v-1235h226q24 1 24 -24z" />
    <glyph glyph-name="bracketright.cap" unicode="&#xe057;" horiz-adv-x="737" 
d="M125 25v51q0 25 25 24h225v1235h-223q-27 0 -27 25v53q0 23 27 23h317q25 0 25 -23v-1388q0 -25 -25 -25h-317q-27 0 -27 25z" />
    <glyph glyph-name="braceleft.cap" unicode="&#xe058;" horiz-adv-x="737" 
d="M96 688v62q0 23 27 22h33q143 0 143 342q0 174 51 248t209 74h68q25 0 24 -23v-55q0 -25 -24 -25h-49q-106 0 -136 -54t-30 -181q0 -332 -146 -379q145 -49 146 -379q0 -129 30 -183t136 -55h49q25 0 24 -24v-53q0 -25 -24 -25h-68q-158 0 -209 74t-51 250
q0 342 -143 342h-33q-27 -1 -27 22z" />
    <glyph glyph-name="braceright.cap" unicode="&#xe059;" horiz-adv-x="737" 
d="M641 750v-62q0 -23 -25 -22h-34q-141 0 -142 -342q0 -174 -52 -249t-208 -75h-67q-27 0 -27 25v53q0 25 27 24h49q104 0 134 54t30 184q0 328 147 379q-147 47 -147 379q0 127 -30 181t-134 54h-49q-27 0 -27 25v55q0 23 27 23h67q156 0 208 -74t52 -248q0 -342 142 -342
h34q25 1 25 -22z" />
    <glyph glyph-name="guillemotleft.cap" unicode="&#xe05a;" horiz-adv-x="802" 
d="M399 717q0 8 2 14l172 273q10 20 33 20h62q33 0 14 -29l-174 -276l174 -279q16 -27 -14 -26h-62q-20 0 -33 18l-172 273q-2 4 -2 12zM82 718q0 7 2 13l172 273q10 20 33 20h61q14 0 18 -9t-3 -20l-175 -278l175 -277q8 -10 4 -18t-19 -8h-61q-20 0 -33 18l-172 273
q-2 6 -2 13z" />
    <glyph glyph-name="guillemotright.cap" unicode="&#xe05b;" horiz-adv-x="802" 
d="M406 718q0 -7 -5 -13l-172 -273q-12 -18 -30 -18h-62q-31 0 -14 26l174 277l-174 278q-18 29 14 29h62q20 0 30 -20l172 -273q5 -6 5 -13zM723 718q0 -7 -4 -13l-172 -273q-10 -18 -31 -18h-63q-29 0 -13 26l174 277l-174 278q-8 13 -4 21t17 8h63q20 0 31 -20l172 -273
q4 -6 4 -13z" />
    <glyph glyph-name="guilsinglleft.cap" unicode="&#xe05c;" horiz-adv-x="485" 
d="M80 718q0 7 4 13l172 273q10 20 33 20h61q14 0 18 -9t-3 -20l-175 -278l175 -277q8 -10 4 -18t-19 -8h-61q-20 0 -33 18l-172 273q-4 6 -4 13z" />
    <glyph glyph-name="guilsinglright.cap" unicode="&#xe05d;" horiz-adv-x="485" 
d="M406 718q0 -7 -5 -13l-172 -273q-12 -18 -30 -18h-62q-31 0 -14 26l174 277l-174 278q-18 29 14 29h62q20 0 30 -20l172 -273q5 -6 5 -13z" />
    <glyph glyph-name="hyphen.cap" unicode="&#xe05e;" horiz-adv-x="798" 
d="M682 666h-569q-23 0 -23 22v60q0 23 25 22h567q25 0 25 -22v-60q0 -22 -25 -22z" />
    <glyph glyph-name="endash.cap" unicode="&#xe05f;" horiz-adv-x="1058" 
d="M940 666h-825q-20 0 -21 22v60q0 23 23 22h823q25 0 25 -22v-60q0 -22 -25 -22z" />
    <glyph glyph-name="emdash.cap" unicode="&#xe060;" horiz-adv-x="1560" 
d="M1442 666h-1327q-20 0 -21 22v60q0 23 23 22h1325q27 0 26 -22v-60q1 -22 -26 -22z" />
    <glyph glyph-name="periodcentered.cap" unicode="&#xe061;" horiz-adv-x="440" 
d="M141 649v142q0 25 25 24h108q25 0 25 -24v-142q0 -25 -23 -24h-110q-25 -1 -25 24z" />
    <glyph glyph-name="bullet.cap" unicode="&#xe062;" horiz-adv-x="737" 
d="M369 459q-111 0 -185 75q-74 76 -74 188t74 186t185 73q111 0 185 -74q74 -75 73 -187q1 -112 -73 -186t-185 -75z" />
    <glyph glyph-name="bar.cap" unicode="&#xe063;" horiz-adv-x="536" 
d="M326 1544v-1650q0 -25 -25 -25h-65q-25 0 -25 25v1650q0 25 25 25h65q25 0 25 -25z" />
    <glyph glyph-name="brokenbar.cap" unicode="&#xe064;" horiz-adv-x="536" 
d="M326 520v-626q0 -25 -25 -25h-65q-25 0 -25 25v626q0 25 25 25h65q25 0 25 -25zM326 1544v-626q0 -25 -25 -25h-65q-25 0 -25 25v626q0 25 25 25h65q25 0 25 -25z" />
    </font>
</defs>
</svg>
